<svg width="21" height="24" viewBox="0 0 21 24" fill="none" xmlns="http://www.w3.org/2000/svg">
<path d="M10.3749 4.8877C9.77817 4.8877 9.26999 4.67799 8.85038 4.25858C8.43077 3.83897 8.22096 3.33079 8.22096 2.73404C8.22096 2.13729 8.43077 1.6291 8.85038 1.20949C9.26999 0.789882 9.77817 0.580078 10.3749 0.580078C10.9717 0.580078 11.4798 0.789882 11.8995 1.20949C12.3191 1.6291 12.5289 2.13729 12.5289 2.73404C12.5289 3.33079 12.3191 3.83897 11.8995 4.25858C11.4798 4.67799 10.9717 4.8877 10.3749 4.8877ZM7.34625 23.375V8.16341C6.15703 8.06619 4.97461 7.92599 3.799 7.74283C2.62339 7.55947 1.50981 7.33323 0.458252 7.06412L0.884668 5.31412C2.37878 5.70009 3.92724 5.9798 5.53004 6.15324C7.13266 6.32669 8.74761 6.41341 10.3749 6.41341C12.0022 6.41341 13.6172 6.32669 15.2198 6.15324C16.8226 5.9798 18.3711 5.70009 19.8652 5.31412L20.2916 7.06412C19.24 7.33323 18.1264 7.55947 16.9508 7.74283C15.7752 7.92599 14.5928 8.06619 13.4036 8.16341V23.375H11.6539V16.2402H9.09596V23.375H7.34625Z" fill="#1C1B1F"/>
</svg>
