<svg width="23" height="24" viewBox="0 0 23 24" fill="none" xmlns="http://www.w3.org/2000/svg">
<path d="M4.40191 18.1743C5.39358 17.4385 6.47391 16.8574 7.64291 16.431C8.81172 16.0048 10.0558 15.7917 11.3751 15.7917C12.6944 15.7917 13.9384 16.0048 15.1072 16.431C16.2762 16.8574 17.3566 17.4385 18.3482 18.1743C19.0735 17.3771 19.6482 16.4543 20.0723 15.4058C20.4964 14.3574 20.7084 13.2221 20.7084 12C20.7084 9.41391 19.7994 7.21183 17.9813 5.39377C16.1633 3.57571 13.9612 2.66669 11.3751 2.66669C8.78897 2.66669 6.58689 3.57571 4.76883 5.39377C2.95078 7.21183 2.04175 9.41391 2.04175 12C2.04175 13.2221 2.25379 14.3574 2.67787 15.4058C3.10196 16.4543 3.67664 17.3771 4.40191 18.1743ZM11.3754 12.875C10.3102 12.875 9.41197 12.5095 8.68066 11.7784C7.94916 11.047 7.58341 10.1488 7.58341 9.08365C7.58341 8.01848 7.94897 7.12024 8.68008 6.38894C9.41139 5.65744 10.3096 5.29169 11.3748 5.29169C12.44 5.29169 13.3382 5.65724 14.0695 6.38835C14.801 7.11966 15.1667 8.01789 15.1667 9.08306C15.1667 10.1482 14.8012 11.0465 14.0701 11.7778C13.3388 12.5093 12.4405 12.875 11.3754 12.875ZM11.3751 23.0834C9.83605 23.0834 8.3923 22.7939 7.04383 22.2151C5.69536 21.6362 4.52237 20.8479 3.52487 19.8502C2.52718 18.8527 1.7389 17.6797 1.16004 16.3313C0.581179 14.9828 0.291748 13.539 0.291748 12C0.291748 10.461 0.581179 9.01724 1.16004 7.66877C1.7389 6.3203 2.52718 5.14731 3.52487 4.14981C4.52237 3.15212 5.69536 2.36384 7.04383 1.78498C8.3923 1.20612 9.83605 0.916687 11.3751 0.916687C12.9141 0.916687 14.3579 1.20612 15.7063 1.78498C17.0548 2.36384 18.2278 3.15212 19.2253 4.14981C20.223 5.14731 21.0113 6.3203 21.5901 7.66877C22.169 9.01724 22.4584 10.461 22.4584 12C22.4584 13.539 22.169 14.9828 21.5901 16.3313C21.0113 17.6797 20.223 18.8527 19.2253 19.8502C18.2278 20.8479 17.0548 21.6362 15.7063 22.2151C14.3579 22.7939 12.9141 23.0834 11.3751 23.0834ZM11.3751 21.3334C12.428 21.3334 13.4432 21.164 14.4207 20.8253C15.3981 20.4864 16.266 20.0126 17.0244 19.404C16.266 18.8175 15.4094 18.3606 14.4545 18.0331C13.4994 17.7055 12.4729 17.5417 11.3751 17.5417C10.2772 17.5417 9.24893 17.7036 8.29012 18.0273C7.33132 18.3513 6.47654 18.8101 5.72579 19.404C6.48412 20.0126 7.35203 20.4864 8.3295 20.8253C9.30697 21.164 10.3222 21.3334 11.3751 21.3334ZM11.3751 11.125C11.9555 11.125 12.4408 10.9298 12.8311 10.5394C13.2215 10.1491 13.4167 9.66377 13.4167 9.08335C13.4167 8.50294 13.2215 8.0176 12.8311 7.62735C12.4408 7.23691 11.9555 7.04169 11.3751 7.04169C10.7947 7.04169 10.3093 7.23691 9.91908 7.62735C9.52864 8.0176 9.33341 8.50294 9.33341 9.08335C9.33341 9.66377 9.52864 10.1491 9.91908 10.5394C10.3093 10.9298 10.7947 11.125 11.3751 11.125Z" fill="#1C1B1F"/>
</svg>
