<svg width="20" height="24" viewBox="0 0 20 24" fill="none" xmlns="http://www.w3.org/2000/svg">
<path d="M1.93376 20.1668C1.6032 20.1668 1.32612 20.055 1.10251 19.8314C0.878895 19.6078 0.76709 19.3307 0.76709 19.0002C0.76709 18.6696 0.878895 18.3925 1.10251 18.1689C1.32612 17.9453 1.6032 17.8335 1.93376 17.8335H3.10042V9.66683C3.10042 8.05294 3.58653 6.61891 4.55876 5.36475C5.53098 4.11058 6.79487 3.28905 8.35042 2.90016V2.0835C8.35042 1.59739 8.52056 1.18419 8.86084 0.843913C9.20112 0.503635 9.61431 0.333496 10.1004 0.333496C10.5865 0.333496 10.9997 0.503635 11.34 0.843913C11.6803 1.18419 11.8504 1.59739 11.8504 2.0835V2.90016C13.406 3.28905 14.6699 4.11058 15.6421 5.36475C16.6143 6.61891 17.1004 8.05294 17.1004 9.66683V17.8335H18.2671C18.5976 17.8335 18.8747 17.9453 19.0983 18.1689C19.3219 18.3925 19.4338 18.6696 19.4338 19.0002C19.4338 19.3307 19.3219 19.6078 19.0983 19.8314C18.8747 20.055 18.5976 20.1668 18.2671 20.1668H1.93376ZM10.1004 23.6668C9.45876 23.6668 8.90945 23.4384 8.45251 22.9814C7.99556 22.5245 7.76709 21.9752 7.76709 21.3335H12.4338C12.4338 21.9752 12.2053 22.5245 11.7483 22.9814C11.2914 23.4384 10.7421 23.6668 10.1004 23.6668Z" fill="#177DB7"/>
</svg>
