<svg width="29" height="28" viewBox="0 0 29 28" fill="none" xmlns="http://www.w3.org/2000/svg">
<mask id="mask0_3048_2674" style="mask-type:alpha" maskUnits="userSpaceOnUse" x="0" y="0" width="29" height="28">
<rect x="0.100098" width="28" height="28" fill="#D9D9D9"/>
</mask>
<g mask="url(#mask0_3048_2674)">
<path d="M7.00049 21.0001C6.71715 21.0001 6.47965 20.9043 6.28799 20.7126C6.09632 20.521 6.00049 20.2835 6.00049 20.0001C6.00049 19.7168 6.09632 19.4793 6.28799 19.2876C6.47965 19.096 6.71715 19.0001 7.00049 19.0001H8.00049V12.0001C8.00049 10.6168 8.41715 9.38762 9.25049 8.31262C10.0838 7.23762 11.1672 6.53346 12.5005 6.20012V5.50012C12.5005 5.08346 12.6463 4.72929 12.938 4.43762C13.2297 4.14596 13.5838 4.00012 14.0005 4.00012C14.4172 4.00012 14.7713 4.14596 15.063 4.43762C15.3547 4.72929 15.5005 5.08346 15.5005 5.50012V6.20012C16.8338 6.53346 17.9172 7.23762 18.7505 8.31262C19.5838 9.38762 20.0005 10.6168 20.0005 12.0001V19.0001H21.0005C21.2838 19.0001 21.5213 19.096 21.713 19.2876C21.9047 19.4793 22.0005 19.7168 22.0005 20.0001C22.0005 20.2835 21.9047 20.521 21.713 20.7126C21.5213 20.9043 21.2838 21.0001 21.0005 21.0001H7.00049ZM14.0005 24.0001C13.4505 24.0001 12.9797 23.8043 12.588 23.4126C12.1963 23.021 12.0005 22.5501 12.0005 22.0001H16.0005C16.0005 22.5501 15.8047 23.021 15.413 23.4126C15.0213 23.8043 14.5505 24.0001 14.0005 24.0001ZM10.0005 19.0001H18.0005V12.0001C18.0005 10.9001 17.6088 9.95846 16.8255 9.17512C16.0422 8.39179 15.1005 8.00012 14.0005 8.00012C12.9005 8.00012 11.9588 8.39179 11.1755 9.17512C10.3922 9.95846 10.0005 10.9001 10.0005 12.0001V19.0001Z" fill="#177DB7"/>
</g>
</svg>
