<svg width="22" height="21" viewBox="0 0 22 21" fill="none" xmlns="http://www.w3.org/2000/svg">
<path d="M10 21C8.61667 21 7.31667 20.7375 6.1 20.2125C4.88333 19.6875 3.825 18.975 2.925 18.075C2.025 17.175 1.3125 16.1167 0.7875 14.9C0.2625 13.6833 0 12.3833 0 11C0 9.61667 0.2625 8.31667 0.7875 7.1C1.3125 5.88333 2.025 4.825 2.925 3.925C3.825 3.025 4.88333 2.3125 6.1 1.7875C7.31667 1.2625 8.61667 1 10 1C10.5667 1 11.1167 1.04167 11.65 1.125C12.1833 1.20833 12.7083 1.34167 13.225 1.525C13.4583 1.60833 13.6458 1.75417 13.7875 1.9625C13.9292 2.17083 14 2.4 14 2.65V4.075C14 4.60833 14.1875 5.0625 14.5625 5.4375C14.9375 5.8125 15.3917 6 15.925 6H16V6.575C16 6.95833 16.1417 7.29167 16.425 7.575C16.7083 7.85833 17.0417 8 17.425 8H18.7C18.95 8 19.175 8.075 19.375 8.225C19.575 8.375 19.7083 8.575 19.775 8.825C19.8583 9.175 19.9167 9.52917 19.95 9.8875C19.9833 10.2458 20 10.6167 20 11C20 12.3833 19.7375 13.6833 19.2125 14.9C18.6875 16.1167 17.975 17.175 17.075 18.075C16.175 18.975 15.1167 19.6875 13.9 20.2125C12.6833 20.7375 11.3833 21 10 21ZM10 16.5C10.9667 16.5 11.8583 16.2667 12.675 15.8C13.4917 15.3333 14.15 14.7 14.65 13.9C14.75 13.7 14.7417 13.5 14.625 13.3C14.5083 13.1 14.3333 13 14.1 13H5.9C5.66667 13 5.49167 13.1 5.375 13.3C5.25833 13.5 5.25 13.7 5.35 13.9C5.85 14.7 6.5125 15.3333 7.3375 15.8C8.1625 16.2667 9.05 16.5 10 16.5ZM6.5 10C6.91667 10 7.27083 9.85417 7.5625 9.5625C7.85417 9.27083 8 8.91667 8 8.5C8 8.08333 7.85417 7.72917 7.5625 7.4375C7.27083 7.14583 6.91667 7 6.5 7C6.08333 7 5.72917 7.14583 5.4375 7.4375C5.14583 7.72917 5 8.08333 5 8.5C5 8.91667 5.14583 9.27083 5.4375 9.5625C5.72917 9.85417 6.08333 10 6.5 10ZM13.5 10C13.9167 10 14.2708 9.85417 14.5625 9.5625C14.8542 9.27083 15 8.91667 15 8.5C15 8.08333 14.8542 7.72917 14.5625 7.4375C14.2708 7.14583 13.9167 7 13.5 7C13.0833 7 12.7292 7.14583 12.4375 7.4375C12.1458 7.72917 12 8.08333 12 8.5C12 8.91667 12.1458 9.27083 12.4375 9.5625C12.7292 9.85417 13.0833 10 13.5 10ZM18 4H17C16.7167 4 16.4792 3.90417 16.2875 3.7125C16.0958 3.52083 16 3.28333 16 3C16 2.71667 16.0958 2.47917 16.2875 2.2875C16.4792 2.09583 16.7167 2 17 2H18V1C18 0.716667 18.0958 0.479167 18.2875 0.2875C18.4792 0.0958333 18.7167 0 19 0C19.2833 0 19.5208 0.0958333 19.7125 0.2875C19.9042 0.479167 20 0.716667 20 1V2H21C21.2833 2 21.5208 2.09583 21.7125 2.2875C21.9042 2.47917 22 2.71667 22 3C22 3.28333 21.9042 3.52083 21.7125 3.7125C21.5208 3.90417 21.2833 4 21 4H20V5C20 5.28333 19.9042 5.52083 19.7125 5.7125C19.5208 5.90417 19.2833 6 19 6C18.7167 6 18.4792 5.90417 18.2875 5.7125C18.0958 5.52083 18 5.28333 18 5V4Z" fill="#AEAEAE"/>
</svg>
