<svg width="40" height="40" viewBox="0 0 40 40" fill="none" xmlns="http://www.w3.org/2000/svg">
<rect width="40" height="40" rx="20" fill="#883BA9" fill-opacity="0.1"/>
<path d="M10.8316 28.8047C9.1297 28.8047 7.75 27.425 7.75 25.723C7.75 25.0994 7.91241 24.5262 8.23722 24.0034C8.56203 23.4806 8.99356 23.0816 9.53182 22.8065C10.6826 22.2379 11.8519 21.8114 13.0398 21.5271C14.2277 21.2427 15.4341 21.1006 16.6591 21.1006C17.8841 21.1006 19.0905 21.2427 20.2784 21.5271C21.4663 21.8114 22.6356 22.2379 23.7864 22.8065C24.3246 23.0816 24.7562 23.4806 25.081 24.0034C25.4058 24.5262 25.5682 25.0994 25.5682 25.723C25.5682 27.425 24.1885 28.8047 22.4865 28.8047H10.8316ZM30.0227 28.8047C28.7926 28.8047 27.7955 27.8075 27.7955 26.5774V25.5029C27.7955 24.6958 27.5681 23.9208 27.1134 23.1779C26.7651 22.6091 27.2156 21.6273 27.8511 21.8297C28.6864 22.0957 29.4659 22.4213 30.1898 22.8065C30.858 23.1734 31.3684 23.5815 31.721 24.0309C32.0737 24.4803 32.25 24.971 32.25 25.5029V26.5774C32.25 27.8075 31.2528 28.8047 30.0227 28.8047ZM16.6591 20C15.4341 20 14.3854 19.5689 13.5131 18.7068C12.6407 17.8447 12.2045 16.8083 12.2045 15.5977C12.2045 14.387 12.6407 13.3506 13.5131 12.4885C14.3854 11.6264 15.4341 11.1953 16.6591 11.1953C17.8841 11.1953 18.9328 11.6264 19.8051 12.4885C20.6775 13.3506 21.1136 14.387 21.1136 15.5977C21.1136 16.8083 20.6775 17.8447 19.8051 18.7068C18.9328 19.5689 17.8841 20 16.6591 20ZM27.7955 15.5977C27.7955 16.8083 27.3593 17.8447 26.4869 18.7068C25.6146 19.5689 24.5659 20 23.3409 20C23.1367 20 22.8769 19.9771 22.5614 19.9312C22.1963 19.8782 22.0564 19.4537 22.2609 19.1466C22.5359 18.734 22.7613 18.2939 22.9372 17.8263C23.2063 17.111 23.3409 16.3681 23.3409 15.5977C23.3409 14.8272 23.2063 14.0844 22.9372 13.369C22.7622 12.9037 22.5381 12.4656 22.2649 12.0546C22.051 11.7328 22.1772 11.2773 22.5614 11.2366C22.8212 11.2091 23.0811 11.1953 23.3409 11.1953C24.5659 11.1953 25.6146 11.6264 26.4869 12.4885C27.3593 13.3506 27.7955 14.387 27.7955 15.5977Z" fill="#883BA9"/>
</svg>
