<svg width="28" height="28" viewBox="0 0 28 28" fill="none" xmlns="http://www.w3.org/2000/svg">
<path d="M4.83164 22.8047C3.1297 22.8047 1.75 21.425 1.75 19.723C1.75 19.0994 1.91241 18.5262 2.23722 18.0034C2.56203 17.4806 2.99356 17.0816 3.53182 16.8065C4.68258 16.2379 5.85189 15.8114 7.03977 15.5271C8.22765 15.2427 9.43409 15.1006 10.6591 15.1006C11.8841 15.1006 13.0905 15.2427 14.2784 15.5271C15.4663 15.8114 16.6356 16.2379 17.7864 16.8065C18.3246 17.0816 18.7562 17.4806 19.081 18.0034C19.4058 18.5262 19.5682 19.0994 19.5682 19.723C19.5682 21.425 18.1885 22.8047 16.4865 22.8047H4.83164ZM24.0227 22.8047C22.7926 22.8047 21.7955 21.8075 21.7955 20.5774V19.5029C21.7955 18.6958 21.5681 17.9208 21.1134 17.1779C20.7651 16.6091 21.2156 15.6273 21.8511 15.8297C22.6864 16.0957 23.4659 16.4213 24.1898 16.8065C24.858 17.1734 25.3684 17.5815 25.721 18.0309C26.0737 18.4803 26.25 18.971 26.25 19.5029V20.5774C26.25 21.8075 25.2528 22.8047 24.0227 22.8047ZM10.6591 14C9.43409 14 8.38542 13.5689 7.51307 12.7068C6.64072 11.8447 6.20455 10.8083 6.20455 9.59766C6.20455 8.38701 6.64072 7.35063 7.51307 6.4885C8.38542 5.62638 9.43409 5.19531 10.6591 5.19531C11.8841 5.19531 12.9328 5.62638 13.8051 6.4885C14.6775 7.35063 15.1136 8.38701 15.1136 9.59766C15.1136 10.8083 14.6775 11.8447 13.8051 12.7068C12.9328 13.5689 11.8841 14 10.6591 14ZM21.7955 9.59766C21.7955 10.8083 21.3593 11.8447 20.4869 12.7068C19.6146 13.5689 18.5659 14 17.3409 14C17.1367 14 16.8769 13.9771 16.5614 13.9312C16.1963 13.8782 16.0564 13.4537 16.2609 13.1466C16.5359 12.734 16.7613 12.2939 16.9372 11.8263C17.2063 11.111 17.3409 10.3681 17.3409 9.59766C17.3409 8.82725 17.2063 8.08435 16.9372 7.36897C16.7622 6.90368 16.5381 6.46555 16.2649 6.05458C16.051 5.73284 16.1772 5.27727 16.5614 5.23658C16.8212 5.20907 17.0811 5.19531 17.3409 5.19531C18.5659 5.19531 19.6146 5.62638 20.4869 6.4885C21.3593 7.35063 21.7955 8.38701 21.7955 9.59766Z" fill="#883BA9"/>
</svg>
