<svg width="83" height="26" viewBox="0 0 83 26" fill="none" xmlns="http://www.w3.org/2000/svg">
<path d="M6.89279 20.482H2.7714L1.73046 23.4299H0.373779L4.19354 13.1289H5.47193L9.2917 23.4299H7.93501L6.89279 20.482ZM3.15261 19.3896H6.51287L4.85456 14.6922H4.81092L3.15261 19.3896ZM17.6718 19.5823C17.6718 21.9304 16.337 23.5013 14.3834 23.5013C13.2847 23.5013 12.4017 23.0228 11.9139 22.1805H11.8844V26H10.6355V15.7348H11.8202V16.9841H11.8485C12.3003 16.1853 13.2847 15.6633 14.3539 15.6633C16.3292 15.6633 17.6718 17.2342 17.6718 19.5823ZM16.3947 19.5823C16.3947 17.8838 15.4898 16.7697 14.1267 16.7697C12.7906 16.7697 11.8793 17.9119 11.8793 19.5823C11.8793 21.2605 12.7906 22.3949 14.1267 22.3949C15.4898 22.3949 16.3947 21.2885 16.3947 19.5823ZM26.3407 19.5823C26.3407 21.9304 25.0059 23.5013 23.0523 23.5013C21.9536 23.5013 21.0706 23.0228 20.5828 22.1805H20.5533V26H19.3045V15.7348H20.4891V16.9841H20.5174C20.9692 16.1853 21.9536 15.6633 23.0228 15.6633C24.9982 15.6633 26.3407 17.2342 26.3407 19.5823ZM25.0623 19.5823C25.0623 17.8838 24.1575 16.7697 22.7943 16.7697C21.4582 16.7697 20.5469 17.9119 20.5469 19.5823C20.5469 21.2605 21.4582 22.3949 22.7943 22.3949C24.1575 22.3949 25.0623 21.2885 25.0623 19.5823ZM27.8232 12.6797H29.0721V23.4299H27.8232V12.6797ZM37.4625 21.2311C37.2468 22.5519 35.9043 23.5013 34.2536 23.5013C32.0781 23.5013 30.7073 21.9955 30.7073 19.6104C30.7073 17.2266 32.0858 15.6633 34.1972 15.6633C36.2649 15.6633 37.5574 17.113 37.5574 19.4394V19.9243H31.9998V19.9958C31.9998 21.4595 32.9047 22.409 34.2832 22.409C35.2522 22.409 36.0056 21.9521 36.229 21.2311H37.4625ZM31.9985 18.9328H36.2559C36.2264 17.626 35.3947 16.7557 34.1741 16.7557C32.9611 16.7557 32.0845 17.6337 31.9985 18.9328ZM46.8245 23.4299H45.6038L42.7826 13.1289H44.1329L46.2084 21.5374H46.2661L48.5996 13.1289H49.9062L52.2396 21.5374H52.2974L54.3729 13.1289H55.7218L52.9007 23.4299H51.68L49.2888 15.2562H49.2169L46.8245 23.4299ZM56.1788 21.2388C56.1788 19.918 57.1992 19.1408 59.0795 19.0259L61.2487 18.8971V18.2552C61.2487 17.2981 60.6172 16.771 59.4749 16.771C58.5777 16.771 57.9102 17.2279 57.7588 17.9553H56.56C56.5959 16.6562 57.8666 15.6633 59.4903 15.6633C61.3206 15.6633 62.4988 16.6345 62.4988 18.148V23.4299H61.3141V22.095H61.2833C60.8457 22.9513 59.8766 23.5013 58.792 23.5013C57.2197 23.5013 56.1788 22.603 56.1788 21.2388ZM61.2474 20.5037V19.8822L59.222 20.0111C58.0591 20.0826 57.4559 20.5037 57.4559 21.2464C57.4559 21.9611 58.081 22.4243 59.0564 22.4243C60.322 22.4243 61.2474 21.6101 61.2474 20.5037ZM64.3548 12.6797H65.6037V23.4299H64.3548V12.6797ZM67.9692 12.6797H69.2181V23.4299H67.9692V12.6797ZM77.6072 21.2311C77.3915 22.5519 76.049 23.5013 74.3984 23.5013C72.2228 23.5013 70.852 21.9955 70.852 19.6104C70.852 17.2266 72.2305 15.6633 74.3419 15.6633C76.4097 15.6633 77.7022 17.113 77.7022 19.4394V19.9243H72.1445V19.9958C72.1445 21.4595 73.0494 22.409 74.4279 22.409C75.397 22.409 76.1504 21.9521 76.3737 21.2311H77.6072ZM72.1445 18.9328H76.402C76.3724 17.626 75.5407 16.7557 74.3201 16.7557C73.1059 16.7557 72.2305 17.6337 72.1445 18.9328ZM80.9918 14.0005V15.7348H82.5V16.7621H80.9918V21.3804C80.9918 22.0874 81.2935 22.409 81.9532 22.409C82.1034 22.409 82.405 22.3873 82.4923 22.3732V23.4222C82.3421 23.458 81.9827 23.486 81.6888 23.486C80.2885 23.486 79.743 22.9079 79.743 21.4302V16.7608H78.6661V15.7335H79.743V13.9992L80.9918 14.0005ZM5.37695 6.53896H2.28751L1.50713 8.74922H0.490579L3.35412 1.02733H4.31163L7.17517 8.74922H6.15862L5.37695 6.53896ZM2.57374 5.72095H5.09329L3.87651 2.27539H3.79051L2.57374 5.72095ZM7.80666 5.86516C7.80666 4.05687 8.77058 2.879 10.2441 2.879C11.0514 2.879 11.7355 3.25929 12.0628 3.8897H12.1437V0.69043H13.0691V8.74922H12.186V7.82913H12.1C11.7342 8.47103 11.045 8.85132 10.2428 8.85132C8.75903 8.85132 7.80666 7.67982 7.80666 5.86516ZM8.76545 5.86516C8.76545 7.21276 9.40079 8.02183 10.461 8.02183C11.516 8.02183 12.1668 7.19744 12.1668 5.86516C12.1668 4.54308 11.5096 3.70849 10.461 3.70849C9.40593 3.70849 8.76545 4.52266 8.76545 5.86516ZM14.5798 5.86516C14.5798 4.05687 15.5437 2.879 17.0172 2.879C17.8246 2.879 18.5087 3.25929 18.836 3.8897H18.9168V0.69043H19.8422V8.74922H18.9592V7.82913H18.8732C18.5074 8.47103 17.8181 8.85132 17.0159 8.85132C15.5322 8.85132 14.5798 7.67982 14.5798 5.86516ZM15.5373 5.86516C15.5373 7.21276 16.1727 8.02183 17.2328 8.02183C18.2879 8.02183 18.9387 7.19744 18.9387 5.86516C18.9387 4.54308 18.2815 3.70849 17.2328 3.70849C16.1778 3.70849 15.5373 4.52266 15.5373 5.86516ZM25.957 1.54161V2.98109H27.3021V3.75188H25.957V7.01623C25.957 7.69514 26.2149 7.98482 26.8182 7.98482C26.9851 7.98482 27.0659 7.97971 27.2379 7.96312V8.73901C27.0556 8.77092 26.8888 8.79261 26.7052 8.79261C25.5103 8.79261 25.0315 8.35362 25.0315 7.25104V3.75188H24.0573V2.98109H25.0315V1.54161H25.957ZM28.2776 5.86516C28.2776 4.00838 29.3005 2.879 30.9524 2.879C32.6043 2.879 33.6273 4.00838 33.6273 5.86516C33.6273 7.71683 32.6043 8.85132 30.9524 8.85132C29.3005 8.85132 28.2776 7.71683 28.2776 5.86516ZM32.6698 5.86516C32.6698 4.49587 32.0511 3.70849 30.9524 3.70849C29.8537 3.70849 29.2351 4.49459 29.2351 5.86516C29.2351 7.22935 29.8537 8.02183 30.9524 8.02183C32.0511 8.02183 32.6698 7.22935 32.6698 5.86516Z" fill="white"/>
</svg>
