<svg width="34" height="34" viewBox="0 0 34 34" fill="none" xmlns="http://www.w3.org/2000/svg">
<path d="M14.6663 24.6663L26.4163 12.9163L24.083 10.583L14.6663 19.9997L9.91634 15.2497L7.58301 17.583L14.6663 24.6663ZM16.9997 33.6663C14.6941 33.6663 12.5275 33.2288 10.4997 32.3538C8.4719 31.4788 6.70801 30.2913 5.20801 28.7913C3.70801 27.2913 2.52051 25.5275 1.64551 23.4997C0.770508 21.4719 0.333008 19.3052 0.333008 16.9997C0.333008 14.6941 0.770508 12.5275 1.64551 10.4997C2.52051 8.4719 3.70801 6.70801 5.20801 5.20801C6.70801 3.70801 8.4719 2.52051 10.4997 1.64551C12.5275 0.770508 14.6941 0.333008 16.9997 0.333008C19.3052 0.333008 21.4719 0.770508 23.4997 1.64551C25.5275 2.52051 27.2913 3.70801 28.7913 5.20801C30.2913 6.70801 31.4788 8.4719 32.3538 10.4997C33.2288 12.5275 33.6663 14.6941 33.6663 16.9997C33.6663 19.3052 33.2288 21.4719 32.3538 23.4997C31.4788 25.5275 30.2913 27.2913 28.7913 28.7913C27.2913 30.2913 25.5275 31.4788 23.4997 32.3538C21.4719 33.2288 19.3052 33.6663 16.9997 33.6663Z" fill="#279457"/>
</svg>
