<svg width="36" height="36" viewBox="0 0 36 36" fill="none" xmlns="http://www.w3.org/2000/svg">
<mask id="mask0_2913_7624" style="mask-type:alpha" maskUnits="userSpaceOnUse" x="0" y="0" width="36" height="36">
<rect width="36" height="36" fill="#D9D9D9"/>
</mask>
<g mask="url(#mask0_2913_7624)">
<path d="M7.5 33C6.675 33 5.96875 32.7063 5.38125 32.1188C4.79375 31.5312 4.5 30.825 4.5 30V9C4.5 8.175 4.79375 7.46875 5.38125 6.88125C5.96875 6.29375 6.675 6 7.5 6H9V3H12V6H24V3H27V6H28.5C29.325 6 30.0312 6.29375 30.6188 6.88125C31.2063 7.46875 31.5 8.175 31.5 9V16.0125C31.5 16.4375 31.3562 16.7937 31.0687 17.0812C30.7812 17.3687 30.425 17.5125 30 17.5125C29.575 17.5125 29.2188 17.3687 28.9313 17.0812C28.6438 16.7937 28.5 16.4375 28.5 16.0125V15H7.5V30H16.2C16.625 30 16.9812 30.1438 17.2687 30.4313C17.5562 30.7188 17.7 31.075 17.7 31.5C17.7 31.925 17.5562 32.2812 17.2687 32.5687C16.9812 32.8562 16.625 33 16.2 33H7.5ZM27 34.5C24.925 34.5 23.1562 33.7688 21.6938 32.3063C20.2313 30.8438 19.5 29.075 19.5 27C19.5 24.925 20.2313 23.1562 21.6938 21.6938C23.1562 20.2313 24.925 19.5 27 19.5C29.075 19.5 30.8438 20.2313 32.3063 21.6938C33.7688 23.1562 34.5 24.925 34.5 27C34.5 29.075 33.7688 30.8438 32.3063 32.3063C30.8438 33.7688 29.075 34.5 27 34.5ZM29.5125 30.5625L30.5625 29.5125L27.75 26.7V22.5H26.25V27.3L29.5125 30.5625Z" fill="#883BA9"/>
</g>
</svg>
