<svg width="24" height="23" viewBox="0 0 24 23" fill="none" xmlns="http://www.w3.org/2000/svg">
<path d="M1.49998 22.5007C1.16942 22.5007 0.892341 22.3888 0.66873 22.1652C0.445119 21.9416 0.333313 21.6645 0.333313 21.334C0.333313 21.0034 0.445119 20.7263 0.66873 20.5027C0.892341 20.2791 1.16942 20.1673 1.49998 20.1673H10.8333V7.12982C10.3278 6.95482 9.89026 6.6826 9.52081 6.31315C9.15137 5.94371 8.87915 5.50621 8.70415 5.00065H4.99998L8.20831 12.5257C8.30554 12.7395 8.36387 12.9583 8.38331 13.1819C8.40276 13.4055 8.39304 13.634 8.35415 13.8673C8.17915 14.7618 7.6979 15.452 6.9104 15.9382C6.1229 16.4243 5.29165 16.6673 4.41665 16.6673C3.54165 16.6673 2.7104 16.4243 1.9229 15.9382C1.1354 15.452 0.654146 14.7618 0.479146 13.8673C0.440257 13.634 0.430535 13.4055 0.44998 13.1819C0.469424 12.9583 0.527757 12.7395 0.62498 12.5257L3.83331 5.00065H2.66665C2.33609 5.00065 2.05901 4.88885 1.8354 4.66523C1.61179 4.44162 1.49998 4.16454 1.49998 3.83398C1.49998 3.50343 1.61179 3.22635 1.8354 3.00273C2.05901 2.77912 2.33609 2.66732 2.66665 2.66732H8.70415C8.93748 1.98676 9.35554 1.42773 9.95831 0.990234C10.5611 0.552734 11.2416 0.333984 12 0.333984C12.7583 0.333984 13.4389 0.552734 14.0416 0.990234C14.6444 1.42773 15.0625 1.98676 15.2958 2.66732H21.3333C21.6639 2.66732 21.941 2.77912 22.1646 3.00273C22.3882 3.22635 22.5 3.50343 22.5 3.83398C22.5 4.16454 22.3882 4.44162 22.1646 4.66523C21.941 4.88885 21.6639 5.00065 21.3333 5.00065H20.1666L23.375 12.5257C23.4722 12.7395 23.5305 12.9583 23.55 13.1819C23.5694 13.4055 23.5597 13.634 23.5208 13.8673C23.3458 14.7618 22.8646 15.452 22.0771 15.9382C21.2896 16.4243 20.4583 16.6673 19.5833 16.6673C18.7083 16.6673 17.8771 16.4243 17.0896 15.9382C16.3021 15.452 15.8208 14.7618 15.6458 13.8673C15.6069 13.634 15.5972 13.4055 15.6166 13.1819C15.6361 12.9583 15.6944 12.7395 15.7916 12.5257L19 5.00065H15.2958C15.1208 5.50621 14.8486 5.94371 14.4791 6.31315C14.1097 6.6826 13.6722 6.95482 13.1666 7.12982V20.1673H22.5C22.8305 20.1673 23.1076 20.2791 23.3312 20.5027C23.5548 20.7263 23.6666 21.0034 23.6666 21.334C23.6666 21.6645 23.5548 21.9416 23.3312 22.1652C23.1076 22.3888 22.8305 22.5007 22.5 22.5007H1.49998ZM17.3958 13.1673H21.7708L19.5833 8.09232L17.3958 13.1673ZM2.22915 13.1673H6.60415L4.41665 8.09232L2.22915 13.1673ZM12 5.00065C12.3305 5.00065 12.6076 4.88885 12.8312 4.66523C13.0548 4.44162 13.1666 4.16454 13.1666 3.83398C13.1666 3.50343 13.0548 3.22635 12.8312 3.00273C12.6076 2.77912 12.3305 2.66732 12 2.66732C11.6694 2.66732 11.3923 2.77912 11.1687 3.00273C10.9451 3.22635 10.8333 3.50343 10.8333 3.83398C10.8333 4.16454 10.9451 4.44162 11.1687 4.66523C11.3923 4.88885 11.6694 5.00065 12 5.00065Z" fill="#FBD304"/>
</svg>
