<svg width="29" height="28" viewBox="0 0 29 28" fill="none" xmlns="http://www.w3.org/2000/svg">
<mask id="mask0_2572_6606" style="mask-type:alpha" maskUnits="userSpaceOnUse" x="0" y="0" width="29" height="28">
<rect x="0.375" width="28" height="28" fill="#D9D9D9"/>
</mask>
<g mask="url(#mask0_2572_6606)">
<path d="M15.5417 24.5V22.1667H17.875V24.5H15.5417ZM13.2083 22.1667V16.3333H15.5417V22.1667H13.2083ZM22.5417 18.6667V14H24.875V18.6667H22.5417ZM20.2083 14V11.6667H22.5417V14H20.2083ZM6.20833 16.3333V14H8.54167V16.3333H6.20833ZM3.875 14V11.6667H6.20833V14H3.875ZM14.375 5.83333V3.5H16.7083V5.83333H14.375ZM5.625 8.75H9.125V5.25H5.625V8.75ZM3.875 10.5V3.5H10.875V10.5H3.875ZM5.625 22.75H9.125V19.25H5.625V22.75ZM3.875 24.5V17.5H10.875V24.5H3.875ZM19.625 8.75H23.125V5.25H19.625V8.75ZM17.875 10.5V3.5H24.875V10.5H17.875ZM20.2083 24.5V21H17.875V18.6667H22.5417V22.1667H24.875V24.5H20.2083ZM15.5417 16.3333V14H20.2083V16.3333H15.5417ZM10.875 16.3333V14H8.54167V11.6667H15.5417V14H13.2083V16.3333H10.875ZM12.0417 10.5V5.83333H14.375V8.16667H16.7083V10.5H12.0417ZM6.5 7.875V6.125H8.25V7.875H6.5ZM6.5 21.875V20.125H8.25V21.875H6.5ZM20.5 7.875V6.125H22.25V7.875H20.5Z" fill="#177DB7"/>
</g>
</svg>
