<svg width="28" height="28" viewBox="0 0 28 28" fill="none" xmlns="http://www.w3.org/2000/svg">
<mask id="mask0_3541_19186" style="mask-type:alpha" maskUnits="userSpaceOnUse" x="0" y="0" width="28" height="28">
<rect width="28" height="28" fill="#D9D9D9"/>
</mask>
<g mask="url(#mask0_3541_19186)">
<path d="M8.16414 19.8333C8.4947 19.8333 8.77178 19.7215 8.99539 19.4979C9.219 19.2743 9.33081 18.9972 9.33081 18.6667C9.33081 18.3361 9.219 18.059 8.99539 17.8354C8.77178 17.6118 8.4947 17.5 8.16414 17.5C7.83359 17.5 7.5565 17.6118 7.33289 17.8354C7.10928 18.059 6.99748 18.3361 6.99748 18.6667C6.99748 18.9972 7.10928 19.2743 7.33289 19.4979C7.5565 19.7215 7.83359 19.8333 8.16414 19.8333ZM6.99748 15.1667H9.33081V8.16667H6.99748V15.1667ZM12.8308 19.8333H20.9975V17.5H12.8308V19.8333ZM12.8308 15.1667H20.9975V12.8333H12.8308V15.1667ZM12.8308 10.5H20.9975V8.16667H12.8308V10.5ZM4.66414 24.5C4.02248 24.5 3.47317 24.2715 3.01623 23.8146C2.55928 23.3576 2.33081 22.8083 2.33081 22.1667V5.83333C2.33081 5.19167 2.55928 4.64236 3.01623 4.18542C3.47317 3.72847 4.02248 3.5 4.66414 3.5H23.3308C23.9725 3.5 24.5218 3.72847 24.9787 4.18542C25.4357 4.64236 25.6641 5.19167 25.6641 5.83333V22.1667C25.6641 22.8083 25.4357 23.3576 24.9787 23.8146C24.5218 24.2715 23.9725 24.5 23.3308 24.5H4.66414Z" fill="#177DB7"/>
</g>
</svg>
