<svg width="28" height="28" viewBox="0 0 28 28" fill="none" xmlns="http://www.w3.org/2000/svg">
<mask id="mask0_3703_3932" style="mask-type:alpha" maskUnits="userSpaceOnUse" x="0" y="0" width="28" height="28">
<rect width="28" height="28" fill="#D9D9D9"/>
</mask>
<g mask="url(#mask0_3703_3932)">
<path d="M5.83333 9.3335H22.1667V7.00016H5.83333V9.3335ZM5.83333 25.6668C5.19167 25.6668 4.64236 25.4384 4.18542 24.9814C3.72847 24.5245 3.5 23.9752 3.5 23.3335V7.00016C3.5 6.3585 3.72847 5.80919 4.18542 5.35225C4.64236 4.8953 5.19167 4.66683 5.83333 4.66683H7V2.3335H9.33333V4.66683H18.6667V2.3335H21V4.66683H22.1667C22.8083 4.66683 23.3576 4.8953 23.8146 5.35225C24.2715 5.80919 24.5 6.3585 24.5 7.00016V13.621C24.1306 13.446 23.7514 13.3002 23.3625 13.1835C22.9736 13.0668 22.575 12.9793 22.1667 12.921V11.6668H5.83333V23.3335H13.1833C13.3194 23.7613 13.4799 24.1696 13.6646 24.5585C13.8493 24.9474 14.0681 25.3168 14.3208 25.6668H5.83333ZM21 26.8335C19.3861 26.8335 18.0104 26.2647 16.8729 25.1272C15.7354 23.9897 15.1667 22.6141 15.1667 21.0002C15.1667 19.3863 15.7354 18.0106 16.8729 16.8731C18.0104 15.7356 19.3861 15.1668 21 15.1668C22.6139 15.1668 23.9896 15.7356 25.1271 16.8731C26.2646 18.0106 26.8333 19.3863 26.8333 21.0002C26.8333 22.6141 26.2646 23.9897 25.1271 25.1272C23.9896 26.2647 22.6139 26.8335 21 26.8335ZM22.9542 23.771L23.7708 22.9543L21.5833 20.7668V17.5002H20.4167V21.2335L22.9542 23.771Z" fill="white"/>
</g>
</svg>
