<svg width="36" height="36" viewBox="0 0 36 36" fill="none" xmlns="http://www.w3.org/2000/svg">
<mask id="mask0_3067_29" style="mask-type:alpha" maskUnits="userSpaceOnUse" x="0" y="0" width="36" height="36">
<rect width="36" height="36" fill="#D9D9D9"/>
</mask>
<g mask="url(#mask0_3067_29)">
<path d="M18 21.0002C17.575 21.0002 17.2188 20.8564 16.9313 20.5689C16.6438 20.2814 16.5 19.9252 16.5 19.5002C16.5 19.0752 16.6438 18.7189 16.9313 18.4314C17.2188 18.1439 17.575 18.0002 18 18.0002C18.425 18.0002 18.7813 18.1439 19.0688 18.4314C19.3563 18.7189 19.5 19.0752 19.5 19.5002C19.5 19.9252 19.3563 20.2814 19.0688 20.5689C18.7813 20.8564 18.425 21.0002 18 21.0002ZM12 21.0002C11.575 21.0002 11.2188 20.8564 10.9312 20.5689C10.6437 20.2814 10.5 19.9252 10.5 19.5002C10.5 19.0752 10.6437 18.7189 10.9312 18.4314C11.2188 18.1439 11.575 18.0002 12 18.0002C12.425 18.0002 12.7812 18.1439 13.0688 18.4314C13.3562 18.7189 13.5 19.0752 13.5 19.5002C13.5 19.9252 13.3562 20.2814 13.0688 20.5689C12.7812 20.8564 12.425 21.0002 12 21.0002ZM24 21.0002C23.575 21.0002 23.2188 20.8564 22.9313 20.5689C22.6438 20.2814 22.5 19.9252 22.5 19.5002C22.5 19.0752 22.6438 18.7189 22.9313 18.4314C23.2188 18.1439 23.575 18.0002 24 18.0002C24.425 18.0002 24.7812 18.1439 25.0688 18.4314C25.3563 18.7189 25.5 19.0752 25.5 19.5002C25.5 19.9252 25.3563 20.2814 25.0688 20.5689C24.7812 20.8564 24.425 21.0002 24 21.0002ZM18 27.0002C17.575 27.0002 17.2188 26.8564 16.9313 26.5689C16.6438 26.2814 16.5 25.9252 16.5 25.5002C16.5 25.0752 16.6438 24.7189 16.9313 24.4314C17.2188 24.1439 17.575 24.0002 18 24.0002C18.425 24.0002 18.7813 24.1439 19.0688 24.4314C19.3563 24.7189 19.5 25.0752 19.5 25.5002C19.5 25.9252 19.3563 26.2814 19.0688 26.5689C18.7813 26.8564 18.425 27.0002 18 27.0002ZM12 27.0002C11.575 27.0002 11.2188 26.8564 10.9312 26.5689C10.6437 26.2814 10.5 25.9252 10.5 25.5002C10.5 25.0752 10.6437 24.7189 10.9312 24.4314C11.2188 24.1439 11.575 24.0002 12 24.0002C12.425 24.0002 12.7812 24.1439 13.0688 24.4314C13.3562 24.7189 13.5 25.0752 13.5 25.5002C13.5 25.9252 13.3562 26.2814 13.0688 26.5689C12.7812 26.8564 12.425 27.0002 12 27.0002ZM24 27.0002C23.575 27.0002 23.2188 26.8564 22.9313 26.5689C22.6438 26.2814 22.5 25.9252 22.5 25.5002C22.5 25.0752 22.6438 24.7189 22.9313 24.4314C23.2188 24.1439 23.575 24.0002 24 24.0002C24.425 24.0002 24.7812 24.1439 25.0688 24.4314C25.3563 24.7189 25.5 25.0752 25.5 25.5002C25.5 25.9252 25.3563 26.2814 25.0688 26.5689C24.7812 26.8564 24.425 27.0002 24 27.0002ZM7.5 33.0002C6.675 33.0002 5.96875 32.7064 5.38125 32.1189C4.79375 31.5314 4.5 30.8252 4.5 30.0002V9.00018C4.5 8.17518 4.79375 7.46893 5.38125 6.88143C5.96875 6.29393 6.675 6.00018 7.5 6.00018H9V3.00018H12V6.00018H24V3.00018H27V6.00018H28.5C29.325 6.00018 30.0312 6.29393 30.6188 6.88143C31.2063 7.46893 31.5 8.17518 31.5 9.00018V30.0002C31.5 30.8252 31.2063 31.5314 30.6188 32.1189C30.0312 32.7064 29.325 33.0002 28.5 33.0002H7.5ZM7.5 30.0002H28.5V15.0002H7.5V30.0002Z" fill="#F83E3E" fill-opacity="0.97"/>
</g>
</svg>
