<svg width="22" height="24" viewBox="0 0 22 24" fill="none" xmlns="http://www.w3.org/2000/svg">
<path d="M11 14.3335C10.6694 14.3335 10.3924 14.2217 10.1687 13.9981C9.94514 13.7745 9.83333 13.4974 9.83333 13.1668C9.83333 12.8363 9.94514 12.5592 10.1687 12.3356C10.3924 12.112 10.6694 12.0002 11 12.0002C11.3306 12.0002 11.6076 12.112 11.8313 12.3356C12.0549 12.5592 12.1667 12.8363 12.1667 13.1668C12.1667 13.4974 12.0549 13.7745 11.8313 13.9981C11.6076 14.2217 11.3306 14.3335 11 14.3335ZM6.33333 14.3335C6.00278 14.3335 5.72569 14.2217 5.50208 13.9981C5.27847 13.7745 5.16667 13.4974 5.16667 13.1668C5.16667 12.8363 5.27847 12.5592 5.50208 12.3356C5.72569 12.112 6.00278 12.0002 6.33333 12.0002C6.66389 12.0002 6.94097 12.112 7.16458 12.3356C7.38819 12.5592 7.5 12.8363 7.5 13.1668C7.5 13.4974 7.38819 13.7745 7.16458 13.9981C6.94097 14.2217 6.66389 14.3335 6.33333 14.3335ZM15.6667 14.3335C15.3361 14.3335 15.059 14.2217 14.8354 13.9981C14.6118 13.7745 14.5 13.4974 14.5 13.1668C14.5 12.8363 14.6118 12.5592 14.8354 12.3356C15.059 12.112 15.3361 12.0002 15.6667 12.0002C15.9972 12.0002 16.2743 12.112 16.4979 12.3356C16.7215 12.5592 16.8333 12.8363 16.8333 13.1668C16.8333 13.4974 16.7215 13.7745 16.4979 13.9981C16.2743 14.2217 15.9972 14.3335 15.6667 14.3335ZM11 19.0002C10.6694 19.0002 10.3924 18.8884 10.1687 18.6647C9.94514 18.4411 9.83333 18.1641 9.83333 17.8335C9.83333 17.5029 9.94514 17.2259 10.1687 17.0022C10.3924 16.7786 10.6694 16.6668 11 16.6668C11.3306 16.6668 11.6076 16.7786 11.8313 17.0022C12.0549 17.2259 12.1667 17.5029 12.1667 17.8335C12.1667 18.1641 12.0549 18.4411 11.8313 18.6647C11.6076 18.8884 11.3306 19.0002 11 19.0002ZM6.33333 19.0002C6.00278 19.0002 5.72569 18.8884 5.50208 18.6647C5.27847 18.4411 5.16667 18.1641 5.16667 17.8335C5.16667 17.5029 5.27847 17.2259 5.50208 17.0022C5.72569 16.7786 6.00278 16.6668 6.33333 16.6668C6.66389 16.6668 6.94097 16.7786 7.16458 17.0022C7.38819 17.2259 7.5 17.5029 7.5 17.8335C7.5 18.1641 7.38819 18.4411 7.16458 18.6647C6.94097 18.8884 6.66389 19.0002 6.33333 19.0002ZM15.6667 19.0002C15.3361 19.0002 15.059 18.8884 14.8354 18.6647C14.6118 18.4411 14.5 18.1641 14.5 17.8335C14.5 17.5029 14.6118 17.2259 14.8354 17.0022C15.059 16.7786 15.3361 16.6668 15.6667 16.6668C15.9972 16.6668 16.2743 16.7786 16.4979 17.0022C16.7215 17.2259 16.8333 17.5029 16.8333 17.8335C16.8333 18.1641 16.7215 18.4411 16.4979 18.6647C16.2743 18.8884 15.9972 19.0002 15.6667 19.0002ZM2.83333 23.6668C2.19167 23.6668 1.64236 23.4384 1.18542 22.9814C0.728472 22.5245 0.5 21.9752 0.5 21.3335V5.00016C0.5 4.3585 0.728472 3.80919 1.18542 3.35225C1.64236 2.8953 2.19167 2.66683 2.83333 2.66683H4V0.333496H6.33333V2.66683H15.6667V0.333496H18V2.66683H19.1667C19.8083 2.66683 20.3576 2.8953 20.8146 3.35225C21.2715 3.80919 21.5 4.3585 21.5 5.00016V21.3335C21.5 21.9752 21.2715 22.5245 20.8146 22.9814C20.3576 23.4384 19.8083 23.6668 19.1667 23.6668H2.83333ZM2.83333 21.3335H19.1667V9.66683H2.83333V21.3335Z" fill="#F83E3E" fill-opacity="0.97"/>
</svg>
