<svg width="17" height="17" viewBox="0 0 17 17" fill="none" xmlns="http://www.w3.org/2000/svg">
<path d="M15.122 16.4434C13.2701 16.4434 11.4405 16.0397 9.63308 15.2323C7.82567 14.4248 6.18122 13.2804 4.69974 11.7989C3.21826 10.3174 2.07382 8.67299 1.26641 6.86558C0.459002 5.05817 0.0552979 3.22855 0.0552979 1.37669C0.0552979 1.11003 0.144187 0.887804 0.321965 0.710026C0.499742 0.532248 0.721965 0.443359 0.988631 0.443359H4.58863C4.79604 0.443359 4.98122 0.51373 5.14419 0.654471C5.30715 0.795211 5.40345 0.961878 5.43308 1.15447L6.01085 4.26558C6.04048 4.50262 6.03308 4.70262 5.98863 4.86558C5.94419 5.02854 5.86271 5.16929 5.74419 5.2878L3.58863 7.46558C3.88493 8.01373 4.23678 8.54336 4.64419 9.05447C5.05159 9.56558 5.49974 10.0582 5.98863 10.5323C6.44789 10.9915 6.92937 11.4174 7.43308 11.81C7.93678 12.2026 8.47011 12.5619 9.03308 12.8878L11.122 10.7989C11.2553 10.6656 11.4294 10.5656 11.6442 10.4989C11.859 10.4323 12.0701 10.4137 12.2775 10.4434L15.3442 11.0656C15.5516 11.1248 15.722 11.2323 15.8553 11.3878C15.9886 11.5434 16.0553 11.7174 16.0553 11.91V15.51C16.0553 15.7767 15.9664 15.9989 15.7886 16.1767C15.6109 16.3545 15.3886 16.4434 15.122 16.4434ZM2.74419 5.77669L4.21085 4.31003L3.83308 2.22114H1.8553C1.92937 2.82854 2.03308 3.42854 2.16641 4.02114C2.29974 4.61373 2.49234 5.19892 2.74419 5.77669ZM10.6997 13.7323C11.2775 13.9841 11.8664 14.1841 12.4664 14.3323C13.0664 14.4804 13.6701 14.5767 14.2775 14.6211V12.6656L12.1886 12.2434L10.6997 13.7323Z" fill="#177DB7"/>
</svg>
