<svg width="23" height="23" viewBox="0 0 23 23" fill="none" xmlns="http://www.w3.org/2000/svg">
<path d="M4.55446 10.5416H5.94571V8.79163H4.55446V10.5416ZM7.47112 12.875H8.86237V6.45829H7.47112V12.875ZM10.6795 15.2083H12.0707V4.12496H10.6795V15.2083ZM13.8878 12.875H15.279V6.45829H13.8878V12.875ZM16.8045 10.5416H18.1957V8.79163H16.8045V10.5416ZM0.291748 22.5449V3.02567C0.291748 2.43631 0.495915 1.93746 0.904248 1.52913C1.31258 1.12079 1.81143 0.916626 2.40079 0.916626H20.3494C20.9387 0.916626 21.4376 1.12079 21.8459 1.52913C22.2542 1.93746 22.4584 2.43631 22.4584 3.02567V16.3076C22.4584 16.8969 22.2542 17.3958 21.8459 17.8041C21.4376 18.2125 20.9387 18.4166 20.3494 18.4166H4.42L0.291748 22.5449ZM3.67508 16.6666H20.3494C20.4392 16.6666 20.5215 16.6292 20.5961 16.5543C20.671 16.4797 20.7084 16.3974 20.7084 16.3076V3.02567C20.7084 2.93583 20.671 2.85358 20.5961 2.77892C20.5215 2.70406 20.4392 2.66663 20.3494 2.66663H2.40079C2.31096 2.66663 2.22871 2.70406 2.15404 2.77892C2.07918 2.85358 2.04175 2.93583 2.04175 3.02567V18.2822L3.67508 16.6666Z" fill="#1C1B1F"/>
</svg>
