<svg width="29" height="28" viewBox="0 0 29 28" fill="none" xmlns="http://www.w3.org/2000/svg">
<mask id="mask0_3048_2669" style="mask-type:alpha" maskUnits="userSpaceOnUse" x="0" y="0" width="29" height="28">
<rect x="0.5" width="28" height="28" fill="#D9D9D9"/>
</mask>
<g mask="url(#mask0_3048_2669)">
<path d="M7.88889 21.143C7.36944 21.143 6.92477 20.9565 6.55486 20.5835C6.18495 20.2104 6 19.762 6 19.2382V12.5716C6 11.3969 6.22431 10.2898 6.67292 9.25012C7.12153 8.21044 7.73148 7.30171 8.50278 6.52393C9.27407 5.74615 10.1752 5.13107 11.2063 4.67869C12.2373 4.22631 13.3352 4.00012 14.5 4.00012C15.6648 4.00012 16.7627 4.22631 17.7937 4.67869C18.8248 5.13107 19.7259 5.74615 20.4972 6.52393C21.2685 7.30171 21.8785 8.21044 22.3271 9.25012C22.7757 10.2898 23 11.3969 23 12.5716V22.0954C23 22.6192 22.815 23.0676 22.4451 23.4406C22.0752 23.8136 21.6306 24.0001 21.1111 24.0001H15.4444C15.1769 24.0001 14.9525 23.9089 14.7715 23.7263C14.5905 23.5438 14.5 23.3176 14.5 23.0477C14.5 22.7779 14.5905 22.5517 14.7715 22.3692C14.9525 22.1866 15.1769 22.0954 15.4444 22.0954H21.1111V21.143H19.2222C18.7028 21.143 18.2581 20.9565 17.8882 20.5835C17.5183 20.2104 17.3333 19.762 17.3333 19.2382V15.4287C17.3333 14.9049 17.5183 14.4565 17.8882 14.0835C18.2581 13.7104 18.7028 13.5239 19.2222 13.5239H21.1111V12.5716C21.1111 10.7303 20.4657 9.15885 19.175 7.85727C17.8843 6.55568 16.3259 5.90488 14.5 5.90488C12.6741 5.90488 11.1157 6.55568 9.825 7.85727C8.53426 9.15885 7.88889 10.7303 7.88889 12.5716V13.5239H9.77778C10.2972 13.5239 10.7419 13.7104 11.1118 14.0835C11.4817 14.4565 11.6667 14.9049 11.6667 15.4287V19.2382C11.6667 19.762 11.4817 20.2104 11.1118 20.5835C10.7419 20.9565 10.2972 21.143 9.77778 21.143H7.88889ZM7.88889 19.2382H9.77778V15.4287H7.88889V19.2382ZM19.2222 19.2382H21.1111V15.4287H19.2222V19.2382Z" fill="#177DB7"/>
</g>
</svg>
