<svg width="21" height="20" viewBox="0 0 21 20" fill="none" xmlns="http://www.w3.org/2000/svg">
<path d="M18.316 16.3846C18.316 16.3846 19.034 15.2391 16.6955 14.7686C14.1725 14.2777 11.629 14.5231 9.65975 15.4232C7.69055 16.3232 7.15723 16.0368 7.15723 16.0368C7.15723 16.0368 8.34695 15.4845 11.9571 16.4869C14.4597 17.1823 17.1263 17.0392 17.5365 16.8551C17.9673 16.671 18.316 16.3846 18.316 16.3846Z" fill="#8C6829"/>
<path d="M4.79803 11.3528C4.32624 10.9437 3.36215 9.98233 2.84934 8.44817C2.68524 7.97769 2.41858 7.07765 2.56217 5.9526C2.80832 4.11161 4.01855 2.41381 4.01855 2.43427C3.69035 2.67973 0.83912 5.01165 0.92117 8.36635C0.962195 10.1255 1.82372 11.6597 1.98782 11.9461C2.43909 12.7438 2.93139 13.2347 3.38267 13.7052C5.16725 15.5667 7.0544 16.5076 7.99798 16.9576C9.04411 17.4486 9.94666 17.7554 10.3979 17.8986C11.1569 18.1441 11.6492 18.2463 12.5723 18.4713C13.9056 18.7782 14.5209 18.86 15.1979 18.7577C15.362 18.7373 15.5876 18.6759 15.7517 18.5736C16.6542 18.0009 17.6388 17.2236 18.3158 16.3849C16.203 16.1803 14.3568 15.8735 13.0646 15.5462C11.7107 15.1985 10.521 14.9121 9.06462 14.2371C7.15696 13.2961 5.76212 12.212 4.79803 11.3528Z" fill="#C09949"/>
<path d="M8.36645 10.064C7.87415 10.3913 8.34594 11.1073 8.83824 10.8209C8.96131 10.7595 9.06387 10.6981 9.16643 10.6368C10.2741 10.0436 12.5715 9.53218 15.1356 10.0436C17.5971 10.5345 18.8073 10.514 19.6278 10.2072C20.1201 10.0231 20.4893 9.42991 20.4893 9.42991C20.4893 9.42991 20.6124 8.36622 17.7817 8.07985C15.5868 7.85484 11.4228 8.03894 8.36645 10.064Z" fill="#286B96"/>
<path d="M18.9004 4.78665C18.9414 4.66392 18.9209 4.54119 18.8388 4.43891C18.6132 4.19344 17.9978 3.74342 16.9927 3.62069C15.885 3.4775 13.0953 3.10931 9.87489 4.35709C9.46464 4.52073 10.1416 5.11394 10.5518 4.97075L10.1416 5.07303C10.1416 5.07303 9.4031 4.97075 11.8441 5.15485C13.8338 5.29804 16.0081 5.9117 17.1158 5.78897C18.1414 5.70715 18.6953 5.31849 18.9004 4.78665Z" fill="#7C7B7C"/>
<path d="M9.18761 18.9622C10.9927 18.4099 12.2029 18.6145 12.9004 18.8191C13.044 18.86 13.8234 19.1054 13.8029 19.3304C13.7824 19.535 13.126 19.6577 12.3876 19.8009C12.1004 19.8623 11.8747 19.9032 11.5465 19.9441C10.0491 20.1077 8.77736 19.8623 8.61326 19.8418C8.5107 19.8214 7.56712 19.6373 6.60303 19.2077C5.33126 18.6554 2.54156 17.0599 1.20825 13.7666C0.38775 11.7415 0.449287 9.88002 0.572361 8.83679C0.531336 9.81865 0.510825 13.0915 2.74669 15.7098C4.16205 17.3667 6.02868 18.2463 6.70559 18.5531C7.05431 18.7168 7.83378 19.0645 8.90043 19.31C10.0491 19.5759 10.8081 19.5759 11.2594 19.5554C11.7106 19.535 12.4286 19.4327 12.4286 19.31C12.4286 19.1668 11.5465 19.0441 11.3414 19.0236C10.8081 18.9418 10.0696 18.8804 9.18761 18.9622Z" fill="#C09949"/>
<path d="M12.9413 1.16617C12.9003 1.18663 12.6131 1.35027 12.5721 1.63665C12.5311 1.82074 12.5926 1.96393 12.6336 2.04575C12.7567 2.33213 13.0029 2.49577 13.3105 2.63896C13.4336 2.70033 13.9259 2.90488 15.0951 3.02762C15.4028 3.04807 15.8131 3.06853 16.3054 3.02762C16.8797 2.98671 17.1464 2.96625 17.2079 2.84352C17.372 2.45486 15.8951 1.473 15.7926 1.41164C15.5464 1.24799 14.6028 0.654784 13.3721 0.388863C12.9413 0.307041 12.408 0.204764 12.2234 0.184308C12.1618 0.184308 11.7311 0.102487 11.1567 0.0820312C11.1362 0.0820312 12.4285 0.409318 13.0029 0.552507C13.249 0.613873 13.5567 0.695695 13.8849 0.838883C14.09 0.920705 14.2336 1.00253 14.5413 1.14571C15.0131 1.37072 15.2387 1.51391 15.4438 1.71847C15.5874 1.86166 15.6695 1.92302 15.649 2.00484C15.6079 2.22985 15.0131 2.33213 14.6028 2.33213C14.131 2.33213 13.1464 2.22985 13.0234 1.71847C12.9413 1.37072 13.5977 1.04344 13.7823 1.04344C14.4387 1.02298 13.4131 0.920705 12.9413 1.16617Z" fill="#C7C7C6"/>
<path d="M17.4132 5.33899C17.1465 5.40036 16.9004 5.44127 16.6337 5.46173C16.2235 5.48218 15.8132 5.50264 15.1773 5.46173C14.1927 5.37991 13.4338 5.23672 13.1876 5.19581C11.362 4.82761 10.439 4.64351 9.57743 3.96848C8.8595 3.41618 8.71591 2.96616 8.67489 2.70024C8.61335 2.22977 8.83898 1.84111 8.94155 1.65701C9.29026 1.00244 9.90563 0.716064 10.1723 0.593331C10.3364 0.511509 10.48 0.470598 10.5825 0.429688C10.1928 0.470598 9.88512 0.531965 9.63897 0.613787C9.47487 0.654697 9.1877 0.736519 8.8595 0.920618C8.5313 1.08426 8.28515 1.26836 8.12105 1.432C7.89541 1.6161 7.48516 2.00476 7.34157 2.59797C7.15696 3.35482 7.50568 4.02985 7.66978 4.31622C9.06462 6.93452 14.2543 7.5891 14.8491 7.65046C15.6081 7.75274 16.244 7.8141 16.7158 7.83456C18.5414 7.93684 19.3619 7.79365 19.7721 7.67092C19.9568 7.63001 20.1208 7.54818 20.2234 7.50727C20.2234 7.50727 19.9157 6.07539 18.8901 4.52078C19.0337 4.76624 18.1311 5.19581 17.4132 5.33899Z" fill="#C7C7C6"/>
<path d="M15.1978 9.59361C10.1927 8.30491 7.42356 6.48438 6.35691 4.97067C5.31077 3.45697 5.39282 0.654574 10.0902 0.0204555C10.1107 0.0204555 10.1107 0 10.0902 0C9.22865 0.0204555 5.08514 0.286376 3.99798 3.68198C2.50056 8.30491 10.1312 12.1505 11.4645 12.7028C12.8183 13.2551 16.2439 14.8097 19.5464 13.9097C19.6695 13.8688 19.7926 13.7461 19.8336 13.6438C20.6336 11.8846 20.49 9.47087 20.49 9.38905C20.4695 9.34814 18.4593 10.4527 15.1978 9.59361Z" fill="#4384B8"/>
</svg>
