<svg width="22" height="24" viewBox="0 0 22 24" fill="none" xmlns="http://www.w3.org/2000/svg">
<path d="M1.66667 23.6676C1.33611 23.6676 1.05903 23.5558 0.835417 23.3322C0.611806 23.1086 0.5 22.8315 0.5 22.5009V19.0009C0.5 18.3592 0.728472 17.8099 1.18542 17.353C1.64236 16.8961 2.19167 16.6676 2.83333 16.6676H4.35L4.99167 12.0009H2.83333C2.50278 12.0009 2.22569 11.8891 2.00208 11.6655C1.77847 11.4419 1.66667 11.1648 1.66667 10.8342C1.66667 10.5037 1.77847 10.2266 2.00208 10.003C2.22569 9.77938 2.50278 9.66758 2.83333 9.66758H19.1667C19.4972 9.66758 19.7743 9.77938 19.9979 10.003C20.2215 10.2266 20.3333 10.5037 20.3333 10.8342C20.3333 11.1648 20.2215 11.4419 19.9979 11.6655C19.7743 11.8891 19.4972 12.0009 19.1667 12.0009H17.0083L17.65 16.6676H19.1667C19.8083 16.6676 20.3576 16.8961 20.8146 17.353C21.2715 17.8099 21.5 18.3592 21.5 19.0009V22.5009C21.5 22.8315 21.3882 23.1086 21.1646 23.3322C20.941 23.5558 20.6639 23.6676 20.3333 23.6676H1.66667ZM5.45833 7.91758C5.18611 7.91758 4.94306 7.83494 4.72917 7.66966C4.51528 7.50438 4.37917 7.28563 4.32083 7.01341L3.35833 2.66758C3.31944 2.45369 3.33403 2.26411 3.40208 2.09883C3.47014 1.93355 3.58194 1.8023 3.7375 1.70508C3.89306 1.60786 4.06806 1.55438 4.2625 1.54466C4.45694 1.53494 4.64167 1.58841 4.81667 1.70508C5.16667 1.89952 5.52639 2.05508 5.89583 2.17174C6.26528 2.28841 6.65417 2.34675 7.0625 2.34675C7.62639 2.34675 8.16111 2.23008 8.66667 1.99674C9.17222 1.76341 9.64861 1.47174 10.0958 1.12174C10.2319 1.02452 10.3778 0.951606 10.5333 0.902995C10.6889 0.854384 10.8444 0.830078 11 0.830078C11.1556 0.830078 11.3111 0.854384 11.4667 0.902995C11.6222 0.951606 11.7681 1.02452 11.9042 1.12174C12.3514 1.47174 12.8278 1.76341 13.3333 1.99674C13.8389 2.23008 14.3736 2.34675 14.9375 2.34675C15.3458 2.34675 15.7347 2.28355 16.1042 2.15716C16.4736 2.03077 16.8333 1.87036 17.1833 1.67591C17.3778 1.57869 17.5674 1.5398 17.7521 1.55924C17.9368 1.57869 18.1069 1.63702 18.2625 1.73424C18.4181 1.83147 18.5347 1.96272 18.6125 2.128C18.6903 2.29327 18.7097 2.47313 18.6708 2.66758L17.7083 7.01341C17.65 7.28563 17.5139 7.50438 17.3 7.66966C17.0861 7.83494 16.8431 7.91758 16.5708 7.91758H5.45833Z" fill="#FF70BF"/>
</svg>
