<svg width="26" height="24" viewBox="0 0 26 24" fill="none" xmlns="http://www.w3.org/2000/svg">
<path d="M17.7833 12.5167L16.0916 10.825C16.2666 9.91111 16.0041 9.05555 15.3041 8.25833C14.6041 7.46111 13.7 7.15 12.5916 7.325L10.9 5.63333C11.2305 5.47777 11.5659 5.36111 11.9062 5.28333C12.2465 5.20555 12.6111 5.16666 13 5.16666C14.4583 5.16666 15.6979 5.67708 16.7187 6.69791C17.7395 7.71875 18.25 8.95833 18.25 10.4167C18.25 10.8056 18.2111 11.1701 18.1333 11.5104C18.0555 11.8507 17.9388 12.1861 17.7833 12.5167ZM21.5166 16.1917L19.825 14.5583C20.5638 13.9944 21.2201 13.3771 21.7937 12.7062C22.3673 12.0354 22.8583 11.2722 23.2666 10.4167C22.2944 8.45277 20.8993 6.89236 19.0812 5.73541C17.2632 4.57847 15.2361 4 13 4C12.4361 4 11.8819 4.03888 11.3375 4.11666C10.793 4.19444 10.2583 4.31111 9.73329 4.46666L7.92496 2.65833C8.72218 2.32777 9.53885 2.07986 10.375 1.91458C11.2111 1.7493 12.0861 1.66666 13 1.66666C15.9361 1.66666 18.5513 2.47847 20.8458 4.10208C23.1402 5.72569 24.8027 7.83055 25.8333 10.4167C25.3861 11.5639 24.7979 12.6285 24.0687 13.6104C23.3395 14.5924 22.4888 15.4528 21.5166 16.1917ZM22.1 23.3667L17.2 18.525C16.5194 18.7389 15.834 18.8993 15.1437 19.0062C14.4534 19.1132 13.7388 19.1667 13 19.1667C10.0638 19.1667 7.44857 18.3549 5.15413 16.7312C2.85968 15.1076 1.19718 13.0028 0.166626 10.4167C0.574959 9.38611 1.09024 8.42847 1.71246 7.54375C2.33468 6.65902 3.0444 5.86666 3.84163 5.16666L0.633293 1.9L2.26663 0.266663L23.7333 21.7333L22.1 23.3667ZM5.47496 6.8C4.91107 7.30555 4.39579 7.85972 3.92913 8.4625C3.46246 9.06527 3.06385 9.71666 2.73329 10.4167C3.70551 12.3806 5.10065 13.941 6.91871 15.0979C8.73676 16.2549 10.7638 16.8333 13 16.8333C13.3888 16.8333 13.768 16.809 14.1375 16.7604C14.5069 16.7118 14.8861 16.6583 15.275 16.6L14.225 15.4917C14.0111 15.55 13.8069 15.5937 13.6125 15.6229C13.418 15.6521 13.2138 15.6667 13 15.6667C11.5416 15.6667 10.302 15.1562 9.28121 14.1354C8.26038 13.1146 7.74996 11.875 7.74996 10.4167C7.74996 10.2028 7.76454 9.99861 7.79371 9.80416C7.82288 9.60972 7.86663 9.40555 7.92496 9.19166L5.47496 6.8Z" fill="#7F7F7F"/>
</svg>
