<svg width="25" height="28" viewBox="0 0 25 28" fill="none" xmlns="http://www.w3.org/2000/svg">
<path d="M11.1 18.6L15.7333 13.9666C16 13.7 16.3222 13.5666 16.7 13.5666C17.0778 13.5666 17.4 13.7 17.6667 13.9666C17.9333 14.2333 18.0667 14.5555 18.0667 14.9333C18.0667 15.3111 17.9333 15.6333 17.6667 15.9L12.0333 21.5333C11.7667 21.8 11.4556 21.9333 11.1 21.9333C10.7444 21.9333 10.4333 21.8 10.1667 21.5333L7.33333 18.7C7.06667 18.4333 6.93333 18.1111 6.93333 17.7333C6.93333 17.3555 7.06667 17.0333 7.33333 16.7666C7.6 16.5 7.92222 16.3666 8.3 16.3666C8.67778 16.3666 9 16.5 9.26667 16.7666L11.1 18.6ZM3.16667 27.3333C2.43333 27.3333 1.80556 27.0722 1.28333 26.55C0.761111 26.0277 0.5 25.4 0.5 24.6666V5.99996C0.5 5.26663 0.761111 4.63885 1.28333 4.11663C1.80556 3.5944 2.43333 3.33329 3.16667 3.33329H4.5V1.99996C4.5 1.62218 4.62778 1.30551 4.88333 1.04996C5.13889 0.794404 5.45556 0.666626 5.83333 0.666626C6.21111 0.666626 6.52778 0.794404 6.78333 1.04996C7.03889 1.30551 7.16667 1.62218 7.16667 1.99996V3.33329H17.8333V1.99996C17.8333 1.62218 17.9611 1.30551 18.2167 1.04996C18.4722 0.794404 18.7889 0.666626 19.1667 0.666626C19.5444 0.666626 19.8611 0.794404 20.1167 1.04996C20.3722 1.30551 20.5 1.62218 20.5 1.99996V3.33329H21.8333C22.5667 3.33329 23.1944 3.5944 23.7167 4.11663C24.2389 4.63885 24.5 5.26663 24.5 5.99996V24.6666C24.5 25.4 24.2389 26.0277 23.7167 26.55C23.1944 27.0722 22.5667 27.3333 21.8333 27.3333H3.16667ZM3.16667 24.6666H21.8333V11.3333H3.16667V24.6666ZM3.16667 8.66663H21.8333V5.99996H3.16667V8.66663Z" fill="#177DB7"/>
</svg>
