<svg width="28" height="28" viewBox="0 0 28 28" fill="none" xmlns="http://www.w3.org/2000/svg">
<mask id="mask0_3416_2176" style="mask-type:alpha" maskUnits="userSpaceOnUse" x="0" y="0" width="28" height="28">
<rect width="28" height="28" fill="#D9D9D9"/>
</mask>
<g mask="url(#mask0_3416_2176)">
<path d="M14.0001 26.8333C11.8223 26.8333 9.81953 26.3375 7.99175 25.3458C6.16397 24.3541 4.66675 23.0319 3.50008 21.3791V24.5H1.16675V17.5H8.16675V19.8333H5.27925C6.21258 21.2333 7.44244 22.3611 8.96883 23.2166C10.4952 24.0722 12.1723 24.5 14.0001 24.5C15.4584 24.5 16.8244 24.2229 18.098 23.6687C19.3716 23.1145 20.4799 22.3659 21.423 21.4229C22.3661 20.4798 23.1147 19.3715 23.6688 18.0979C24.223 16.8243 24.5001 15.4583 24.5001 14H26.8334C26.8334 15.7694 26.498 17.4319 25.8272 18.9875C25.1563 20.543 24.2376 21.9041 23.0709 23.0708C21.9042 24.2375 20.5431 25.1562 18.9876 25.827C17.432 26.4979 15.7695 26.8333 14.0001 26.8333ZM12.9501 22.1666V20.65C12.0362 20.4361 11.2924 20.0423 10.7188 19.4687C10.1452 18.8951 9.7223 18.1416 9.45008 17.2083L11.3751 16.45C11.6084 17.2472 11.973 17.8451 12.4688 18.2437C12.9647 18.6423 13.5334 18.8416 14.1751 18.8416C14.8167 18.8416 15.3661 18.6909 15.823 18.3895C16.2799 18.0882 16.5084 17.6166 16.5084 16.975C16.5084 16.4111 16.2702 15.9541 15.7938 15.6041C15.3174 15.2541 14.4667 14.8555 13.2417 14.4083C12.0945 14 11.2536 13.5138 10.7188 12.95C10.1841 12.3861 9.91675 11.6472 9.91675 10.7333C9.91675 9.93607 10.1938 9.21176 10.748 8.56038C11.3022 7.90899 12.0556 7.48607 13.0084 7.29163V5.83329H15.0501V7.29163C15.7501 7.34996 16.3869 7.6319 16.9605 8.13746C17.5341 8.64301 17.9279 9.23607 18.1417 9.91663L16.2751 10.675C16.1195 10.2277 15.8667 9.85343 15.5167 9.55204C15.1667 9.25065 14.6806 9.09996 14.0584 9.09996C13.3779 9.09996 12.8577 9.24579 12.498 9.53746C12.1383 9.82913 11.9584 10.2277 11.9584 10.7333C11.9584 11.2388 12.182 11.6375 12.6292 11.9291C13.0765 12.2208 13.8834 12.5611 15.0501 12.95C16.4501 13.4555 17.3834 14.0486 17.8501 14.7291C18.3167 15.4097 18.5501 16.1583 18.5501 16.975C18.5501 17.5388 18.4529 18.0347 18.2584 18.4625C18.064 18.8902 17.8063 19.2548 17.4855 19.5562C17.1647 19.8576 16.7904 20.1007 16.3626 20.2854C15.9348 20.4701 15.4779 20.6111 14.9917 20.7083V22.1666H12.9501ZM1.16675 14C1.16675 12.2305 1.50216 10.568 2.173 9.01246C2.84383 7.4569 3.76258 6.09579 4.92925 4.92913C6.09591 3.76246 7.45703 2.84371 9.01258 2.17288C10.5681 1.50204 12.2306 1.16663 14.0001 1.16663C16.1779 1.16663 18.1806 1.66246 20.0084 2.65413C21.8362 3.64579 23.3334 4.96801 24.5001 6.62079V3.49996H26.8334V10.5H19.8334V8.16663H22.7209C21.7876 6.76663 20.5577 5.63885 19.0313 4.78329C17.5049 3.92774 15.8279 3.49996 14.0001 3.49996C12.5417 3.49996 11.1758 3.77704 9.90216 4.33121C8.62855 4.88538 7.52022 5.63399 6.57716 6.57704C5.63411 7.5201 4.8855 8.62843 4.33133 9.90204C3.77716 11.1757 3.50008 12.5416 3.50008 14H1.16675Z" fill="#8DC83A"/>
</g>
</svg>
