<svg width="19" height="24" viewBox="0 0 19 24" fill="none" xmlns="http://www.w3.org/2000/svg">
<path d="M4.93262 12.7627H13.8174V11.0127H4.93262V12.7627ZM4.93262 16.1282H13.8174V14.3782H4.93262V16.1282ZM4.93262 19.4935H10.3174V17.7435H4.93262V19.4935ZM2.73404 23.0833C2.14468 23.0833 1.64583 22.8791 1.2375 22.4708C0.829167 22.0625 0.625 21.5636 0.625 20.9743V3.02567C0.625 2.43631 0.829167 1.93746 1.2375 1.52913C1.64583 1.12079 2.14468 0.916626 2.73404 0.916626H12L18.125 7.04163V20.9743C18.125 21.5636 17.9208 22.0625 17.5125 22.4708C17.1042 22.8791 16.6053 23.0833 16.016 23.0833H2.73404ZM11.125 7.91663V2.66663H2.73404C2.64421 2.66663 2.56196 2.70406 2.48729 2.77892C2.41243 2.85358 2.375 2.93583 2.375 3.02567V20.9743C2.375 21.0641 2.41243 21.1463 2.48729 21.221C2.56196 21.2959 2.64421 21.3333 2.73404 21.3333H16.016C16.1058 21.3333 16.188 21.2959 16.2627 21.221C16.3376 21.1463 16.375 21.0641 16.375 20.9743V7.91663H11.125Z" fill="#1C1B1F"/>
</svg>
