<svg width="17" height="16" viewBox="0 0 17 16" fill="none" xmlns="http://www.w3.org/2000/svg">
<path d="M0.5 16V12.2222L12.2333 0.511111C12.4111 0.348148 12.6074 0.222222 12.8222 0.133333C13.037 0.0444444 13.263 0 13.5 0C13.737 0 13.9667 0.0444444 14.1889 0.133333C14.4111 0.222222 14.6037 0.355556 14.7667 0.533333L15.9889 1.77778C16.1667 1.94074 16.2963 2.13333 16.3778 2.35556C16.4593 2.57778 16.5 2.8 16.5 3.02222C16.5 3.25926 16.4593 3.48519 16.3778 3.7C16.2963 3.91481 16.1667 4.11111 15.9889 4.28889L4.27778 16H0.5ZM13.4778 4.26667L14.7222 3.02222L13.4778 1.77778L12.2333 3.02222L13.4778 4.26667Z" fill="white"/>
</svg>
