<svg width="36" height="36" viewBox="0 0 36 36" fill="none" xmlns="http://www.w3.org/2000/svg">
<mask id="mask0_3067_2173" style="mask-type:alpha" maskUnits="userSpaceOnUse" x="0" y="0" width="36" height="36">
<rect width="36" height="36" fill="#D9D9D9"/>
</mask>
<g mask="url(#mask0_3067_2173)">
<path d="M18.0411 32.5507C13.0158 32.5434 8.52615 30.7209 4.73019 27.0975C4.48182 26.8527 4.3301 26.5243 4.30351 26.1741C4.27693 25.8238 4.37731 25.4758 4.58581 25.1953C5.06159 24.6813 5.88845 24.6985 6.45374 25.275C9.0005 27.9127 12.3799 29.5589 16.0016 29.9259C21.0566 30.4857 25.5021 28.9703 29.2582 25.4576C29.5397 25.1941 29.8043 24.8936 30.2057 24.8493C30.4398 24.8028 30.6825 24.8334 30.8982 24.9367C31.114 25.0399 31.2916 25.2104 31.4051 25.4232C31.5535 25.6554 31.6192 25.9321 31.5914 26.2073C31.5636 26.4826 31.444 26.74 31.2523 26.9368C30.6345 27.5964 29.9563 28.1949 29.227 28.7244C25.9912 31.1679 22.0749 32.5076 18.0411 32.5507Z" fill="white"/>
<path d="M16.2219 11.393C17.5833 11.393 18.7902 11.3832 19.9954 11.3993C20.3308 11.4036 20.4063 11.2714 20.4003 10.9585C20.3826 10.0028 20.4208 9.0457 20.3821 8.09134C20.3502 7.30418 20.901 7.62542 21.2549 7.55813C21.708 7.47188 21.8306 7.67373 21.8159 8.11714C21.786 9.02774 21.8229 9.93834 21.8 10.8489C21.79 11.2438 21.8748 11.3978 22.3124 11.4024C23.7088 11.4168 24.0868 11.0736 24.0918 9.66718C24.0938 9.12082 24.108 8.57396 24.0863 8.02886C24.0731 7.69422 24.1377 7.5556 24.5202 7.55333C25.48 7.54802 25.4795 7.52247 25.48 8.49504C25.48 9.06391 25.4525 9.63481 25.4904 10.2014C25.5473 11.0518 26.0288 11.5246 26.7489 11.5018C27.486 11.4783 27.8688 11.0136 27.8748 10.1088C27.8823 9.01636 27.907 7.92288 27.8666 6.83193C27.8436 6.20817 28.2339 6.32604 28.5715 6.34097C28.8787 6.35538 29.3148 6.13861 29.2911 6.79626C29.2453 8.06908 29.2784 9.34493 29.2385 10.6183C29.2091 11.5645 28.8665 12.4083 27.9361 12.7407C26.9387 13.0974 25.9001 13.1593 25.0301 12.3481C24.8249 12.1569 24.706 12.0279 24.4382 12.2707C23.8709 12.7847 23.16 12.8907 22.4288 12.8907C18.0988 12.8907 13.7684 12.8831 9.43735 12.894C9.01918 12.894 8.85561 12.8047 8.86034 12.3345C8.88528 9.89964 8.90049 7.46378 8.86034 5.02945C8.84788 4.27062 9.33088 4.56833 9.66227 4.51977C10.0273 4.46589 10.2837 4.48941 10.2747 5.01832C10.2423 6.92957 10.2779 8.84183 10.2498 10.7533C10.2423 11.2549 10.3667 11.4497 10.8816 11.4049C11.4379 11.3563 12.1514 11.5911 12.5209 11.3184C12.949 11.0025 12.501 10.2753 12.5411 9.72485C12.5547 9.26972 12.6273 8.81839 12.757 8.38248C12.8846 7.92943 13.16 7.53371 13.5381 7.26C13.9161 6.98629 14.3746 6.85081 14.8384 6.87569C15.6755 6.8847 16.4846 7.18258 17.1325 7.72027C17.6823 8.14092 17.8058 8.80616 17.5387 9.50732C17.2781 10.1936 16.825 10.7528 16.2219 11.393ZM13.8482 10.0238C13.8627 10.2515 13.8826 10.4769 13.8906 10.7035C13.9001 10.9769 14.0293 11.0849 14.2784 10.9754C14.922 10.6929 15.5154 10.3476 15.8777 9.69222C15.9331 9.61965 15.971 9.53497 15.9885 9.44492C16.0059 9.35486 16.0024 9.26192 15.9782 9.1735C15.9539 9.08507 15.9097 9.0036 15.849 8.93557C15.7883 8.86754 15.7127 8.81482 15.6284 8.78162C15.2259 8.55397 14.8 8.42548 14.3579 8.70574C13.8657 9.01661 13.833 9.50884 13.8482 10.0238Z" fill="#BBE604"/>
<path d="M32.4523 12.2959C32.4523 14.8592 32.4488 17.3295 32.4568 19.7997C32.4568 20.099 32.3004 20.1941 32.0578 20.2447C31.2483 20.4346 30.4132 20.4864 29.5869 20.3977C28.8172 20.3282 28.106 19.952 27.6092 19.3515C27.1124 18.751 26.8706 17.9752 26.9367 17.1942C27.0345 15.4779 28.3511 14.2347 30.1323 14.2995C30.8245 14.3248 31.2027 14.255 31.0437 13.4465C31.0147 13.3358 31.0294 13.218 31.0847 13.1182C31.1401 13.0183 31.2316 12.9443 31.3399 12.9118C31.6828 12.7573 32.0027 12.5486 32.4523 12.2959ZM31.0529 17.3548C31.0529 17.0381 31.0651 16.7209 31.0486 16.405C31.0377 16.194 31.1207 15.9441 30.8539 15.808C30.3407 15.5465 29.1333 15.8318 28.7503 16.3124C28.5303 16.6272 28.4136 17.0043 28.4166 17.3902C28.4197 17.7761 28.5424 18.1512 28.7673 18.4624C29.1465 18.9218 30.249 19.2063 30.812 18.9149C31.299 18.662 30.9669 18.149 31.0486 17.7613C31.0638 17.6259 31.0652 17.4894 31.0529 17.3538V17.3548Z" fill="#BBE604"/>
<path d="M5.63302 17.8471C5.02858 17.8471 4.42389 17.8542 3.8197 17.8444C3.45987 17.8385 3.44566 17.9961 3.60001 18.2579C3.98926 18.9181 4.63509 19.0168 5.29414 18.9897C5.69675 18.9769 6.09274 18.8823 6.45864 18.7115C7.31468 18.2883 7.04164 19.1786 7.29423 19.4306C7.63685 19.7721 7.28875 19.9031 7.0172 20.0288C5.08269 20.925 3.14145 20.4064 2.28815 18.7615C2.02328 18.1969 1.92555 17.5664 2.00681 16.9465C2.08807 16.3266 2.34483 15.744 2.74596 15.2691C3.15952 14.8008 3.70879 14.4775 4.31485 14.3457C4.9209 14.2139 5.55254 14.2804 6.11901 14.5356C7.16407 14.9909 7.86925 16.2222 7.82686 17.4655C7.81689 17.7576 7.74457 17.8669 7.44609 17.8573C6.84215 17.8378 6.23746 17.8514 5.63302 17.8514V17.8471ZM6.32922 16.5913C6.03673 15.7515 5.45847 15.598 4.76027 15.6222C4.12067 15.6448 3.78079 16.0143 3.47982 16.6252C4.34359 16.6252 5.10064 16.6264 5.85844 16.6239C5.98985 16.6234 6.12225 16.6062 6.32922 16.5913Z" fill="#BBE604"/>
<path d="M15.157 16.1665C15.1285 16.1045 15.1093 16.0833 15.1111 16.0633C15.231 14.5798 15.3141 14.493 16.794 14.3048C18.7175 14.0602 19.7454 14.968 19.7539 16.9228C19.7576 17.7873 19.7446 18.6522 19.7628 19.5165C19.7696 19.8316 19.6913 20.0282 19.3726 20.1235C18.368 20.4619 17.2939 20.5298 16.2556 20.3206C15.145 20.0676 14.6211 19.3958 14.6632 18.3711C14.7016 17.4393 15.4141 16.7356 16.4756 16.5876C16.9647 16.5176 17.4603 16.5076 17.9518 16.5578C18.0719 16.5704 18.2338 16.6453 18.2906 16.4599C18.309 16.3934 18.3095 16.3231 18.292 16.2563C18.2744 16.1896 18.2395 16.1289 18.1909 16.0805C18.0211 15.897 17.7899 15.7846 17.5426 15.7653C16.881 15.678 16.499 15.7334 15.157 16.1665ZM17.283 19.0943C18.2201 19.0943 18.3053 19.0374 18.3166 18.4619C18.3295 17.7099 18.2901 17.6778 17.3785 17.6852C16.5653 17.6922 16.1068 17.9518 16.1554 18.423C16.2357 19.1892 16.8758 19.0068 17.283 19.0943Z" fill="#BBE604"/>
<path d="M21.4105 16.1526C21.3855 16.1037 21.3639 16.0838 21.3644 16.0638C21.391 14.6473 21.5112 14.5049 22.8892 14.3119C23.3336 14.2456 23.7863 14.262 24.225 14.3604C25.3384 14.6169 25.9017 15.2205 25.9563 16.384C26.0061 17.4507 25.9687 18.5216 25.9775 19.5906C25.996 19.7033 25.9718 19.8189 25.9097 19.9142C25.8475 20.0095 25.7521 20.0773 25.6426 20.1041C24.5307 20.4344 23.4066 20.5879 22.271 20.2639C21.3848 20.011 20.8948 19.3847 20.8796 18.5692C20.8624 17.6545 21.3344 17.0174 22.2536 16.7035C22.8366 16.5351 23.4458 16.4802 24.0489 16.5416C24.1985 16.5489 24.4332 16.7075 24.4978 16.4404C24.523 16.3274 24.5051 16.2089 24.4477 16.1087C24.3904 16.0085 24.2978 15.934 24.1886 15.9001C23.6036 15.6297 23.0026 15.7122 22.4089 15.8402C22.0668 15.9125 21.7381 16.0478 21.4105 16.1526ZM23.5799 19.0928C23.8898 18.9446 24.5461 19.3558 24.5471 18.5072C24.5471 17.755 24.4738 17.6568 23.5642 17.6862C23.0575 17.7026 22.4755 17.6882 22.3628 18.3787C22.291 18.8239 22.7535 19.0867 23.5806 19.0928H23.5799Z" fill="#BBE604"/>
<path d="M11.1647 20.4176C10.6551 20.4452 10.1445 20.3866 9.65387 20.244C8.59137 19.9731 8.60657 19.9595 8.98235 18.9176C9.1215 18.5329 9.22747 18.4228 9.63068 18.6313C10.2304 18.9514 10.9161 19.0662 11.5854 18.9586C11.8502 18.9151 12.1861 18.9009 12.1838 18.5501C12.1838 18.2359 11.8879 18.1383 11.6103 18.0814C11.2168 18.0004 10.8219 17.9223 10.4346 17.816C9.32821 17.5125 8.83324 16.9307 8.86017 16.0017C8.85762 15.6694 8.96049 15.3451 9.15356 15.0767C9.34664 14.8083 9.6197 14.61 9.9324 14.5111C11.0151 14.0876 12.0863 14.2756 13.1464 14.631C13.4633 14.7372 13.5374 14.9057 13.4124 15.2492C13.0883 16.1426 13.104 16.1598 12.2028 15.8853C11.7241 15.7654 11.2293 15.7264 10.7381 15.7697C10.5371 15.776 10.3057 15.8408 10.275 16.0781C10.2439 16.3199 10.4496 16.4097 10.6506 16.4828C11.3238 16.7269 12.0534 16.7456 12.71 17.0612C13.0242 17.1891 13.2905 17.4146 13.4707 17.7054C13.6508 17.9962 13.7356 18.3374 13.7129 18.6801C13.7075 19.0013 13.6065 19.3134 13.423 19.5752C13.2395 19.8371 12.9821 20.0365 12.6848 20.1472C12.3412 20.3155 11.9661 20.4075 11.5846 20.4171C11.428 20.416 11.2712 20.4176 11.1647 20.4176Z" fill="#BBE604"/>
<path d="M4.55245 12.8915C3.85849 12.8915 3.16379 12.8784 2.47033 12.8953C1.77687 12.9123 2.05914 12.393 2.03071 12.0728C2.00328 11.7637 1.8811 11.3645 2.46285 11.3855C3.35754 11.4164 4.25423 11.3774 5.14917 11.4007C5.54814 11.4113 5.72593 11.2922 5.69177 10.865C5.66459 10.527 5.70199 10.1843 5.69401 9.84407C5.67282 8.92816 5.35888 8.57732 4.4395 8.54242C4.06322 8.528 4.01435 8.38003 4.00961 8.05424C3.99415 6.98808 4.08317 6.90106 5.13396 7.08951C6.281 7.29515 6.85452 7.87768 7.03904 9.05362C7.21908 10.205 7.07994 11.3663 7.12507 12.522C7.13754 12.8402 6.96473 12.891 6.70116 12.8872C5.98476 12.8771 5.26811 12.8837 4.55171 12.8837L4.55245 12.8915Z" fill="#BBE604"/>
<path d="M31.0453 7.47373C31.0453 6.63218 31.064 5.79013 31.0365 4.9496C31.0246 4.57979 31.1303 4.50087 31.4901 4.50897C32.4491 4.53022 32.4491 4.5072 32.4489 5.45194C32.4489 6.90764 32.4384 8.36359 32.4556 9.81928C32.4601 10.1987 32.4467 10.4188 31.9661 10.3059C31.6702 10.2754 31.3716 10.2843 31.0779 10.3325C31.066 9.97079 31.0473 9.60934 31.0438 9.24788C31.038 8.6565 31.0423 8.06511 31.0423 7.47373H31.0453Z" fill="#BBE604"/>
<path d="M32.6694 21.3366C33.2272 21.6872 33.8392 22.0532 34.4276 22.4546C34.5693 22.5513 34.4755 22.7582 34.3917 22.8915C34.0676 23.4042 33.7342 23.9106 33.4003 24.4167C33.2572 24.6335 33.126 24.7203 32.8786 24.4903C32.4864 24.1243 32.0403 23.8185 31.6291 23.472C31.4922 23.3566 31.2461 23.2603 31.4219 22.9914C31.7545 22.4827 32.0837 21.9718 32.4151 21.4634C32.4625 21.39 32.4986 21.2977 32.6694 21.3366Z" fill="#BBE604"/>
<path d="M2.83217 21.4516C3.0106 21.4495 3.18764 21.4837 3.35278 21.5523C3.51792 21.6209 3.66779 21.7224 3.79352 21.8509C3.91924 21.9793 4.01825 22.1321 4.08467 22.3001C4.1511 22.4681 4.18358 22.6479 4.1802 22.8289C4.18343 23.1832 4.05082 23.5249 3.81038 23.7819C3.56994 24.0388 3.24047 24.191 2.89152 24.2062C2.54534 24.205 2.21188 24.0737 1.95548 23.8378C1.69909 23.6019 1.53792 23.278 1.5031 22.9286C1.49069 22.7421 1.51563 22.5551 1.5764 22.3787C1.63718 22.2023 1.73254 22.0402 1.85672 21.9022C1.98091 21.7642 2.13136 21.6531 2.29901 21.5757C2.46665 21.4983 2.64802 21.4561 2.83217 21.4516Z" fill="#BBE604"/>
<path d="M30.8335 11.8246C30.83 10.823 31.3941 10.3264 32.1583 10.6158C32.3127 10.6506 32.4473 10.746 32.5326 10.8811C32.6178 11.0163 32.6469 11.1801 32.6134 11.337C32.5356 11.7978 31.5412 12.7173 31.1098 12.6196C30.6784 12.522 30.934 12.0576 30.8335 11.8246Z" fill="#BBE604"/>
</g>
</svg>
