<svg width="17" height="16" viewBox="0 0 17 16" fill="none" xmlns="http://www.w3.org/2000/svg">
<path d="M8.375 0C3.95676 0 0.375 3.58176 0.375 8C0.375 11.7517 2.95804 14.8998 6.44252 15.7645V10.4448H4.79292V8H6.44252V6.94656C6.44252 4.22368 7.67484 2.9616 10.3481 2.9616C10.855 2.9616 11.7296 3.06112 12.0873 3.16032V5.37632C11.8985 5.35648 11.5705 5.34656 11.1632 5.34656C9.85148 5.34656 9.3446 5.84352 9.3446 7.13536V8H11.9577L11.5088 10.4448H9.3446V15.9414C13.3059 15.463 16.3753 12.0902 16.3753 8C16.375 3.58176 12.7932 0 8.375 0Z" fill="#1A1A1A"/>
<path d="M8.375 0C3.95676 0 0.375 3.58176 0.375 8C0.375 11.7517 2.95804 14.8998 6.44252 15.7645V10.4448H4.79292V8H6.44252V6.94656C6.44252 4.22368 7.67484 2.9616 10.3481 2.9616C10.855 2.9616 11.7296 3.06112 12.0873 3.16032V5.37632C11.8985 5.35648 11.5705 5.34656 11.1632 5.34656C9.85148 5.34656 9.3446 5.84352 9.3446 7.13536V8H11.9577L11.5088 10.4448H9.3446V15.9414C13.3059 15.463 16.3753 12.0902 16.3753 8C16.375 3.58176 12.7932 0 8.375 0Z" fill="black" fill-opacity="0.2"/>
<path d="M8.375 0C3.95676 0 0.375 3.58176 0.375 8C0.375 11.7517 2.95804 14.8998 6.44252 15.7645V10.4448H4.79292V8H6.44252V6.94656C6.44252 4.22368 7.67484 2.9616 10.3481 2.9616C10.855 2.9616 11.7296 3.06112 12.0873 3.16032V5.37632C11.8985 5.35648 11.5705 5.34656 11.1632 5.34656C9.85148 5.34656 9.3446 5.84352 9.3446 7.13536V8H11.9577L11.5088 10.4448H9.3446V15.9414C13.3059 15.463 16.3753 12.0902 16.3753 8C16.375 3.58176 12.7932 0 8.375 0Z" fill="black" fill-opacity="0.2"/>
<path d="M8.375 0C3.95676 0 0.375 3.58176 0.375 8C0.375 11.7517 2.95804 14.8998 6.44252 15.7645V10.4448H4.79292V8H6.44252V6.94656C6.44252 4.22368 7.67484 2.9616 10.3481 2.9616C10.855 2.9616 11.7296 3.06112 12.0873 3.16032V5.37632C11.8985 5.35648 11.5705 5.34656 11.1632 5.34656C9.85148 5.34656 9.3446 5.84352 9.3446 7.13536V8H11.9577L11.5088 10.4448H9.3446V15.9414C13.3059 15.463 16.3753 12.0902 16.3753 8C16.375 3.58176 12.7932 0 8.375 0Z" fill="black" fill-opacity="0.2"/>
<path d="M8.375 0C3.95676 0 0.375 3.58176 0.375 8C0.375 11.7517 2.95804 14.8998 6.44252 15.7645V10.4448H4.79292V8H6.44252V6.94656C6.44252 4.22368 7.67484 2.9616 10.3481 2.9616C10.855 2.9616 11.7296 3.06112 12.0873 3.16032V5.37632C11.8985 5.35648 11.5705 5.34656 11.1632 5.34656C9.85148 5.34656 9.3446 5.84352 9.3446 7.13536V8H11.9577L11.5088 10.4448H9.3446V15.9414C13.3059 15.463 16.3753 12.0902 16.3753 8C16.375 3.58176 12.7932 0 8.375 0Z" fill="black" fill-opacity="0.2"/>
<path d="M8.375 0C3.95676 0 0.375 3.58176 0.375 8C0.375 11.7517 2.95804 14.8998 6.44252 15.7645V10.4448H4.79292V8H6.44252V6.94656C6.44252 4.22368 7.67484 2.9616 10.3481 2.9616C10.855 2.9616 11.7296 3.06112 12.0873 3.16032V5.37632C11.8985 5.35648 11.5705 5.34656 11.1632 5.34656C9.85148 5.34656 9.3446 5.84352 9.3446 7.13536V8H11.9577L11.5088 10.4448H9.3446V15.9414C13.3059 15.463 16.3753 12.0902 16.3753 8C16.375 3.58176 12.7932 0 8.375 0Z" fill="black" fill-opacity="0.2"/>
<path d="M8.375 0C3.95676 0 0.375 3.58176 0.375 8C0.375 11.7517 2.95804 14.8998 6.44252 15.7645V10.4448H4.79292V8H6.44252V6.94656C6.44252 4.22368 7.67484 2.9616 10.3481 2.9616C10.855 2.9616 11.7296 3.06112 12.0873 3.16032V5.37632C11.8985 5.35648 11.5705 5.34656 11.1632 5.34656C9.85148 5.34656 9.3446 5.84352 9.3446 7.13536V8H11.9577L11.5088 10.4448H9.3446V15.9414C13.3059 15.463 16.3753 12.0902 16.3753 8C16.375 3.58176 12.7932 0 8.375 0Z" fill="black" fill-opacity="0.2"/>
<path d="M8.375 0C3.95676 0 0.375 3.58176 0.375 8C0.375 11.7517 2.95804 14.8998 6.44252 15.7645V10.4448H4.79292V8H6.44252V6.94656C6.44252 4.22368 7.67484 2.9616 10.3481 2.9616C10.855 2.9616 11.7296 3.06112 12.0873 3.16032V5.37632C11.8985 5.35648 11.5705 5.34656 11.1632 5.34656C9.85148 5.34656 9.3446 5.84352 9.3446 7.13536V8H11.9577L11.5088 10.4448H9.3446V15.9414C13.3059 15.463 16.3753 12.0902 16.3753 8C16.375 3.58176 12.7932 0 8.375 0Z" fill="black" fill-opacity="0.2"/>
</svg>
