<svg width="36" height="36" viewBox="0 0 36 36" fill="none" xmlns="http://www.w3.org/2000/svg">
<mask id="mask0_3067_1780" style="mask-type:alpha" maskUnits="userSpaceOnUse" x="0" y="0" width="36" height="36">
<rect width="36" height="36" fill="#D9D9D9"/>
</mask>
<g mask="url(#mask0_3067_1780)">
<path d="M28.1155 13.2552C27.7332 13.0585 27.3734 12.8181 27.0435 12.5559C27.2009 12.1408 27.5683 11.8349 28.0181 11.7548C28.4454 11.7256 28.9851 12.1918 29.6373 13.1605C29.1576 13.3498 28.6253 13.379 28.1155 13.2552ZM31.7364 11.3469C30.9643 9.86106 30.1696 9.12543 29.36 9.12543C28.3104 9.12543 27.2909 9.80279 26.2939 11.1575C25.5517 12.0388 25.1169 13.124 25.0494 14.253C25.1094 14.8429 25.4467 15.3819 25.9565 15.7024C26.4963 16.1103 27.156 16.3288 27.8382 16.3288C28.5878 16.3725 29.33 16.1321 29.9072 15.6514C30.1021 15.3601 30.312 15.076 30.5294 14.8065C30.8668 15.1634 31.1067 15.5931 31.2266 16.0666C31.3391 16.3725 31.429 16.6929 31.504 17.0134H23.1453V20.3055H32.621C32.8459 19.5626 32.9434 18.7833 32.9209 18.0113C32.9883 16.9624 33.0108 16.2778 32.9958 15.9573C32.9209 14.355 32.4936 12.789 31.7364 11.3614M23.9849 17.0207H21.9458C21.2561 17.0207 20.5964 16.7366 20.1316 16.2487C19.6668 15.7461 19.2695 15.1853 18.9622 14.5807C18.7073 14.0782 18.4074 13.6048 18.0626 13.1532C17.4104 14.2311 16.8856 15.178 16.4733 15.9864C16.4733 15.9719 16.7581 16.3433 17.3204 17.1008C17.7402 17.5597 18.0326 18.1205 18.1675 18.725C18.0476 19.3223 17.7102 19.854 17.2229 20.2254C16.7057 20.677 16.1809 21.1359 15.6561 21.602C14.7116 22.5561 13.4296 23.1315 12.0728 23.1971C11.3906 23.1898 10.7309 22.9786 10.1686 22.6071C9.54639 22.2138 9.24653 22.0172 9.26152 22.0172C9.19405 22.0172 9.16406 22.09 9.16406 22.2357C9.16406 22.6071 9.9737 23.2262 11.593 24.0857C13.2122 24.9451 14.3967 25.3821 15.1464 25.3748C16.1059 25.3748 17.133 24.5955 18.2125 23.0296C18.8947 22.0536 19.4419 20.9975 19.8318 19.8831C20.0642 20.087 20.349 20.2109 20.6564 20.2473C20.8363 20.2837 21.0162 20.3055 21.2036 20.3201H24.0224V17.028L23.9849 17.0207Z" fill="#00317E"/>
<path d="M15.6427 13.2917H24.3388L25.958 9.92675C24.931 9.92675 23.874 9.9486 22.7945 9.99958C21.7149 10.0506 21.1152 10.0724 21.0028 10.0724C20.7179 10.1015 20.433 10.0506 20.1781 9.92675C19.6159 9.49702 19.0986 9.0236 18.6338 8.49919C18.3564 8.23698 18.1166 7.93836 17.9366 7.60332C17.9366 7.50864 18.1241 7.3921 18.5064 7.26828C19.1886 7.04978 19.9008 6.94053 20.6204 6.95509C21.5575 6.89683 22.4946 7.07891 23.3342 7.48679C23.5591 7.62517 23.754 7.80726 23.904 8.01848C24.0839 8.20785 24.2188 8.30982 24.3013 8.30982C24.3837 8.30982 24.4062 8.17143 24.3762 7.90194C24.3388 7.60332 24.2488 7.3047 24.1289 7.02793C23.844 6.30686 23.4242 5.63679 22.8844 5.06868C22.3896 4.486 21.67 4.13639 20.8903 4.09998C20.0582 4.09998 19.1061 4.63895 18.0266 5.72419C17.4793 6.23403 16.9996 6.80942 16.6097 7.44308C16.1899 7.94564 15.9425 8.56474 15.9125 9.21297V10.0141H14.2483V13.3063H15.6352M14.5032 10.0141C13.821 10.0141 13.3187 9.34407 12.9814 8.00391C12.8839 7.53777 12.779 7.05706 12.6815 6.57635C12.5541 6.18305 12.1567 5.93541 11.7369 5.97183C11.0172 6.06651 10.38 6.47438 10.0202 7.0862C9.46544 7.86553 8.94818 8.67399 8.47589 9.5043C8.09356 10.2472 7.71873 10.9901 7.35889 11.7258C7.08901 12.3012 6.51177 12.6872 5.86706 12.7163C5.48473 12.7163 5.06492 12.4031 4.62262 11.7695C3.20576 9.29309 5.58969 8.54289 6.30187 8.23698C7.3364 7.69801 6.42181 7.77084 6.42181 7.77084C6.42931 7.76356 2.87591 8.65942 3.00335 10.7716C3.08581 11.8787 3.31821 12.9639 3.67804 14.0128C4.27777 15.6734 5.07242 16.5037 6.06947 16.5037C6.64671 16.5037 7.21645 15.8919 7.76371 14.6683C8.26598 13.5248 8.75326 12.3813 9.23305 11.2305C9.87776 9.98501 10.6199 9.36592 11.4446 9.36592C11.647 9.36592 11.8419 9.69368 12.0443 10.3565C12.1942 11.0047 12.4266 11.6311 12.7415 12.221C13.0938 12.8474 13.7535 13.2553 14.4807 13.2844H15.0204V9.9923H14.5032V10.0141Z" fill="#00317E"/>
<path d="M29.1198 3L26.0537 5.97894L29.1198 8.95787L32.186 5.97894L29.1198 3Z" fill="#00317E"/>
<path d="M32.1342 29.1113H29.0006V27.8294C29.0006 27.7347 29.0156 27.64 29.0381 27.5454C29.0681 27.4288 29.1356 27.3196 29.233 27.2395C29.3679 27.1229 29.5254 27.0428 29.6978 26.9918C30.2675 26.8534 30.8598 26.8534 31.4295 26.9918C31.6019 27.0428 31.7594 27.1229 31.9018 27.2395C31.9918 27.3196 32.0592 27.4288 32.0967 27.5454C32.1192 27.64 32.1342 27.7347 32.1342 27.8294V29.1113ZM32.9963 31.4857V27.844C32.9963 27.6837 32.9738 27.5308 32.9214 27.3851C32.8614 27.2176 32.7414 27.0792 32.584 26.9845C32.3591 26.8461 32.1117 26.7442 31.8493 26.6932C31.0022 26.5475 30.1326 26.5475 29.2855 26.6932C29.0231 26.7442 28.7757 26.8461 28.5508 26.9845C28.4009 27.0792 28.2809 27.2249 28.2135 27.3851C28.161 27.5308 28.1385 27.691 28.1385 27.844V31.4857H29.0006V29.4026H32.1342V31.4784H32.9888L32.9963 31.4857ZM26.5042 29.1113H23.3706V27.8294C23.3706 27.7347 23.3856 27.64 23.4081 27.5454C23.4381 27.4288 23.5056 27.3196 23.603 27.2395C23.738 27.1229 23.8954 27.0428 24.0753 26.9918C24.6451 26.8534 25.2373 26.8534 25.807 26.9918C25.9795 27.0428 26.1369 27.1229 26.2793 27.2395C26.3693 27.3196 26.4368 27.4288 26.4742 27.5454C26.4967 27.64 26.5117 27.7347 26.5117 27.8294V29.1113H26.5042ZM27.3663 31.4857V27.844C27.3663 27.6837 27.3439 27.5308 27.2914 27.3851C27.2314 27.2176 27.1115 27.0792 26.954 26.9845C26.7291 26.8461 26.4817 26.7442 26.2194 26.6932C25.3722 26.5475 24.5026 26.5475 23.6555 26.6932C23.3931 26.7442 23.1457 26.8461 22.9208 26.9845C22.7709 27.0792 22.651 27.2249 22.591 27.3851C22.5385 27.5308 22.516 27.691 22.516 27.844V31.4857H23.3781V29.4026H26.5117V31.4784H27.3663V31.4857ZM21.8338 26.5767H17.2609V26.8898H21.0692V26.9044L17.2609 30.9249V31.493H21.8338V31.1798H18.048L21.8338 27.1375V26.5839V26.5767ZM15.7166 29.1186H12.583V27.8367C12.583 27.742 12.598 27.6473 12.6205 27.5526C12.6505 27.4361 12.7179 27.3269 12.8154 27.2467C12.9503 27.1302 13.1078 27.0501 13.2877 26.9991C13.8574 26.8607 14.4497 26.8607 15.0194 26.9991C15.1918 27.0428 15.3492 27.1302 15.4842 27.2467C15.5816 27.3269 15.6491 27.4361 15.6791 27.5526C15.7016 27.6473 15.7166 27.742 15.7166 27.8367V29.1186ZM16.5787 31.493V27.8513C16.5787 27.691 16.5562 27.5381 16.5037 27.3924C16.4363 27.2249 16.3238 27.0865 16.1664 26.9918C15.9415 26.8534 15.6941 26.7515 15.4317 26.7005C14.5846 26.5548 13.715 26.5548 12.8679 26.7005C12.6055 26.7515 12.3581 26.8534 12.1332 26.9918C11.9833 27.0865 11.8633 27.2322 11.7958 27.3924C11.7434 27.5381 11.7209 27.6983 11.7209 27.8513V31.493H12.583V29.4099H15.7166V31.4857H16.5712L16.5787 31.493ZM9.4494 26.9044H11.3311V26.6859C11.2186 26.6495 11.1062 26.6276 10.9862 26.6131C10.7988 26.5912 10.6189 26.5839 10.4315 26.5912H9.19451C8.9921 26.5912 8.75971 26.6058 8.48983 26.6276C8.22745 26.6495 7.97256 26.7005 7.71768 26.7806C7.49278 26.8534 7.28287 26.97 7.10295 27.1302C6.93053 27.2904 6.84807 27.5162 6.86306 27.742V31.5003H7.72517V29.1696H9.39692C9.58434 29.1696 9.77175 29.1623 9.95917 29.1404C10.0716 29.1259 10.1841 29.104 10.2965 29.0676V28.8564H7.72517V27.7639C7.71018 27.5891 7.77015 27.4143 7.8976 27.2904C8.02504 27.1739 8.18247 27.0865 8.34739 27.0355C8.53481 26.9772 8.72223 26.9408 8.91714 26.9263C9.11955 26.9117 9.29197 26.9044 9.4494 26.9044Z" fill="#00317E"/>
<path d="M18.1706 9.62109L16.3564 11.3837L18.1706 13.1463L19.9848 11.3837L18.1706 9.62109Z" fill="white"/>
</g>
</svg>
