<svg width="14" height="14" viewBox="0 0 14 14" fill="none" xmlns="http://www.w3.org/2000/svg">
<path d="M6.3335 10.333H7.66683V6.33301H6.3335V10.333ZM7.00016 4.99967C7.18905 4.99967 7.34738 4.93579 7.47516 4.80801C7.60294 4.68023 7.66683 4.5219 7.66683 4.33301C7.66683 4.14412 7.60294 3.98579 7.47516 3.85801C7.34738 3.73023 7.18905 3.66634 7.00016 3.66634C6.81127 3.66634 6.65294 3.73023 6.52516 3.85801C6.39738 3.98579 6.3335 4.14412 6.3335 4.33301C6.3335 4.5219 6.39738 4.68023 6.52516 4.80801C6.65294 4.93579 6.81127 4.99967 7.00016 4.99967ZM7.00016 13.6663C6.07794 13.6663 5.21127 13.4913 4.40016 13.1413C3.58905 12.7913 2.8835 12.3163 2.2835 11.7163C1.6835 11.1163 1.2085 10.4108 0.858496 9.59967C0.508496 8.78856 0.333496 7.9219 0.333496 6.99967C0.333496 6.07745 0.508496 5.21079 0.858496 4.39967C1.2085 3.58856 1.6835 2.88301 2.2835 2.28301C2.8835 1.68301 3.58905 1.20801 4.40016 0.858008C5.21127 0.508008 6.07794 0.333008 7.00016 0.333008C7.92238 0.333008 8.78905 0.508008 9.60016 0.858008C10.4113 1.20801 11.1168 1.68301 11.7168 2.28301C12.3168 2.88301 12.7918 3.58856 13.1418 4.39967C13.4918 5.21079 13.6668 6.07745 13.6668 6.99967C13.6668 7.9219 13.4918 8.78856 13.1418 9.59967C12.7918 10.4108 12.3168 11.1163 11.7168 11.7163C11.1168 12.3163 10.4113 12.7913 9.60016 13.1413C8.78905 13.4913 7.92238 13.6663 7.00016 13.6663Z" fill="#BDBDBD"/>
</svg>
