<svg width="26" height="18" viewBox="0 0 26 18" fill="none" xmlns="http://www.w3.org/2000/svg">
<path d="M3.83164 17.8047C2.1297 17.8047 0.75 16.425 0.75 14.723C0.75 14.0994 0.912405 13.5262 1.23722 13.0034C1.56203 12.4806 1.99356 12.0816 2.53182 11.8065C3.68258 11.2379 4.85189 10.8114 6.03977 10.5271C7.22765 10.2427 8.43409 10.1006 9.65909 10.1006C10.8841 10.1006 12.0905 10.2427 13.2784 10.5271C14.4663 10.8114 15.6356 11.2379 16.7864 11.8065C17.3246 12.0816 17.7562 12.4806 18.081 13.0034C18.4058 13.5262 18.5682 14.0994 18.5682 14.723C18.5682 16.425 17.1885 17.8047 15.4865 17.8047H3.83164ZM23.0227 17.8047C21.7926 17.8047 20.7955 16.8075 20.7955 15.5774V14.5029C20.7955 13.6958 20.5681 12.9208 20.1134 12.1779C19.7651 11.6091 20.2156 10.6273 20.8511 10.8297C21.6864 11.0957 22.4659 11.4213 23.1898 11.8065C23.858 12.1734 24.3684 12.5815 24.721 13.0309C25.0737 13.4803 25.25 13.971 25.25 14.5029V15.5774C25.25 16.8075 24.2528 17.8047 23.0227 17.8047ZM9.65909 9C8.43409 9 7.38542 8.56894 6.51307 7.70681C5.64072 6.84469 5.20455 5.8083 5.20455 4.59766C5.20455 3.38701 5.64072 2.35063 6.51307 1.4885C7.38542 0.626375 8.43409 0.195312 9.65909 0.195312C10.8841 0.195312 11.9328 0.626375 12.8051 1.4885C13.6775 2.35063 14.1136 3.38701 14.1136 4.59766C14.1136 5.8083 13.6775 6.84469 12.8051 7.70681C11.9328 8.56894 10.8841 9 9.65909 9ZM20.7955 4.59766C20.7955 5.8083 20.3593 6.84469 19.4869 7.70681C18.6146 8.56894 17.5659 9 16.3409 9C16.1367 9 15.8769 8.97707 15.5614 8.93121C15.1963 8.87815 15.0564 8.45365 15.2609 8.14664C15.5359 7.73396 15.7613 7.29386 15.9372 6.82634C16.2063 6.11096 16.3409 5.36807 16.3409 4.59766C16.3409 3.82725 16.2063 3.08435 15.9372 2.36897C15.7622 1.90368 15.5381 1.46555 15.2649 1.05458C15.051 0.732843 15.1772 0.277265 15.5614 0.236584C15.8212 0.20907 16.0811 0.195312 16.3409 0.195312C17.5659 0.195312 18.6146 0.626375 19.4869 1.4885C20.3593 2.35063 20.7955 3.38701 20.7955 4.59766Z" fill="#883BA9"/>
</svg>
