<svg width="19" height="24" viewBox="0 0 19 24" fill="none" xmlns="http://www.w3.org/2000/svg">
<path d="M4.19237 23.0833C3.19468 23.0833 2.35069 22.7382 1.66042 22.0479C0.970139 21.3576 0.625 20.5136 0.625 19.5159V4.70829C0.625 3.66276 0.99075 2.76949 1.72225 2.02846C2.45356 1.28724 3.35169 0.916626 4.41667 0.916626H18.125V17.6985C17.6045 17.6985 17.1714 17.8762 16.8259 18.2314C16.4804 18.5867 16.3076 19.0148 16.3076 19.5159C16.3076 20.0364 16.4804 20.4695 16.8259 20.815C17.1714 21.1605 17.6045 21.3333 18.125 21.3333V23.0833H4.19237ZM4.19237 21.3333H15.094C14.9248 21.0685 14.7932 20.7877 14.6991 20.491C14.6048 20.194 14.5576 19.869 14.5576 19.5159C14.5576 19.1824 14.6018 18.8624 14.69 18.5557C14.7783 18.2491 14.913 17.9634 15.094 17.6985H4.19237C3.67185 17.6985 3.23882 17.8762 2.89329 18.2314C2.54776 18.5867 2.375 19.0148 2.375 19.5159C2.375 20.0364 2.54776 20.4695 2.89329 20.815C3.23882 21.1605 3.67185 21.3333 4.19237 21.3333ZM2.375 16.4849C2.63983 16.3039 2.92061 16.1692 3.21733 16.081C3.51425 15.9929 3.83926 15.9488 4.19237 15.9488H16.375V2.66663H4.41667C3.83625 2.66663 3.35092 2.86671 2.96067 3.26688C2.57022 3.66685 2.375 4.14732 2.375 4.70829V16.4849ZM5.74492 13.0319H6.93842L7.64512 11.0733H11.0757L11.7824 13.0319H12.9648L9.98517 5.13471H8.71758L5.74492 13.0319ZM8.00854 10.0347L9.33912 6.38188H9.39308L10.7123 10.0347H8.00854Z" fill="#1C1B1F"/>
</svg>
