<svg width="28" height="28" viewBox="0 0 28 28" fill="none" xmlns="http://www.w3.org/2000/svg">
<mask id="mask0_3416_3579" style="mask-type:alpha" maskUnits="userSpaceOnUse" x="0" y="0" width="28" height="28">
<rect width="28" height="28" fill="#D9D9D9"/>
</mask>
<g mask="url(#mask0_3416_3579)">
<path d="M14.1166 24.5C13.786 24.5 13.5089 24.3882 13.2853 24.1646C13.0617 23.941 12.9499 23.6639 12.9499 23.3333C12.9499 23.1972 12.9791 23.0562 13.0374 22.9104C13.0958 22.7646 13.1833 22.6333 13.2999 22.5167L18.6958 17.1208L17.8499 16.275L12.4833 21.6708C12.3666 21.7875 12.2402 21.875 12.1041 21.9333C11.968 21.9917 11.8221 22.0208 11.6666 22.0208C11.336 22.0208 11.0589 21.909 10.8353 21.6854C10.6117 21.4618 10.4999 21.1847 10.4999 20.8542C10.4999 20.6597 10.5291 20.4993 10.5874 20.3729C10.6458 20.2465 10.7235 20.1347 10.8208 20.0375L16.2166 14.6417L15.3999 13.825L10.0041 19.1917C9.88742 19.3083 9.76103 19.3958 9.62492 19.4542C9.48881 19.5125 9.33325 19.5417 9.15825 19.5417C8.84714 19.5417 8.57492 19.425 8.34159 19.1917C8.10825 18.9583 7.99159 18.6861 7.99159 18.375C7.99159 18.2194 8.02075 18.0736 8.07909 17.9375C8.13742 17.8014 8.22492 17.675 8.34159 17.5583L13.7374 12.1625L12.8916 11.3458L7.52492 16.7417C7.4277 16.8389 7.31103 16.9167 7.17492 16.975C7.03881 17.0333 6.87353 17.0625 6.67909 17.0625C6.34853 17.0625 6.07145 16.9507 5.84784 16.7271C5.62422 16.5035 5.51242 16.2264 5.51242 15.8958C5.51242 15.7403 5.54159 15.5944 5.59992 15.4583C5.65825 15.3222 5.74575 15.1958 5.86242 15.0792L12.3666 8.575L16.7416 12.9792C16.9555 13.1931 17.2083 13.3632 17.4999 13.4896C17.7916 13.616 18.0833 13.6792 18.3749 13.6792C18.9971 13.6792 19.5416 13.4604 20.0083 13.0229C20.4749 12.5854 20.7083 12.0264 20.7083 11.3458C20.7083 11.0736 20.6596 10.7917 20.5624 10.5C20.4652 10.2083 20.2902 9.93611 20.0374 9.68333L14.8166 4.4625C15.1471 4.15139 15.5166 3.91319 15.9249 3.74792C16.3333 3.58264 16.7416 3.5 17.1499 3.5C17.6555 3.5 18.1221 3.58264 18.5499 3.74792C18.9777 3.91319 19.3666 4.17083 19.7166 4.52083L24.6458 9.47917C24.9958 9.82917 25.2534 10.2181 25.4187 10.6458C25.5839 11.0736 25.6666 11.5694 25.6666 12.1333C25.6666 12.5222 25.5791 12.916 25.4041 13.3146C25.2291 13.7132 24.9763 14.0778 24.6458 14.4083L14.9333 24.15C14.7777 24.3056 14.6416 24.4028 14.5249 24.4417C14.4083 24.4806 14.2721 24.5 14.1166 24.5ZM4.11242 15.1667L3.35409 14.4083C3.02353 14.0972 2.77075 13.7278 2.59575 13.3C2.42075 12.8722 2.33325 12.425 2.33325 11.9583C2.33325 11.4528 2.43047 10.9861 2.62492 10.5583C2.81936 10.1306 3.06242 9.77083 3.35409 9.47917L8.28325 4.52083C8.59436 4.20972 8.96381 3.96181 9.39159 3.77708C9.81936 3.59236 10.2374 3.5 10.6458 3.5C11.1708 3.5 11.6374 3.57292 12.0458 3.71875C12.4541 3.86458 12.8527 4.13194 13.2416 4.52083L19.2208 10.5C19.3374 10.6167 19.4249 10.7431 19.4833 10.8792C19.5416 11.0153 19.5708 11.1611 19.5708 11.3167C19.5708 11.6278 19.4541 11.9 19.2208 12.1333C18.9874 12.3667 18.7152 12.4833 18.4041 12.4833C18.2291 12.4833 18.0833 12.459 17.9666 12.4104C17.8499 12.3618 17.7235 12.2694 17.5874 12.1333L12.3374 6.94167L4.11242 15.1667Z" fill="#177DB7"/>
</g>
</svg>
