<svg width="25" height="24" viewBox="0 0 25 24" fill="none" xmlns="http://www.w3.org/2000/svg">
<path d="M12.1283 21.2998C12.2435 21.2998 12.3605 21.2729 12.4795 21.2191C12.5983 21.1652 12.6921 21.1038 12.761 21.035L22.092 11.704C22.3552 11.4407 22.5535 11.1595 22.6867 10.8602C22.8197 10.5612 22.8862 10.2471 22.8862 9.91814C22.8862 9.57708 22.8197 9.24876 22.6867 8.93318C22.5535 8.6174 22.3552 8.3339 22.092 8.08268L17.4253 3.41601C17.1741 3.15274 16.9019 2.96014 16.6086 2.83822C16.3156 2.7165 15.9986 2.65564 15.6575 2.65564C15.3285 2.65564 15.0125 2.7165 14.7096 2.83822C14.4066 2.96014 14.1273 3.15274 13.8716 3.41601L13.2028 4.08481L15.3612 6.26093C15.6229 6.51079 15.8163 6.79575 15.9413 7.11581C16.0661 7.43586 16.1285 7.76788 16.1285 8.11185C16.1285 8.8239 15.8907 9.41774 15.4151 9.89335C14.9395 10.369 14.3457 10.6068 13.6336 10.6068C13.2897 10.6068 12.9565 10.5499 12.6341 10.4361C12.3119 10.3226 12.0259 10.1409 11.776 9.89102L9.56605 7.69914L4.49572 12.7695C4.40744 12.8578 4.34123 12.9565 4.29709 13.0658C4.25295 13.1749 4.23088 13.2871 4.23088 13.4024C4.23088 13.6176 4.30419 13.8016 4.4508 13.9542C4.59741 14.1069 4.77834 14.1832 4.99359 14.1832C5.1089 14.1832 5.22595 14.1562 5.34476 14.1024C5.46376 14.0485 5.55767 13.9872 5.62651 13.9183L9.45842 10.0864L10.6878 11.3158L6.87367 15.1477C6.78559 15.236 6.71948 15.3348 6.67534 15.4441C6.6312 15.5531 6.60913 15.6653 6.60913 15.7806C6.60913 15.9885 6.68428 16.1676 6.83459 16.3179C6.9849 16.4682 7.16398 16.5433 7.37184 16.5433C7.48714 16.5433 7.6042 16.5164 7.72301 16.4626C7.84201 16.4087 7.93583 16.3473 8.00446 16.2785L11.9711 12.3299L13.2008 13.5593L9.25192 17.526C9.17123 17.5948 9.10696 17.6886 9.05913 17.8074C9.0113 17.9264 8.98738 18.0435 8.98738 18.1586C8.98738 18.3667 9.06253 18.5458 9.21284 18.6961C9.36314 18.8464 9.54223 18.9216 9.75009 18.9216C9.8652 18.9216 9.9774 18.8995 10.0867 18.8554C10.1958 18.8113 10.2944 18.745 10.3827 18.6568L14.3494 14.7082L15.579 15.9376L11.6124 19.9042C11.5241 19.9925 11.4579 20.095 11.4138 20.2116C11.3696 20.3283 11.3475 20.4405 11.3475 20.5482C11.3475 20.7635 11.4276 20.9426 11.5876 21.0855C11.7476 21.2284 11.9279 21.2998 12.1283 21.2998ZM12.1103 23.0496C11.4507 23.0496 10.8756 22.8208 10.385 22.3633C9.89446 21.9055 9.63799 21.3356 9.61563 20.6535C8.95452 20.6086 8.4022 20.3738 7.95867 19.9491C7.51514 19.5243 7.27471 18.9663 7.23738 18.2753C6.54633 18.2305 5.98769 17.989 5.56146 17.5508C5.13505 17.1125 4.90687 16.5612 4.87692 15.897C4.18295 15.8523 3.61012 15.6007 3.15842 15.1422C2.70673 14.6837 2.48088 14.1038 2.48088 13.4024C2.48088 13.0584 2.54631 12.7214 2.67717 12.3915C2.80803 12.0617 2.9984 11.772 3.24826 11.5223L9.56605 5.22231L12.9832 8.63918C13.0519 8.71988 13.1419 8.78424 13.2533 8.83226C13.3649 8.8801 13.4858 8.90401 13.6158 8.90401C13.8282 8.90401 14.0113 8.83372 14.1653 8.69314C14.3195 8.55256 14.3966 8.36851 14.3966 8.14101C14.3966 8.01093 14.3727 7.89018 14.3249 7.77877C14.2769 7.66735 14.2125 7.57722 14.1318 7.50839L10.0394 3.41601C9.7882 3.15274 9.51413 2.96014 9.21721 2.83822C8.9203 2.7165 8.60131 2.65564 8.26026 2.65564C7.93126 2.65564 7.61908 2.7165 7.32371 2.83822C7.02816 2.96014 6.74884 3.15274 6.48576 3.41601L2.65355 7.26601C2.44122 7.47835 2.26738 7.72928 2.13205 8.01881C1.99672 8.30814 1.91709 8.60321 1.89317 8.90401C1.86906 9.15232 1.88024 9.398 1.92672 9.64106C1.97299 9.88411 2.05446 10.1126 2.17113 10.3265L0.883423 11.6142C0.620146 11.2342 0.422007 10.8087 0.289007 10.3376C0.155812 9.86642 0.101173 9.38857 0.12509 8.90401C0.149007 8.36696 0.270146 7.84828 0.488507 7.34797C0.706868 6.84767 1.01273 6.40083 1.40609 6.00747L5.22692 2.18664C5.66384 1.76178 6.13916 1.44211 6.65288 1.22764C7.1666 1.01297 7.70619 0.90564 8.27163 0.90564C8.83688 0.90564 9.37452 1.01297 9.88455 1.22764C10.3948 1.44211 10.8622 1.76178 11.2869 2.18664L11.9557 2.85514L12.6242 2.18664C13.0609 1.76178 13.5343 1.44211 14.0443 1.22764C14.5543 1.01297 15.0921 0.90564 15.6575 0.90564C16.2229 0.90564 16.7625 1.01297 17.2763 1.22764C17.79 1.44211 18.2593 1.76178 18.6841 2.18664L23.3216 6.82414C23.7463 7.249 24.0716 7.73249 24.2975 8.2746C24.5233 8.81671 24.6362 9.37049 24.6362 9.93593C24.6362 10.5014 24.5233 11.0391 24.2975 11.5491C24.0716 12.0592 23.7463 12.5265 23.3216 12.9512L13.9903 22.2644C13.7331 22.5216 13.4434 22.7169 13.1212 22.8501C12.7988 22.9831 12.4618 23.0496 12.1103 23.0496Z" fill="#1C1B1F"/>
</svg>
