<svg width="22" height="22" viewBox="0 0 22 22" fill="none" xmlns="http://www.w3.org/2000/svg">
<path d="M11 21.5C8.55 21.5 6.38194 20.7562 4.49583 19.2687C2.60972 17.7812 1.38472 15.8806 0.820833 13.5667C0.743056 13.275 0.801389 13.0076 0.995833 12.7646C1.19028 12.5215 1.45278 12.3806 1.78333 12.3417C2.09444 12.3028 2.37639 12.3611 2.62917 12.5167C2.88194 12.6722 3.05694 12.9056 3.15417 13.2167C3.62083 14.9667 4.58333 16.3958 6.04167 17.5042C7.5 18.6125 9.15278 19.1667 11 19.1667C13.275 19.1667 15.2049 18.3743 16.7896 16.7896C18.3743 15.2049 19.1667 13.275 19.1667 11C19.1667 8.725 18.3743 6.79514 16.7896 5.21042C15.2049 3.62569 13.275 2.83333 11 2.83333C9.65833 2.83333 8.40417 3.14444 7.2375 3.76667C6.07083 4.38889 5.08889 5.24444 4.29167 6.33333H6.33333C6.66389 6.33333 6.94097 6.44514 7.16458 6.66875C7.38819 6.89236 7.5 7.16944 7.5 7.5C7.5 7.83056 7.38819 8.10764 7.16458 8.33125C6.94097 8.55486 6.66389 8.66667 6.33333 8.66667H1.66667C1.33611 8.66667 1.05903 8.55486 0.835417 8.33125C0.611806 8.10764 0.5 7.83056 0.5 7.5V2.83333C0.5 2.50278 0.611806 2.22569 0.835417 2.00208C1.05903 1.77847 1.33611 1.66667 1.66667 1.66667C1.99722 1.66667 2.27431 1.77847 2.49792 2.00208C2.72153 2.22569 2.83333 2.50278 2.83333 2.83333V4.40833C3.825 3.16389 5.03542 2.20139 6.46458 1.52083C7.89375 0.840278 9.40555 0.5 11 0.5C12.4583 0.5 13.8243 0.777083 15.0979 1.33125C16.3715 1.88542 17.4799 2.63403 18.4229 3.57708C19.366 4.52014 20.1146 5.62847 20.6687 6.90208C21.2229 8.17569 21.5 9.54167 21.5 11C21.5 12.4583 21.2229 13.8243 20.6687 15.0979C20.1146 16.3715 19.366 17.4799 18.4229 18.4229C17.4799 19.366 16.3715 20.1146 15.0979 20.6687C13.8243 21.2229 12.4583 21.5 11 21.5ZM12.1667 10.5333L15.0833 13.45C15.2972 13.6639 15.4042 13.9361 15.4042 14.2667C15.4042 14.5972 15.2972 14.8694 15.0833 15.0833C14.8694 15.2972 14.5972 15.4042 14.2667 15.4042C13.9361 15.4042 13.6639 15.2972 13.45 15.0833L10.1833 11.8167C10.0667 11.7 9.97917 11.5687 9.92083 11.4229C9.8625 11.2771 9.83333 11.1264 9.83333 10.9708V6.33333C9.83333 6.00278 9.94514 5.72569 10.1687 5.50208C10.3924 5.27847 10.6694 5.16667 11 5.16667C11.3306 5.16667 11.6076 5.27847 11.8313 5.50208C12.0549 5.72569 12.1667 6.00278 12.1667 6.33333V10.5333Z" fill="white"/>
</svg>
