<svg width="29" height="28" viewBox="0 0 29 28" fill="none" xmlns="http://www.w3.org/2000/svg">
<mask id="mask0_3048_3938" style="mask-type:alpha" maskUnits="userSpaceOnUse" x="0" y="0" width="29" height="28">
<rect x="0.300049" width="28" height="28" fill="#D9D9D9"/>
</mask>
<g mask="url(#mask0_3048_3938)">
<path d="M7.30037 22.1667H10.8004V16.3334C10.8004 16.0028 10.9122 15.7257 11.1358 15.5021C11.3594 15.2785 11.6365 15.1667 11.967 15.1667H16.6337C16.9643 15.1667 17.2413 15.2785 17.465 15.5021C17.6886 15.7257 17.8004 16.0028 17.8004 16.3334V22.1667H21.3004V11.6667L14.3004 6.41671L7.30037 11.6667V22.1667ZM4.96704 22.1667V11.6667C4.96704 11.2973 5.04968 10.9473 5.21496 10.6167C5.38024 10.2862 5.60871 10.0139 5.90037 9.80004L12.9004 4.55004C13.3087 4.23893 13.7754 4.08337 14.3004 4.08337C14.8254 4.08337 15.292 4.23893 15.7004 4.55004L22.7004 9.80004C22.992 10.0139 23.2205 10.2862 23.3858 10.6167C23.5511 10.9473 23.6337 11.2973 23.6337 11.6667V22.1667C23.6337 22.8084 23.4052 23.3577 22.9483 23.8146C22.4913 24.2716 21.942 24.5 21.3004 24.5H16.6337C16.3032 24.5 16.0261 24.3882 15.8025 24.1646C15.5788 23.941 15.467 23.6639 15.467 23.3334V17.5H13.1337V23.3334C13.1337 23.6639 13.0219 23.941 12.7983 24.1646C12.5747 24.3882 12.2976 24.5 11.967 24.5H7.30037C6.65871 24.5 6.1094 24.2716 5.65246 23.8146C5.19551 23.3577 4.96704 22.8084 4.96704 22.1667Z" fill="#7F7F7F"/>
</g>
</svg>
