<svg width="29" height="28" viewBox="0 0 29 28" fill="none" xmlns="http://www.w3.org/2000/svg">
<mask id="mask0_3048_2659" style="mask-type:alpha" maskUnits="userSpaceOnUse" x="0" y="0" width="29" height="28">
<rect x="0.300049" width="28" height="28" fill="#D9D9D9"/>
</mask>
<g mask="url(#mask0_3048_2659)">
<path d="M5.19995 21.5599V11.48C5.19995 11.1253 5.28052 10.7893 5.44167 10.472C5.60282 10.1546 5.82558 9.89328 6.10995 9.68795L12.935 4.64795C13.3331 4.34928 13.7881 4.19995 14.3 4.19995C14.8118 4.19995 15.2668 4.34928 15.665 4.64795L22.49 9.68795C22.7743 9.89328 22.9971 10.1546 23.1582 10.472C23.3194 10.7893 23.4 11.1253 23.4 11.48V21.5599C23.4 22.176 23.1772 22.7033 22.7317 23.142C22.2861 23.5806 21.7506 23.7999 21.125 23.7999H17.7125C17.3902 23.7999 17.12 23.6926 16.902 23.4779C16.684 23.2633 16.575 22.9973 16.575 22.6799V17.0799C16.575 16.7626 16.4659 16.4966 16.2479 16.2819C16.0299 16.0673 15.7597 15.96 15.4375 15.96H13.1625C12.8402 15.96 12.57 16.0673 12.352 16.2819C12.134 16.4966 12.025 16.7626 12.025 17.0799V22.6799C12.025 22.9973 11.9159 23.2633 11.6979 23.4779C11.4799 23.6926 11.2097 23.7999 10.8875 23.7999H7.47495C6.84933 23.7999 6.31375 23.5806 5.86823 23.142C5.42271 22.7033 5.19995 22.176 5.19995 21.5599Z" fill="#177DB7"/>
</g>
</svg>
