<svg width="25" height="28" viewBox="0 0 25 28" fill="none" xmlns="http://www.w3.org/2000/svg">
<path d="M7.16667 16.6662C6.78889 16.6662 6.47222 16.5384 6.21667 16.2829C5.96111 16.0273 5.83333 15.7106 5.83333 15.3329C5.83333 14.9551 5.96111 14.6384 6.21667 14.3829C6.47222 14.1273 6.78889 13.9995 7.16667 13.9995C7.54444 13.9995 7.86111 14.1273 8.11667 14.3829C8.37222 14.6384 8.5 14.9551 8.5 15.3329C8.5 15.7106 8.37222 16.0273 8.11667 16.2829C7.86111 16.5384 7.54444 16.6662 7.16667 16.6662ZM12.5 16.6662C12.1222 16.6662 11.8056 16.5384 11.55 16.2829C11.2944 16.0273 11.1667 15.7106 11.1667 15.3329C11.1667 14.9551 11.2944 14.6384 11.55 14.3829C11.8056 14.1273 12.1222 13.9995 12.5 13.9995C12.8778 13.9995 13.1944 14.1273 13.45 14.3829C13.7056 14.6384 13.8333 14.9551 13.8333 15.3329C13.8333 15.7106 13.7056 16.0273 13.45 16.2829C13.1944 16.5384 12.8778 16.6662 12.5 16.6662ZM17.8333 16.6662C17.4556 16.6662 17.1389 16.5384 16.8833 16.2829C16.6278 16.0273 16.5 15.7106 16.5 15.3329C16.5 14.9551 16.6278 14.6384 16.8833 14.3829C17.1389 14.1273 17.4556 13.9995 17.8333 13.9995C18.2111 13.9995 18.5278 14.1273 18.7833 14.3829C19.0389 14.6384 19.1667 14.9551 19.1667 15.3329C19.1667 15.7106 19.0389 16.0273 18.7833 16.2829C18.5278 16.5384 18.2111 16.6662 17.8333 16.6662ZM3.16667 27.3329C2.43333 27.3329 1.80556 27.0718 1.28333 26.5495C0.761111 26.0273 0.5 25.3995 0.5 24.6662V5.99953C0.5 5.2662 0.761111 4.63842 1.28333 4.1162C1.80556 3.59398 2.43333 3.33287 3.16667 3.33287H4.5V0.666199H7.16667V3.33287H17.8333V0.666199H20.5V3.33287H21.8333C22.5667 3.33287 23.1944 3.59398 23.7167 4.1162C24.2389 4.63842 24.5 5.2662 24.5 5.99953V24.6662C24.5 25.3995 24.2389 26.0273 23.7167 26.5495C23.1944 27.0718 22.5667 27.3329 21.8333 27.3329H3.16667ZM3.16667 24.6662H21.8333V11.3329H3.16667V24.6662Z" fill="#177DB7"/>
</svg>
