<svg width="23" height="24" viewBox="0 0 23 24" fill="none" xmlns="http://www.w3.org/2000/svg">
<path d="M10.5001 17.5417H12.2501V10.8334H10.5001V17.5417ZM11.3751 8.8366C11.6421 8.8366 11.8659 8.74628 12.0465 8.56565C12.2271 8.38501 12.3175 8.1612 12.3175 7.89423C12.3175 7.62726 12.2271 7.40345 12.0465 7.22281C11.8659 7.04237 11.6421 6.95214 11.3751 6.95214C11.1081 6.95214 10.8843 7.04237 10.7037 7.22281C10.523 7.40345 10.4327 7.62726 10.4327 7.89423C10.4327 8.1612 10.523 8.38501 10.7037 8.56565C10.8843 8.74628 11.1081 8.8366 11.3751 8.8366ZM11.3771 23.0834C9.84412 23.0834 8.40319 22.7925 7.05433 22.2107C5.70547 21.6289 4.53219 20.8394 3.5345 19.8421C2.5368 18.8448 1.74687 17.672 1.16471 16.3237C0.582734 14.9754 0.291748 13.5349 0.291748 12.0021C0.291748 10.4691 0.582637 9.02813 1.16441 7.67927C1.74619 6.33041 2.53573 5.15713 3.53304 4.15944C4.53035 3.16174 5.70314 2.37181 7.05141 1.78965C8.39969 1.20767 9.84023 0.916687 11.373 0.916687C12.906 0.916687 14.347 1.20758 15.6958 1.78935C17.0447 2.37113 18.218 3.16067 19.2157 4.15798C20.2134 5.15528 21.0033 6.32808 21.5855 7.67635C22.1674 9.02463 22.4584 10.4652 22.4584 11.998C22.4584 13.531 22.1675 14.9719 21.5857 16.3208C21.004 17.6696 20.2144 18.8429 19.2171 19.8406C18.2198 20.8383 17.047 21.6282 15.6987 22.2104C14.3505 22.7924 12.9099 23.0834 11.3771 23.0834ZM11.3751 21.3334C13.9806 21.3334 16.1876 20.4292 17.9959 18.6209C19.8042 16.8125 20.7084 14.6056 20.7084 12C20.7084 9.39446 19.8042 7.18752 17.9959 5.37919C16.1876 3.57085 13.9806 2.66669 11.3751 2.66669C8.76953 2.66669 6.56258 3.57085 4.75425 5.37919C2.94591 7.18752 2.04175 9.39446 2.04175 12C2.04175 14.6056 2.94591 16.8125 4.75425 18.6209C6.56258 20.4292 8.76953 21.3334 11.3751 21.3334Z" fill="#1C1B1F"/>
</svg>
