<svg width="17" height="16" viewBox="0 0 17 16" fill="none" xmlns="http://www.w3.org/2000/svg">
<g clip-path="url(#clip0_4118_22066)">
<path d="M8.375 1.44062C10.5125 1.44062 10.7656 1.45 11.6063 1.4875C12.3875 1.52187 12.8094 1.65313 13.0906 1.7625C13.4625 1.90625 13.7313 2.08125 14.0094 2.35938C14.2906 2.64062 14.4625 2.90625 14.6063 3.27813C14.7156 3.55938 14.8469 3.98438 14.8813 4.7625C14.9188 5.60625 14.9281 5.85938 14.9281 7.99375C14.9281 10.1313 14.9188 10.3844 14.8813 11.225C14.8469 12.0063 14.7156 12.4281 14.6063 12.7094C14.4625 13.0813 14.2875 13.35 14.0094 13.6281C13.7281 13.9094 13.4625 14.0813 13.0906 14.225C12.8094 14.3344 12.3844 14.4656 11.6063 14.5C10.7625 14.5375 10.5094 14.5469 8.375 14.5469C6.2375 14.5469 5.98438 14.5375 5.14375 14.5C4.3625 14.4656 3.94063 14.3344 3.65938 14.225C3.2875 14.0813 3.01875 13.9063 2.74063 13.6281C2.45938 13.3469 2.2875 13.0813 2.14375 12.7094C2.03438 12.4281 1.90313 12.0031 1.86875 11.225C1.83125 10.3813 1.82188 10.1281 1.82188 7.99375C1.82188 5.85625 1.83125 5.60313 1.86875 4.7625C1.90313 3.98125 2.03438 3.55938 2.14375 3.27813C2.2875 2.90625 2.4625 2.6375 2.74063 2.35938C3.02188 2.07812 3.2875 1.90625 3.65938 1.7625C3.94063 1.65313 4.36563 1.52187 5.14375 1.4875C5.98438 1.45 6.2375 1.44062 8.375 1.44062ZM8.375 0C6.20313 0 5.93125 0.009375 5.07813 0.046875C4.22813 0.084375 3.64375 0.221875 3.1375 0.41875C2.60938 0.625 2.1625 0.896875 1.71875 1.34375C1.27188 1.7875 1 2.23438 0.79375 2.75938C0.596875 3.26875 0.459375 3.85 0.421875 4.7C0.384375 5.55625 0.375 5.82812 0.375 8C0.375 10.1719 0.384375 10.4438 0.421875 11.2969C0.459375 12.1469 0.596875 12.7313 0.79375 13.2375C1 13.7656 1.27188 14.2125 1.71875 14.6562C2.1625 15.1 2.60938 15.375 3.13438 15.5781C3.64375 15.775 4.225 15.9125 5.075 15.95C5.92813 15.9875 6.2 15.9969 8.37188 15.9969C10.5438 15.9969 10.8156 15.9875 11.6688 15.95C12.5188 15.9125 13.1031 15.775 13.6094 15.5781C14.1344 15.375 14.5813 15.1 15.025 14.6562C15.4688 14.2125 15.7438 13.7656 15.9469 13.2406C16.1438 12.7313 16.2813 12.15 16.3188 11.3C16.3563 10.4469 16.3656 10.175 16.3656 8.00313C16.3656 5.83125 16.3563 5.55938 16.3188 4.70625C16.2813 3.85625 16.1438 3.27188 15.9469 2.76562C15.75 2.23438 15.4781 1.7875 15.0313 1.34375C14.5875 0.9 14.1406 0.625 13.6156 0.421875C13.1063 0.225 12.525 0.0875 11.675 0.05C10.8188 0.009375 10.5469 0 8.375 0Z" fill="#1A1A1A"/>
<path d="M8.375 1.44062C10.5125 1.44062 10.7656 1.45 11.6063 1.4875C12.3875 1.52187 12.8094 1.65313 13.0906 1.7625C13.4625 1.90625 13.7313 2.08125 14.0094 2.35938C14.2906 2.64062 14.4625 2.90625 14.6063 3.27813C14.7156 3.55938 14.8469 3.98438 14.8813 4.7625C14.9188 5.60625 14.9281 5.85938 14.9281 7.99375C14.9281 10.1313 14.9188 10.3844 14.8813 11.225C14.8469 12.0063 14.7156 12.4281 14.6063 12.7094C14.4625 13.0813 14.2875 13.35 14.0094 13.6281C13.7281 13.9094 13.4625 14.0813 13.0906 14.225C12.8094 14.3344 12.3844 14.4656 11.6063 14.5C10.7625 14.5375 10.5094 14.5469 8.375 14.5469C6.2375 14.5469 5.98438 14.5375 5.14375 14.5C4.3625 14.4656 3.94063 14.3344 3.65938 14.225C3.2875 14.0813 3.01875 13.9063 2.74063 13.6281C2.45938 13.3469 2.2875 13.0813 2.14375 12.7094C2.03438 12.4281 1.90313 12.0031 1.86875 11.225C1.83125 10.3813 1.82188 10.1281 1.82188 7.99375C1.82188 5.85625 1.83125 5.60313 1.86875 4.7625C1.90313 3.98125 2.03438 3.55938 2.14375 3.27813C2.2875 2.90625 2.4625 2.6375 2.74063 2.35938C3.02188 2.07812 3.2875 1.90625 3.65938 1.7625C3.94063 1.65313 4.36563 1.52187 5.14375 1.4875C5.98438 1.45 6.2375 1.44062 8.375 1.44062ZM8.375 0C6.20313 0 5.93125 0.009375 5.07813 0.046875C4.22813 0.084375 3.64375 0.221875 3.1375 0.41875C2.60938 0.625 2.1625 0.896875 1.71875 1.34375C1.27188 1.7875 1 2.23438 0.79375 2.75938C0.596875 3.26875 0.459375 3.85 0.421875 4.7C0.384375 5.55625 0.375 5.82812 0.375 8C0.375 10.1719 0.384375 10.4438 0.421875 11.2969C0.459375 12.1469 0.596875 12.7313 0.79375 13.2375C1 13.7656 1.27188 14.2125 1.71875 14.6562C2.1625 15.1 2.60938 15.375 3.13438 15.5781C3.64375 15.775 4.225 15.9125 5.075 15.95C5.92813 15.9875 6.2 15.9969 8.37188 15.9969C10.5438 15.9969 10.8156 15.9875 11.6688 15.95C12.5188 15.9125 13.1031 15.775 13.6094 15.5781C14.1344 15.375 14.5813 15.1 15.025 14.6562C15.4688 14.2125 15.7438 13.7656 15.9469 13.2406C16.1438 12.7313 16.2813 12.15 16.3188 11.3C16.3563 10.4469 16.3656 10.175 16.3656 8.00313C16.3656 5.83125 16.3563 5.55938 16.3188 4.70625C16.2813 3.85625 16.1438 3.27188 15.9469 2.76562C15.75 2.23438 15.4781 1.7875 15.0313 1.34375C14.5875 0.9 14.1406 0.625 13.6156 0.421875C13.1063 0.225 12.525 0.0875 11.675 0.05C10.8188 0.009375 10.5469 0 8.375 0Z" fill="black" fill-opacity="0.2"/>
<path d="M8.375 1.44062C10.5125 1.44062 10.7656 1.45 11.6063 1.4875C12.3875 1.52187 12.8094 1.65313 13.0906 1.7625C13.4625 1.90625 13.7313 2.08125 14.0094 2.35938C14.2906 2.64062 14.4625 2.90625 14.6063 3.27813C14.7156 3.55938 14.8469 3.98438 14.8813 4.7625C14.9188 5.60625 14.9281 5.85938 14.9281 7.99375C14.9281 10.1313 14.9188 10.3844 14.8813 11.225C14.8469 12.0063 14.7156 12.4281 14.6063 12.7094C14.4625 13.0813 14.2875 13.35 14.0094 13.6281C13.7281 13.9094 13.4625 14.0813 13.0906 14.225C12.8094 14.3344 12.3844 14.4656 11.6063 14.5C10.7625 14.5375 10.5094 14.5469 8.375 14.5469C6.2375 14.5469 5.98438 14.5375 5.14375 14.5C4.3625 14.4656 3.94063 14.3344 3.65938 14.225C3.2875 14.0813 3.01875 13.9063 2.74063 13.6281C2.45938 13.3469 2.2875 13.0813 2.14375 12.7094C2.03438 12.4281 1.90313 12.0031 1.86875 11.225C1.83125 10.3813 1.82188 10.1281 1.82188 7.99375C1.82188 5.85625 1.83125 5.60313 1.86875 4.7625C1.90313 3.98125 2.03438 3.55938 2.14375 3.27813C2.2875 2.90625 2.4625 2.6375 2.74063 2.35938C3.02188 2.07812 3.2875 1.90625 3.65938 1.7625C3.94063 1.65313 4.36563 1.52187 5.14375 1.4875C5.98438 1.45 6.2375 1.44062 8.375 1.44062ZM8.375 0C6.20313 0 5.93125 0.009375 5.07813 0.046875C4.22813 0.084375 3.64375 0.221875 3.1375 0.41875C2.60938 0.625 2.1625 0.896875 1.71875 1.34375C1.27188 1.7875 1 2.23438 0.79375 2.75938C0.596875 3.26875 0.459375 3.85 0.421875 4.7C0.384375 5.55625 0.375 5.82812 0.375 8C0.375 10.1719 0.384375 10.4438 0.421875 11.2969C0.459375 12.1469 0.596875 12.7313 0.79375 13.2375C1 13.7656 1.27188 14.2125 1.71875 14.6562C2.1625 15.1 2.60938 15.375 3.13438 15.5781C3.64375 15.775 4.225 15.9125 5.075 15.95C5.92813 15.9875 6.2 15.9969 8.37188 15.9969C10.5438 15.9969 10.8156 15.9875 11.6688 15.95C12.5188 15.9125 13.1031 15.775 13.6094 15.5781C14.1344 15.375 14.5813 15.1 15.025 14.6562C15.4688 14.2125 15.7438 13.7656 15.9469 13.2406C16.1438 12.7313 16.2813 12.15 16.3188 11.3C16.3563 10.4469 16.3656 10.175 16.3656 8.00313C16.3656 5.83125 16.3563 5.55938 16.3188 4.70625C16.2813 3.85625 16.1438 3.27188 15.9469 2.76562C15.75 2.23438 15.4781 1.7875 15.0313 1.34375C14.5875 0.9 14.1406 0.625 13.6156 0.421875C13.1063 0.225 12.525 0.0875 11.675 0.05C10.8188 0.009375 10.5469 0 8.375 0Z" fill="black" fill-opacity="0.2"/>
<path d="M8.375 1.44062C10.5125 1.44062 10.7656 1.45 11.6063 1.4875C12.3875 1.52187 12.8094 1.65313 13.0906 1.7625C13.4625 1.90625 13.7313 2.08125 14.0094 2.35938C14.2906 2.64062 14.4625 2.90625 14.6063 3.27813C14.7156 3.55938 14.8469 3.98438 14.8813 4.7625C14.9188 5.60625 14.9281 5.85938 14.9281 7.99375C14.9281 10.1313 14.9188 10.3844 14.8813 11.225C14.8469 12.0063 14.7156 12.4281 14.6063 12.7094C14.4625 13.0813 14.2875 13.35 14.0094 13.6281C13.7281 13.9094 13.4625 14.0813 13.0906 14.225C12.8094 14.3344 12.3844 14.4656 11.6063 14.5C10.7625 14.5375 10.5094 14.5469 8.375 14.5469C6.2375 14.5469 5.98438 14.5375 5.14375 14.5C4.3625 14.4656 3.94063 14.3344 3.65938 14.225C3.2875 14.0813 3.01875 13.9063 2.74063 13.6281C2.45938 13.3469 2.2875 13.0813 2.14375 12.7094C2.03438 12.4281 1.90313 12.0031 1.86875 11.225C1.83125 10.3813 1.82188 10.1281 1.82188 7.99375C1.82188 5.85625 1.83125 5.60313 1.86875 4.7625C1.90313 3.98125 2.03438 3.55938 2.14375 3.27813C2.2875 2.90625 2.4625 2.6375 2.74063 2.35938C3.02188 2.07812 3.2875 1.90625 3.65938 1.7625C3.94063 1.65313 4.36563 1.52187 5.14375 1.4875C5.98438 1.45 6.2375 1.44062 8.375 1.44062ZM8.375 0C6.20313 0 5.93125 0.009375 5.07813 0.046875C4.22813 0.084375 3.64375 0.221875 3.1375 0.41875C2.60938 0.625 2.1625 0.896875 1.71875 1.34375C1.27188 1.7875 1 2.23438 0.79375 2.75938C0.596875 3.26875 0.459375 3.85 0.421875 4.7C0.384375 5.55625 0.375 5.82812 0.375 8C0.375 10.1719 0.384375 10.4438 0.421875 11.2969C0.459375 12.1469 0.596875 12.7313 0.79375 13.2375C1 13.7656 1.27188 14.2125 1.71875 14.6562C2.1625 15.1 2.60938 15.375 3.13438 15.5781C3.64375 15.775 4.225 15.9125 5.075 15.95C5.92813 15.9875 6.2 15.9969 8.37188 15.9969C10.5438 15.9969 10.8156 15.9875 11.6688 15.95C12.5188 15.9125 13.1031 15.775 13.6094 15.5781C14.1344 15.375 14.5813 15.1 15.025 14.6562C15.4688 14.2125 15.7438 13.7656 15.9469 13.2406C16.1438 12.7313 16.2813 12.15 16.3188 11.3C16.3563 10.4469 16.3656 10.175 16.3656 8.00313C16.3656 5.83125 16.3563 5.55938 16.3188 4.70625C16.2813 3.85625 16.1438 3.27188 15.9469 2.76562C15.75 2.23438 15.4781 1.7875 15.0313 1.34375C14.5875 0.9 14.1406 0.625 13.6156 0.421875C13.1063 0.225 12.525 0.0875 11.675 0.05C10.8188 0.009375 10.5469 0 8.375 0Z" fill="black" fill-opacity="0.2"/>
<path d="M8.375 1.44062C10.5125 1.44062 10.7656 1.45 11.6063 1.4875C12.3875 1.52187 12.8094 1.65313 13.0906 1.7625C13.4625 1.90625 13.7313 2.08125 14.0094 2.35938C14.2906 2.64062 14.4625 2.90625 14.6063 3.27813C14.7156 3.55938 14.8469 3.98438 14.8813 4.7625C14.9188 5.60625 14.9281 5.85938 14.9281 7.99375C14.9281 10.1313 14.9188 10.3844 14.8813 11.225C14.8469 12.0063 14.7156 12.4281 14.6063 12.7094C14.4625 13.0813 14.2875 13.35 14.0094 13.6281C13.7281 13.9094 13.4625 14.0813 13.0906 14.225C12.8094 14.3344 12.3844 14.4656 11.6063 14.5C10.7625 14.5375 10.5094 14.5469 8.375 14.5469C6.2375 14.5469 5.98438 14.5375 5.14375 14.5C4.3625 14.4656 3.94063 14.3344 3.65938 14.225C3.2875 14.0813 3.01875 13.9063 2.74063 13.6281C2.45938 13.3469 2.2875 13.0813 2.14375 12.7094C2.03438 12.4281 1.90313 12.0031 1.86875 11.225C1.83125 10.3813 1.82188 10.1281 1.82188 7.99375C1.82188 5.85625 1.83125 5.60313 1.86875 4.7625C1.90313 3.98125 2.03438 3.55938 2.14375 3.27813C2.2875 2.90625 2.4625 2.6375 2.74063 2.35938C3.02188 2.07812 3.2875 1.90625 3.65938 1.7625C3.94063 1.65313 4.36563 1.52187 5.14375 1.4875C5.98438 1.45 6.2375 1.44062 8.375 1.44062ZM8.375 0C6.20313 0 5.93125 0.009375 5.07813 0.046875C4.22813 0.084375 3.64375 0.221875 3.1375 0.41875C2.60938 0.625 2.1625 0.896875 1.71875 1.34375C1.27188 1.7875 1 2.23438 0.79375 2.75938C0.596875 3.26875 0.459375 3.85 0.421875 4.7C0.384375 5.55625 0.375 5.82812 0.375 8C0.375 10.1719 0.384375 10.4438 0.421875 11.2969C0.459375 12.1469 0.596875 12.7313 0.79375 13.2375C1 13.7656 1.27188 14.2125 1.71875 14.6562C2.1625 15.1 2.60938 15.375 3.13438 15.5781C3.64375 15.775 4.225 15.9125 5.075 15.95C5.92813 15.9875 6.2 15.9969 8.37188 15.9969C10.5438 15.9969 10.8156 15.9875 11.6688 15.95C12.5188 15.9125 13.1031 15.775 13.6094 15.5781C14.1344 15.375 14.5813 15.1 15.025 14.6562C15.4688 14.2125 15.7438 13.7656 15.9469 13.2406C16.1438 12.7313 16.2813 12.15 16.3188 11.3C16.3563 10.4469 16.3656 10.175 16.3656 8.00313C16.3656 5.83125 16.3563 5.55938 16.3188 4.70625C16.2813 3.85625 16.1438 3.27188 15.9469 2.76562C15.75 2.23438 15.4781 1.7875 15.0313 1.34375C14.5875 0.9 14.1406 0.625 13.6156 0.421875C13.1063 0.225 12.525 0.0875 11.675 0.05C10.8188 0.009375 10.5469 0 8.375 0Z" fill="black" fill-opacity="0.2"/>
<path d="M8.375 1.44062C10.5125 1.44062 10.7656 1.45 11.6063 1.4875C12.3875 1.52187 12.8094 1.65313 13.0906 1.7625C13.4625 1.90625 13.7313 2.08125 14.0094 2.35938C14.2906 2.64062 14.4625 2.90625 14.6063 3.27813C14.7156 3.55938 14.8469 3.98438 14.8813 4.7625C14.9188 5.60625 14.9281 5.85938 14.9281 7.99375C14.9281 10.1313 14.9188 10.3844 14.8813 11.225C14.8469 12.0063 14.7156 12.4281 14.6063 12.7094C14.4625 13.0813 14.2875 13.35 14.0094 13.6281C13.7281 13.9094 13.4625 14.0813 13.0906 14.225C12.8094 14.3344 12.3844 14.4656 11.6063 14.5C10.7625 14.5375 10.5094 14.5469 8.375 14.5469C6.2375 14.5469 5.98438 14.5375 5.14375 14.5C4.3625 14.4656 3.94063 14.3344 3.65938 14.225C3.2875 14.0813 3.01875 13.9063 2.74063 13.6281C2.45938 13.3469 2.2875 13.0813 2.14375 12.7094C2.03438 12.4281 1.90313 12.0031 1.86875 11.225C1.83125 10.3813 1.82188 10.1281 1.82188 7.99375C1.82188 5.85625 1.83125 5.60313 1.86875 4.7625C1.90313 3.98125 2.03438 3.55938 2.14375 3.27813C2.2875 2.90625 2.4625 2.6375 2.74063 2.35938C3.02188 2.07812 3.2875 1.90625 3.65938 1.7625C3.94063 1.65313 4.36563 1.52187 5.14375 1.4875C5.98438 1.45 6.2375 1.44062 8.375 1.44062ZM8.375 0C6.20313 0 5.93125 0.009375 5.07813 0.046875C4.22813 0.084375 3.64375 0.221875 3.1375 0.41875C2.60938 0.625 2.1625 0.896875 1.71875 1.34375C1.27188 1.7875 1 2.23438 0.79375 2.75938C0.596875 3.26875 0.459375 3.85 0.421875 4.7C0.384375 5.55625 0.375 5.82812 0.375 8C0.375 10.1719 0.384375 10.4438 0.421875 11.2969C0.459375 12.1469 0.596875 12.7313 0.79375 13.2375C1 13.7656 1.27188 14.2125 1.71875 14.6562C2.1625 15.1 2.60938 15.375 3.13438 15.5781C3.64375 15.775 4.225 15.9125 5.075 15.95C5.92813 15.9875 6.2 15.9969 8.37188 15.9969C10.5438 15.9969 10.8156 15.9875 11.6688 15.95C12.5188 15.9125 13.1031 15.775 13.6094 15.5781C14.1344 15.375 14.5813 15.1 15.025 14.6562C15.4688 14.2125 15.7438 13.7656 15.9469 13.2406C16.1438 12.7313 16.2813 12.15 16.3188 11.3C16.3563 10.4469 16.3656 10.175 16.3656 8.00313C16.3656 5.83125 16.3563 5.55938 16.3188 4.70625C16.2813 3.85625 16.1438 3.27188 15.9469 2.76562C15.75 2.23438 15.4781 1.7875 15.0313 1.34375C14.5875 0.9 14.1406 0.625 13.6156 0.421875C13.1063 0.225 12.525 0.0875 11.675 0.05C10.8188 0.009375 10.5469 0 8.375 0Z" fill="black" fill-opacity="0.2"/>
<path d="M8.375 1.44062C10.5125 1.44062 10.7656 1.45 11.6063 1.4875C12.3875 1.52187 12.8094 1.65313 13.0906 1.7625C13.4625 1.90625 13.7313 2.08125 14.0094 2.35938C14.2906 2.64062 14.4625 2.90625 14.6063 3.27813C14.7156 3.55938 14.8469 3.98438 14.8813 4.7625C14.9188 5.60625 14.9281 5.85938 14.9281 7.99375C14.9281 10.1313 14.9188 10.3844 14.8813 11.225C14.8469 12.0063 14.7156 12.4281 14.6063 12.7094C14.4625 13.0813 14.2875 13.35 14.0094 13.6281C13.7281 13.9094 13.4625 14.0813 13.0906 14.225C12.8094 14.3344 12.3844 14.4656 11.6063 14.5C10.7625 14.5375 10.5094 14.5469 8.375 14.5469C6.2375 14.5469 5.98438 14.5375 5.14375 14.5C4.3625 14.4656 3.94063 14.3344 3.65938 14.225C3.2875 14.0813 3.01875 13.9063 2.74063 13.6281C2.45938 13.3469 2.2875 13.0813 2.14375 12.7094C2.03438 12.4281 1.90313 12.0031 1.86875 11.225C1.83125 10.3813 1.82188 10.1281 1.82188 7.99375C1.82188 5.85625 1.83125 5.60313 1.86875 4.7625C1.90313 3.98125 2.03438 3.55938 2.14375 3.27813C2.2875 2.90625 2.4625 2.6375 2.74063 2.35938C3.02188 2.07812 3.2875 1.90625 3.65938 1.7625C3.94063 1.65313 4.36563 1.52187 5.14375 1.4875C5.98438 1.45 6.2375 1.44062 8.375 1.44062ZM8.375 0C6.20313 0 5.93125 0.009375 5.07813 0.046875C4.22813 0.084375 3.64375 0.221875 3.1375 0.41875C2.60938 0.625 2.1625 0.896875 1.71875 1.34375C1.27188 1.7875 1 2.23438 0.79375 2.75938C0.596875 3.26875 0.459375 3.85 0.421875 4.7C0.384375 5.55625 0.375 5.82812 0.375 8C0.375 10.1719 0.384375 10.4438 0.421875 11.2969C0.459375 12.1469 0.596875 12.7313 0.79375 13.2375C1 13.7656 1.27188 14.2125 1.71875 14.6562C2.1625 15.1 2.60938 15.375 3.13438 15.5781C3.64375 15.775 4.225 15.9125 5.075 15.95C5.92813 15.9875 6.2 15.9969 8.37188 15.9969C10.5438 15.9969 10.8156 15.9875 11.6688 15.95C12.5188 15.9125 13.1031 15.775 13.6094 15.5781C14.1344 15.375 14.5813 15.1 15.025 14.6562C15.4688 14.2125 15.7438 13.7656 15.9469 13.2406C16.1438 12.7313 16.2813 12.15 16.3188 11.3C16.3563 10.4469 16.3656 10.175 16.3656 8.00313C16.3656 5.83125 16.3563 5.55938 16.3188 4.70625C16.2813 3.85625 16.1438 3.27188 15.9469 2.76562C15.75 2.23438 15.4781 1.7875 15.0313 1.34375C14.5875 0.9 14.1406 0.625 13.6156 0.421875C13.1063 0.225 12.525 0.0875 11.675 0.05C10.8188 0.009375 10.5469 0 8.375 0Z" fill="black" fill-opacity="0.2"/>
<path d="M8.375 1.44062C10.5125 1.44062 10.7656 1.45 11.6063 1.4875C12.3875 1.52187 12.8094 1.65313 13.0906 1.7625C13.4625 1.90625 13.7313 2.08125 14.0094 2.35938C14.2906 2.64062 14.4625 2.90625 14.6063 3.27813C14.7156 3.55938 14.8469 3.98438 14.8813 4.7625C14.9188 5.60625 14.9281 5.85938 14.9281 7.99375C14.9281 10.1313 14.9188 10.3844 14.8813 11.225C14.8469 12.0063 14.7156 12.4281 14.6063 12.7094C14.4625 13.0813 14.2875 13.35 14.0094 13.6281C13.7281 13.9094 13.4625 14.0813 13.0906 14.225C12.8094 14.3344 12.3844 14.4656 11.6063 14.5C10.7625 14.5375 10.5094 14.5469 8.375 14.5469C6.2375 14.5469 5.98438 14.5375 5.14375 14.5C4.3625 14.4656 3.94063 14.3344 3.65938 14.225C3.2875 14.0813 3.01875 13.9063 2.74063 13.6281C2.45938 13.3469 2.2875 13.0813 2.14375 12.7094C2.03438 12.4281 1.90313 12.0031 1.86875 11.225C1.83125 10.3813 1.82188 10.1281 1.82188 7.99375C1.82188 5.85625 1.83125 5.60313 1.86875 4.7625C1.90313 3.98125 2.03438 3.55938 2.14375 3.27813C2.2875 2.90625 2.4625 2.6375 2.74063 2.35938C3.02188 2.07812 3.2875 1.90625 3.65938 1.7625C3.94063 1.65313 4.36563 1.52187 5.14375 1.4875C5.98438 1.45 6.2375 1.44062 8.375 1.44062ZM8.375 0C6.20313 0 5.93125 0.009375 5.07813 0.046875C4.22813 0.084375 3.64375 0.221875 3.1375 0.41875C2.60938 0.625 2.1625 0.896875 1.71875 1.34375C1.27188 1.7875 1 2.23438 0.79375 2.75938C0.596875 3.26875 0.459375 3.85 0.421875 4.7C0.384375 5.55625 0.375 5.82812 0.375 8C0.375 10.1719 0.384375 10.4438 0.421875 11.2969C0.459375 12.1469 0.596875 12.7313 0.79375 13.2375C1 13.7656 1.27188 14.2125 1.71875 14.6562C2.1625 15.1 2.60938 15.375 3.13438 15.5781C3.64375 15.775 4.225 15.9125 5.075 15.95C5.92813 15.9875 6.2 15.9969 8.37188 15.9969C10.5438 15.9969 10.8156 15.9875 11.6688 15.95C12.5188 15.9125 13.1031 15.775 13.6094 15.5781C14.1344 15.375 14.5813 15.1 15.025 14.6562C15.4688 14.2125 15.7438 13.7656 15.9469 13.2406C16.1438 12.7313 16.2813 12.15 16.3188 11.3C16.3563 10.4469 16.3656 10.175 16.3656 8.00313C16.3656 5.83125 16.3563 5.55938 16.3188 4.70625C16.2813 3.85625 16.1438 3.27188 15.9469 2.76562C15.75 2.23438 15.4781 1.7875 15.0313 1.34375C14.5875 0.9 14.1406 0.625 13.6156 0.421875C13.1063 0.225 12.525 0.0875 11.675 0.05C10.8188 0.009375 10.5469 0 8.375 0Z" fill="black" fill-opacity="0.2"/>
<path d="M8.375 3.89062C6.10625 3.89062 4.26562 5.73125 4.26562 8C4.26562 10.2688 6.10625 12.1094 8.375 12.1094C10.6438 12.1094 12.4844 10.2688 12.4844 8C12.4844 5.73125 10.6438 3.89062 8.375 3.89062ZM8.375 10.6656C6.90313 10.6656 5.70937 9.47188 5.70937 8C5.70937 6.52813 6.90313 5.33437 8.375 5.33437C9.84688 5.33437 11.0406 6.52813 11.0406 8C11.0406 9.47188 9.84688 10.6656 8.375 10.6656Z" fill="#1A1A1A"/>
<path d="M8.375 3.89062C6.10625 3.89062 4.26562 5.73125 4.26562 8C4.26562 10.2688 6.10625 12.1094 8.375 12.1094C10.6438 12.1094 12.4844 10.2688 12.4844 8C12.4844 5.73125 10.6438 3.89062 8.375 3.89062ZM8.375 10.6656C6.90313 10.6656 5.70937 9.47188 5.70937 8C5.70937 6.52813 6.90313 5.33437 8.375 5.33437C9.84688 5.33437 11.0406 6.52813 11.0406 8C11.0406 9.47188 9.84688 10.6656 8.375 10.6656Z" fill="black" fill-opacity="0.2"/>
<path d="M8.375 3.89062C6.10625 3.89062 4.26562 5.73125 4.26562 8C4.26562 10.2688 6.10625 12.1094 8.375 12.1094C10.6438 12.1094 12.4844 10.2688 12.4844 8C12.4844 5.73125 10.6438 3.89062 8.375 3.89062ZM8.375 10.6656C6.90313 10.6656 5.70937 9.47188 5.70937 8C5.70937 6.52813 6.90313 5.33437 8.375 5.33437C9.84688 5.33437 11.0406 6.52813 11.0406 8C11.0406 9.47188 9.84688 10.6656 8.375 10.6656Z" fill="black" fill-opacity="0.2"/>
<path d="M8.375 3.89062C6.10625 3.89062 4.26562 5.73125 4.26562 8C4.26562 10.2688 6.10625 12.1094 8.375 12.1094C10.6438 12.1094 12.4844 10.2688 12.4844 8C12.4844 5.73125 10.6438 3.89062 8.375 3.89062ZM8.375 10.6656C6.90313 10.6656 5.70937 9.47188 5.70937 8C5.70937 6.52813 6.90313 5.33437 8.375 5.33437C9.84688 5.33437 11.0406 6.52813 11.0406 8C11.0406 9.47188 9.84688 10.6656 8.375 10.6656Z" fill="black" fill-opacity="0.2"/>
<path d="M8.375 3.89062C6.10625 3.89062 4.26562 5.73125 4.26562 8C4.26562 10.2688 6.10625 12.1094 8.375 12.1094C10.6438 12.1094 12.4844 10.2688 12.4844 8C12.4844 5.73125 10.6438 3.89062 8.375 3.89062ZM8.375 10.6656C6.90313 10.6656 5.70937 9.47188 5.70937 8C5.70937 6.52813 6.90313 5.33437 8.375 5.33437C9.84688 5.33437 11.0406 6.52813 11.0406 8C11.0406 9.47188 9.84688 10.6656 8.375 10.6656Z" fill="black" fill-opacity="0.2"/>
<path d="M8.375 3.89062C6.10625 3.89062 4.26562 5.73125 4.26562 8C4.26562 10.2688 6.10625 12.1094 8.375 12.1094C10.6438 12.1094 12.4844 10.2688 12.4844 8C12.4844 5.73125 10.6438 3.89062 8.375 3.89062ZM8.375 10.6656C6.90313 10.6656 5.70937 9.47188 5.70937 8C5.70937 6.52813 6.90313 5.33437 8.375 5.33437C9.84688 5.33437 11.0406 6.52813 11.0406 8C11.0406 9.47188 9.84688 10.6656 8.375 10.6656Z" fill="black" fill-opacity="0.2"/>
<path d="M8.375 3.89062C6.10625 3.89062 4.26562 5.73125 4.26562 8C4.26562 10.2688 6.10625 12.1094 8.375 12.1094C10.6438 12.1094 12.4844 10.2688 12.4844 8C12.4844 5.73125 10.6438 3.89062 8.375 3.89062ZM8.375 10.6656C6.90313 10.6656 5.70937 9.47188 5.70937 8C5.70937 6.52813 6.90313 5.33437 8.375 5.33437C9.84688 5.33437 11.0406 6.52813 11.0406 8C11.0406 9.47188 9.84688 10.6656 8.375 10.6656Z" fill="black" fill-opacity="0.2"/>
<path d="M8.375 3.89062C6.10625 3.89062 4.26562 5.73125 4.26562 8C4.26562 10.2688 6.10625 12.1094 8.375 12.1094C10.6438 12.1094 12.4844 10.2688 12.4844 8C12.4844 5.73125 10.6438 3.89062 8.375 3.89062ZM8.375 10.6656C6.90313 10.6656 5.70937 9.47188 5.70937 8C5.70937 6.52813 6.90313 5.33437 8.375 5.33437C9.84688 5.33437 11.0406 6.52813 11.0406 8C11.0406 9.47188 9.84688 10.6656 8.375 10.6656Z" fill="black" fill-opacity="0.2"/>
<path d="M13.6062 3.72805C13.6062 4.2593 13.175 4.68743 12.6469 4.68743C12.1156 4.68743 11.6875 4.25618 11.6875 3.72805C11.6875 3.1968 12.1188 2.76868 12.6469 2.76868C13.175 2.76868 13.6062 3.19993 13.6062 3.72805Z" fill="#1A1A1A"/>
<path d="M13.6062 3.72805C13.6062 4.2593 13.175 4.68743 12.6469 4.68743C12.1156 4.68743 11.6875 4.25618 11.6875 3.72805C11.6875 3.1968 12.1188 2.76868 12.6469 2.76868C13.175 2.76868 13.6062 3.19993 13.6062 3.72805Z" fill="black" fill-opacity="0.2"/>
<path d="M13.6062 3.72805C13.6062 4.2593 13.175 4.68743 12.6469 4.68743C12.1156 4.68743 11.6875 4.25618 11.6875 3.72805C11.6875 3.1968 12.1188 2.76868 12.6469 2.76868C13.175 2.76868 13.6062 3.19993 13.6062 3.72805Z" fill="black" fill-opacity="0.2"/>
<path d="M13.6062 3.72805C13.6062 4.2593 13.175 4.68743 12.6469 4.68743C12.1156 4.68743 11.6875 4.25618 11.6875 3.72805C11.6875 3.1968 12.1188 2.76868 12.6469 2.76868C13.175 2.76868 13.6062 3.19993 13.6062 3.72805Z" fill="black" fill-opacity="0.2"/>
<path d="M13.6062 3.72805C13.6062 4.2593 13.175 4.68743 12.6469 4.68743C12.1156 4.68743 11.6875 4.25618 11.6875 3.72805C11.6875 3.1968 12.1188 2.76868 12.6469 2.76868C13.175 2.76868 13.6062 3.19993 13.6062 3.72805Z" fill="black" fill-opacity="0.2"/>
<path d="M13.6062 3.72805C13.6062 4.2593 13.175 4.68743 12.6469 4.68743C12.1156 4.68743 11.6875 4.25618 11.6875 3.72805C11.6875 3.1968 12.1188 2.76868 12.6469 2.76868C13.175 2.76868 13.6062 3.19993 13.6062 3.72805Z" fill="black" fill-opacity="0.2"/>
<path d="M13.6062 3.72805C13.6062 4.2593 13.175 4.68743 12.6469 4.68743C12.1156 4.68743 11.6875 4.25618 11.6875 3.72805C11.6875 3.1968 12.1188 2.76868 12.6469 2.76868C13.175 2.76868 13.6062 3.19993 13.6062 3.72805Z" fill="black" fill-opacity="0.2"/>
<path d="M13.6062 3.72805C13.6062 4.2593 13.175 4.68743 12.6469 4.68743C12.1156 4.68743 11.6875 4.25618 11.6875 3.72805C11.6875 3.1968 12.1188 2.76868 12.6469 2.76868C13.175 2.76868 13.6062 3.19993 13.6062 3.72805Z" fill="black" fill-opacity="0.2"/>
</g>
<defs>
<clipPath id="clip0_4118_22066">
<rect width="16" height="16" fill="white" transform="translate(0.375)"/>
</clipPath>
</defs>
</svg>
