<svg width="23" height="24" viewBox="0 0 23 24" fill="none" xmlns="http://www.w3.org/2000/svg">
<path d="M11.3751 23.0834C9.8555 23.0834 8.42147 22.7921 7.073 22.2095C5.72453 21.627 4.54853 20.8338 3.545 19.8301C2.54128 18.8266 1.74814 17.6506 1.16558 16.3021C0.583026 14.9536 0.291748 13.5196 0.291748 12C0.291748 10.4684 0.583026 9.03134 1.16558 7.6889C1.74814 6.34645 2.54128 5.17346 3.545 4.16994C4.54853 3.16621 5.72453 2.37308 7.073 1.79052C8.42147 1.20797 9.8555 0.916687 11.3751 0.916687C12.9067 0.916687 14.3438 1.20797 15.6862 1.79052C17.0287 2.37308 18.2016 3.16621 19.2052 4.16994C20.2089 5.17346 21.002 6.34645 21.5846 7.6889C22.1671 9.03134 22.4584 10.4684 22.4584 12C22.4584 13.5196 22.1671 14.9536 21.5846 16.3021C21.002 17.6506 20.2089 18.8266 19.2052 19.8301C18.2016 20.8338 17.0287 21.627 15.6862 22.2095C14.3438 22.7921 12.9067 23.0834 11.3751 23.0834ZM11.3751 21.3086C11.9705 20.5189 12.4716 19.7225 12.8783 18.9192C13.2851 18.116 13.6164 17.238 13.8723 16.2852H8.87783C9.14869 17.2679 9.48382 18.1609 9.88321 18.9641C10.2824 19.7674 10.7797 20.5489 11.3751 21.3086ZM9.11583 20.9877C8.66861 20.3461 8.26698 19.6166 7.91096 18.7994C7.55493 17.9819 7.27823 17.1439 7.08087 16.2852H3.12325C3.73944 17.4968 4.56583 18.5147 5.60241 19.3389C6.639 20.163 7.81014 20.7126 9.11583 20.9877ZM13.6343 20.9877C14.94 20.7126 16.1112 20.163 17.1477 19.3389C18.1843 18.5147 19.0107 17.4968 19.6269 16.2852H15.6693C15.4344 17.1512 15.1389 17.993 14.7829 18.8104C14.4271 19.6279 14.0442 20.3536 13.6343 20.9877ZM2.38941 14.5352H6.7265C6.65319 14.1016 6.60001 13.6764 6.56696 13.2597C6.53409 12.8432 6.51766 12.4233 6.51766 12C6.51766 11.5767 6.53409 11.1568 6.56696 10.7403C6.60001 10.3236 6.65319 9.89847 6.7265 9.46485H2.38941C2.27722 9.86113 2.19128 10.2732 2.13158 10.7009C2.07169 11.1287 2.04175 11.5617 2.04175 12C2.04175 12.4383 2.07169 12.8713 2.13158 13.2991C2.19128 13.7269 2.27722 14.1389 2.38941 14.5352ZM8.47621 14.5352H14.274C14.3471 14.1016 14.4001 13.6802 14.4332 13.2711C14.4661 12.862 14.4825 12.4383 14.4825 12C14.4825 11.5617 14.4661 11.138 14.4332 10.7289C14.4001 10.3198 14.3471 9.89847 14.274 9.46485H8.47621C8.40309 9.89847 8.35001 10.3198 8.31696 10.7289C8.28409 11.138 8.26766 11.5617 8.26766 12C8.26766 12.4383 8.28409 12.862 8.31696 13.2711C8.35001 13.6802 8.40309 14.1016 8.47621 14.5352ZM16.0237 14.5352H20.3607C20.4729 14.1389 20.5589 13.7269 20.6186 13.2991C20.6785 12.8713 20.7084 12.4383 20.7084 12C20.7084 11.5617 20.6785 11.1287 20.6186 10.7009C20.5589 10.2732 20.4729 9.86113 20.3607 9.46485H16.0237C16.097 9.89847 16.1501 10.3236 16.1832 10.7403C16.2161 11.1568 16.2325 11.5767 16.2325 12C16.2325 12.4233 16.2161 12.8432 16.1832 13.2597C16.1501 13.6764 16.097 14.1016 16.0237 14.5352ZM15.6693 7.71485H19.6269C19.0033 6.4883 18.1826 5.47038 17.1647 4.6611C16.1467 3.85202 14.97 3.29863 13.6343 3.00094C14.0816 3.67994 14.4794 4.42262 14.8278 5.22898C15.1765 6.03514 15.457 6.86377 15.6693 7.71485ZM8.87783 7.71485H13.8723C13.6015 6.73952 13.2608 5.8409 12.8503 5.01898C12.4397 4.19706 11.9479 3.42123 11.3751 2.69148C10.8022 3.42123 10.3105 4.19706 9.89983 5.01898C9.48936 5.8409 9.14869 6.73952 8.87783 7.71485ZM3.12325 7.71485H7.08087C7.29321 6.86377 7.57369 6.03514 7.92233 5.22898C8.27078 4.42262 8.66861 3.67994 9.11583 3.00094C7.77261 3.29863 6.59398 3.85397 5.57996 4.66694C4.56573 5.47972 3.74683 6.49569 3.12325 7.71485Z" fill="#1C1B1F"/>
</svg>
