<svg width="28" height="21" viewBox="0 0 28 21" fill="none" xmlns="http://www.w3.org/2000/svg">
<path d="M1.16667 20.3333C0.836111 20.3333 0.559028 20.2215 0.335417 19.9979C0.111806 19.7743 0 19.4972 0 19.1667C0 18.8361 0.111806 18.559 0.335417 18.3354C0.559028 18.1118 0.836111 18 1.16667 18H2.33333V2.83333C2.33333 2.19167 2.56181 1.64236 3.01875 1.18542C3.47569 0.728472 4.025 0.5 4.66667 0.5H23.3333C23.975 0.5 24.5243 0.728472 24.9812 1.18542C25.4382 1.64236 25.6667 2.19167 25.6667 2.83333V18H26.8333C27.1639 18 27.441 18.1118 27.6646 18.3354C27.8882 18.559 28 18.8361 28 19.1667C28 19.4972 27.8882 19.7743 27.6646 19.9979C27.441 20.2215 27.1639 20.3333 26.8333 20.3333H1.16667ZM12.25 18H15.75C15.9056 18 16.0417 17.9417 16.1583 17.825C16.275 17.7083 16.3333 17.5722 16.3333 17.4167C16.3333 17.2611 16.275 17.125 16.1583 17.0083C16.0417 16.8917 15.9056 16.8333 15.75 16.8333H12.25C12.0944 16.8333 11.9583 16.8917 11.8417 17.0083C11.725 17.125 11.6667 17.2611 11.6667 17.4167C11.6667 17.5722 11.725 17.7083 11.8417 17.825C11.9583 17.9417 12.0944 18 12.25 18ZM4.66667 14.5H23.3333V2.83333H4.66667V14.5Z" fill="#327AD9"/>
</svg>
