<svg width="24" height="20" viewBox="0 0 24 20" fill="none" xmlns="http://www.w3.org/2000/svg">
<path d="M20.1414 10.875H6.38142V9.12504H20.1414L18.0189 7.00258L19.2483 5.73733L23.511 10L19.2483 14.2628L18.0189 12.9975L20.1414 10.875ZM14.1106 6.34283V2.19242C14.1106 2.08761 14.0769 2.00157 14.0097 1.93429C13.9422 1.86701 13.8562 1.83337 13.7515 1.83337H2.56729C2.46249 1.83337 2.37645 1.86701 2.30917 1.93429C2.24189 2.00157 2.20825 2.08761 2.20825 2.19242V17.8077C2.20825 17.9125 2.24189 17.9985 2.30917 18.0658C2.37645 18.1331 2.46249 18.1667 2.56729 18.1667H13.7515C13.8562 18.1667 13.9422 18.1331 14.0097 18.0658C14.0769 17.9985 14.1106 17.9125 14.1106 17.8077V13.6573H15.8606V17.8077C15.8606 18.3894 15.6545 18.8864 15.2423 19.2987C14.8302 19.7107 14.3333 19.9167 13.7515 19.9167H2.56729C1.98552 19.9167 1.48852 19.7107 1.07629 19.2987C0.664266 18.8864 0.458252 18.3894 0.458252 17.8077V2.19242C0.458252 1.61064 0.664266 1.11364 1.07629 0.701416C1.48852 0.289388 1.98552 0.083374 2.56729 0.083374H13.7515C14.3333 0.083374 14.8302 0.289388 15.2423 0.701416C15.6545 1.11364 15.8606 1.61064 15.8606 2.19242V6.34283H14.1106Z" fill="#FC493D"/>
</svg>
