<svg width="249" height="68" viewBox="0 0 249 68" fill="none" xmlns="http://www.w3.org/2000/svg">
<g clip-path="url(#clip0_3305_7406)" filter="url(#filter0_d_3305_7406)">
<path d="M10.291 43.3988H13.1529C14.4626 43.3988 15.1417 44.135 15.1417 45.362C15.1417 46.589 14.4626 47.3252 13.1529 47.3252H11.1642V50.0245H10.291V43.3988ZM11.1642 46.5399H12.8619C13.832 46.5399 14.2686 46.0982 14.2686 45.3129C14.2686 44.5276 13.832 44.0859 12.8619 44.0859H11.1642V46.5399Z" fill="white"/>
<path d="M18.1006 45.0675C19.6043 45.0675 20.3804 46.1473 20.3804 47.5706C20.3804 48.9448 19.6043 50.0736 18.1006 50.0736C16.5969 50.0736 15.8208 48.9939 15.8208 47.5706C15.8208 46.1963 16.5969 45.0675 18.1006 45.0675ZM18.1006 49.3865C18.9252 49.3865 19.5558 48.7485 19.5558 47.5706C19.5558 46.3927 18.8767 45.7546 18.1006 45.7546C17.3245 45.7546 16.6454 46.3927 16.6454 47.5706C16.6454 48.7485 17.276 49.3865 18.1006 49.3865Z" fill="white"/>
<path d="M21.2535 45.2147H21.9811V46.1963C22.3692 45.4111 22.8543 45.0675 23.7274 45.0675V45.9019C22.4662 45.9019 22.0296 46.6381 22.0296 47.816V49.9264H21.2535V45.2147Z" fill="white"/>
<path d="M25.3766 45.2147H26.2983V45.9018H25.3766V48.8466C25.3766 49.1902 25.4736 49.2883 25.9587 49.2883H26.2983V49.9755H25.7162C24.8916 49.9755 24.6005 49.8282 24.6005 48.9448V45.9018H23.7759V45.2147H24.6005V43.7914H25.3766V45.2147Z" fill="white"/>
<path d="M27.6564 48.454C27.705 49.1411 28.287 49.3865 28.9176 49.3865C29.4027 49.3865 30.0333 49.2884 30.0333 48.6994C30.0333 48.1104 29.2572 48.0123 28.4811 47.816C27.705 47.6196 26.9288 47.3742 26.9288 46.4908C26.9288 45.5092 27.8505 45.1166 28.6751 45.1166C29.6937 45.1166 30.5183 45.4601 30.6154 46.589H29.8878C29.8392 46 29.3057 45.8037 28.7721 45.8037C28.287 45.8037 27.7535 45.9509 27.7535 46.3927C27.7535 46.9325 28.5781 47.0307 29.3057 47.227C30.0818 47.4233 30.8579 47.6687 30.8579 48.6012C30.8579 49.7301 29.7907 50.1227 28.8691 50.1227C27.802 50.1227 26.9288 49.681 26.8803 48.5031L27.6564 48.454Z" fill="white"/>
<path d="M31.925 48.9448H32.9437V49.8773C32.9437 50.5644 32.6526 51.1043 31.925 51.3006V50.8589C32.3131 50.7117 32.4586 50.2699 32.4586 49.9755H31.925V48.9448Z" fill="white"/>
<path d="M40.4137 45.362C40.2197 44.4295 39.4921 43.9387 38.5704 43.9387C37.0182 43.9387 36.3876 45.2147 36.3876 46.589C36.3876 48.1104 37.0667 49.3374 38.6189 49.3374C39.7346 49.3374 40.4137 48.5031 40.5107 47.4233H41.3838C41.2383 49.043 40.2197 50.0736 38.5704 50.0736C36.5332 50.0736 35.563 48.5522 35.563 46.638C35.563 44.7239 36.6302 43.1534 38.6189 43.1534C39.9771 43.1534 41.0928 43.8896 41.2868 45.3129L40.4137 45.362Z" fill="white"/>
<path d="M46.186 49.9755H45.4584V49.1902C45.1188 49.7791 44.5853 50.0736 43.9062 50.0736C42.645 50.0736 42.3055 49.3374 42.3055 48.3558V45.2147H43.0816V48.454C43.0816 49.0429 43.4696 49.4356 44.0517 49.4356C44.9733 49.4356 45.4584 48.7975 45.4584 47.9632V45.2638H46.2345L46.186 49.9755Z" fill="white"/>
<path d="M47.8352 48.454C47.8837 49.1411 48.4658 49.3865 49.0964 49.3865C49.5814 49.3865 50.212 49.2884 50.212 48.6994C50.212 48.1104 49.4359 48.0123 48.6598 47.816C47.8837 47.6196 47.1076 47.3742 47.1076 46.4908C47.1076 45.5092 48.0292 45.1166 48.8538 45.1166C49.8725 45.1166 50.6971 45.4601 50.7941 46.589H50.018C49.9695 46 49.4359 45.8037 48.9023 45.8037C48.4173 45.8037 47.8837 45.9509 47.8837 46.3927C47.8837 46.9325 48.7083 47.0307 49.4359 47.227C50.212 47.4233 50.9881 47.6687 50.9881 48.6012C50.9881 49.7301 49.921 50.1227 48.9994 50.1227C47.9322 50.1227 47.0591 49.681 47.0106 48.5031L47.8352 48.454Z" fill="white"/>
<path d="M52.9769 45.2147H53.8985V45.9018H52.9769V48.8466C52.9769 49.1902 53.0739 49.2883 53.559 49.2883H53.8985V49.9755H53.3165C52.4918 49.9755 52.2008 49.8282 52.2008 48.9448V45.9018H51.3762V45.2147H52.2008V43.7914H52.9769V45.2147Z" fill="white"/>
<path d="M56.809 45.0675C58.3127 45.0675 59.0888 46.1473 59.0888 47.5706C59.0888 48.9448 58.3127 50.0736 56.809 50.0736C55.3052 50.0736 54.5291 48.9939 54.5291 47.5706C54.5291 46.1963 55.3052 45.0675 56.809 45.0675ZM56.809 49.3865C57.6336 49.3865 58.2642 48.7485 58.2642 47.5706C58.2642 46.3927 57.5851 45.7546 56.809 45.7546C55.9843 45.7546 55.3538 46.3927 55.3538 47.5706C55.3538 48.7485 55.9843 49.3865 56.809 49.3865Z" fill="white"/>
<path d="M60.0104 45.2147H60.738V45.9019C61.0775 45.362 61.6111 45.0675 62.2417 45.0675C62.8238 45.0675 63.3574 45.3129 63.5514 45.9019C63.8909 45.4111 64.4245 45.0675 65.0066 45.0675C65.9282 45.0675 66.5588 45.4601 66.5588 46.4417V49.9264H65.7827V46.7853C65.7827 46.1963 65.6372 45.7055 64.8611 45.7055C64.1335 45.7055 63.6484 46.1963 63.6484 46.9325V49.8773H62.8723V46.7362C62.8723 46.0982 62.6783 45.6565 61.9992 45.6565C61.0775 45.6565 60.738 46.4908 60.738 46.8835V49.8282H59.9619L60.0104 45.2147Z" fill="white"/>
<path d="M68.2565 48.454C68.305 49.1411 68.8871 49.3865 69.5177 49.3865C70.0028 49.3865 70.6334 49.2884 70.6334 48.6994C70.6334 48.1104 69.8572 48.0123 69.0811 47.816C68.305 47.6196 67.5289 47.3742 67.5289 46.4908C67.5289 45.5092 68.4506 45.1166 69.2752 45.1166C70.2938 45.1166 71.1184 45.4601 71.2154 46.589H70.4393C70.3908 46 69.8572 45.8037 69.3237 45.8037C68.8386 45.8037 68.305 45.9509 68.305 46.3927C68.305 46.9325 69.1296 47.0307 69.8572 47.227C70.6334 47.4233 71.4095 47.6687 71.4095 48.6012C71.4095 49.7301 70.3423 50.1227 69.4207 50.1227C68.3535 50.1227 67.4804 49.681 67.4319 48.5031L68.2565 48.454Z" fill="white"/>
<path d="M79.025 49.9264C78.8795 50.0246 78.734 50.0736 78.4914 50.0736C78.1034 50.0736 77.8123 49.8282 77.8123 49.3374C77.3758 49.8282 76.7937 50.0736 76.1631 50.0736C75.29 50.0736 74.6109 49.681 74.6109 48.7485C74.6109 47.6687 75.387 47.4233 76.2116 47.2761C77.0847 47.1288 77.8123 47.1779 77.8123 46.589C77.8123 45.9019 77.2788 45.8037 76.7452 45.8037C76.0661 45.8037 75.6295 46 75.581 46.6871H74.8049C74.8534 45.5092 75.7751 45.1166 76.7937 45.1166C77.6183 45.1166 78.5399 45.3129 78.5399 46.4417V48.8957C78.5399 49.2884 78.5399 49.4356 78.7825 49.4356C78.831 49.4356 78.928 49.4356 79.025 49.3865V49.9264ZM77.7638 47.5215C77.4728 47.7669 76.8907 47.7669 76.3571 47.865C75.8236 47.9632 75.387 48.1595 75.387 48.6994C75.387 49.2393 75.8236 49.3865 76.3086 49.3865C77.3273 49.3865 77.7638 48.7485 77.7638 48.3068V47.5215Z" fill="white"/>
<path d="M79.7526 45.2147H80.4802V45.9509C80.8198 45.362 81.3533 45.0675 82.0324 45.0675C83.2936 45.0675 83.6331 45.8037 83.6331 46.7853V49.9264H82.857V46.7362C82.857 46.1473 82.469 45.7546 81.8869 45.7546C80.9653 45.7546 80.4802 46.3927 80.4802 47.227V49.9264H79.7041V45.2147H79.7526Z" fill="white"/>
<path d="M89.0174 49.9755H88.2413V49.3374C87.9987 49.8773 87.3681 50.0736 86.7375 50.0736C85.2823 50.0736 84.5547 48.8957 84.5547 47.5706C84.5547 46.2454 85.2824 45.1166 86.689 45.1166C87.1741 45.1166 87.8532 45.3129 88.1927 45.8528V43.3988H88.9689V49.9755H89.0174ZM86.8346 49.3865C87.8532 49.3865 88.2898 48.5031 88.2898 47.5706C88.2898 46.638 87.8532 45.7546 86.7861 45.7546C85.7189 45.7546 85.3794 46.6871 85.3794 47.6196C85.3794 48.5031 85.8159 49.3865 86.8346 49.3865Z" fill="white"/>
<path d="M92.8494 43.3988H97.118V44.135H93.7225V46.2454H96.7299V46.9816H93.7225V49.9755H92.8494V43.3988Z" fill="white"/>
<path d="M97.9426 45.2147H98.6702V46.1963C99.0582 45.4111 99.5433 45.0675 100.416 45.0675V45.9019C99.1553 45.9019 98.7187 46.6381 98.7187 47.816V49.9264H97.9426V45.2147Z" fill="white"/>
<path d="M104.685 48.454C104.491 49.4847 103.715 50.0736 102.696 50.0736C101.193 50.0736 100.465 49.043 100.416 47.5706C100.416 46.1473 101.338 45.1166 102.648 45.1166C104.297 45.1166 104.831 46.6871 104.782 47.865H101.241C101.193 48.6994 101.678 49.4356 102.696 49.4356C103.327 49.4356 103.763 49.1411 103.909 48.5031L104.685 48.454ZM103.909 47.1288C103.86 46.3927 103.327 45.8037 102.551 45.8037C101.726 45.8037 101.241 46.4417 101.193 47.1288H103.909Z" fill="white"/>
<path d="M109.584 48.454C109.39 49.4847 108.614 50.0736 107.595 50.0736C106.092 50.0736 105.364 49.043 105.316 47.5706C105.316 46.1473 106.237 45.1166 107.547 45.1166C109.196 45.1166 109.73 46.6871 109.681 47.865H106.14C106.092 48.6994 106.577 49.4356 107.595 49.4356C108.226 49.4356 108.663 49.1411 108.808 48.5031L109.584 48.454ZM108.808 47.1288C108.76 46.3927 108.226 45.8037 107.45 45.8037C106.625 45.8037 106.14 46.4417 106.092 47.1288H108.808Z" fill="white"/>
<path d="M112.592 49.2393L116.618 44.135H112.883V43.3988H117.636V44.135L113.61 49.2393H117.733V49.9755H112.543L112.592 49.2393Z" fill="white"/>
<path d="M120.547 45.0675C122.05 45.0675 122.827 46.1473 122.827 47.5706C122.827 48.9448 122.05 50.0736 120.547 50.0736C119.043 50.0736 118.267 48.9939 118.267 47.5706C118.267 46.1963 119.092 45.0675 120.547 45.0675ZM120.547 49.3865C121.371 49.3865 122.002 48.7485 122.002 47.5706C122.002 46.3927 121.323 45.7546 120.547 45.7546C119.722 45.7546 119.092 46.3927 119.092 47.5706C119.092 48.7485 119.771 49.3865 120.547 49.3865Z" fill="white"/>
<path d="M123.748 45.2147H124.476V45.9509C124.815 45.362 125.349 45.0675 126.028 45.0675C127.289 45.0675 127.629 45.8037 127.629 46.7853V49.9264H126.901V46.7362C126.901 46.1473 126.513 45.7546 125.931 45.7546C125.009 45.7546 124.524 46.3927 124.524 47.227V49.9264H123.748V45.2147Z" fill="white"/>
<path d="M132.819 48.454C132.625 49.4847 131.849 50.0736 130.83 50.0736C129.326 50.0736 128.599 49.043 128.55 47.5706C128.55 46.1473 129.472 45.1166 130.782 45.1166C132.431 45.1166 132.964 46.6871 132.916 47.865H129.375C129.326 48.6994 129.811 49.4356 130.83 49.4356C131.461 49.4356 131.897 49.1411 132.043 48.5031L132.819 48.454ZM132.091 47.1288C132.043 46.3927 131.509 45.8037 130.733 45.8037C129.908 45.8037 129.423 46.4417 129.375 47.1288H132.091Z" fill="white"/>
<path d="M140.92 45.362C140.725 44.4295 139.998 43.9387 139.076 43.9387C137.524 43.9387 136.893 45.2147 136.893 46.589C136.893 48.1104 137.573 49.3374 139.125 49.3374C140.24 49.3374 140.92 48.5031 141.017 47.4233H141.89C141.744 49.043 140.725 50.0736 139.076 50.0736C137.039 50.0736 136.069 48.5522 136.069 46.638C136.069 44.7239 137.136 43.1534 139.125 43.1534C140.483 43.1534 141.599 43.8896 141.793 45.3129L140.92 45.362Z" fill="white"/>
<path d="M144.849 45.0675C146.352 45.0675 147.128 46.1473 147.128 47.5706C147.128 48.9448 146.352 50.0736 144.849 50.0736C143.345 50.0736 142.569 48.9939 142.569 47.5706C142.569 46.1963 143.345 45.0675 144.849 45.0675ZM144.849 49.3865C145.673 49.3865 146.304 48.7485 146.304 47.5706C146.304 46.3927 145.625 45.7546 144.849 45.7546C144.024 45.7546 143.393 46.3927 143.393 47.5706C143.393 48.7485 144.024 49.3865 144.849 49.3865Z" fill="white"/>
<path d="M148.001 45.2147H148.729V46.1963C149.117 45.4111 149.602 45.0675 150.475 45.0675V45.9019C149.214 45.9019 148.778 46.6381 148.778 47.816V49.9264H148.001V45.2147Z" fill="white"/>
<path d="M151.106 45.2147H151.882V45.8528C152.125 45.3129 152.755 45.1166 153.386 45.1166C154.841 45.1166 155.569 46.2945 155.569 47.6196C155.569 48.9448 154.841 50.0736 153.434 50.0736C152.949 50.0736 152.27 49.8773 151.931 49.3374V51.7914H151.154V45.2147H151.106ZM153.289 45.7546C152.27 45.7546 151.834 46.638 151.834 47.5706C151.834 48.5031 152.27 49.3865 153.337 49.3865C154.404 49.3865 154.744 48.454 154.744 47.5215C154.744 46.6381 154.307 45.7546 153.289 45.7546Z" fill="white"/>
<path d="M158.527 45.0675C160.031 45.0675 160.807 46.1473 160.807 47.5706C160.807 48.9448 160.031 50.0736 158.527 50.0736C157.024 50.0736 156.248 48.9939 156.248 47.5706C156.199 46.1963 157.024 45.0675 158.527 45.0675ZM158.527 49.3865C159.352 49.3865 159.983 48.7485 159.983 47.5706C159.983 46.3927 159.304 45.7546 158.527 45.7546C157.703 45.7546 157.072 46.3927 157.072 47.5706C157.024 48.7485 157.703 49.3865 158.527 49.3865Z" fill="white"/>
<path d="M161.68 45.2147H162.408V46.1963C162.796 45.4111 163.281 45.0675 164.154 45.0675V45.9019C162.893 45.9019 162.456 46.6381 162.456 47.816V49.9264H161.68V45.2147Z" fill="white"/>
<path d="M168.908 49.9264C168.762 50.0246 168.617 50.0736 168.374 50.0736C167.986 50.0736 167.695 49.8282 167.695 49.3374C167.259 49.8282 166.677 50.0736 166.046 50.0736C165.173 50.0736 164.494 49.681 164.494 48.7485C164.494 47.6687 165.27 47.4233 166.094 47.2761C166.968 47.1288 167.695 47.1779 167.695 46.589C167.695 45.9019 167.162 45.8037 166.628 45.8037C165.949 45.8037 165.512 46 165.464 46.6871H164.688C164.736 45.5092 165.658 45.1166 166.677 45.1166C167.501 45.1166 168.423 45.3129 168.423 46.4417V48.8957C168.423 49.2884 168.423 49.4356 168.665 49.4356C168.714 49.4356 168.811 49.4356 168.908 49.3865V49.9264ZM167.647 47.5215C167.356 47.7669 166.774 47.7669 166.24 47.865C165.706 47.9632 165.27 48.1595 165.27 48.6994C165.27 49.2393 165.706 49.3865 166.191 49.3865C167.21 49.3865 167.647 48.7485 167.647 48.3068V47.5215Z" fill="white"/>
<path d="M170.703 45.2147H171.624V45.9018H170.703V48.8466C170.703 49.1902 170.8 49.2883 171.285 49.2883H171.624V49.9755H171.042C170.218 49.9755 169.927 49.8282 169.927 48.9448V45.9018H169.102V45.2147H169.927V43.7914H170.703V45.2147Z" fill="white"/>
<path d="M173.322 44.3313H172.546V43.3497H173.322V44.3313ZM172.546 45.2147H173.322V49.9755H172.546V45.2147Z" fill="white"/>
<path d="M176.523 45.0675C178.027 45.0675 178.803 46.1473 178.803 47.5706C178.803 48.9448 178.027 50.0736 176.523 50.0736C175.02 50.0736 174.244 48.9939 174.244 47.5706C174.244 46.1963 175.068 45.0675 176.523 45.0675ZM176.523 49.3865C177.348 49.3865 177.979 48.7485 177.979 47.5706C177.979 46.3927 177.3 45.7546 176.523 45.7546C175.699 45.7546 175.068 46.3927 175.068 47.5706C175.068 48.7485 175.747 49.3865 176.523 49.3865Z" fill="white"/>
<path d="M179.725 45.2147H180.452V45.9509C180.792 45.362 181.326 45.0675 182.005 45.0675C183.266 45.0675 183.605 45.8037 183.605 46.7853V49.9264H182.829V46.7362C182.829 46.1473 182.441 45.7546 181.859 45.7546C180.938 45.7546 180.452 46.3927 180.452 47.227V49.9264H179.676V45.2147H179.725Z" fill="white"/>
<path d="M14.1231 34.4663C14.1231 35.8896 13.541 37.0675 12.0858 37.0675C10.6306 37.0675 10 35.8896 10 34.4663C10 33.092 10.5821 31.8651 12.0373 31.8651C13.4925 31.8651 14.1231 33.092 14.1231 34.4663ZM13.347 34.4663C13.347 33.1902 12.9104 32.5522 12.0373 32.5522C11.1642 32.5522 10.7761 33.2393 10.7761 34.4663C10.7761 35.7424 11.2127 36.3804 12.0858 36.3804C12.9589 36.3804 13.347 35.7424 13.347 34.4663ZM11.3097 30.4417C11.0186 30.4417 10.8246 30.2945 10.8246 29.9509C10.8246 29.6565 10.9701 29.4601 11.3097 29.4601C11.6492 29.4601 11.7462 29.6074 11.7462 29.9509C11.7947 30.2945 11.6492 30.4417 11.3097 30.4417ZM12.7649 30.4417C12.4738 30.4417 12.3283 30.2945 12.3283 29.9509C12.3283 29.6565 12.4738 29.4601 12.7649 29.4601C13.0559 29.4601 13.2499 29.6074 13.2499 29.9509C13.2499 30.2945 13.1044 30.4417 12.7649 30.4417Z" fill="white"/>
<path d="M19.4103 36.3804V37.1166H17.9066C17.8096 38.3436 17.179 39.2761 15.8208 39.2761C15.5298 39.2761 15.0447 39.1779 14.6567 39.0307L14.3171 38.1963C14.8507 38.5399 15.3357 38.589 15.7238 38.589C16.6939 38.589 17.179 37.7546 17.179 36.8221V32.3068L17.9551 32.0614V36.4295L19.4103 36.3804Z" fill="white"/>
<path d="M26.5893 37.1166H19.3133V36.3804H24.2125V35.6442C24.2125 34.1718 24.1155 32.6503 22.4177 32.6503C21.8841 32.6503 21.3021 32.8957 20.72 33.4356L20.2349 32.9448C20.9625 32.2577 21.6901 31.9632 22.4177 31.9632C24.649 31.9632 24.9886 33.7301 24.9886 35.4479V36.4295H26.5893V37.1166Z" fill="white"/>
<path d="M28.9661 35.1534C28.9661 36.2822 28.2385 37.0675 27.0744 37.0675H26.4923V36.3313H27.0259C27.802 36.3313 28.19 35.8896 28.19 35.0061V30.1473L28.9661 29.9019V35.1534Z" fill="white"/>
<path d="M30.9064 37.1166H30.1303V30.0982L30.9064 29.8528V37.1166Z" fill="white"/>
<path d="M39.1525 37.1166H38.7645C38.0369 37.1166 37.5033 36.8712 37.1637 36.3313C36.8727 36.8712 36.3391 37.1166 35.563 37.1166C34.3989 37.1166 33.6713 36.3313 33.6713 34.5644C33.6713 33.1411 34.2048 32.0613 35.563 32.0123H37.6488V35.0552C37.6488 35.9387 38.0369 36.3804 38.8615 36.3804H39.1525V37.1166ZM36.8727 32.6994H35.66C34.8354 32.6994 34.3989 33.3374 34.3989 34.5644C34.3989 35.8405 34.7869 36.3804 35.66 36.3804C36.4847 36.3804 36.8727 35.8405 36.8727 34.5644V32.6994ZM35.369 30.589C35.078 30.589 34.8839 30.4417 34.8839 30.0982C34.8839 29.7546 35.0295 29.6074 35.369 29.6074C35.7085 29.6074 35.8056 29.7546 35.8056 30.0982C35.8056 30.4417 35.7085 30.589 35.369 30.589ZM36.8242 30.589C36.5332 30.589 36.3876 30.4417 36.3876 30.0982C36.3876 29.7546 36.5332 29.6074 36.8242 29.6074C37.1152 29.6074 37.3093 29.7546 37.3093 30.0982C37.3093 30.4417 37.1637 30.589 36.8242 30.589Z" fill="white"/>
<path d="M44.3427 37.1166H42.936C42.742 37.1166 42.3054 37.0675 42.0144 36.9203C41.7719 37.0675 41.4323 37.1166 41.0928 37.1166H39.0555V36.3804C39.0555 36.3804 39.7831 36.3804 40.0741 36.3804C40.5592 36.3804 40.9472 36.3804 41.1413 36.3804C40.1226 35.6442 39.6376 34.6135 39.6861 33.681C39.7831 32.5031 40.6562 31.9141 41.7719 31.9141C43.0815 31.9632 43.8576 32.8466 43.8576 34.1718C43.8576 35.0061 43.5181 35.8405 42.839 36.3313C43.0815 36.3804 43.1785 36.3804 43.5181 36.3804C43.7121 36.3804 44.2942 36.3804 44.2942 36.3804L44.3427 37.1166ZM42.0144 36.135C42.742 35.8405 43.1785 35.0061 43.1785 34.2209C43.1785 33.2884 42.645 32.6503 41.7233 32.6012C40.9472 32.6012 40.4137 33.092 40.4137 33.8773C40.4137 34.319 40.5592 34.7117 40.8017 35.1534C41.0443 35.546 41.5293 35.9387 42.0144 36.135ZM40.8987 30.4908C40.6077 30.4908 40.4137 30.3436 40.4137 30C40.4137 29.7055 40.5592 29.5092 40.8987 29.5092C41.2383 29.5092 41.3353 29.6565 41.3353 30C41.3838 30.3436 41.2383 30.4908 40.8987 30.4908ZM42.3539 30.4908C42.0629 30.4908 41.9174 30.3436 41.9174 30C41.9174 29.7055 42.0629 29.5092 42.3539 29.5092C42.645 29.5092 42.839 29.6565 42.839 30C42.839 30.3436 42.6935 30.4908 42.3539 30.4908Z" fill="white"/>
<path d="M45.4584 30.3436L46.2345 30.0982V34.5154C47.0106 32.9448 48.4173 32.1104 49.6299 32.2086C51.0851 32.3068 52.1038 33.4847 52.1038 35.546C52.1038 35.7914 52.1038 36.0368 52.0553 36.3804H53.0254V37.1166H44.2457V36.3804H45.4584V30.3436ZM51.2307 36.3804C51.2792 36.0859 51.2792 35.8405 51.2792 35.6442C51.2792 33.8282 50.6486 32.7976 49.2904 32.7976C47.8837 32.7976 46.2345 34.5154 46.089 36.4295H51.2307V36.3804Z" fill="white"/>
<path d="M56.809 37.1166H56.3239C55.6933 37.1166 55.1112 36.8221 54.8687 36.3313C54.5291 36.8221 53.9956 37.1166 53.3165 37.1166H52.7829V36.3804H53.2195C53.9956 36.3804 54.4321 35.9387 54.4321 35.0552V32.2577L55.2082 32.0123V35.1534C55.2082 35.9877 55.5963 36.3804 56.3724 36.3804H56.8575V37.1166H56.809ZM54.8687 30.589C54.5776 30.589 54.3836 30.4417 54.3836 30.0982C54.3836 29.7546 54.5291 29.6074 54.8687 29.6074C55.2082 29.6074 55.3052 29.7546 55.3052 30.0982C55.3052 30.4417 55.1597 30.589 54.8687 30.589Z" fill="white"/>
<path d="M64.1819 37.1166H63.6484C63.0178 37.1166 62.5812 36.9693 62.1932 36.5767C61.9506 37.411 61.32 37.8528 60.3984 37.8528C59.4768 37.8528 58.9432 37.411 58.6037 36.6748C58.2641 36.9693 57.8276 37.1166 57.294 37.1166H56.7119V36.3804H57.2455C57.9246 36.3804 58.3611 35.9877 58.4096 35.3006C58.4582 33.9755 58.9917 32.9939 60.3984 32.9939C61.6596 32.9939 62.2417 33.7791 62.3387 35.0552C62.3387 35.9387 62.7267 36.3804 63.5514 36.3804H64.1819V37.1166ZM60.3984 33.7301C59.5738 33.7301 59.2343 34.2699 59.2343 35.3988C59.2343 36.5767 59.5738 37.1166 60.3984 37.1166C61.223 37.1166 61.5626 36.5767 61.5626 35.3988C61.5626 34.2699 61.223 33.7301 60.3984 33.7301Z" fill="white"/>
<path d="M66.5588 35.1534C66.5588 36.2822 65.8312 37.0675 64.667 37.0675H64.0849V36.3313H64.6185C65.3946 36.3313 65.7827 35.8896 65.7827 35.0061V30.1473L66.5588 29.9019V35.1534Z" fill="white"/>
<path d="M68.499 37.1166H67.7229V30.0982L68.499 29.8528V37.1166Z" fill="white"/>
<path d="M73.3982 36.6258C73.3982 38.2454 72.7191 39.2761 71.1669 39.2761C70.7789 39.2761 70.4393 39.1779 70.0998 39.0307L69.7117 38.1472C70.2938 38.4417 70.7789 38.5399 71.1669 38.5399C72.1371 38.5399 72.6221 37.8037 72.5736 36.7239C72.2341 36.9693 71.846 37.1166 71.4095 37.1166C70.1968 37.1166 69.4207 36.2822 69.4207 34.6626C69.4207 32.9939 70.1483 32.1595 71.4095 32.1595C72.7191 32.1595 73.4467 33.1902 73.3497 34.5644L73.3982 36.6258ZM71.4095 32.8466C70.5848 32.8466 70.1968 33.4356 70.1968 34.6626C70.1968 35.8405 70.5848 36.4295 71.4095 36.4295C72.1856 36.4295 72.6221 35.8405 72.6221 34.6626C72.6221 33.4356 72.2341 32.8466 71.4095 32.8466Z" fill="white"/>
<path d="M83.6816 35.1534C83.6816 36.3313 82.9055 37.0675 81.7899 37.0675H77.9578C76.8907 37.0675 76.1631 36.3313 76.1631 35.1534V33.681L76.9392 32.7485V35.0552C76.9392 35.9387 77.3272 36.3804 78.1519 36.3804H81.7899C82.566 36.3804 82.954 35.9387 82.954 35.0552V30.1473L83.7301 29.9019V35.1534H83.6816ZM81.3533 33.7792H78.1519L78.6369 33.2884H79.122V32.9939C79.122 32.2086 79.6071 31.6196 80.3832 31.6196C80.7227 31.6196 80.9652 31.7669 81.2563 32.0123L80.8682 32.4049C80.6742 32.2086 80.4802 32.1104 80.3347 32.1104C79.9466 32.1104 79.6556 32.454 79.6556 32.8957V33.2884H81.4018V33.7792H81.3533Z" fill="white"/>
<path d="M87.4651 36.6749C87.4651 38.1473 86.8831 39.2761 85.3309 39.2761C85.0398 39.2761 84.5547 39.1779 84.1667 39.0307L83.8271 38.1963C84.3607 38.5399 84.8458 38.589 85.2338 38.589C86.204 38.589 86.689 37.7546 86.689 36.8221V32.3068L87.4651 32.0614V36.6749Z" fill="white"/>
<path d="M89.4539 29.8528V35.6933C89.4539 36.135 89.6479 36.3804 90.0845 36.3804H91.1517V37.1166H89.9875C89.1629 37.1166 88.7263 36.6258 88.7263 35.7424V30.0982L89.4539 29.8528Z" fill="white"/>
<path d="M98.4762 37.1166H97.9426C97.312 37.1166 96.8754 36.9693 96.4874 36.5767C96.2449 37.411 95.6143 37.8528 94.6926 37.8528C93.771 37.8528 93.2374 37.411 92.8979 36.6748C92.5583 36.9693 92.1218 37.1166 91.5882 37.1166H91.0061V36.3804H91.5397C92.2188 36.3804 92.6554 35.9877 92.7039 35.3006C92.7524 33.9755 93.286 32.9939 94.6926 32.9939C95.9538 32.9939 96.5359 33.7791 96.6329 35.0552C96.6329 35.9387 97.021 36.3804 97.8456 36.3804H98.4762V37.1166ZM94.6926 33.7301C93.868 33.7301 93.5285 34.2699 93.5285 35.3988C93.5285 36.5767 93.868 37.1166 94.6926 37.1166C95.5173 37.1166 95.8568 36.5767 95.8568 35.3988C95.8568 34.2699 95.5173 33.7301 94.6926 33.7301Z" fill="white"/>
<path d="M105.655 37.1166H98.3792V36.3804H103.278V35.6442C103.278 34.1718 103.181 32.6503 101.484 32.6503C100.95 32.6503 100.368 32.8957 99.7858 33.4356L99.3008 32.9448C100.028 32.2577 100.756 31.9632 101.484 31.9632C103.715 31.9632 104.054 33.7301 104.054 35.4479V36.4295H105.655V37.1166ZM101.629 39.5215C101.338 39.5215 101.144 39.3742 101.144 39.0307C101.144 38.7362 101.29 38.5399 101.629 38.5399C101.969 38.5399 102.066 38.6871 102.066 39.0307C102.066 39.3252 101.92 39.5215 101.629 39.5215Z" fill="white"/>
<path d="M108.032 35.1534C108.032 36.2822 107.304 37.0675 106.14 37.0675H105.558V36.3313H106.092C106.868 36.3313 107.256 35.8896 107.256 35.0061V30.1473L108.032 29.9019V35.1534Z" fill="white"/>
<path d="M109.972 37.1166H109.196V30.0982L109.972 29.8528V37.1166Z" fill="white"/>
<path d="M114.871 36.6258C114.871 38.2454 114.192 39.2761 112.64 39.2761C112.252 39.2761 111.912 39.1779 111.573 39.0307L111.185 38.1472C111.767 38.4417 112.252 38.5399 112.64 38.5399C113.61 38.5399 114.095 37.8037 114.047 36.7239C113.707 36.9693 113.319 37.1166 112.883 37.1166C111.67 37.1166 110.894 36.2822 110.894 34.6626C110.894 32.9939 111.621 32.1595 112.883 32.1595C114.192 32.1595 114.92 33.1902 114.823 34.5644V36.6258H114.871ZM112.883 32.8466C112.058 32.8466 111.67 33.4356 111.67 34.6626C111.67 35.8405 112.058 36.4295 112.883 36.4295C113.659 36.4295 114.095 35.8405 114.095 34.6626C114.095 33.4356 113.707 32.8466 112.883 32.8466Z" fill="white"/>
<path d="M120.401 32.8957H117.2L117.685 32.4049H118.17V32.1595C118.17 31.3742 118.655 30.7853 119.431 30.7853C119.771 30.7853 120.013 30.9325 120.304 31.1779L119.916 31.5706C119.722 31.3742 119.528 31.2761 119.383 31.2761C118.994 31.2761 118.703 31.6196 118.703 32.0614V32.454H120.45V32.8957H120.401ZM117.636 36.3313C117.636 35.6933 117.782 34.9571 118.073 34.1718L118.897 33.5828C118.509 34.6135 118.364 35.4969 118.364 36.0859C118.364 37.411 118.946 38.4417 120.304 38.4417C121.42 38.4417 122.244 38 122.293 37.0184C121.517 37.0184 121.08 36.6258 120.886 36.0859L121.226 35.3006C121.468 35.9387 121.856 36.2822 122.39 36.2822H123.021V37.0184C123.021 38.2454 122.002 39.1779 120.256 39.1779C118.558 39.2761 117.636 38.0491 117.636 36.3313Z" fill="white"/>
<path d="M125.494 35.1534C125.494 36.2822 124.767 37.0675 123.603 37.0675H123.021V36.3313H123.554C124.33 36.3313 124.718 35.8896 124.718 35.0061V32.2086L125.494 31.9632V35.1534ZM123.651 30.589C123.36 30.589 123.215 30.4417 123.215 30.0982C123.215 29.7546 123.36 29.6074 123.651 29.6074C123.942 29.6074 124.136 29.7546 124.136 30.0982C124.136 30.4417 123.991 30.589 123.651 30.589Z" fill="white"/>
<path d="M127.435 37.1166H126.659V30.0982L127.435 29.8528V37.1166Z" fill="white"/>
<path d="M130.103 39.2761C129.714 39.2761 129.375 39.1779 129.035 39.0307L128.647 38.1473C129.229 38.4417 129.714 38.5399 130.103 38.5399C130.976 38.5399 131.412 37.9509 131.509 37.0675H130.345C129.132 37.0675 128.356 36.2331 128.356 34.6135C128.356 32.9448 129.084 32.1104 130.345 32.1104C131.655 32.1104 132.382 33.1411 132.285 34.5153V36.3804H133.789V37.1166H132.285C132.188 38.4417 131.509 39.2761 130.103 39.2761ZM130.394 32.8466C129.569 32.8466 129.181 33.4356 129.181 34.6626C129.181 35.8405 129.569 36.4295 130.394 36.4295H131.606C131.606 36.4295 131.606 35.1534 131.606 34.6626C131.606 33.4356 131.17 32.8466 130.394 32.8466Z" fill="white"/>
<path d="M141.162 37.1166H140.628C139.998 37.1166 139.561 36.9693 139.173 36.5767C138.931 37.411 138.3 37.8528 137.379 37.8528C136.457 37.8528 135.923 37.411 135.584 36.6748C135.244 36.9693 134.808 37.1166 134.274 37.1166H133.692V36.3804H134.177C134.856 36.3804 135.293 35.9877 135.341 35.3006C135.39 33.9755 135.923 32.9939 137.33 32.9939C138.591 32.9939 139.173 33.7791 139.27 35.0552C139.27 35.9387 139.658 36.3804 140.483 36.3804H141.114V37.1166H141.162ZM137.379 33.7301C136.554 33.7301 136.214 34.2699 136.214 35.3988C136.214 36.5767 136.554 37.1166 137.379 37.1166C138.203 37.1166 138.543 36.5767 138.543 35.3988C138.543 34.2699 138.252 33.7301 137.379 33.7301Z" fill="white"/>
<path d="M143.539 35.1534C143.539 36.2822 142.811 37.0675 141.647 37.0675H141.065V36.3313H141.599C142.375 36.3313 142.763 35.8896 142.763 35.0061V30.1473L143.539 29.9019V35.1534Z" fill="white"/>
<path d="M145.479 37.1166H144.703V30.0982L145.479 29.8528V37.1166Z" fill="white"/>
<path d="M153.725 37.1166H153.337C152.61 37.1166 152.076 36.8712 151.737 36.3313C151.445 36.8712 150.912 37.1166 150.136 37.1166C148.972 37.1166 148.244 36.3313 148.244 34.5644C148.244 33.1411 148.778 32.0613 150.136 32.0123H152.173V35.0552C152.173 35.9387 152.561 36.3804 153.386 36.3804H153.677L153.725 37.1166ZM151.445 32.6994H150.233C149.408 32.6994 148.972 33.3374 148.972 34.5644C148.972 35.8405 149.36 36.3804 150.233 36.3804C151.057 36.3804 151.445 35.8405 151.445 34.5644V32.6994ZM149.942 30.589C149.651 30.589 149.457 30.4417 149.457 30.0982C149.457 29.7546 149.602 29.6074 149.942 29.6074C150.233 29.6074 150.378 29.7546 150.378 30.0982C150.378 30.4417 150.281 30.589 149.942 30.589ZM151.397 30.589C151.106 30.589 150.96 30.4417 150.96 30.0982C150.96 29.7546 151.106 29.6074 151.397 29.6074C151.688 29.6074 151.882 29.7546 151.882 30.0982C151.882 30.4417 151.736 30.589 151.397 30.589Z" fill="white"/>
<path d="M155.083 33.3865L155.86 33.1411V36.3804H158.188V32.8957L158.964 32.6503V36.3804C160.322 36.3804 161.389 36.3804 161.389 36.3804V32.3558L162.165 32.1104V36.3804H163.572V37.1166H153.677V36.3804H155.18V33.3865H155.083Z" fill="white"/>
<path d="M171.915 35.1534C171.915 36.3313 171.236 37.0675 170.024 37.0675H163.378V36.3313H164.833V33.2393L165.609 32.9939V36.3313H167.938V32.7485L168.714 32.5031V36.3313H169.926C170.703 36.3313 171.139 35.8896 171.139 35.0061V32.2086L171.915 31.9632V35.1534Z" fill="white"/>
<path d="M174.583 39.2761C174.195 39.2761 173.856 39.1779 173.516 39.0307L173.128 38.1473C173.71 38.4417 174.195 38.5399 174.583 38.5399C175.456 38.5399 175.893 37.9509 175.99 37.0675H174.826C173.613 37.0675 172.837 36.2331 172.837 34.6135C172.837 32.9448 173.564 32.1104 174.826 32.1104C176.135 32.1104 176.863 33.1411 176.766 34.5153V36.3804H178.27V37.1166H176.766C176.669 38.4417 175.99 39.2761 174.583 39.2761ZM176.184 31.4233H172.982L173.467 30.9325H173.953V30.6871C173.953 29.9019 174.438 29.3129 175.214 29.3129C175.553 29.3129 175.796 29.4601 176.087 29.7055L175.699 30.0982C175.505 29.9019 175.311 29.8037 175.165 29.8037C174.777 29.8037 174.486 30.1473 174.486 30.589V30.9816H176.232V31.4233H176.184ZM174.874 32.8466C174.05 32.8466 173.662 33.4356 173.662 34.6626C173.662 35.8405 174.05 36.4295 174.874 36.4295H176.087C176.087 36.4295 176.087 35.1534 176.087 34.6626C176.087 33.4356 175.65 32.8466 174.874 32.8466Z" fill="white"/>
<path d="M181.714 37.1166C181.083 37.1166 180.549 36.8712 180.21 36.3804C179.919 36.9203 179.191 37.1166 178.658 37.1166H178.221V36.3804H178.609C179.434 36.3804 179.822 35.9387 179.822 35.0552C179.822 35.0061 179.822 34.9571 179.822 34.6135C179.822 32.9448 180.549 32.1595 181.762 32.1595C183.023 32.1595 183.702 32.9939 183.702 34.6135C183.654 36.2822 182.926 37.1166 181.714 37.1166ZM181.714 32.8957C180.938 32.8957 180.549 33.4847 180.549 34.6626C180.549 35.8405 180.938 36.3804 181.714 36.3804C182.49 36.3804 182.878 35.7914 182.878 34.6626C182.878 33.4847 182.49 32.8957 181.714 32.8957Z" fill="white"/>
<path opacity="0.3" d="M233.81 45.1166C233.81 45.1166 235.508 42.3681 229.978 41.2393C224.011 40.0613 217.997 40.6503 213.34 42.8098C208.683 44.9693 207.422 44.2822 207.422 44.2822C207.422 44.2822 210.236 42.957 218.773 45.362C224.691 47.0307 230.996 46.6871 231.967 46.2454C232.985 45.8037 233.81 45.1166 233.81 45.1166Z" fill="white"/>
<path d="M201.892 33.2393C200.777 32.2577 198.497 29.9509 197.284 26.2699C196.896 25.1411 196.266 22.9816 196.605 20.2822C197.187 15.865 200.049 11.7914 200.049 11.8405C199.273 12.4295 192.531 18.0245 192.725 26.0736C192.822 30.2945 194.859 33.9755 195.247 34.6626C196.314 36.5767 197.478 37.7546 198.545 38.8834C202.766 43.3497 207.228 45.6074 209.459 46.6871C211.933 47.865 214.068 48.6012 215.135 48.9448C216.929 49.5337 218.094 49.7791 220.276 50.319C223.429 51.0552 224.885 51.2515 226.485 51.0061C226.873 50.9571 227.407 50.8098 227.795 50.5644C229.929 49.1902 232.258 47.3252 233.858 45.3129C228.862 44.8221 224.497 44.0859 221.441 43.3006C218.239 42.4663 215.426 41.7791 211.982 40.1595C207.471 37.9018 204.172 35.3006 201.892 33.2393Z" fill="white"/>
<path opacity="0.3" d="M210.284 30.1473C209.12 30.9325 210.236 32.6503 211.4 31.9632C211.691 31.816 211.933 31.6687 212.176 31.5215C214.795 30.0982 220.228 28.8712 226.291 30.0982C232.112 31.2761 234.974 31.227 236.914 30.4908C238.078 30.0491 238.951 28.6258 238.951 28.6258C238.951 28.6258 239.243 26.0736 232.549 25.3865C227.358 24.8466 217.512 25.2884 210.284 30.1473Z" fill="white"/>
<path opacity="0.3" d="M235.216 17.4846C235.313 17.1902 235.265 16.8957 235.071 16.6503C234.537 16.0613 233.082 14.9816 230.705 14.6871C228.086 14.3435 221.489 13.4601 213.874 16.454C212.903 16.8466 214.504 18.2699 215.474 17.9264L214.504 18.1718C214.504 18.1718 212.758 17.9264 218.53 18.3681C223.235 18.7116 228.377 20.184 230.996 19.8896C233.422 19.6932 234.731 18.7607 235.216 17.4846Z" fill="white"/>
<path d="M212.273 51.4969C216.541 50.1718 219.403 50.6626 221.053 51.1534C221.392 51.2515 223.235 51.8405 223.187 52.3804C223.138 52.8712 221.586 53.1656 219.84 53.5092C219.161 53.6564 218.627 53.7546 217.851 53.8528C214.31 54.2454 211.303 53.6564 210.915 53.6074C210.672 53.5583 208.441 53.1166 206.161 52.0859C203.154 50.7607 196.557 46.9325 193.404 39.0307C191.463 34.1718 191.609 29.7055 191.9 27.2025C191.803 29.5583 191.755 37.411 197.042 43.6933C200.389 47.6687 204.803 49.7791 206.404 50.5153C207.228 50.908 209.071 51.7423 211.594 52.3313C214.31 52.9693 216.105 52.9693 217.172 52.9202C218.239 52.8712 219.937 52.6258 219.937 52.3313C219.937 51.9877 217.851 51.6932 217.366 51.6442C216.105 51.4479 214.359 51.3006 212.273 51.4969Z" fill="white"/>
<path d="M221.15 8.79755C221.053 8.84663 220.373 9.23926 220.276 9.92638C220.179 10.3681 220.325 10.7117 220.422 10.908C220.713 11.5951 221.295 11.9877 222.023 12.3313C222.314 12.4785 223.478 12.9693 226.243 13.2638C226.97 13.3129 227.94 13.362 229.105 13.2638C230.463 13.1656 231.093 13.1166 231.239 12.8221C231.627 11.8896 228.135 9.53374 227.892 9.3865C227.31 8.99387 225.079 7.57055 222.168 6.93252C221.15 6.7362 219.888 6.4908 219.452 6.44172C219.306 6.44172 218.288 6.2454 216.929 6.19632C216.881 6.19632 219.937 6.9816 221.295 7.32515C221.877 7.47239 222.605 7.66871 223.381 8.01227C223.866 8.20859 224.205 8.40491 224.933 8.74847C226.049 9.28834 226.582 9.6319 227.067 10.1227C227.407 10.4663 227.601 10.6135 227.552 10.8098C227.455 11.3497 226.049 11.5951 225.079 11.5951C223.963 11.5951 221.635 11.3497 221.344 10.1227C221.15 9.28834 222.702 8.50307 223.138 8.50307C224.691 8.45399 222.265 8.20859 221.15 8.79755Z" fill="white"/>
<path d="M231.724 18.8098C231.093 18.9571 230.511 19.0552 229.881 19.1043C228.911 19.1534 227.94 19.2024 226.437 19.1043C224.108 18.908 222.314 18.5644 221.732 18.4663C217.415 17.5828 215.232 17.1411 213.194 15.5215C211.497 14.1963 211.157 13.1166 211.06 12.4785C210.915 11.3497 211.448 10.4172 211.691 9.97546C212.515 8.4049 213.971 7.71779 214.601 7.42331C214.989 7.22699 215.329 7.12883 215.571 7.03067C214.65 7.12883 213.922 7.27607 213.34 7.47239C212.952 7.57055 212.273 7.76687 211.497 8.20858C210.721 8.60122 210.139 9.04294 209.75 9.43558C209.217 9.8773 208.247 10.8098 207.907 12.2331C207.471 14.0491 208.295 15.6687 208.683 16.3558C211.982 22.638 224.254 24.2086 225.661 24.3558C227.455 24.6012 228.959 24.7485 230.075 24.7975C234.392 25.0429 236.332 24.6994 237.302 24.4049C237.739 24.3067 238.127 24.1104 238.369 24.0123C238.369 24.0123 237.642 20.5767 235.216 16.8466C235.556 17.4356 233.422 18.4663 231.724 18.8098Z" fill="white"/>
<path d="M226.485 29.0184C214.65 25.9264 208.101 21.5583 205.579 17.9264C203.105 14.2945 203.299 7.57055 214.407 6.04908C214.456 6.04908 214.456 6 214.407 6C212.37 6.04908 202.571 6.68712 200.001 14.8344C196.46 25.9264 214.504 35.1534 217.657 36.4785C220.858 37.8037 228.959 41.5337 236.769 39.3742C237.06 39.2761 237.351 38.9816 237.448 38.7362C239.34 34.5153 239 28.7239 239 28.5276C238.951 28.4294 234.198 31.0798 226.485 29.0184Z" fill="white"/>
</g>
<defs>
<filter id="filter0_d_3305_7406" x="0" y="0" width="249" height="68" filterUnits="userSpaceOnUse" color-interpolation-filters="sRGB">
<feFlood flood-opacity="0" result="BackgroundImageFix"/>
<feColorMatrix in="SourceAlpha" type="matrix" values="0 0 0 0 0 0 0 0 0 0 0 0 0 0 0 0 0 0 127 0" result="hardAlpha"/>
<feOffset dy="4"/>
<feGaussianBlur stdDeviation="5"/>
<feComposite in2="hardAlpha" operator="out"/>
<feColorMatrix type="matrix" values="0 0 0 0 0 0 0 0 0 0 0 0 0 0 0 0 0 0 0.2 0"/>
<feBlend mode="normal" in2="BackgroundImageFix" result="effect1_dropShadow_3305_7406"/>
<feBlend mode="normal" in="SourceGraphic" in2="effect1_dropShadow_3305_7406" result="shape"/>
</filter>
<clipPath id="clip0_3305_7406">
<rect width="229" height="48" fill="white" transform="translate(10 6)"/>
</clipPath>
</defs>
</svg>
