<svg width="22" height="23" viewBox="0 0 22 23" fill="none" xmlns="http://www.w3.org/2000/svg">
<mask id="mask0_2563_11968" style="mask-type:alpha" maskUnits="userSpaceOnUse" x="0" y="0" width="22" height="23">
<rect x="0.388672" y="0.775391" width="21.3333" height="21.3333" fill="#D9D9D9"/>
</mask>
<g mask="url(#mask0_2563_11968)">
<path d="M3.94416 18.5533C3.45527 18.5533 3.03675 18.3792 2.6886 18.0311C2.34046 17.6829 2.16638 17.2644 2.16638 16.7755V6.10883C2.16638 5.61994 2.34046 5.20143 2.6886 4.85328C3.03675 4.50513 3.45527 4.33105 3.94416 4.33105H18.1664C18.6553 4.33105 19.0738 4.50513 19.4219 4.85328C19.7701 5.20143 19.9442 5.61994 19.9442 6.10883V16.7755C19.9442 17.2644 19.7701 17.6829 19.4219 18.0311C19.0738 18.3792 18.6553 18.5533 18.1664 18.5533H3.94416ZM11.0553 12.3311L3.94416 7.88661V16.7755H18.1664V7.88661L11.0553 12.3311ZM11.0553 10.5533L18.1664 6.10883H3.94416L11.0553 10.5533ZM3.94416 7.88661V6.10883V16.7755V7.88661Z" fill="#177DB7"/>
</g>
</svg>
