<svg width="28" height="28" viewBox="0 0 28 28" fill="none" xmlns="http://www.w3.org/2000/svg">
<mask id="mask0_3067_2471" style="mask-type:alpha" maskUnits="userSpaceOnUse" x="0" y="0" width="28" height="28">
<rect width="28" height="28" fill="#D9D9D9"/>
</mask>
<g mask="url(#mask0_3067_2471)">
<path d="M20.4459 12.3959C20.7181 12.2209 20.8542 11.9778 20.8542 11.6667C20.8542 11.3556 20.7181 11.1125 20.4459 10.9375L14.7584 7.29171C14.4667 7.09726 14.1702 7.08268 13.8688 7.24796C13.5674 7.41324 13.4167 7.67087 13.4167 8.02087V15.3125C13.4167 15.6625 13.5674 15.9202 13.8688 16.0855C14.1702 16.2507 14.4667 16.2362 14.7584 16.0417L20.4459 12.3959ZM9.33337 21C8.69171 21 8.1424 20.7716 7.68546 20.3146C7.22851 19.8577 7.00004 19.3084 7.00004 18.6667V4.66671C7.00004 4.02504 7.22851 3.47574 7.68546 3.01879C8.1424 2.56185 8.69171 2.33337 9.33337 2.33337H23.3334C23.975 2.33337 24.5243 2.56185 24.9813 3.01879C25.4382 3.47574 25.6667 4.02504 25.6667 4.66671V18.6667C25.6667 19.3084 25.4382 19.8577 24.9813 20.3146C24.5243 20.7716 23.975 21 23.3334 21H9.33337ZM4.66671 25.6667C4.02504 25.6667 3.47574 25.4382 3.01879 24.9813C2.56185 24.5243 2.33337 23.975 2.33337 23.3334V8.16671C2.33337 7.83615 2.44518 7.55907 2.66879 7.33546C2.8924 7.11185 3.16949 7.00004 3.50004 7.00004C3.8306 7.00004 4.10768 7.11185 4.33129 7.33546C4.5549 7.55907 4.66671 7.83615 4.66671 8.16671V23.3334H19.8334C20.1639 23.3334 20.441 23.4452 20.6646 23.6688C20.8882 23.8924 21 24.1695 21 24.5C21 24.8306 20.8882 25.1077 20.6646 25.3313C20.441 25.5549 20.1639 25.6667 19.8334 25.6667H4.66671Z" fill="#F83E3E" fill-opacity="0.97"/>
</g>
</svg>
