<svg width="36" height="36" viewBox="0 0 36 36" fill="none" xmlns="http://www.w3.org/2000/svg">
<mask id="mask0_3067_227" style="mask-type:alpha" maskUnits="userSpaceOnUse" x="0" y="0" width="36" height="36">
<rect width="36" height="36" fill="#D9D9D9"/>
</mask>
<g mask="url(#mask0_3067_227)">
<path d="M6 33.0001C5.175 33.0001 4.46875 32.7064 3.88125 32.1189C3.29375 31.5314 3 30.8251 3 30.0001V15.0001C3 14.1751 3.29375 13.4689 3.88125 12.8814C4.46875 12.2939 5.175 12.0001 6 12.0001H30C30.825 12.0001 31.5312 12.2939 32.1188 12.8814C32.7063 13.4689 33 14.1751 33 15.0001V30.0001C33 30.8251 32.7063 31.5314 32.1188 32.1189C31.5312 32.7064 30.825 33.0001 30 33.0001H6ZM15 28.5001L24 22.5001L15 16.5001V28.5001ZM6 10.5001V7.50012H30V10.5001H6ZM10.5 6.00012V3.00012H25.5V6.00012H10.5Z" fill="#F83E3E" fill-opacity="0.97"/>
</g>
</svg>
