<svg width="29" height="28" viewBox="0 0 29 28" fill="none" xmlns="http://www.w3.org/2000/svg">
<mask id="mask0_3048_3961" style="mask-type:alpha" maskUnits="userSpaceOnUse" x="0" y="0" width="29" height="28">
<rect x="0.699951" width="28" height="28" fill="#D9D9D9"/>
</mask>
<g mask="url(#mask0_3048_3961)">
<path d="M5.36662 22.4C5.03606 22.4 4.75898 22.2658 4.53537 21.9975C4.31176 21.7291 4.19995 21.3966 4.19995 21C4.19995 20.6033 4.31176 20.2708 4.53537 20.0025C4.75898 19.7341 5.03606 19.6 5.36662 19.6H24.0333C24.3638 19.6 24.6409 19.7341 24.8645 20.0025C25.0881 20.2708 25.2 20.6033 25.2 21C25.2 21.3966 25.0881 21.7291 24.8645 21.9975C24.6409 22.2658 24.3638 22.4 24.0333 22.4H5.36662ZM5.36662 15.4C5.03606 15.4 4.75898 15.2658 4.53537 14.9975C4.31176 14.7291 4.19995 14.3966 4.19995 14C4.19995 13.6033 4.31176 13.2708 4.53537 13.0025C4.75898 12.7341 5.03606 12.6 5.36662 12.6H24.0333C24.3638 12.6 24.6409 12.7341 24.8645 13.0025C25.0881 13.2708 25.2 13.6033 25.2 14C25.2 14.3966 25.0881 14.7291 24.8645 14.9975C24.6409 15.2658 24.3638 15.4 24.0333 15.4H5.36662ZM5.36662 8.39998C5.03606 8.39998 4.75898 8.26581 4.53537 7.99748C4.31176 7.72914 4.19995 7.39664 4.19995 6.99998C4.19995 6.60331 4.31176 6.27081 4.53537 6.00248C4.75898 5.73414 5.03606 5.59998 5.36662 5.59998H24.0333C24.3638 5.59998 24.6409 5.73414 24.8645 6.00248C25.0881 6.27081 25.2 6.60331 25.2 6.99998C25.2 7.39664 25.0881 7.72914 24.8645 7.99748C24.6409 8.26581 24.3638 8.39998 24.0333 8.39998H5.36662Z" fill="#177DB7"/>
</g>
</svg>
