<svg width="28" height="28" viewBox="0 0 28 28" fill="none" xmlns="http://www.w3.org/2000/svg">
<mask id="mask0_3703_3327" style="mask-type:alpha" maskUnits="userSpaceOnUse" x="0" y="0" width="28" height="28">
<rect width="28" height="28" fill="#D9D9D9"/>
</mask>
<g mask="url(#mask0_3703_3327)">
<path d="M23.3332 14.0002C23.3332 14.6418 23.1047 15.1911 22.6478 15.6481C22.1908 16.105 21.6415 16.3335 20.9998 16.3335C20.3582 16.3335 19.8089 16.105 19.3519 15.6481C18.895 15.1911 18.6665 14.6418 18.6665 14.0002C18.6665 13.3585 18.895 12.8092 19.3519 12.3522C19.8089 11.8953 20.3582 11.6668 20.9998 11.6668C21.6415 11.6668 22.1908 11.8953 22.6478 12.3522C23.1047 12.8092 23.3332 13.3585 23.3332 14.0002ZM16.3332 14.0002C16.3332 14.6418 16.1047 15.1911 15.6478 15.6481C15.1908 16.105 14.6415 16.3335 13.9998 16.3335C13.3582 16.3335 12.8089 16.105 12.3519 15.6481C11.895 15.1911 11.6665 14.6418 11.6665 14.0002C11.6665 13.3585 11.895 12.8092 12.3519 12.3522C12.8089 11.8953 13.3582 11.6668 13.9998 11.6668C14.6415 11.6668 15.1908 11.8953 15.6478 12.3522C16.1047 12.8092 16.3332 13.3585 16.3332 14.0002ZM9.33317 14.0002C9.33317 14.6418 9.1047 15.1911 8.64775 15.6481C8.19081 16.105 7.6415 16.3335 6.99984 16.3335C6.35817 16.3335 5.80887 16.105 5.35192 15.6481C4.89498 15.1911 4.6665 14.6418 4.6665 14.0002C4.6665 13.3585 4.89498 12.8092 5.35192 12.3522C5.80887 11.8953 6.35817 11.6668 6.99984 11.6668C7.6415 11.6668 8.19081 11.8953 8.64775 12.3522C9.1047 12.8092 9.33317 13.3585 9.33317 14.0002Z" fill="#AEAEAE"/>
</g>
</svg>
