<svg width="36" height="36" viewBox="0 0 36 36" fill="none" xmlns="http://www.w3.org/2000/svg">
<mask id="mask0_2913_7634" style="mask-type:alpha" maskUnits="userSpaceOnUse" x="0" y="0" width="36" height="36">
<rect width="36" height="36" fill="#D9D9D9"/>
</mask>
<g mask="url(#mask0_2913_7634)">
<path d="M16.425 27L24.9 18.525L22.725 16.35L16.3875 22.6875L13.2375 19.5375L11.1 21.675L16.425 27ZM9 33C8.175 33 7.46875 32.7063 6.88125 32.1188C6.29375 31.5312 6 30.825 6 30V6C6 5.175 6.29375 4.46875 6.88125 3.88125C7.46875 3.29375 8.175 3 9 3H21L30 12V30C30 30.825 29.7063 31.5312 29.1188 32.1188C28.5312 32.7063 27.825 33 27 33H9ZM19.5 13.5H27L19.5 6V13.5Z" fill="#177DB7"/>
</g>
</svg>
