<svg width="28" height="25" viewBox="0 0 28 25" fill="none" xmlns="http://www.w3.org/2000/svg">
<path d="M7.12579 19.375C7.51538 19.375 7.84194 19.2432 8.10548 18.9797C8.36902 18.7161 8.5008 18.3896 8.5008 18C8.5008 17.6104 8.36902 17.2839 8.10548 17.0203C7.84194 16.7568 7.51538 16.625 7.12579 16.625C6.73621 16.625 6.40965 16.7568 6.14611 17.0203C5.88257 17.2839 5.75079 17.6104 5.75079 18C5.75079 18.3896 5.88257 18.7161 6.14611 18.9797C6.40965 19.2432 6.73621 19.375 7.12579 19.375ZM5.75079 13.875H8.5008V5.625H5.75079V13.875ZM12.6258 19.375H22.2508V16.625H12.6258V19.375ZM12.6258 13.875H22.2508V11.125H12.6258V13.875ZM12.6258 8.375H22.2508V5.625H12.6258V8.375ZM3.00079 24.875C2.24454 24.875 1.59715 24.6057 1.05861 24.0672C0.520064 23.5286 0.250793 22.8813 0.250793 22.125V2.875C0.250793 2.11875 0.520064 1.47135 1.05861 0.932813C1.59715 0.394271 2.24454 0.125 3.00079 0.125H25.0008C25.757 0.125 26.4044 0.394271 26.943 0.932813C27.4815 1.47135 27.7508 2.11875 27.7508 2.875V22.125C27.7508 22.8813 27.4815 23.5286 26.943 24.0672C26.4044 24.6057 25.757 24.875 25.0008 24.875H3.00079ZM3.00079 22.125H25.0008V2.875H3.00079V22.125Z" fill="#177DB7"/>
</svg>
