<svg width="26" height="19" viewBox="0 0 26 19" fill="none" xmlns="http://www.w3.org/2000/svg">
<path d="M12.9999 14.6665C14.4582 14.6665 15.6978 14.1561 16.7186 13.1353C17.7395 12.1145 18.2499 10.8749 18.2499 9.41653C18.2499 7.9582 17.7395 6.71862 16.7186 5.69778C15.6978 4.67695 14.4582 4.16653 12.9999 4.16653C11.5415 4.16653 10.302 4.67695 9.28112 5.69778C8.26029 6.71862 7.74987 7.9582 7.74987 9.41653C7.74987 10.8749 8.26029 12.1145 9.28112 13.1353C10.302 14.1561 11.5415 14.6665 12.9999 14.6665ZM12.9999 12.5665C12.1249 12.5665 11.3811 12.2603 10.7686 11.6478C10.1561 11.0353 9.84987 10.2915 9.84987 9.41653C9.84987 8.54153 10.1561 7.79778 10.7686 7.18528C11.3811 6.57278 12.1249 6.26653 12.9999 6.26653C13.8749 6.26653 14.6186 6.57278 15.2311 7.18528C15.8436 7.79778 16.1499 8.54153 16.1499 9.41653C16.1499 10.2915 15.8436 11.0353 15.2311 11.6478C14.6186 12.2603 13.8749 12.5665 12.9999 12.5665ZM12.9999 18.1665C10.161 18.1665 7.57487 17.3742 5.24154 15.7895C2.90821 14.2047 1.21654 12.0804 0.166542 9.41653C1.21654 6.75265 2.90821 4.62834 5.24154 3.04362C7.57487 1.4589 10.161 0.666534 12.9999 0.666534C15.8388 0.666534 18.4249 1.4589 20.7582 3.04362C23.0915 4.62834 24.7832 6.75265 25.8332 9.41653C24.7832 12.0804 23.0915 14.2047 20.7582 15.7895C18.4249 17.3742 15.8388 18.1665 12.9999 18.1665ZM12.9999 15.8332C15.1971 15.8332 17.2145 15.2547 19.052 14.0978C20.8895 12.9408 22.2943 11.3804 23.2665 9.41653C22.2943 7.45265 20.8895 5.89223 19.052 4.73528C17.2145 3.57834 15.1971 2.99987 12.9999 2.99987C10.8027 2.99987 8.78529 3.57834 6.94779 4.73528C5.11029 5.89223 3.70543 7.45265 2.73321 9.41653C3.70543 11.3804 5.11029 12.9408 6.94779 14.0978C8.78529 15.2547 10.8027 15.8332 12.9999 15.8332Z" fill="#7F7F7F"/>
</svg>
