<svg width="36" height="36" viewBox="0 0 36 36" fill="none" xmlns="http://www.w3.org/2000/svg">
<mask id="mask0_3067_6957" style="mask-type:alpha" maskUnits="userSpaceOnUse" x="0" y="0" width="36" height="36">
<rect width="36" height="36" fill="#D9D9D9"/>
</mask>
<g mask="url(#mask0_3067_6957)">
<path d="M16.65 28.5002H19.275V26.6252C20.525 26.4002 21.6 25.9127 22.5 25.1627C23.4 24.4127 23.85 23.3002 23.85 21.8252C23.85 20.7752 23.55 19.8127 22.95 18.9377C22.35 18.0627 21.15 17.3002 19.35 16.6502C17.85 16.1502 16.8125 15.7127 16.2375 15.3377C15.6625 14.9627 15.375 14.4502 15.375 13.8002C15.375 13.1502 15.6063 12.6377 16.0688 12.2627C16.5313 11.8877 17.2 11.7002 18.075 11.7002C18.875 11.7002 19.5 11.8939 19.95 12.2814C20.4 12.6689 20.725 13.1502 20.925 13.7252L23.325 12.7502C23.05 11.8752 22.5438 11.1127 21.8063 10.4627C21.0688 9.81268 20.25 9.45018 19.35 9.37518V7.50018H16.725V9.37518C15.475 9.65018 14.5 10.2002 13.8 11.0252C13.1 11.8502 12.75 12.7752 12.75 13.8002C12.75 14.9752 13.0938 15.9252 13.7812 16.6502C14.4688 17.3752 15.55 18.0002 17.025 18.5252C18.6 19.1002 19.6938 19.6127 20.3063 20.0627C20.9188 20.5127 21.225 21.1002 21.225 21.8252C21.225 22.6502 20.9312 23.2564 20.3438 23.6439C19.7563 24.0314 19.05 24.2252 18.225 24.2252C17.4 24.2252 16.6687 23.9689 16.0312 23.4564C15.3938 22.9439 14.925 22.1752 14.625 21.1502L12.15 22.1252C12.5 23.3252 13.0437 24.2939 13.7812 25.0314C14.5188 25.7689 15.475 26.2752 16.65 26.5502V28.5002ZM18 33.0002C15.925 33.0002 13.975 32.6064 12.15 31.8189C10.325 31.0314 8.7375 29.9627 7.3875 28.6127C6.0375 27.2627 4.96875 25.6752 4.18125 23.8502C3.39375 22.0252 3 20.0752 3 18.0002C3 15.9252 3.39375 13.9752 4.18125 12.1502C4.96875 10.3252 6.0375 8.73768 7.3875 7.38768C8.7375 6.03768 10.325 4.96893 12.15 4.18143C13.975 3.39393 15.925 3.00018 18 3.00018C20.075 3.00018 22.025 3.39393 23.85 4.18143C25.675 4.96893 27.2625 6.03768 28.6125 7.38768C29.9625 8.73768 31.0312 10.3252 31.8187 12.1502C32.6062 13.9752 33 15.9252 33 18.0002C33 20.0752 32.6062 22.0252 31.8187 23.8502C31.0312 25.6752 29.9625 27.2627 28.6125 28.6127C27.2625 29.9627 25.675 31.0314 23.85 31.8189C22.025 32.6064 20.075 33.0002 18 33.0002Z" fill="#8DC83A"/>
</g>
</svg>
