<svg width="60" height="60" viewBox="0 0 60 60" fill="none" xmlns="http://www.w3.org/2000/svg">
<g filter="url(#filter0_d_2862_8024)">
<rect width="60" height="60" rx="7.5" fill="white"/>
<mask id="mask0_2862_8024" style="mask-type:luminance" maskUnits="userSpaceOnUse" x="0" y="0" width="60" height="60">
<rect width="60" height="60" rx="7.5" fill="white"/>
</mask>
<g mask="url(#mask0_2862_8024)">
</g>
<g clip-path="url(#clip0_2862_8024)">
<path d="M44.2405 40.8138C39.613 39.9355 34.9303 40.1002 30.9639 41.2529C32.5615 41.7469 34.1591 42.1861 35.8669 42.5703C38.8417 43.3388 43.0836 44.0524 47.9866 44.4916C47.9866 44.4916 49.6393 41.8567 44.2405 40.8138Z" fill="#8C6829"/>
<path d="M35.8121 42.57C34.1043 42.1309 32.5618 41.7466 30.9091 41.2526C29.5319 40.8134 28.1546 40.2645 26.6121 39.6058C22.3151 37.6297 19.0648 35.1046 16.8612 33.1285C15.7594 32.1953 13.5558 29.9996 12.3989 26.4316C12.0133 25.3337 11.4073 23.2478 11.7379 20.7227C12.2888 16.4411 15.0983 12.5986 15.0983 12.5986C14.3271 13.2025 7.7714 18.527 7.93667 26.212C8.04685 30.274 10.0301 33.7872 10.3606 34.4459C11.4073 36.2573 12.5091 37.4101 13.5558 38.5079C17.6876 42.7896 21.9846 44.9304 24.1882 45.9733C26.6121 47.1261 28.6504 47.7848 29.6971 48.1141C31.4049 48.6631 32.5618 48.9375 34.7103 49.4316C37.7953 50.1452 39.1726 50.3098 40.7702 50.0903C41.1558 50.0354 41.7067 49.8707 42.0924 49.6511C44.1307 48.3337 46.4444 46.5223 47.987 44.601C43.084 44.1619 38.8971 43.3934 35.8672 42.6798L35.8121 42.57Z" fill="#C09949"/>
<path d="M26.9979 50.6399C31.1297 49.3774 33.9393 49.8165 35.5369 50.3105C35.8674 50.4203 37.6854 50.9693 37.6303 51.4633C37.6303 51.9573 36.0878 52.2318 34.38 52.5611C33.7189 52.6709 33.2231 52.7807 32.3967 52.8905C28.9261 53.2199 26.0063 52.7258 25.6758 52.616C25.4554 52.616 23.2518 52.122 21.0482 51.1888C18.0734 49.9263 11.683 46.2485 8.65303 38.6733C6.72488 34.0074 6.89015 29.7258 7.1656 27.3105C7.05542 29.5611 7.05542 37.0814 12.1788 43.1196C15.4291 46.9621 19.7261 48.9382 21.2686 49.6518C22.0399 50.0361 23.8578 50.8046 26.3369 51.4084C28.9812 52.0122 30.744 52.0122 31.7357 51.9573C32.7824 51.9024 34.4351 51.6829 34.4351 51.4084C34.4351 51.079 32.3967 50.8046 31.956 50.7497C30.689 50.585 29.0363 50.4752 26.9979 50.6399Z" fill="#C09949"/>
<path d="M35.6468 9.6901C35.5366 9.74499 34.9307 10.0743 34.7654 10.788C34.7103 11.2271 34.8205 11.5564 34.8756 11.7211C35.151 12.3798 35.757 12.7641 36.4732 13.0934C36.7486 13.2581 37.8504 13.7522 40.6049 13.9717C41.3211 14.0266 42.2576 14.0815 43.4145 13.9717C44.7366 13.8619 45.3977 13.8619 45.5079 13.5326C45.8935 12.6543 42.478 10.3488 42.2576 10.239C41.6516 9.85478 39.5031 8.48246 36.6935 7.87864C35.7019 7.65907 34.4899 7.4395 34.0492 7.38461C33.939 7.38461 32.8923 7.21993 31.6253 7.16504C31.5702 7.16504 34.545 7.93354 35.8672 8.26289C37.1893 8.59225 37.1342 8.59225 37.9055 8.9216C38.4013 9.08628 38.7319 9.25096 39.3929 9.58031C40.4947 10.0743 40.9905 10.4037 41.4863 10.8977C41.8169 11.2271 41.9822 11.3918 41.9822 11.5564C41.9271 12.0505 40.5498 12.3249 39.5582 12.3249C38.5115 12.3249 36.1977 12.0505 35.9223 10.8977C35.757 10.0743 37.2444 9.36074 37.6301 9.36074C39.1175 9.36074 36.6935 9.08628 35.6468 9.6901Z" fill="#C6C6C6"/>
<path d="M40.7149 19.5156C42.2023 19.6253 43.1388 19.5156 44.0753 19.5156C44.7364 19.5156 45.2873 19.3509 45.8933 19.2411C47.546 18.9117 49.6394 17.9237 49.2538 17.265C49.2538 17.265 49.2538 17.265 49.2538 17.2101C48.758 16.6063 47.4909 15.5633 45.0119 15.3437C42.5328 15.1242 36.3077 14.191 29.146 16.8807C30.8538 17.8139 32.8921 18.253 36.2526 18.9117C36.8035 19.0215 38.5664 19.3509 40.825 19.5156H40.7149Z" fill="#595959"/>
<path d="M49.364 17.43C49.364 17.43 49.364 17.43 49.364 17.3751C49.7496 18.0338 47.6562 19.0219 46.0035 19.3513C45.3975 19.461 44.8466 19.5708 44.1855 19.6257C43.249 19.6257 42.3125 19.7355 40.825 19.6257C38.5664 19.461 36.8035 19.1317 36.2526 19.0219C32.8921 18.3632 30.8538 17.924 29.146 16.9909C28.7053 16.7713 28.3197 16.4968 27.934 16.1675C26.2813 14.905 25.9508 13.862 25.8957 13.2033C25.7855 12.1054 26.2813 11.2271 26.5017 10.788C27.328 9.30591 28.7604 8.6472 29.3664 8.31784C29.752 8.15316 30.0825 8.04338 30.3029 7.93359C29.4214 7.98849 28.7053 8.20806 28.1544 8.31784C27.7688 8.42763 27.1628 8.6472 26.3364 9.03145C25.5652 9.41569 25.0143 9.85483 24.6286 10.1842C24.1328 10.5684 23.1963 11.5016 22.8658 12.8739C22.425 14.6305 23.2514 16.1675 23.5819 16.8262C26.7771 22.8644 38.7867 24.3465 40.1089 24.5112C41.8167 24.7856 43.3041 24.8954 44.4059 24.9503C48.5927 25.1699 50.4658 24.8405 51.4574 24.5661C51.8981 24.4563 52.2837 24.2916 52.5041 24.1818C52.5041 24.1818 51.843 20.9431 49.5292 17.43H49.364Z" fill="#B3B3B3"/>
<path d="M53.0001 28.6275C53.0001 28.1883 52.6144 26.1573 46.7749 25.5535C43.4695 25.2241 38.3462 25.279 33.1677 26.6513C35.4264 27.5296 37.9605 28.353 40.8803 29.0666C48.3725 30.9878 53.0001 28.5177 53.0551 28.5726L53.0001 28.6275Z" fill="#266A96"/>
<path d="M53.0001 28.6277C52.945 28.5728 48.3175 31.043 40.8253 29.1217C37.9606 28.4081 35.3714 27.5847 33.1127 26.7064C26.3366 24.1265 22.3151 21.1074 20.442 18.4726C18.0732 14.9594 18.2384 8.53699 29.0911 7C27.1079 7 17.5774 7.65871 15.0432 15.4535C11.6277 26.1026 29.1462 34.9403 32.2313 36.2029C35.3714 37.4654 43.2492 41.0883 50.7965 39.0024C51.072 38.9475 51.3474 38.6181 51.4576 38.3986C53.3307 34.3914 53.0001 28.7924 53.0001 28.6277Z" fill="#4384B9"/>
</g>
<rect opacity="0.15" x="0.25" y="0.25" width="59.5" height="59.5" rx="7.25" stroke="black" stroke-width="0.5"/>
<mask id="mask1_2862_8024" style="mask-type:luminance" maskUnits="userSpaceOnUse" x="0" y="0" width="60" height="60">
<rect x="0.25" y="0.25" width="59.5" height="59.5" rx="7.25" fill="white" stroke="white" stroke-width="0.5"/>
</mask>
<g mask="url(#mask1_2862_8024)">
</g>
</g>
<defs>
<filter id="filter0_d_2862_8024" x="-4" y="-3" width="68" height="68" filterUnits="userSpaceOnUse" color-interpolation-filters="sRGB">
<feFlood flood-opacity="0" result="BackgroundImageFix"/>
<feColorMatrix in="SourceAlpha" type="matrix" values="0 0 0 0 0 0 0 0 0 0 0 0 0 0 0 0 0 0 127 0" result="hardAlpha"/>
<feOffset dy="1"/>
<feGaussianBlur stdDeviation="2"/>
<feColorMatrix type="matrix" values="0 0 0 0 0 0 0 0 0 0 0 0 0 0 0 0 0 0 0.15 0"/>
<feBlend mode="normal" in2="BackgroundImageFix" result="effect1_dropShadow_2862_8024"/>
<feBlend mode="normal" in="SourceGraphic" in2="effect1_dropShadow_2862_8024" result="shape"/>
</filter>
<clipPath id="clip0_2862_8024">
<rect width="46" height="46" fill="white" transform="translate(7 7)"/>
</clipPath>
</defs>
</svg>
