<svg width="154" height="32" viewBox="0 0 154 32" fill="none" xmlns="http://www.w3.org/2000/svg">
<path d="M0.195801 24.9404H2.1202C3.00085 24.9404 3.45749 25.4314 3.45749 26.2496C3.45749 27.0678 3.00085 27.5587 2.1202 27.5587H0.782904V29.3588H0.195801V24.9404ZM0.782904 27.0351H1.92449C2.57683 27.0351 2.87038 26.7405 2.87038 26.2169C2.87038 25.6932 2.57683 25.3986 1.92449 25.3986H0.782904V27.0351Z" fill="#575756"/>
<path d="M5.4473 26.0537C6.45842 26.0537 6.98029 26.7737 6.98029 27.7229C6.98029 28.6393 6.45842 29.3921 5.4473 29.3921C4.43618 29.3921 3.91431 28.672 3.91431 27.7229C3.91431 26.8065 4.43618 26.0537 5.4473 26.0537ZM5.4473 28.9338C6.00179 28.9338 6.42581 28.5084 6.42581 27.7229C6.42581 26.9374 5.96917 26.5119 5.4473 26.5119C4.92543 26.5119 4.46879 26.9374 4.46879 27.7229C4.46879 28.5084 4.89281 28.9338 5.4473 28.9338Z" fill="#575756"/>
<path d="M7.56714 26.1519H8.05639V26.8065C8.31733 26.2828 8.64349 26.0537 9.2306 26.0537V26.6101C8.38256 26.6101 8.08901 27.101 8.08901 27.8865V29.2939H7.56714V26.1519Z" fill="#575756"/>
<path d="M10.3395 26.1513H10.9593V26.6095H10.3395V28.5732C10.3395 28.8023 10.4048 28.8678 10.7309 28.8678H10.9593V29.326H10.5679C10.0134 29.326 9.81767 29.2278 9.81767 28.6387V26.6095H9.26318V26.1513H9.81767V25.2021H10.3395V26.1513Z" fill="#575756"/>
<path d="M11.8729 28.3115C11.9056 28.7697 12.297 28.9333 12.721 28.9333C13.0472 28.9333 13.4712 28.8679 13.4712 28.4751C13.4712 28.0824 12.9493 28.0169 12.4274 27.886C11.9056 27.7551 11.3837 27.5915 11.3837 27.0023C11.3837 26.3478 12.0034 26.0859 12.5579 26.0859C13.2429 26.0859 13.7973 26.315 13.8626 27.0678H13.3733C13.3407 26.6751 12.9819 26.5441 12.6231 26.5441C12.297 26.5441 11.9382 26.6423 11.9382 26.9369C11.9382 27.2969 12.4927 27.3624 12.9819 27.4933C13.5038 27.6242 14.0257 27.7878 14.0257 28.4097C14.0257 29.1624 13.3081 29.4243 12.6884 29.4243C11.9708 29.4243 11.3837 29.1297 11.3511 28.3442H11.8729V28.3115Z" fill="#575756"/>
<path d="M14.7429 28.6396H15.4284V29.2615C15.4284 29.7197 15.2326 30.0797 14.7429 30.2106V29.9161C15.0041 29.8179 15.102 29.5233 15.102 29.327H14.7429V28.6396Z" fill="#575756"/>
<path d="M20.4511 26.2501C20.3207 25.6283 19.8314 25.301 19.2117 25.301C18.168 25.301 17.7439 26.152 17.7439 27.0684C17.7439 28.083 18.2006 28.9012 19.2443 28.9012C19.9945 28.9012 20.4511 28.3448 20.5164 27.6248H21.1035C21.0056 28.7048 20.3207 29.3921 19.2117 29.3921C17.8418 29.3921 17.1895 28.3775 17.1895 27.1011C17.1895 25.8247 17.907 24.7773 19.2443 24.7773C20.1576 24.7773 20.9078 25.2683 21.0382 26.2174H20.4511V26.2501Z" fill="#575756"/>
<path d="M24.3323 29.3261H23.843V28.8024C23.6147 29.1951 23.2559 29.3915 22.7993 29.3915C21.9512 29.3915 21.7229 28.9006 21.7229 28.246V26.1514H22.2448V28.3115C22.2448 28.7042 22.5057 28.966 22.8971 28.966C23.5168 28.966 23.843 28.5406 23.843 27.9842V26.1841H24.3649V29.3261H24.3323Z" fill="#575756"/>
<path d="M25.4412 28.3115C25.4738 28.7697 25.8652 28.9333 26.2892 28.9333C26.6154 28.9333 27.0394 28.8679 27.0394 28.4751C27.0394 28.0824 26.5176 28.0169 25.9957 27.886C25.4738 27.7551 24.952 27.5915 24.952 27.0023C24.952 26.3478 25.5717 26.0859 26.1262 26.0859C26.8111 26.0859 27.3656 26.315 27.4308 27.0678H26.909C26.8763 26.6751 26.5176 26.5441 26.1588 26.5441C25.8326 26.5441 25.4738 26.6423 25.4738 26.9369C25.4738 27.2969 26.0283 27.3624 26.5176 27.4933C27.0394 27.6242 27.5613 27.7878 27.5613 28.4097C27.5613 29.1624 26.8437 29.4243 26.224 29.4243C25.5064 29.4243 24.9193 29.1297 24.8867 28.3442H25.4412V28.3115Z" fill="#575756"/>
<path d="M28.8986 26.1513H29.5183V26.6095H28.8986V28.5732C28.8986 28.8023 28.9639 28.8678 29.29 28.8678H29.5183V29.326H29.1269C28.5725 29.326 28.3768 29.2278 28.3768 28.6387V26.6095H27.8223V26.1513H28.3768V25.2021H28.8986V26.1513Z" fill="#575756"/>
<path d="M31.4754 26.0537C32.4865 26.0537 33.0084 26.7737 33.0084 27.7229C33.0084 28.6393 32.4865 29.3921 31.4754 29.3921C30.4643 29.3921 29.9424 28.672 29.9424 27.7229C29.9424 26.8065 30.4643 26.0537 31.4754 26.0537ZM31.4754 28.9338C32.0299 28.9338 32.4539 28.5084 32.4539 27.7229C32.4539 26.9374 31.9972 26.5119 31.4754 26.5119C30.9209 26.5119 30.4969 26.9374 30.4969 27.7229C30.4969 28.5084 30.9209 28.9338 31.4754 28.9338Z" fill="#575756"/>
<path d="M33.6281 26.1519H34.1173V26.6101C34.3456 26.2501 34.7044 26.0537 35.1285 26.0537C35.5199 26.0537 35.8786 26.2174 36.0091 26.6101C36.2374 26.2828 36.5962 26.0537 36.9876 26.0537C37.6073 26.0537 38.0314 26.3155 38.0314 26.9701V29.2939H37.5095V27.1992C37.5095 26.8065 37.4116 26.4792 36.8898 26.4792C36.4005 26.4792 36.0743 26.8065 36.0743 27.2974V29.2611H35.5525V27.1665C35.5525 26.741 35.422 26.4465 34.9654 26.4465C34.3456 26.4465 34.1173 27.0028 34.1173 27.2647V29.2284H33.5955V26.1519H33.6281Z" fill="#575756"/>
<path d="M39.1729 28.3115C39.2055 28.7697 39.5969 28.9333 40.0209 28.9333C40.3471 28.9333 40.7711 28.8679 40.7711 28.4751C40.7711 28.0824 40.2493 28.0169 39.7274 27.886C39.2055 27.7551 38.6836 27.5915 38.6836 27.0023C38.6836 26.3478 39.3034 26.0859 39.8578 26.0859C40.5428 26.0859 41.0973 26.315 41.1625 27.0678H40.6407C40.608 26.6751 40.2493 26.5441 39.8905 26.5441C39.5643 26.5441 39.2055 26.6423 39.2055 26.9369C39.2055 27.2969 39.76 27.3624 40.2493 27.4933C40.7711 27.6242 41.293 27.7878 41.293 28.4097C41.293 29.1624 40.5754 29.4243 39.9557 29.4243C39.2381 29.4243 38.651 29.1297 38.6184 28.3442H39.1729V28.3115Z" fill="#575756"/>
<path d="M46.4137 29.2934C46.3158 29.3588 46.218 29.3916 46.0549 29.3916C45.794 29.3916 45.5983 29.2279 45.5983 28.9006C45.3047 29.2279 44.9133 29.3916 44.4893 29.3916C43.9022 29.3916 43.4456 29.1297 43.4456 28.5079C43.4456 27.7878 43.9674 27.6242 44.5219 27.526C45.109 27.4278 45.5983 27.4605 45.5983 27.0678C45.5983 26.6096 45.2395 26.5441 44.8807 26.5441C44.4241 26.5441 44.1305 26.6751 44.0979 27.1333H43.576C43.6086 26.3478 44.2284 26.0859 44.9133 26.0859C45.4678 26.0859 46.0875 26.2169 46.0875 26.9696V28.6061C46.0875 28.8679 46.0875 28.9661 46.2506 28.9661C46.2832 28.9661 46.3485 28.9661 46.4137 28.9333V29.2934ZM45.5657 27.6897C45.37 27.8533 44.9786 27.8533 44.6198 27.9188C44.261 27.9842 43.9674 28.1151 43.9674 28.4751C43.9674 28.8352 44.261 28.9333 44.5871 28.9333C45.2721 28.9333 45.5657 28.5079 45.5657 28.2133V27.6897Z" fill="#575756"/>
<path d="M46.9032 26.1519H47.3925V26.6428C47.6208 26.2501 47.9796 26.0537 48.4362 26.0537C49.2843 26.0537 49.5126 26.5446 49.5126 27.1992V29.2939H48.9907V27.1665C48.9907 26.7737 48.7298 26.5119 48.3384 26.5119C47.7186 26.5119 47.3925 26.9374 47.3925 27.4938V29.2939H46.8706V26.1519H46.9032Z" fill="#575756"/>
<path d="M53.1328 29.3261H52.611V28.9006C52.4479 29.2606 52.0239 29.3916 51.5998 29.3916C50.6213 29.3916 50.1321 28.6061 50.1321 27.7224C50.1321 26.8387 50.6213 26.0859 51.5672 26.0859C51.8934 26.0859 52.35 26.2169 52.5783 26.5769V24.9404H53.1002V29.3261H53.1328ZM51.6651 28.9333C52.35 28.9333 52.6436 28.3442 52.6436 27.7224C52.6436 27.1005 52.35 26.5114 51.6325 26.5114C50.9149 26.5114 50.6866 27.1333 50.6866 27.7551C50.6866 28.3442 50.9801 28.9333 51.6651 28.9333Z" fill="#575756"/>
<path d="M55.7097 24.9404H58.58V25.4314H56.2968V26.8387H58.3191V27.3296H56.2968V29.3261H55.7097V24.9404Z" fill="#575756"/>
<path d="M59.1343 26.1519H59.6235V26.8065C59.8845 26.2828 60.2106 26.0537 60.7977 26.0537V26.6101C59.9497 26.6101 59.6561 27.101 59.6561 27.8865V29.2939H59.1343V26.1519Z" fill="#575756"/>
<path d="M63.6684 28.3115C63.5379 28.9988 63.016 29.3916 62.3311 29.3916C61.32 29.3916 60.8307 28.7042 60.7981 27.7224C60.7981 26.7732 61.4178 26.0859 62.2985 26.0859C63.4074 26.0859 63.7662 27.1333 63.7336 27.9188H61.3526C61.32 28.4751 61.6461 28.9661 62.3311 28.9661C62.7551 28.9661 63.0487 28.7697 63.1465 28.3442H63.6684V28.3115ZM63.1465 27.4278C63.1139 26.9369 62.7551 26.5441 62.2332 26.5441C61.6788 26.5441 61.3526 26.9696 61.32 27.4278H63.1465Z" fill="#575756"/>
<path d="M66.9628 28.3115C66.8323 28.9988 66.3105 29.3916 65.6255 29.3916C64.6144 29.3916 64.1251 28.7042 64.0925 27.7224C64.0925 26.7732 64.7123 26.0859 65.5929 26.0859C66.7019 26.0859 67.0607 27.1333 67.028 27.9188H64.647C64.6144 28.4751 64.9406 28.9661 65.6255 28.9661C66.0495 28.9661 66.3431 28.7697 66.4409 28.3442H66.9628V28.3115ZM66.4409 27.4278C66.4083 26.9369 66.0495 26.5441 65.5277 26.5441C64.9732 26.5441 64.647 26.9696 64.6144 27.4278H66.4409Z" fill="#575756"/>
<path d="M68.985 28.8352L71.6922 25.4314H69.1807V24.9404H72.3772V25.4314L69.67 28.8352H72.4424V29.3261H68.9524V28.8352H68.985Z" fill="#575756"/>
<path d="M74.3343 26.0537C75.3454 26.0537 75.8673 26.7737 75.8673 27.7229C75.8673 28.6393 75.3454 29.3921 74.3343 29.3921C73.3231 29.3921 72.8013 28.672 72.8013 27.7229C72.8013 26.8065 73.3558 26.0537 74.3343 26.0537ZM74.3343 28.9338C74.8887 28.9338 75.3128 28.5084 75.3128 27.7229C75.3128 26.9374 74.8561 26.5119 74.3343 26.5119C73.7798 26.5119 73.3558 26.9374 73.3558 27.7229C73.3558 28.5084 73.8124 28.9338 74.3343 28.9338Z" fill="#575756"/>
<path d="M76.4868 26.1519H76.9761V26.6428C77.2044 26.2501 77.5632 26.0537 78.0198 26.0537C78.8678 26.0537 79.0962 26.5446 79.0962 27.1992V29.2939H78.6069V27.1665C78.6069 26.7737 78.346 26.5119 77.9546 26.5119C77.3349 26.5119 77.0087 26.9374 77.0087 27.4938V29.2939H76.4868V26.1519Z" fill="#575756"/>
<path d="M82.5861 28.3115C82.4556 28.9988 81.9338 29.3916 81.2488 29.3916C80.2377 29.3916 79.7484 28.7042 79.7158 27.7224C79.7158 26.7732 80.3355 26.0859 81.2162 26.0859C82.3252 26.0859 82.684 27.1333 82.6513 27.9188H80.2703C80.2377 28.4751 80.5639 28.9661 81.2488 28.9661C81.6728 28.9661 81.9664 28.7697 82.0642 28.3442H82.5861V28.3115ZM82.0969 27.4278C82.0642 26.9369 81.7054 26.5441 81.1836 26.5441C80.6291 26.5441 80.3029 26.9696 80.2703 27.4278H82.0969Z" fill="#575756"/>
<path d="M88.0329 26.2501C87.9025 25.6283 87.4132 25.301 86.7935 25.301C85.7498 25.301 85.3257 26.152 85.3257 27.0684C85.3257 28.083 85.7824 28.9012 86.8261 28.9012C87.5763 28.9012 88.0329 28.3448 88.0982 27.6248H88.6853C88.5874 28.7048 87.9025 29.3921 86.7935 29.3921C85.4236 29.3921 84.7712 28.3775 84.7712 27.1011C84.7712 25.8247 85.4888 24.7773 86.8261 24.7773C87.7394 24.7773 88.4896 25.2683 88.62 26.2174H88.0329V26.2501Z" fill="#575756"/>
<path d="M90.6751 26.0537C91.6862 26.0537 92.2081 26.7737 92.2081 27.7229C92.2081 28.6393 91.6862 29.3921 90.6751 29.3921C89.664 29.3921 89.1421 28.672 89.1421 27.7229C89.1421 26.8065 89.664 26.0537 90.6751 26.0537ZM90.6751 28.9338C91.2296 28.9338 91.6536 28.5084 91.6536 27.7229C91.6536 26.9374 91.197 26.5119 90.6751 26.5119C90.1206 26.5119 89.6966 26.9374 89.6966 27.7229C89.6966 28.5084 90.1206 28.9338 90.6751 28.9338Z" fill="#575756"/>
<path d="M92.7952 26.1519H93.2844V26.8065C93.5454 26.2828 93.8715 26.0537 94.4586 26.0537V26.6101C93.6106 26.6101 93.317 27.101 93.317 27.8865V29.2939H92.7952V26.1519Z" fill="#575756"/>
<path d="M94.8826 26.1514H95.4044V26.5769C95.5675 26.2169 95.9915 26.0859 96.4156 26.0859C97.3941 26.0859 97.8833 26.8714 97.8833 27.7551C97.8833 28.6388 97.3941 29.3915 96.4482 29.3915C96.122 29.3915 95.6654 29.2606 95.4371 28.9006V30.5371H94.9152V26.1514H94.8826ZM96.3503 26.5114C95.6654 26.5114 95.3718 27.1005 95.3718 27.7224C95.3718 28.3442 95.6654 28.9333 96.3829 28.9333C97.1005 28.9333 97.3288 28.3115 97.3288 27.6896C97.3288 27.1005 97.0353 26.5114 96.3503 26.5114Z" fill="#575756"/>
<path d="M99.8732 26.0537C100.884 26.0537 101.406 26.7737 101.406 27.7229C101.406 28.6393 100.884 29.3921 99.8732 29.3921C98.8621 29.3921 98.3402 28.672 98.3402 27.7229C98.3076 26.8065 98.8621 26.0537 99.8732 26.0537ZM99.8732 28.9338C100.428 28.9338 100.852 28.5084 100.852 27.7229C100.852 26.9374 100.395 26.5119 99.8732 26.5119C99.3187 26.5119 98.8947 26.9374 98.8947 27.7229C98.8621 28.5084 99.3187 28.9338 99.8732 28.9338Z" fill="#575756"/>
<path d="M101.993 26.1519H102.483V26.8065C102.744 26.2828 103.07 26.0537 103.657 26.0537V26.6101C102.809 26.6101 102.515 27.101 102.515 27.8865V29.2939H101.993V26.1519Z" fill="#575756"/>
<path d="M106.853 29.2934C106.755 29.3588 106.657 29.3916 106.494 29.3916C106.233 29.3916 106.038 29.2279 106.038 28.9006C105.744 29.2279 105.353 29.3916 104.929 29.3916C104.342 29.3916 103.885 29.1297 103.885 28.5079C103.885 27.7878 104.407 27.6242 104.961 27.526C105.548 27.4278 106.038 27.4605 106.038 27.0678C106.038 26.6096 105.679 26.5441 105.32 26.5441C104.864 26.5441 104.57 26.6751 104.537 27.1333H104.015C104.048 26.3478 104.668 26.0859 105.353 26.0859C105.907 26.0859 106.527 26.2169 106.527 26.9696V28.6061C106.527 28.8679 106.527 28.9661 106.69 28.9661C106.723 28.9661 106.788 28.9661 106.853 28.9333V29.2934ZM106.005 27.6897C105.809 27.8533 105.418 27.8533 105.059 27.9188C104.7 27.9842 104.407 28.1151 104.407 28.4751C104.407 28.8352 104.7 28.9333 105.027 28.9333C105.712 28.9333 106.005 28.5079 106.005 28.2133V27.6897Z" fill="#575756"/>
<path d="M108.06 26.1513H108.679V26.6095H108.06V28.5732C108.06 28.8023 108.125 28.8678 108.451 28.8678H108.679V29.326H108.288C107.734 29.326 107.538 29.2278 107.538 28.6387V26.6095H106.983V26.1513H107.538V25.2021H108.06V26.1513Z" fill="#575756"/>
<path d="M109.822 25.5638H109.3V24.9092H109.822V25.5638ZM109.3 26.1529H109.822V29.3276H109.3V26.1529Z" fill="#575756"/>
<path d="M111.974 26.0537C112.985 26.0537 113.507 26.7737 113.507 27.7229C113.507 28.6393 112.985 29.3921 111.974 29.3921C110.963 29.3921 110.441 28.672 110.441 27.7229C110.441 26.8065 110.996 26.0537 111.974 26.0537ZM111.974 28.9338C112.529 28.9338 112.953 28.5084 112.953 27.7229C112.953 26.9374 112.496 26.5119 111.974 26.5119C111.42 26.5119 110.996 26.9374 110.996 27.7229C110.996 28.5084 111.452 28.9338 111.974 28.9338Z" fill="#575756"/>
<path d="M114.126 26.1519H114.616V26.6428C114.844 26.2501 115.203 26.0537 115.659 26.0537C116.507 26.0537 116.736 26.5446 116.736 27.1992V29.2939H116.214V27.1665C116.214 26.7737 115.953 26.5119 115.562 26.5119C114.942 26.5119 114.616 26.9374 114.616 27.4938V29.2939H114.094V26.1519H114.126Z" fill="#575756"/>
<path d="M2.77243 18.9838C2.77243 19.933 2.38103 20.7185 1.40253 20.7185C0.424019 20.7185 0 19.933 0 18.9838C0 18.0674 0.391402 17.2492 1.36991 17.2492C2.34841 17.2492 2.77243 18.0674 2.77243 18.9838ZM2.25056 18.9838C2.25056 18.1329 1.95701 17.7074 1.36991 17.7074C0.782805 17.7074 0.52187 18.1656 0.52187 18.9838C0.52187 19.8348 0.815422 20.2603 1.40253 20.2603C1.98963 20.2603 2.25056 19.8348 2.25056 18.9838ZM0.880656 16.3001C0.684954 16.3001 0.554487 16.2019 0.554487 15.9728C0.554487 15.7764 0.652337 15.6455 0.880656 15.6455C1.10897 15.6455 1.17421 15.7437 1.17421 15.9728C1.20682 16.2019 1.10897 16.3001 0.880656 16.3001ZM1.85916 16.3001C1.66346 16.3001 1.56561 16.2019 1.56561 15.9728C1.56561 15.7764 1.66346 15.6455 1.85916 15.6455C2.05486 15.6455 2.18533 15.7437 2.18533 15.9728C2.18533 16.2019 2.08748 16.3001 1.85916 16.3001Z" fill="#575756"/>
<path d="M6.32809 20.26V20.751H5.31697C5.25173 21.5692 4.82772 22.191 3.91444 22.191C3.71874 22.191 3.39257 22.1256 3.13164 22.0274L2.90332 21.471C3.26211 21.7001 3.58827 21.7328 3.84921 21.7328C4.50155 21.7328 4.82772 21.1764 4.82772 20.5546V17.5435L5.34959 17.3799V20.2927H6.32809V20.26Z" fill="#575756"/>
<path d="M11.1552 20.752H6.2627V20.261H9.557V19.7701C9.557 18.7882 9.49177 17.7736 8.35018 17.7736C7.99139 17.7736 7.59999 17.9373 7.20858 18.2973L6.88242 17.97C7.37167 17.5118 7.86092 17.3154 8.35018 17.3154C9.85055 17.3154 10.0789 18.4937 10.0789 19.6392V20.2938H11.1552V20.752Z" fill="#575756"/>
<path d="M12.7535 19.4424C12.7535 20.1952 12.2643 20.7188 11.4815 20.7188H11.0901V20.2279H11.4489C11.9707 20.2279 12.2317 19.9333 12.2317 19.3442V16.1041L12.7535 15.9404V19.4424Z" fill="#575756"/>
<path d="M14.0582 20.7511H13.5359V16.0709L14.0582 15.9072V20.7511Z" fill="#575756"/>
<path d="M19.6032 20.7526H19.3423C18.853 20.7526 18.4942 20.589 18.2659 20.229C18.0702 20.589 17.7114 20.7526 17.1895 20.7526C16.4067 20.7526 15.9175 20.229 15.9175 19.0507C15.9175 18.1016 16.2763 17.3816 17.1895 17.3488H18.5921V19.378C18.5921 19.9671 18.853 20.2617 19.4075 20.2617H19.6032V20.7526ZM18.0702 17.807H17.2548C16.7003 17.807 16.4067 18.2325 16.4067 19.0507C16.4067 19.9017 16.6677 20.2617 17.2548 20.2617C17.8093 20.2617 18.0702 19.9017 18.0702 19.0507V17.807ZM17.0591 16.3997C16.8634 16.3997 16.7329 16.3015 16.7329 16.0724C16.7329 15.8433 16.8308 15.7451 17.0591 15.7451C17.2874 15.7451 17.3526 15.8433 17.3526 16.0724C17.3526 16.3015 17.2874 16.3997 17.0591 16.3997ZM18.0376 16.3997C17.8419 16.3997 17.744 16.3015 17.744 16.0724C17.744 15.8433 17.8419 15.7451 18.0376 15.7451C18.2333 15.7451 18.3637 15.8433 18.3637 16.0724C18.3637 16.3015 18.2659 16.3997 18.0376 16.3997Z" fill="#575756"/>
<path d="M23.0931 20.7517H22.1472C22.0167 20.7517 21.7232 20.7189 21.5275 20.6208C21.3644 20.7189 21.1361 20.7517 20.9077 20.7517H19.5378V20.2607C19.5378 20.2607 20.0271 20.2607 20.2228 20.2607C20.549 20.2607 20.8099 20.2607 20.9404 20.2607C20.2554 19.7698 19.9292 19.0825 19.9619 18.4607C20.0271 17.6752 20.6142 17.2824 21.3644 17.2824C22.245 17.3152 22.7669 17.9043 22.7669 18.7879C22.7669 19.3443 22.5386 19.9007 22.082 20.228C22.245 20.2607 22.3103 20.2607 22.5386 20.2607C22.6691 20.2607 23.0605 20.2607 23.0605 20.2607V20.7517H23.0931ZM21.5275 20.0971C22.0167 19.9007 22.3103 19.3443 22.3103 18.8207C22.3103 18.1988 21.9515 17.7734 21.3318 17.7406C20.8099 17.7406 20.4511 18.0679 20.4511 18.5916C20.4511 18.8861 20.549 19.148 20.712 19.4425C20.8751 19.7044 21.2013 19.9662 21.5275 20.0971ZM20.7773 16.3333C20.5816 16.3333 20.4511 16.2351 20.4511 16.006C20.4511 15.8096 20.549 15.6787 20.7773 15.6787C21.0056 15.6787 21.0708 15.7769 21.0708 16.006C21.1035 16.2351 21.0056 16.3333 20.7773 16.3333ZM21.7558 16.3333C21.5601 16.3333 21.4622 16.2351 21.4622 16.006C21.4622 15.8096 21.5601 15.6787 21.7558 15.6787C21.9515 15.6787 22.082 15.7769 22.082 16.006C22.082 16.2351 21.9841 16.3333 21.7558 16.3333Z" fill="#575756"/>
<path d="M23.8433 16.234L24.3651 16.0703V19.0159C24.887 17.9686 25.8329 17.4122 26.6483 17.4777C27.6268 17.5431 28.3118 18.3286 28.3118 19.7032C28.3118 19.8669 28.3118 20.0305 28.2791 20.2596H28.9315V20.7505H23.0278V20.2596H23.8433V16.234ZM27.7247 20.2596C27.7573 20.0632 27.7573 19.8996 27.7573 19.7687C27.7573 18.5577 27.3333 17.8704 26.42 17.8704C25.4741 17.8704 24.3651 19.0159 24.2673 20.2923H27.7247V20.2596Z" fill="#575756"/>
<path d="M31.4753 20.7526H31.1491C30.7251 20.7526 30.3337 20.5563 30.1706 20.229C29.9423 20.5563 29.5835 20.7526 29.1269 20.7526H28.7681V20.2617H29.0616C29.5835 20.2617 29.877 19.9671 29.877 19.378V17.5125L30.3989 17.3488V19.4435C30.3989 19.9999 30.6598 20.2617 31.1817 20.2617H31.5079V20.7526H31.4753ZM30.1706 16.3997C29.9749 16.3997 29.8444 16.3015 29.8444 16.0724C29.8444 15.8433 29.9423 15.7451 30.1706 15.7451C30.3989 15.7451 30.4641 15.8433 30.4641 16.0724C30.4641 16.3015 30.3663 16.3997 30.1706 16.3997Z" fill="#575756"/>
<path d="M36.4334 20.7522H36.0746C35.6506 20.7522 35.357 20.654 35.0961 20.3921C34.933 20.9485 34.509 21.2431 33.8893 21.2431C33.2696 21.2431 32.9108 20.9485 32.6825 20.4576C32.4541 20.654 32.1606 20.7522 31.8018 20.7522H31.4104V20.2612H31.7692C32.2258 20.2612 32.5194 19.9994 32.552 19.5412C32.5846 18.6575 32.9434 18.0029 33.8893 18.0029C34.7373 18.0029 35.1287 18.5266 35.194 19.3775C35.194 19.9667 35.4549 20.2612 36.0094 20.2612H36.4334V20.7522ZM33.8893 18.4939C33.3348 18.4939 33.1065 18.8539 33.1065 19.6066C33.1065 20.3921 33.3348 20.7522 33.8893 20.7522C34.4438 20.7522 34.6721 20.3921 34.6721 19.6066C34.6721 18.8539 34.4438 18.4939 33.8893 18.4939Z" fill="#575756"/>
<path d="M38.0316 19.4424C38.0316 20.1952 37.5424 20.7188 36.7596 20.7188H36.3682V20.2279H36.7269C37.2488 20.2279 37.5098 19.9333 37.5098 19.3442V16.1041L38.0316 15.9404V19.4424Z" fill="#575756"/>
<path d="M39.3363 20.7511H38.814V16.0709L39.3363 15.9072V20.7511Z" fill="#575756"/>
<path d="M42.6304 20.4236C42.6304 21.5037 42.1738 22.191 41.13 22.191C40.8691 22.191 40.6408 22.1255 40.4124 22.0273L40.1515 21.4382C40.5429 21.6346 40.8691 21.7001 41.13 21.7001C41.7824 21.7001 42.1085 21.2091 42.0759 20.4891C41.8476 20.6527 41.5867 20.7509 41.2931 20.7509C40.4777 20.7509 39.9558 20.1945 39.9558 19.1145C39.9558 18.0017 40.4451 17.4453 41.2931 17.4453C42.1738 17.4453 42.663 18.1326 42.5978 19.049V20.4236H42.6304ZM41.2931 17.9035C40.7386 17.9035 40.4777 18.2963 40.4777 19.1145C40.4777 19.9 40.7386 20.2927 41.2931 20.2927C41.815 20.2927 42.1085 19.9 42.1085 19.1145C42.1085 18.2963 41.8476 17.9035 41.2931 17.9035Z" fill="#575756"/>
<path d="M49.5451 19.4424C49.5451 20.2279 49.0232 20.7188 48.2731 20.7188H45.6963C44.9788 20.7188 44.4895 20.2279 44.4895 19.4424V18.4605L45.0114 17.8387V19.377C45.0114 19.9661 45.2723 20.2606 45.8268 20.2606H48.2731C48.7949 20.2606 49.0559 19.9661 49.0559 19.377V16.1041L49.5777 15.9404V19.4424H49.5451ZM47.9795 18.526H45.8268L46.153 18.1987H46.4791V18.0023C46.4791 17.4787 46.8053 17.0859 47.3272 17.0859C47.5555 17.0859 47.7186 17.1841 47.9143 17.3478L47.6533 17.6096C47.5229 17.4787 47.3924 17.4132 47.2946 17.4132C47.0336 17.4132 46.8379 17.6423 46.8379 17.9369V18.1987H48.0121V18.526H47.9795Z" fill="#575756"/>
<path d="M52.0888 20.4564C52.0888 21.4383 51.6974 22.191 50.6537 22.191C50.458 22.191 50.1318 22.1256 49.8709 22.0274L49.6426 21.471C50.0014 21.7001 50.3275 21.7328 50.5885 21.7328C51.2408 21.7328 51.567 21.1764 51.567 20.5546V17.5435L52.0888 17.3799V20.4564Z" fill="#575756"/>
<path d="M53.4265 15.9072V19.802C53.4265 20.0965 53.557 20.2602 53.8505 20.2602H54.5681V20.7511H53.7853C53.2308 20.7511 52.9373 20.4238 52.9373 19.8347V16.0709L53.4265 15.9072Z" fill="#575756"/>
<path d="M59.4935 20.7522H59.1347C58.7107 20.7522 58.4171 20.654 58.1562 20.3921C57.9931 20.9485 57.5691 21.2431 56.9493 21.2431C56.3296 21.2431 55.9708 20.9485 55.7425 20.4576C55.5142 20.654 55.2206 20.7522 54.8619 20.7522H54.4705V20.2612H54.8292C55.2859 20.2612 55.5794 19.9994 55.612 19.5412C55.6447 18.6575 56.0035 18.0029 56.9493 18.0029C57.7974 18.0029 58.1888 18.5266 58.254 19.3775C58.254 19.9667 58.515 20.2612 59.0694 20.2612H59.4935V20.7522ZM56.9493 18.4939C56.3949 18.4939 56.1665 18.8539 56.1665 19.6066C56.1665 20.3921 56.3949 20.7522 56.9493 20.7522C57.5038 20.7522 57.7321 20.3921 57.7321 19.6066C57.7321 18.8539 57.5038 18.4939 56.9493 18.4939Z" fill="#575756"/>
<path d="M64.3208 20.752H59.4282V20.261H62.7225V19.7701C62.7225 18.7882 62.6573 17.7736 61.5157 17.7736C61.1569 17.7736 60.7655 17.9373 60.3741 18.2973L60.0479 17.97C60.5372 17.5118 61.0265 17.3154 61.5157 17.3154C63.0161 17.3154 63.2444 18.4937 63.2444 19.6392V20.2938H64.3208V20.752ZM61.6136 22.3557C61.4179 22.3557 61.2874 22.2575 61.2874 22.0284C61.2874 21.832 61.3852 21.7011 61.6136 21.7011C61.8419 21.7011 61.9071 21.7993 61.9071 22.0284C61.9071 22.2248 61.8093 22.3557 61.6136 22.3557Z" fill="#575756"/>
<path d="M65.9186 19.4424C65.9186 20.1952 65.4293 20.7188 64.6465 20.7188H64.2551V20.2279H64.6139C65.1358 20.2279 65.3967 19.9333 65.3967 19.3442V16.1041L65.9186 15.9404V19.4424Z" fill="#575756"/>
<path d="M67.224 20.7511H66.7017V16.0709L67.224 15.9072V20.7511Z" fill="#575756"/>
<path d="M70.5178 20.4236C70.5178 21.5037 70.0612 22.191 69.0175 22.191C68.7565 22.191 68.5282 22.1255 68.2999 22.0273L68.039 21.4382C68.4304 21.6346 68.7565 21.7001 69.0175 21.7001C69.6698 21.7001 69.996 21.2091 69.9634 20.4891C69.735 20.6527 69.4741 20.7509 69.1806 20.7509C68.3651 20.7509 67.8433 20.1945 67.8433 19.1145C67.8433 18.0017 68.3325 17.4453 69.1806 17.4453C70.0612 17.4453 70.5505 18.1326 70.4852 19.049V20.4236H70.5178ZM69.1806 17.9035C68.6261 17.9035 68.3651 18.2963 68.3651 19.1145C68.3651 19.9 68.6261 20.2927 69.1806 20.2927C69.7024 20.2927 69.996 19.9 69.996 19.1145C69.996 18.2963 69.735 17.9035 69.1806 17.9035Z" fill="#575756"/>
<path d="M74.2362 17.9376H72.0835L72.4097 17.6103H72.7358V17.4467C72.7358 16.923 73.062 16.5303 73.5839 16.5303C73.8122 16.5303 73.9753 16.6285 74.171 16.7921L73.91 17.0539C73.7796 16.923 73.6491 16.8576 73.5513 16.8576C73.2903 16.8576 73.0946 17.0867 73.0946 17.3812V17.6431H74.2688V17.9376H74.2362ZM72.377 20.2286C72.377 19.8032 72.4749 19.3122 72.6706 18.7886L73.2251 18.3958C72.9642 19.0831 72.8663 19.6722 72.8663 20.065C72.8663 20.9487 73.2577 21.636 74.171 21.636C74.9212 21.636 75.4757 21.3414 75.5083 20.6868C74.9864 20.6868 74.6928 20.425 74.5624 20.065L74.7907 19.5413C74.9538 19.9668 75.2147 20.1959 75.5735 20.1959H75.9975V20.6868C75.9975 21.5051 75.3126 22.1269 74.1384 22.1269C72.9968 22.1924 72.377 21.3741 72.377 20.2286Z" fill="#575756"/>
<path d="M77.6605 19.4435C77.6605 20.1962 77.1713 20.7199 76.3885 20.7199H75.9971V20.229H76.3559C76.8777 20.229 77.1387 19.9344 77.1387 19.3453V17.4797L77.6605 17.3161V19.4435ZM76.4211 16.3997C76.2254 16.3997 76.1275 16.3015 76.1275 16.0724C76.1275 15.8433 76.2254 15.7451 76.4211 15.7451C76.6168 15.7451 76.7473 15.8433 76.7473 16.0724C76.7473 16.3015 76.6494 16.3997 76.4211 16.3997Z" fill="#575756"/>
<path d="M78.9657 20.7511H78.4434V16.0709L78.9657 15.9072V20.7511Z" fill="#575756"/>
<path d="M80.7594 22.1915C80.4985 22.1915 80.2702 22.126 80.0418 22.0279L79.7809 21.4387C80.1723 21.6351 80.4985 21.7006 80.7594 21.7006C81.3465 21.7006 81.6401 21.3078 81.7053 20.7187H80.9225C80.1071 20.7187 79.5852 20.1623 79.5852 19.0823C79.5852 17.9695 80.0745 17.4131 80.9225 17.4131C81.8032 17.4131 82.2924 18.1004 82.2272 19.0168V20.2605H83.2383V20.7514H82.2272C82.1619 21.6351 81.7053 22.1915 80.7594 22.1915ZM80.9551 17.904C80.4006 17.904 80.1397 18.2968 80.1397 19.115C80.1397 19.9005 80.4006 20.2932 80.9551 20.2932H81.7705C81.7705 20.2932 81.7705 19.4423 81.7705 19.115C81.7705 18.2968 81.477 17.904 80.9551 17.904Z" fill="#575756"/>
<path d="M88.1958 20.7522H87.8371C87.413 20.7522 87.1195 20.654 86.8586 20.3921C86.6955 20.9485 86.2715 21.2431 85.6517 21.2431C85.032 21.2431 84.6732 20.9485 84.4449 20.4576C84.2166 20.654 83.923 20.7522 83.5643 20.7522H83.1729V20.2612H83.499C83.9557 20.2612 84.2492 19.9994 84.2818 19.5412C84.3144 18.6575 84.6732 18.0029 85.6191 18.0029C86.4672 18.0029 86.8586 18.5266 86.9238 19.3775C86.9238 19.9667 87.1847 20.2612 87.7392 20.2612H88.1632V20.7522H88.1958ZM85.6517 18.4939C85.0972 18.4939 84.8689 18.8539 84.8689 19.6066C84.8689 20.3921 85.0972 20.7522 85.6517 20.7522C86.2062 20.7522 86.4345 20.3921 86.4345 19.6066C86.4345 18.8539 86.2388 18.4939 85.6517 18.4939Z" fill="#575756"/>
<path d="M89.7941 19.4424C89.7941 20.1952 89.3048 20.7188 88.522 20.7188H88.1306V20.2279H88.4894C89.0113 20.2279 89.2722 19.9333 89.2722 19.3442V16.1041L89.7941 15.9404V19.4424Z" fill="#575756"/>
<path d="M91.0994 20.7511H90.5771V16.0709L91.0994 15.9072V20.7511Z" fill="#575756"/>
<path d="M96.644 20.7526H96.383C95.8938 20.7526 95.535 20.589 95.3067 20.229C95.111 20.589 94.7522 20.7526 94.2303 20.7526C93.4475 20.7526 92.9583 20.229 92.9583 19.0507C92.9583 18.1016 93.317 17.3816 94.2303 17.3488H95.6002V19.378C95.6002 19.9671 95.8612 20.2617 96.4156 20.2617H96.6113V20.7526H96.644ZM95.111 17.807H94.2955C93.7411 17.807 93.4475 18.2325 93.4475 19.0507C93.4475 19.9017 93.7084 20.2617 94.2955 20.2617C94.85 20.2617 95.111 19.9017 95.111 19.0507V17.807ZM94.0998 16.3997C93.9041 16.3997 93.7737 16.3015 93.7737 16.0724C93.7737 15.8433 93.8715 15.7451 94.0998 15.7451C94.2955 15.7451 94.3934 15.8433 94.3934 16.0724C94.3934 16.3015 94.3282 16.3997 94.0998 16.3997ZM95.0783 16.3997C94.8826 16.3997 94.7848 16.3015 94.7848 16.0724C94.7848 15.8433 94.8826 15.7451 95.0783 15.7451C95.274 15.7451 95.4045 15.8433 95.4045 16.0724C95.4045 16.3015 95.3067 16.3997 95.0783 16.3997Z" fill="#575756"/>
<path d="M97.5567 18.264L98.0786 18.1004V20.2605H99.6442V17.9367L100.166 17.7731V20.2605C101.079 20.2605 101.797 20.2605 101.797 20.2605V17.5767L102.319 17.4131V20.2605H103.265V20.7514H96.6108V20.2605H97.622V18.264H97.5567Z" fill="#575756"/>
<path d="M108.875 19.4428C108.875 20.2283 108.419 20.7192 107.603 20.7192H103.135V20.2283H104.113V18.1664L104.635 18.0027V20.2283H106.201V17.8391L106.723 17.6754V20.2283H107.538C108.06 20.2283 108.353 19.9337 108.353 19.3446V17.4791L108.875 17.3154V19.4428Z" fill="#575756"/>
<path d="M110.669 22.1908C110.408 22.1908 110.18 22.1254 109.951 22.0272L109.69 21.4381C110.082 21.6344 110.408 21.6999 110.669 21.6999C111.256 21.6999 111.549 21.3071 111.615 20.718H110.832C110.016 20.718 109.495 20.1616 109.495 19.0816C109.495 17.9688 109.984 17.4124 110.832 17.4124C111.713 17.4124 112.202 18.0997 112.137 19.0161V20.2598H113.148V20.7508H112.137C112.071 21.6344 111.615 22.1908 110.669 22.1908ZM111.745 16.9542H109.592L109.919 16.6269H110.245V16.4633C110.245 15.9396 110.571 15.5469 111.093 15.5469C111.321 15.5469 111.484 15.6451 111.68 15.8087L111.419 16.0705C111.289 15.9396 111.158 15.8742 111.06 15.8742C110.799 15.8742 110.604 16.1033 110.604 16.3978V16.6597H111.778V16.9542H111.745ZM110.865 17.9033C110.31 17.9033 110.049 18.2961 110.049 19.1143C110.049 19.8998 110.31 20.2926 110.865 20.2926H111.68C111.68 20.2926 111.68 19.4416 111.68 19.1143C111.68 18.2961 111.386 17.9033 110.865 17.9033Z" fill="#575756"/>
<path d="M115.464 20.7509C115.04 20.7509 114.681 20.5873 114.453 20.26C114.257 20.62 113.768 20.7509 113.409 20.7509H113.115V20.26H113.376C113.931 20.26 114.192 19.9654 114.192 19.3763C114.192 19.3436 114.192 19.3109 114.192 19.0818C114.192 17.969 114.681 17.4453 115.496 17.4453C116.344 17.4453 116.801 18.0017 116.801 19.0818C116.768 20.1945 116.279 20.7509 115.464 20.7509ZM115.464 17.9362C114.942 17.9362 114.681 18.329 114.681 19.1145C114.681 19.9 114.942 20.26 115.464 20.26C115.986 20.26 116.246 19.8672 116.246 19.1145C116.246 18.329 115.986 17.9362 115.464 17.9362Z" fill="#575756"/>
<path d="M150.494 26.0849C150.494 26.0849 151.636 24.2521 147.918 23.4993C143.906 22.7138 139.861 23.1066 136.73 24.5466C133.599 25.9867 132.751 25.5285 132.751 25.5285C132.751 25.5285 134.643 24.6448 140.383 26.2485C144.362 27.3613 148.603 27.1322 149.255 26.8376C149.94 26.5431 150.494 26.0849 150.494 26.0849Z" fill="#8C6829"/>
<path d="M129.033 18.1646C128.282 17.51 126.749 15.9718 125.934 13.5171C125.673 12.7643 125.249 11.3243 125.477 9.52418C125.869 6.57859 127.793 3.8621 127.793 3.89482C127.271 4.28757 122.738 8.01866 122.868 13.3862C122.933 16.2009 124.303 18.6555 124.564 19.1137C125.282 20.3901 126.064 21.1756 126.782 21.9284C129.62 24.9067 132.62 26.4123 134.121 27.1323C135.784 27.9178 137.219 28.4087 137.937 28.6378C139.144 29.0306 139.927 29.1942 141.394 29.5542C143.514 30.0451 144.493 30.1761 145.569 30.0124C145.83 29.9797 146.189 29.8815 146.45 29.7179C147.885 28.8015 149.451 27.5578 150.527 26.2159C147.168 25.8886 144.232 25.3977 142.177 24.874C140.024 24.3176 138.133 23.8594 135.817 22.7794C132.784 21.2738 130.566 19.5392 129.033 18.1646Z" fill="#C09949"/>
<path d="M134.675 16.1025C133.893 16.6261 134.643 17.7716 135.426 17.3134C135.621 17.2152 135.784 17.117 135.947 17.0189C137.709 16.0697 141.362 15.2515 145.439 16.0697C149.353 16.8552 151.277 16.8225 152.582 16.3316C153.365 16.037 153.952 15.0879 153.952 15.0879C153.952 15.0879 154.148 13.386 149.647 12.9278C146.157 12.5677 139.535 12.8623 134.675 16.1025Z" fill="#286B96"/>
<path d="M151.44 7.65885C151.506 7.46247 151.473 7.2661 151.343 7.10246C150.984 6.70971 150.005 5.98968 148.407 5.7933C146.646 5.5642 142.21 4.97508 137.089 6.97154C136.437 7.23337 137.513 8.18251 138.165 7.9534L137.513 8.11705C137.513 8.11705 136.339 7.95341 140.22 8.24796C143.384 8.47707 146.841 9.45893 148.603 9.26256C150.234 9.13164 151.114 8.50979 151.44 7.65885Z" fill="#7C7B7C"/>
<path d="M136.012 30.3404C138.882 29.4567 140.807 29.784 141.916 30.1113C142.144 30.1768 143.384 30.5695 143.351 30.9295C143.318 31.2568 142.275 31.4532 141.1 31.6823C140.644 31.7805 140.285 31.8459 139.763 31.9114C137.382 32.1732 135.36 31.7805 135.099 31.7478C134.936 31.715 133.435 31.4205 131.902 30.7332C129.88 29.8495 125.444 27.2966 123.324 22.0273C122.02 18.7871 122.117 15.8088 122.313 14.1396C122.248 15.7106 122.215 20.9472 125.77 25.1365C128.021 27.7876 130.989 29.1949 132.066 29.6858C132.62 29.9477 133.859 30.5041 135.556 30.8968C137.382 31.3223 138.589 31.3223 139.306 31.2896C140.024 31.2568 141.166 31.0932 141.166 30.8968C141.166 30.6677 139.763 30.4713 139.437 30.4386C138.589 30.3077 137.415 30.2095 136.012 30.3404Z" fill="#C09949"/>
<path d="M141.981 1.86646C141.916 1.89919 141.459 2.16102 141.394 2.61923C141.329 2.91379 141.427 3.14289 141.492 3.2738C141.688 3.73201 142.079 3.99384 142.568 4.22294C142.764 4.32112 143.547 4.64841 145.406 4.84479C145.895 4.87751 146.548 4.91024 147.331 4.84479C148.244 4.77933 148.668 4.7466 148.766 4.55023C149.027 3.92838 146.678 2.3574 146.515 2.25921C146.124 1.99738 144.623 1.04824 142.666 0.622768C141.981 0.491853 141.133 0.328209 140.84 0.29548C140.742 0.29548 140.057 0.164565 139.144 0.131836C139.111 0.131836 141.166 0.655497 142.079 0.884599C142.471 0.982785 142.96 1.1137 143.482 1.3428C143.808 1.47372 144.036 1.60463 144.525 1.83373C145.276 2.19375 145.634 2.42285 145.961 2.75014C146.189 2.97924 146.319 3.07743 146.287 3.20834C146.222 3.56836 145.276 3.73201 144.623 3.73201C143.873 3.73201 142.308 3.56836 142.112 2.75014C141.981 2.19375 143.025 1.67009 143.319 1.67009C144.362 1.63736 142.732 1.47372 141.981 1.86646Z" fill="#C7C7C6"/>
<path d="M149.092 8.54242C148.668 8.6406 148.276 8.70606 147.852 8.73879C147.2 8.77152 146.547 8.80425 145.536 8.73879C143.971 8.60787 142.764 8.37877 142.372 8.31331C139.47 7.7242 138.002 7.42964 136.632 6.34959C135.49 5.46591 135.262 4.74587 135.197 4.3204C135.099 3.56764 135.458 2.94579 135.621 2.65123C136.175 1.60391 137.154 1.1457 137.578 0.949331C137.839 0.818415 138.067 0.752958 138.23 0.6875C137.61 0.752958 137.121 0.851144 136.73 0.982059C136.469 1.04752 136.012 1.17843 135.49 1.47299C134.968 1.73482 134.577 2.02938 134.316 2.29121C133.957 2.58577 133.305 3.20762 133.077 4.15675C132.783 5.36772 133.338 6.44777 133.599 6.90598C135.816 11.0953 144.069 12.1426 145.014 12.2408C146.221 12.4044 147.232 12.5026 147.983 12.5353C150.885 12.699 152.19 12.4699 152.842 12.2735C153.136 12.208 153.397 12.0771 153.56 12.0117C153.56 12.0117 153.071 9.72065 151.44 7.23326C151.668 7.62601 150.233 8.31331 149.092 8.54242Z" fill="#C7C7C6"/>
<path d="M145.569 15.3498C137.61 13.2879 133.207 10.375 131.511 7.9531C129.848 5.53117 129.978 1.04732 137.447 0.0327288C137.48 0.0327288 137.48 0 137.447 0C136.077 0.0327288 129.489 0.458203 127.76 5.89119C125.379 13.2879 137.512 19.4409 139.633 20.3246C141.785 21.2083 147.232 23.6957 152.484 22.2556C152.679 22.1901 152.875 21.9938 152.94 21.8301C154.212 19.0154 153.984 15.1534 153.984 15.0225C153.951 14.9571 150.755 16.7244 145.569 15.3498Z" fill="#4384B8"/>
</svg>
