<svg width="24" height="24" viewBox="0 0 24 24" fill="none" xmlns="http://www.w3.org/2000/svg">
<mask id="mask0_2913_7612" style="mask-type:alpha" maskUnits="userSpaceOnUse" x="0" y="0" width="24" height="24">
<rect width="24" height="24" fill="#D9D9D9"/>
</mask>
<g mask="url(#mask0_2913_7612)">
<path d="M12 23.2999L8.64995 19.9999H3.99995V15.3499L0.699951 11.9999L3.99995 8.64989V3.99989H8.64995L12 0.69989L15.35 3.99989H20V8.64989L23.3 11.9999L20 15.3499V19.9999H15.35L12 23.2999ZM13.025 11.4999L14.5 10.4249L15.95 11.4999L15.375 9.79989L16.85 8.72489H15.05L14.5 6.99989L13.95 8.72489H12.125L13.6 9.79989L13.025 11.4999ZM12 16.9999C13.3833 16.9999 14.5625 16.5166 15.5375 15.5499C16.5125 14.5832 17 13.3999 17 11.9999C17 11.8666 16.9958 11.7332 16.9875 11.5999C16.9791 11.4666 16.9583 11.3332 16.925 11.1999C16.7416 11.9832 16.3333 12.6291 15.7 13.1374C15.0666 13.6457 14.325 13.8999 13.475 13.8999C12.475 13.8999 11.6333 13.5582 10.95 12.8749C10.2666 12.1916 9.92495 11.3499 9.92495 10.3499C9.92495 9.58322 10.1416 8.89572 10.575 8.28739C11.0083 7.67906 11.575 7.24989 12.275 6.99989H12C10.6 6.99989 9.41662 7.48739 8.44995 8.46239C7.48328 9.43739 6.99995 10.6166 6.99995 11.9999C6.99995 13.3999 7.48328 14.5832 8.44995 15.5499C9.41662 16.5166 10.6 16.9999 12 16.9999Z" fill="white"/>
</g>
</svg>
