<svg width="22" height="28" viewBox="0 0 22 28" fill="none" xmlns="http://www.w3.org/2000/svg">
<path d="M4.99992 27.3337C3.68881 27.3337 2.58325 26.8837 1.68325 25.9837C0.783252 25.0837 0.333252 23.9781 0.333252 22.667V5.33366C0.333252 4.04477 0.783252 2.94477 1.68325 2.03366C2.58325 1.12255 3.68881 0.666992 4.99992 0.666992H21.6666V20.667C21.0888 20.667 20.611 20.8614 20.2333 21.2503C19.8555 21.6392 19.6666 22.1114 19.6666 22.667C19.6666 23.2448 19.8555 23.7225 20.2333 24.1003C20.611 24.4781 21.0888 24.667 21.6666 24.667V27.3337H4.99992ZM6.63325 15.3337H8.26659L9.09992 12.967H12.8666L13.6999 15.3337H15.3333L11.7999 6.00033H10.1333L6.63325 15.3337ZM9.56658 11.6003L10.9333 7.73366H11.0333L12.3999 11.6003H9.56658ZM4.99992 24.667H17.4333C17.2999 24.3559 17.1944 24.0392 17.1166 23.717C17.0388 23.3948 16.9999 23.0448 16.9999 22.667C16.9999 22.3114 17.0333 21.967 17.0999 21.6337C17.1666 21.3003 17.2777 20.9781 17.4333 20.667H4.99992C4.42214 20.667 3.94436 20.8614 3.56659 21.2503C3.18881 21.6392 2.99992 22.1114 2.99992 22.667C2.99992 23.2448 3.18881 23.7225 3.56659 24.1003C3.94436 24.4781 4.42214 24.667 4.99992 24.667Z" fill="#177DB7"/>
</svg>
