<svg width="20" height="25" viewBox="0 0 20 25" fill="none" xmlns="http://www.w3.org/2000/svg">
<path d="M12.9167 20.083C13.4028 20.083 13.816 19.9129 14.1563 19.5726C14.4965 19.2323 14.6667 18.8191 14.6667 18.333C14.6667 17.8469 14.4965 17.4337 14.1563 17.0934C13.816 16.7531 13.4028 16.583 12.9167 16.583C12.4306 16.583 12.0174 16.7531 11.6771 17.0934C11.3368 17.4337 11.1667 17.8469 11.1667 18.333C11.1667 18.8191 11.3368 19.2323 11.6771 19.5726C12.0174 19.9129 12.4306 20.083 12.9167 20.083ZM7.02502 20.0247L14.6084 12.4413L12.975 10.808L5.39169 18.3913L7.02502 20.0247ZM7.08335 14.2497C7.56946 14.2497 7.98266 14.0795 8.32294 13.7393C8.66321 13.399 8.83335 12.9858 8.83335 12.4997C8.83335 12.0136 8.66321 11.6004 8.32294 11.2601C7.98266 10.9198 7.56946 10.7497 7.08335 10.7497C6.59724 10.7497 6.18405 10.9198 5.84377 11.2601C5.50349 11.6004 5.33335 12.0136 5.33335 12.4997C5.33335 12.9858 5.50349 13.399 5.84377 13.7393C6.18405 14.0795 6.59724 14.2497 7.08335 14.2497ZM3.00002 24.1663C2.35835 24.1663 1.80905 23.9379 1.3521 23.4809C0.895159 23.024 0.666687 22.4747 0.666687 21.833V3.16634C0.666687 2.52467 0.895159 1.97537 1.3521 1.51842C1.80905 1.06148 2.35835 0.833008 3.00002 0.833008H12.3334L19.3334 7.83301V21.833C19.3334 22.4747 19.1049 23.024 18.6479 23.4809C18.191 23.9379 17.6417 24.1663 17 24.1663H3.00002ZM11.1667 8.99967V3.16634H3.00002V21.833H17V8.99967H11.1667Z" fill="#177DB7"/>
</svg>
