<svg width="27" height="24" viewBox="0 0 27 24" fill="none" xmlns="http://www.w3.org/2000/svg">
<path d="M2.56109 23.4435C1.86658 23.4435 1.27203 23.1962 0.777452 22.7016C0.282873 22.207 0.0355835 21.6125 0.0355835 20.9179V5.76489H2.56109V20.9179H21.5024V23.4435H2.56109ZM7.61211 18.3924C6.9176 18.3924 6.32305 18.1451 5.82847 17.6506C5.33389 17.156 5.0866 16.5614 5.0866 15.8669V0.713867H26.5534V15.8669C26.5534 16.5614 26.3062 17.156 25.8116 17.6506C25.317 18.1451 24.7224 18.3924 24.0279 18.3924H7.61211ZM7.61211 15.8669H24.0279V3.23938H7.61211V15.8669ZM10.1376 12.0787H15.1886V5.76489H10.1376V12.0787ZM16.4514 12.0787H21.5024V9.55315H16.4514V12.0787ZM16.4514 8.2904H21.5024V5.76489H16.4514V8.2904Z" fill="#177DB7"/>
</svg>
