<svg width="22" height="24" viewBox="0 0 22 24" fill="none" xmlns="http://www.w3.org/2000/svg">
<path d="M4 23.6667C3.02778 23.6667 2.20139 23.3264 1.52083 22.6459C0.840278 21.9653 0.5 21.1389 0.5 20.1667V16.6667H4V0.333374L5.75 2.08337L7.5 0.333374L9.25 2.08337L11 0.333374L12.75 2.08337L14.5 0.333374L16.25 2.08337L18 0.333374L19.75 2.08337L21.5 0.333374V20.1667C21.5 21.1389 21.1597 21.9653 20.4792 22.6459C19.7986 23.3264 18.9722 23.6667 18 23.6667H4ZM18 21.3334C18.3306 21.3334 18.6076 21.2216 18.8312 20.998C19.0549 20.7743 19.1667 20.4973 19.1667 20.1667V3.83337H6.33333V16.6667H16.8333V20.1667C16.8333 20.4973 16.9451 20.7743 17.1688 20.998C17.3924 21.2216 17.6694 21.3334 18 21.3334ZM7.5 8.50004V6.16671H14.5V8.50004H7.5ZM7.5 12V9.66671H14.5V12H7.5ZM16.8333 8.50004C16.5028 8.50004 16.2257 8.38824 16.0021 8.16462C15.7785 7.94101 15.6667 7.66393 15.6667 7.33337C15.6667 7.00282 15.7785 6.72574 16.0021 6.50212C16.2257 6.27851 16.5028 6.16671 16.8333 6.16671C17.1639 6.16671 17.441 6.27851 17.6646 6.50212C17.8882 6.72574 18 7.00282 18 7.33337C18 7.66393 17.8882 7.94101 17.6646 8.16462C17.441 8.38824 17.1639 8.50004 16.8333 8.50004ZM16.8333 12C16.5028 12 16.2257 11.8882 16.0021 11.6646C15.7785 11.441 15.6667 11.1639 15.6667 10.8334C15.6667 10.5028 15.7785 10.2257 16.0021 10.0021C16.2257 9.77851 16.5028 9.66671 16.8333 9.66671C17.1639 9.66671 17.441 9.77851 17.6646 10.0021C17.8882 10.2257 18 10.5028 18 10.8334C18 11.1639 17.8882 11.441 17.6646 11.6646C17.441 11.8882 17.1639 12 16.8333 12Z" fill="#883BA9"/>
</svg>
