<svg width="34" height="34" viewBox="0 0 34 34" fill="none" xmlns="http://www.w3.org/2000/svg">
<path d="M10.9999 25.3335L16.9999 19.3335L22.9999 25.3335L25.3333 23.0002L19.3333 17.0002L25.3333 11.0002L22.9999 8.66683L16.9999 14.6668L10.9999 8.66683L8.66658 11.0002L14.6666 17.0002L8.66658 23.0002L10.9999 25.3335ZM16.9999 33.6668C14.6944 33.6668 12.5277 33.2293 10.4999 32.3543C8.47214 31.4793 6.70825 30.2918 5.20825 28.7918C3.70825 27.2918 2.52075 25.5279 1.64575 23.5002C0.770752 21.4724 0.333252 19.3057 0.333252 17.0002C0.333252 14.6946 0.770752 12.5279 1.64575 10.5002C2.52075 8.47238 3.70825 6.7085 5.20825 5.2085C6.70825 3.7085 8.47214 2.521 10.4999 1.646C12.5277 0.770996 14.6944 0.333496 16.9999 0.333496C19.3055 0.333496 21.4721 0.770996 23.4999 1.646C25.5277 2.521 27.2916 3.7085 28.7916 5.2085C30.2916 6.7085 31.4791 8.47238 32.3541 10.5002C33.2291 12.5279 33.6666 14.6946 33.6666 17.0002C33.6666 19.3057 33.2291 21.4724 32.3541 23.5002C31.4791 25.5279 30.2916 27.2918 28.7916 28.7918C27.2916 30.2918 25.5277 31.4793 23.4999 32.3543C21.4721 33.2293 19.3055 33.6668 16.9999 33.6668Z" fill="#E13D17"/>
</svg>
