<svg width="40" height="40" viewBox="0 0 40 40" fill="none" xmlns="http://www.w3.org/2000/svg">
<rect width="40" height="40" rx="20" fill="black" fill-opacity="0.1"/>
<mask id="mask0_2913_7593" style="mask-type:alpha" maskUnits="userSpaceOnUse" x="6" y="6" width="28" height="28">
<rect x="6" y="6" width="28" height="28" fill="#D9D9D9"/>
</mask>
<g mask="url(#mask0_2913_7593)">
<path d="M21.1667 30.5V28.1667H23.5V30.5H21.1667ZM18.8333 28.1667V22.3333H21.1667V28.1667H18.8333ZM28.1667 24.6667V20H30.5V24.6667H28.1667ZM25.8333 20V17.6667H28.1667V20H25.8333ZM11.8333 22.3333V20H14.1667V22.3333H11.8333ZM9.5 20V17.6667H11.8333V20H9.5ZM20 11.8333V9.5H22.3333V11.8333H20ZM11.25 14.75H14.75V11.25H11.25V14.75ZM9.5 16.5V9.5H16.5V16.5H9.5ZM11.25 28.75H14.75V25.25H11.25V28.75ZM9.5 30.5V23.5H16.5V30.5H9.5ZM25.25 14.75H28.75V11.25H25.25V14.75ZM23.5 16.5V9.5H30.5V16.5H23.5ZM25.8333 30.5V27H23.5V24.6667H28.1667V28.1667H30.5V30.5H25.8333ZM21.1667 22.3333V20H25.8333V22.3333H21.1667ZM16.5 22.3333V20H14.1667V17.6667H21.1667V20H18.8333V22.3333H16.5ZM17.6667 16.5V11.8333H20V14.1667H22.3333V16.5H17.6667ZM12.125 13.875V12.125H13.875V13.875H12.125ZM12.125 27.875V26.125H13.875V27.875H12.125ZM26.125 13.875V12.125H27.875V13.875H26.125Z" fill="white"/>
</g>
</svg>
