<svg width="22" height="28" viewBox="0 0 22 28" fill="none" xmlns="http://www.w3.org/2000/svg">
<path d="M10.9999 24.8578C13.2228 24.1703 15.0791 22.8124 16.5687 20.7843C18.0583 18.7561 18.9291 16.4931 19.1812 13.9951H10.9999V3.16684L2.74974 6.26063V13.3764C2.74974 13.5368 2.77265 13.743 2.81849 13.9951H10.9999V24.8578ZM10.9999 27.6078C10.8394 27.6078 10.6905 27.5964 10.553 27.5735C10.4155 27.5505 10.278 27.5162 10.1405 27.4703C7.04667 26.4391 4.5831 24.5312 2.74974 21.7468C0.916375 18.9624 -0.000305176 15.966 -0.000305176 12.7576V6.26063C-0.000305176 5.68771 0.165843 5.17208 0.49814 4.71374C0.830436 4.2554 1.26013 3.9231 1.78722 3.71685L10.0373 0.623049C10.3582 0.508464 10.679 0.451172 10.9999 0.451172C11.3207 0.451172 11.6415 0.508464 11.9624 0.623049L20.2125 3.71685C20.7396 3.9231 21.1693 4.2554 21.5016 4.71374C21.8339 5.17208 22 5.68771 22 6.26063V12.7576C22 15.966 21.0833 18.9624 19.25 21.7468C17.4166 24.5312 14.953 26.4391 11.8592 27.4703C11.7217 27.5162 11.5842 27.5505 11.4467 27.5735C11.3092 27.5964 11.1603 27.6078 10.9999 27.6078Z" fill="#C19946"/>
</svg>
