<svg width="28" height="28" viewBox="0 0 28 28" fill="none" xmlns="http://www.w3.org/2000/svg">
<path d="M14.0003 21.2182C15.1597 21.2182 16.2589 20.9667 17.2979 20.4636C18.337 19.9605 19.1737 19.2277 19.808 18.2652C20.0486 17.8933 20.0814 17.5269 19.9065 17.166C19.7315 16.8051 19.4471 16.6246 19.0533 16.6246C18.8784 16.6246 18.7198 16.6629 18.5776 16.7395C18.4354 16.816 18.3206 16.9309 18.2331 17.084C17.7299 17.7621 17.1065 18.2925 16.3628 18.6753C15.6191 19.0581 14.8316 19.2495 14.0003 19.2495C13.1691 19.2495 12.3816 19.0581 11.6379 18.6753C10.8942 18.2925 10.2708 17.7621 9.76764 17.084C9.65827 16.9309 9.53249 16.816 9.3903 16.7395C9.24812 16.6629 9.08953 16.6246 8.91453 16.6246C8.52079 16.6246 8.23643 16.7996 8.06143 17.1496C7.88644 17.4996 7.91925 17.8496 8.15987 18.1996C8.79423 19.1839 9.63092 19.9331 10.67 20.4472C11.709 20.9612 12.8191 21.2182 14.0003 21.2182ZM18.594 12.6872C19.1408 12.6872 19.6057 12.4958 19.9885 12.113C20.3713 11.7302 20.5627 11.2654 20.5627 10.7185C20.5627 10.1716 20.3713 9.70681 19.9885 9.32401C19.6057 8.94121 19.1408 8.7498 18.594 8.7498C18.0471 8.7498 17.5823 8.94121 17.1995 9.32401C16.8167 9.70681 16.6253 10.1716 16.6253 10.7185C16.6253 11.2654 16.8167 11.7302 17.1995 12.113C17.5823 12.4958 18.0471 12.6872 18.594 12.6872ZM9.40671 12.6872C9.95357 12.6872 10.4184 12.4958 10.8012 12.113C11.184 11.7302 11.3754 11.2654 11.3754 10.7185C11.3754 10.1716 11.184 9.70681 10.8012 9.32401C10.4184 8.94121 9.95357 8.7498 9.40671 8.7498C8.85985 8.7498 8.39502 8.94121 8.01221 9.32401C7.62941 9.70681 7.43801 10.1716 7.43801 10.7185C7.43801 11.2654 7.62941 11.7302 8.01221 12.113C8.39502 12.4958 8.85985 12.6872 9.40671 12.6872ZM14.0003 27.1243C12.1848 27.1243 10.4786 26.7798 8.88172 26.0908C7.28489 25.4017 5.89586 24.4666 4.71464 23.2854C3.53342 22.1042 2.59828 20.7151 1.90924 19.1183C1.22019 17.5215 0.875671 15.8153 0.875671 13.9997C0.875671 12.1841 1.22019 10.4779 1.90924 8.88105C2.59828 7.28422 3.53342 5.89519 4.71464 4.71397C5.89586 3.53275 7.28489 2.59761 8.88172 1.90857C10.4786 1.21952 12.1848 0.875 14.0003 0.875C15.8159 0.875 17.5221 1.21952 19.119 1.90857C20.7158 2.59761 22.1048 3.53275 23.2861 4.71397C24.4673 5.89519 25.4024 7.28422 26.0915 8.88105C26.7805 10.4779 27.125 12.1841 27.125 13.9997C27.125 15.8153 26.7805 17.5215 26.0915 19.1183C25.4024 20.7151 24.4673 22.1042 23.2861 23.2854C22.1048 24.4666 20.7158 25.4017 19.119 26.0908C17.5221 26.7798 15.8159 27.1243 14.0003 27.1243Z" fill="#20ABE3"/>
</svg>
