<svg width="22" height="22" viewBox="0 0 22 22" fill="none" xmlns="http://www.w3.org/2000/svg">
<path d="M2.73336 16.8333C2.09169 16.8333 1.54239 16.6049 1.08544 16.1479C0.628497 15.691 0.400024 15.1417 0.400024 14.5V7.5C0.400024 6.85833 0.628497 6.30903 1.08544 5.85208C1.54239 5.39514 2.09169 5.16667 2.73336 5.16667H19.0667C19.7084 5.16667 20.2577 5.39514 20.7146 5.85208C21.1716 6.30903 21.4 6.85833 21.4 7.5V14.5C21.4 15.1417 21.1716 15.691 20.7146 16.1479C20.2577 16.6049 19.7084 16.8333 19.0667 16.8333H2.73336ZM1.53752 2.83333C1.20697 2.83333 0.934747 2.72153 0.720858 2.49792C0.506969 2.27431 0.400024 1.99722 0.400024 1.66667C0.400024 1.33611 0.51183 1.05903 0.735441 0.835417C0.959052 0.611806 1.23614 0.5 1.56669 0.5H20.2625C20.5931 0.5 20.8653 0.611806 21.0792 0.835417C21.2931 1.05903 21.4 1.33611 21.4 1.66667C21.4 1.99722 21.2882 2.27431 21.0646 2.49792C20.841 2.72153 20.5639 2.83333 20.2334 2.83333H1.53752ZM1.53752 21.5C1.20697 21.5 0.934747 21.3882 0.720858 21.1646C0.506969 20.941 0.400024 20.6639 0.400024 20.3333C0.400024 20.0028 0.51183 19.7257 0.735441 19.5021C0.959052 19.2785 1.23614 19.1667 1.56669 19.1667H20.2625C20.5931 19.1667 20.8653 19.2785 21.0792 19.5021C21.2931 19.7257 21.4 20.0028 21.4 20.3333C21.4 20.6639 21.2882 20.941 21.0646 21.1646C20.841 21.3882 20.5639 21.5 20.2334 21.5H1.53752Z" fill="#177DB7"/>
</svg>
