<svg width="29" height="28" viewBox="0 0 29 28" fill="none" xmlns="http://www.w3.org/2000/svg">
<mask id="mask0_3048_2664" style="mask-type:alpha" maskUnits="userSpaceOnUse" x="0" y="0" width="29" height="28">
<rect x="0.900024" width="28" height="28" fill="#D9D9D9"/>
</mask>
<g mask="url(#mask0_3048_2664)">
<path d="M5.53752 23.8C5.20697 23.8 4.93475 23.6826 4.72086 23.4478C4.50697 23.213 4.40002 22.922 4.40002 22.575C4.40002 22.2279 4.51183 21.9369 4.73544 21.7021C4.95905 21.4673 5.23614 21.35 5.56669 21.35H24.2625C24.5931 21.35 24.8653 21.4673 25.0792 21.7021C25.2931 21.9369 25.4 22.2279 25.4 22.575C25.4 22.922 25.2882 23.213 25.0646 23.4478C24.841 23.6826 24.5639 23.8 24.2334 23.8H5.53752ZM5.53752 6.64995C5.20697 6.64995 4.93475 6.53256 4.72086 6.29776C4.50697 6.06297 4.40002 5.77203 4.40002 5.42495C4.40002 5.07787 4.51183 4.78693 4.73544 4.55214C4.95905 4.31735 5.23614 4.19995 5.56669 4.19995H24.2625C24.5931 4.19995 24.8653 4.31735 25.0792 4.55214C25.2931 4.78693 25.4 5.07787 25.4 5.42495C25.4 5.77203 25.2882 6.06297 25.0646 6.29776C24.841 6.53256 24.5639 6.64995 24.2334 6.64995H5.53752ZM6.73336 18.9C6.09169 18.9 5.54239 18.6601 5.08544 18.1803C4.6285 17.7005 4.40002 17.1237 4.40002 16.45V11.55C4.40002 10.8762 4.6285 10.2994 5.08544 9.81964C5.54239 9.33985 6.09169 9.09995 6.73336 9.09995H23.0667C23.7084 9.09995 24.2577 9.33985 24.7146 9.81964C25.1716 10.2994 25.4 10.8762 25.4 11.55V16.45C25.4 17.1237 25.1716 17.7005 24.7146 18.1803C24.2577 18.6601 23.7084 18.9 23.0667 18.9H6.73336ZM6.73336 16.45H23.0667V11.55H6.73336V16.45Z" fill="#7F7F7F"/>
</g>
</svg>
