<svg width="19" height="24" viewBox="0 0 19 24" fill="none" xmlns="http://www.w3.org/2000/svg">
<path d="M9.375 23.0608C6.85169 22.3727 4.76258 20.8874 3.10767 18.605C1.45256 16.3227 0.625 13.771 0.625 10.95V4.23726L9.375 0.961548L18.125 4.23726V10.95C18.125 13.771 17.2974 16.3227 15.6423 18.605C13.9874 20.8874 11.8983 22.3727 9.375 23.0608ZM9.375 21.2166C11.3972 20.575 13.0694 19.2916 14.3917 17.3666C15.7139 15.4416 16.375 13.3027 16.375 10.95V5.43747L9.375 2.82355L2.375 5.43747V10.95C2.375 13.3027 3.03611 15.4416 4.35833 17.3666C5.68056 19.2916 7.35278 20.575 9.375 21.2166Z" fill="#1C1B1F"/>
</svg>
