<svg width="22" height="28" viewBox="0 0 22 28" fill="none" xmlns="http://www.w3.org/2000/svg">
<path d="M10.9999 15.3701C12.329 15.3701 13.4634 14.9003 14.403 13.9607C15.3426 13.0211 15.8124 11.8868 15.8124 10.5576C15.8124 9.22838 15.3426 8.09399 14.403 7.1544C13.4634 6.2148 12.329 5.745 10.9999 5.745C9.67067 5.745 8.53628 6.2148 7.59668 7.1544C6.65709 8.09399 6.18729 9.22838 6.18729 10.5576C6.18729 11.8868 6.65709 13.0211 7.59668 13.9607C8.53628 14.9003 9.67067 15.3701 10.9999 15.3701ZM10.9999 24.8578C12.352 24.4224 13.5494 23.7406 14.5921 22.8124C15.6348 21.8843 16.5458 20.8358 17.325 19.6671C16.3395 19.1629 15.314 18.779 14.2483 18.5155C13.1827 18.252 12.0999 18.1202 10.9999 18.1202C9.89984 18.1202 8.81701 18.252 7.75137 18.5155C6.68573 18.779 5.6602 19.1629 4.67476 19.6671C5.45394 20.8358 6.36489 21.8843 7.40762 22.8124C8.45034 23.7406 9.64775 24.4224 10.9999 24.8578ZM10.9999 27.6078C10.8394 27.6078 10.6905 27.5964 10.553 27.5735C10.4155 27.5505 10.278 27.5162 10.1405 27.4703C7.04667 26.4391 4.5831 24.5312 2.74974 21.7468C0.916375 18.9624 -0.000305176 15.966 -0.000305176 12.7576V6.26063C-0.000305176 5.68771 0.165843 5.17208 0.49814 4.71374C0.830436 4.2554 1.26013 3.9231 1.78722 3.71685L10.0373 0.623049C10.3582 0.508464 10.679 0.451172 10.9999 0.451172C11.3207 0.451172 11.6415 0.508464 11.9624 0.623049L20.2125 3.71685C20.7396 3.9231 21.1693 4.2554 21.5016 4.71374C21.8339 5.17208 22 5.68771 22 6.26063V12.7576C22 15.966 21.0833 18.9624 19.25 21.7468C17.4166 24.5312 14.953 26.4391 11.8592 27.4703C11.7217 27.5162 11.5842 27.5505 11.4467 27.5735C11.3092 27.5964 11.1603 27.6078 10.9999 27.6078Z" fill="#9747FF"/>
</svg>
