<svg width="24" height="24" viewBox="0 0 24 24" fill="none" xmlns="http://www.w3.org/2000/svg">
<path d="M11.8923 23.1982C10.3598 23.1982 8.91675 22.9046 7.56323 22.3174C6.20972 21.7373 5.01733 20.9316 3.98608 19.9004C2.95483 18.8691 2.14559 17.6803 1.55835 16.334C0.978271 14.9805 0.688232 13.5339 0.688232 11.9941C0.688232 10.4616 0.978271 9.02214 1.55835 7.67578C2.14559 6.32227 2.95125 5.12988 3.97534 4.09863C5.00659 3.06738 6.19897 2.26172 7.55249 1.68164C8.90601 1.0944 10.349 0.800781 11.8816 0.800781C13.4141 0.800781 14.8572 1.0944 16.2107 1.68164C17.5714 2.26172 18.7638 3.06738 19.7878 4.09863C20.8191 5.12988 21.6283 6.32227 22.2156 7.67578C22.8028 9.02214 23.0964 10.4616 23.0964 11.9941C23.0964 13.5339 22.8028 14.9805 22.2156 16.334C21.6283 17.6803 20.8191 18.8691 19.7878 19.9004C18.7638 20.9316 17.575 21.7373 16.2214 22.3174C14.8679 22.9046 13.4249 23.1982 11.8923 23.1982ZM6.68237 13.7236C7.16219 13.7236 7.57039 13.5553 7.90698 13.2188C8.24357 12.875 8.41187 12.4632 8.41187 11.9834C8.41187 11.5036 8.23999 11.0918 7.89624 10.748C7.55965 10.4043 7.15503 10.2324 6.68237 10.2324C6.20256 10.2324 5.79077 10.4043 5.44702 10.748C5.10327 11.0918 4.9314 11.5036 4.9314 11.9834C4.9314 12.4632 5.10327 12.875 5.44702 13.2188C5.79077 13.5553 6.20256 13.7236 6.68237 13.7236ZM11.8816 13.7236C12.3614 13.7236 12.7732 13.5553 13.1169 13.2188C13.4607 12.875 13.6326 12.4632 13.6326 11.9834C13.6326 11.5036 13.4607 11.0918 13.1169 10.748C12.7732 10.4043 12.3614 10.2324 11.8816 10.2324C11.4018 10.2324 10.99 10.4043 10.6462 10.748C10.3097 11.0918 10.1414 11.5036 10.1414 11.9834C10.1414 12.4632 10.3097 12.875 10.6462 13.2188C10.99 13.5553 11.4018 13.7236 11.8816 13.7236ZM17.0808 13.7236C17.5606 13.7236 17.9724 13.5553 18.3162 13.2188C18.6599 12.875 18.8318 12.4632 18.8318 11.9834C18.8318 11.5036 18.6599 11.0918 18.3162 10.748C17.9724 10.4043 17.5606 10.2324 17.0808 10.2324C16.601 10.2324 16.1928 10.4043 15.8562 10.748C15.5196 11.0918 15.3513 11.5036 15.3513 11.9834C15.3513 12.4632 15.5196 12.875 15.8562 13.2188C16.1928 13.5553 16.601 13.7236 17.0808 13.7236Z" fill="black"/>
</svg>
