<svg width="228" height="56" viewBox="0 0 228 56" fill="none" xmlns="http://www.w3.org/2000/svg">
<g clip-path="url(#clip0_2561_13836)">
<g filter="url(#filter0_d_2561_13836)">
<path d="M206.896 36.3618C206.896 36.3618 208.345 34.0719 203.655 33.1004C198.621 32.1289 193.586 32.6146 189.655 34.4188C185.724 36.223 184.621 35.6679 184.621 35.6679C184.621 35.6679 186.965 34.5576 194.207 36.57C199.172 37.9579 204.483 37.6803 205.31 37.3333C206.138 36.917 206.828 36.3618 206.828 36.3618H206.896Z" fill="#286B96"/>
<path d="M180 26.3692C179.034 25.5365 177.103 23.5935 176.138 20.5402C175.793 19.5687 175.241 17.7645 175.586 15.5439C176.069 11.7967 178.483 8.46588 178.483 8.46588C177.793 8.95163 172.138 13.6703 172.276 20.3321C172.345 23.8711 174.069 26.9938 174.414 27.4795C175.31 29.0755 176.276 30.047 177.172 31.0185C180.759 34.7658 184.483 36.6394 186.345 37.5415C188.414 38.513 190.207 39.1375 191.103 39.4151C192.621 39.9008 193.586 40.109 195.448 40.5947C198.138 41.2193 199.31 41.3581 200.69 41.1499C202.069 40.9417 201.448 40.9417 201.793 40.7335C203.586 39.5539 205.517 38.0272 206.896 36.2924C202.69 35.876 199.034 35.2515 196.414 34.627C193.724 33.933 191.31 33.3085 188.483 31.99C184.759 30.2552 181.931 28.104 180.069 26.2998L180 26.3692Z" fill="#4384B8"/>
<path d="M187.034 23.8017C186.069 24.4262 187.034 25.8835 188 25.3283C188.965 24.7732 188.414 25.0508 188.621 24.9814C190.828 23.8017 195.379 22.7608 200.483 23.8017C205.379 24.7732 207.793 24.7038 209.448 24.1487C211.103 23.5935 211.172 22.5526 211.172 22.5526C211.172 22.5526 211.379 20.4014 205.793 19.8463C201.448 19.4299 193.172 19.8463 187.034 23.8711V23.8017Z" fill="#286B96"/>
<path d="M208.069 13.254C208.138 13.0458 208.069 12.7683 207.931 12.5601C207.517 12.0743 206.276 11.1722 204.276 10.8947C202.276 10.6171 196.483 9.85376 190.138 12.3519C189.31 12.6989 190.621 13.8785 191.448 13.601L190.621 13.8091C190.621 13.8091 189.103 13.601 194 13.9479C198 14.2255 202.276 15.4746 204.483 15.2664C206.69 15.0582 207.655 14.2949 208.069 13.1846V13.254Z" fill="#286B96"/>
<path d="M188.759 41.705C192.345 40.5948 194.759 41.0111 196.138 41.4275C196.414 41.4969 198 41.9826 197.931 42.4684C197.931 42.8847 196.552 43.1623 195.103 43.4399C194.552 43.5786 194.069 43.648 193.379 43.7174C190.414 43.995 187.862 43.5787 187.586 43.5093C187.379 43.5093 185.517 43.0929 183.586 42.2602C181.034 41.1499 175.517 37.9578 172.828 31.3655C171.172 27.2713 171.31 23.5935 171.586 21.4423C171.517 23.3853 171.448 29.9776 175.931 35.2515C178.759 38.5824 182.483 40.3172 183.793 40.9417C184.483 41.2887 186.069 41.9826 188.138 42.4684C190.414 43.0235 191.931 43.0235 192.828 42.9541C193.724 42.9541 195.172 42.7459 195.172 42.4684C195.172 42.1908 193.379 41.9132 193.034 41.8438C191.931 41.705 190.483 41.5663 188.759 41.7744V41.705Z" fill="#4384B8"/>
<path d="M196.207 5.96778C196.138 5.96778 195.586 6.31474 195.448 6.93928C195.448 7.28624 195.448 7.63321 195.586 7.77199C195.862 8.32713 196.345 8.6741 196.965 8.95167C197.241 9.09045 198.207 9.50681 200.552 9.71499C201.172 9.71499 202 9.78438 202.965 9.71499C204.069 9.6456 204.69 9.5762 204.759 9.36803C205.103 8.6047 202.138 6.59231 201.931 6.45353C201.448 6.10657 199.517 4.92689 197.103 4.37175C196.276 4.16357 195.172 3.95539 194.828 3.95539C194.759 3.95539 193.862 3.8166 192.69 3.74721C191.517 3.67782 195.241 4.37175 196.345 4.71871C197.448 5.06567 197.448 4.99628 198.069 5.27385C198.483 5.41264 198.759 5.55142 199.379 5.89839C200.276 6.38414 200.759 6.59232 201.172 7.00867C201.448 7.28624 201.586 7.42503 201.586 7.56381C201.586 7.98017 200.345 8.18835 199.517 8.25774C198.621 8.25774 196.621 8.04956 196.414 7.00867C196.276 6.31474 197.517 5.69021 197.931 5.62082C199.172 5.62082 197.172 5.41264 196.207 5.89839V5.96778Z" fill="#4384B8"/>
<path d="M205.103 14.3643C204.621 14.5031 204.069 14.5725 203.517 14.5725C202.69 14.5725 201.862 14.6418 200.621 14.5725C198.69 14.4337 197.172 14.1561 196.69 14.0173C193.034 13.3234 191.241 12.907 189.517 11.5192C188.069 10.4089 187.793 9.50677 187.724 8.95163C187.586 7.98013 188.069 7.21681 188.207 6.86985C188.896 5.55138 190.138 4.99624 190.69 4.71867C191.034 4.57988 191.31 4.4411 191.517 4.3717C190.759 4.3717 190.138 4.57988 189.655 4.71867C189.31 4.78806 188.759 4.99624 188.138 5.3432C187.517 5.69017 186.965 6.03713 186.621 6.3841C186.207 6.73106 185.379 7.49438 185.103 8.74345C184.759 10.2701 185.448 11.5886 185.724 12.2131C188.483 17.487 198.828 18.8054 200 18.9442C201.517 19.1524 202.759 19.2912 203.724 19.2912C207.379 19.4993 208.965 19.2218 209.793 18.9442C210.138 18.8748 210.483 18.736 210.69 18.5972C210.69 18.5972 210.069 15.7521 208.069 12.6295C208.414 13.1846 206.621 14.0173 205.172 14.3643H205.103Z" fill="#4384B8"/>
<path d="M200.69 22.8996C190.69 20.3321 185.241 16.6543 183.103 13.601C181.034 10.5477 181.172 4.92687 190.552 3.6778C188.828 3.6778 180.552 4.30233 178.414 11.1028C175.448 20.4015 190.621 28.1041 193.31 29.2144C196 30.3247 202.828 33.4473 209.379 31.6431C215.931 29.8389 209.793 31.4349 209.931 31.2268C211.586 27.6877 211.31 22.7608 211.31 22.622C211.31 22.5527 207.31 24.7038 200.759 23.0384L200.69 22.8996Z" fill="#4384B8"/>
</g>
<path d="M208 6.93947C203.104 2.01258 196.345 -0.485557 189.448 0.0695854C178.069 0.971692 168.828 10.3397 167.862 21.7895C167.31 28.7288 169.793 35.5293 174.69 40.4562C179.103 44.8973 185.103 47.3955 191.379 47.3955C197.655 47.3955 192.621 47.3955 193.241 47.3261C204.621 46.424 213.862 37.056 214.828 25.6061C215.379 18.6669 212.897 11.8664 208 6.93947ZM206.621 39.0683C202.138 43.5789 195.931 45.8688 189.586 45.3831C179.103 44.5504 170.621 36.0151 169.793 25.4674C169.31 19.0832 171.586 12.8379 176.069 8.32733C180.138 4.23315 185.655 1.94319 191.379 1.94319C197.104 1.94319 192.552 1.94319 193.103 2.01258C203.586 2.8453 212.069 11.3806 212.897 21.9283C213.379 28.3125 211.104 34.5578 206.621 39.0683Z" fill="#C09949"/>
<g filter="url(#filter1_d_2561_13836)">
<path d="M201.241 55.653C200.897 55.653 200.828 55.653 200.897 55.3754L203.241 49.1995C204.069 47.1177 204.966 44.7583 204.966 44.2032C204.966 43.6481 204.828 43.6481 204.483 43.6481C203.862 43.6481 201.517 44.7583 200.897 45.3829C200.828 45.4523 199.862 45.6604 199.724 45.5217L200.69 45.3829C200.552 45.2441 200.897 45.3829 200.965 45.1747C201.448 44.5502 203.931 41.8438 206.276 41.8438C208.621 41.8438 207.31 42.399 207.31 42.8153C207.31 43.8562 205.862 46.9789 205.655 47.7422H205.793C206.759 46.2156 210.414 41.7744 213.31 41.7744C216.207 41.7744 214.965 42.2602 214.965 43.1623C214.965 44.6196 214.207 46.3544 213.103 49.0607C212.207 51.2813 211.448 53.0855 211.448 53.6406C211.448 54.1958 211.586 54.057 211.862 54.057C212.345 54.057 213.793 52.8079 214.207 52.3915C214.345 52.3222 214.483 52.3915 214.552 52.3915L214.759 52.6691C214.897 52.8079 214.897 52.8773 214.759 53.0161C214.345 53.5712 211.655 55.9306 209.448 55.9306C207.241 55.9306 208.621 55.7918 208.621 55.2367C208.621 54.6815 209.793 51.9752 210.828 49.1301C211.31 47.8116 212.483 45.1053 212.483 44.342C212.483 43.5787 212.276 43.5787 211.655 43.5787C210.345 43.5787 207.103 46.6319 205.655 48.9913C205.034 49.9628 204.552 50.7955 203.655 53.1549L202.828 55.3754C202.828 55.5142 202.69 55.5836 202.345 55.5836H201.034L201.241 55.653Z" fill="#C09949"/>
<path d="M217.448 52.7385C217.448 49.9628 219.241 46.4238 221.655 44.0644C222.69 43.0235 224.483 41.8438 226.069 41.8438C227.655 41.8438 227.931 42.8153 227.931 43.5787C227.931 45.1747 226.69 46.9095 224.828 47.881C223.034 48.7831 221.241 49.1301 220.069 49.2689C219.931 49.6852 219.655 50.7955 219.655 52.3222C219.655 53.8488 220.759 54.4039 221.379 54.4039C222.965 54.4039 224.483 53.1549 225.172 52.0446C225.172 51.9752 225.31 51.9058 225.448 52.0446L225.793 52.3222C225.931 52.3915 225.931 52.5303 225.793 52.5997C224.965 53.7794 222.965 55.9306 220.414 55.9306C217.862 55.9306 217.31 54.8897 217.31 52.6691L217.448 52.7385ZM220.414 48.2974C221.586 48.3668 225.931 46.9789 225.931 44.5502C225.931 42.1214 225.586 43.3011 224.897 43.3011C222.759 43.3011 220.759 47.1177 220.483 48.2974H220.414Z" fill="#C09949"/>
</g>
<path d="M63.1035 1.943C64.138 1.943 65.1725 2.08178 66.2069 2.28996C72 3.60842 76.8276 8.95166 78.8276 16.0297H80.5518V2.28996H79.8621C79.5863 2.63692 79.3794 3.05328 79.0345 3.40024C78.7587 3.74721 78.4828 4.09417 78.2069 4.30235C77.9311 4.57992 77.7242 4.7881 77.4483 4.99628C77.2414 5.20445 77.1035 5.27385 76.9656 5.27385C76.8276 5.27385 76.4828 5.06567 75.8621 4.57992C75.1725 4.09417 74.2759 3.60842 73.0345 3.12267C71.7932 2.56753 70.2759 2.08178 68.4138 1.66542C66.5518 1.17967 64.4138 0.971497 61.9311 0.971497C59.4483 0.971497 56.7587 1.24907 54.6207 1.80421C52.4828 2.35935 50.4828 3.12267 48.7586 4.09417C47.0345 5.06567 45.5173 6.17595 44.2759 7.49442C43.0345 8.74349 41.9311 10.1313 41.1035 11.5192C40.3449 12.6989 39.7931 13.8786 39.3104 15.0582C39.1035 15.544 38.9655 16.0297 38.7586 16.5155C38.8966 15.8909 38.8966 15.197 38.8966 14.4337C38.8966 11.9356 38.2759 9.78438 37.1035 7.98017C35.9311 6.17595 34.4138 4.7881 32.6207 3.74721C30.7586 2.70632 28.8276 2.08178 26.6897 1.80421C24.6207 1.52664 22.2069 1.38785 19.5173 1.38785H16.7586C15.7241 1.38785 14.5517 1.38785 13.3793 1.38785C12.1379 1.38785 10.9655 1.38785 9.72414 1.38785C8.48276 1.38785 7.37931 1.38785 6.34483 1.38785C5.31035 1.38785 2.06897 1.38785 1.31035 1.38785H0V2.01239C1.10345 2.15117 2.13793 2.35935 3.10345 2.56753C4.06897 2.77571 4.82759 3.26146 5.44828 3.88599C5.72414 4.16356 5.86207 4.51053 6 5.06567C6.13793 5.62081 6.27587 6.24535 6.27587 6.93927C6.27587 7.6332 6.34483 8.32713 6.4138 9.09045C6.4138 9.85377 6.4138 10.6171 6.4138 11.3804V26.9938C6.4138 28.2429 6.4138 29.4225 6.4138 30.6022C6.4138 31.7819 6.4138 32.8922 6.4138 33.8637C6.4138 34.8352 6.4138 35.6679 6.4138 36.223C6.4138 36.7782 6.4138 37.5415 6.4138 38.2354C6.4138 38.9293 6.34483 39.6233 6.27587 40.2478C6.27587 40.8723 6.13793 41.4275 6 41.9132C5.86207 42.399 5.72414 42.7459 5.51724 43.0235C4.96552 43.7174 4.27587 44.2032 3.31035 44.4808C2.34483 44.8277 1.37931 45.0359 0.344828 45.2441V45.8686H22.2759V45.2441C20.6207 45.1747 19.3104 44.8277 18.3448 44.342C17.3793 43.7868 16.7586 43.3011 16.4138 42.7459C16 42.1214 15.7931 41.3581 15.7241 40.3866C15.7241 39.4151 15.6552 38.3048 15.5862 36.9863C15.5862 36.2924 15.5862 35.6679 15.5862 35.0433C15.5862 34.4188 15.5862 33.7943 15.5862 33.1003V27.2714H18.8966C20.1379 27.2714 21.4483 27.2714 22.8276 27.1326C24.1379 27.0632 25.4483 26.855 26.7586 26.6468C28.069 26.4386 29.3104 26.1611 30.4138 25.7447C31.5173 25.3284 32.6207 24.7732 33.6552 24.0793C34.6897 23.3854 35.6552 22.5526 36.4828 21.6505C37.2414 20.7484 37.8621 19.7075 38.3448 18.5973C38.138 19.4994 38 20.4015 37.8621 21.2342C37.7931 22.2057 37.7242 23.0384 37.7242 23.8017C37.7242 27.1326 38.2759 30.1858 39.4483 32.9616C40.6207 35.7373 42.2759 38.166 44.4138 40.109C46.5518 42.1214 49.1724 43.648 52.2759 44.7583C55.3793 45.8686 58.7587 46.4238 62.6207 46.4238C66.4828 46.4238 66.9656 46.2156 68.6897 45.8686C70.4828 45.4523 71.9311 45.0359 73.1725 44.4808C74.4138 43.995 75.3104 43.5093 76 43.0929C76.6207 42.6765 77.0345 42.4684 77.1035 42.4684C77.3104 42.4684 77.6552 42.7459 78.2069 43.3011C78.7587 43.8562 79.2414 44.5501 79.7242 45.2441H80.6897V31.5043H78.8966C76.5518 39.5539 70.6207 45.3135 63.6552 45.4523H63.3794C54.2069 45.4523 46.7587 35.6679 46.7587 23.6629C46.7587 11.658 54 2.15117 63.1035 1.943ZM24.4138 25.5365C24.2759 25.5365 24 25.6753 23.7931 25.7447C22.6897 26.0917 21.5173 26.2999 20.2069 26.3692C18.7586 26.4386 17.1724 26.508 15.4483 26.508V18.5973C15.4483 16.5849 15.4483 14.5725 15.4483 12.5601C15.4483 10.4783 15.4483 8.74349 15.5173 7.28624C15.5173 6.31474 15.5862 5.62081 15.6552 5.06567C15.6552 4.57992 15.7241 4.16356 15.7931 3.88599C15.7931 3.40024 16 2.91449 16.069 2.49814C16.3448 2.49814 16.7586 2.42874 17.1724 2.35935C17.6552 2.35935 18.2759 2.28996 19.1724 2.28996C20.069 2.28996 21.1035 2.28996 22 2.42874C22.1379 2.42874 22.6207 2.49814 22.7586 2.56753C26.8276 3.40024 30 8.32713 30 14.2949C30 20.2627 27.5862 23.8711 24.2759 25.4671L24.4138 25.5365Z" fill="#C09949"/>
<path d="M146.69 45.5217V46.5626C148.069 46.4932 149.31 46.285 150.414 46.0768C152.207 45.6605 153.655 45.2441 154.896 44.689C156.138 44.2032 157.034 43.7175 157.724 43.3011C158.345 42.8847 158.759 42.6766 158.828 42.6766C159.034 42.6766 159.379 42.9541 159.931 43.5093C160.483 44.0644 160.965 44.7584 161.448 45.4523H162.414V31.7125H160.621C158.414 39.2763 153.034 44.8277 146.69 45.5911V45.5217Z" fill="#C09949"/>
<path d="M161.793 2.28996C161.517 2.63693 161.31 3.05328 160.966 3.40025C160.69 3.74721 160.414 4.09418 160.138 4.30236C159.862 4.57993 159.655 4.78811 159.379 4.99628C159.172 5.20446 159.035 5.27386 158.897 5.27386C158.759 5.27386 158.414 5.06568 157.793 4.57993C157.104 4.09418 156.207 3.60843 154.966 3.12268C153.724 2.56753 152.207 2.08178 150.345 1.66543C148.483 1.17968 146.345 0.971497 143.862 0.971497C141.379 0.971497 138.69 1.24907 136.552 1.80421C134.414 2.35935 132.414 3.12268 130.69 4.09418C128.966 5.06568 127.448 6.17596 126.207 7.49443C125.241 8.46593 124.345 9.50682 123.586 10.6171L119.931 1.52664H99.1035C98.2069 1.52664 97.2414 1.52664 96.2069 1.52664C94.9656 1.52664 93.7931 1.52664 92.5518 1.52664C91.3104 1.52664 90.2069 1.52664 89.1725 1.52664C88.138 1.52664 84.8966 1.52664 84.138 1.52664H82.6897V2.15118C83.7931 2.28996 84.8276 2.49814 85.7931 2.70632C86.7587 2.9145 87.5173 3.40025 88.138 4.02478C88.4138 4.30236 88.5518 4.64932 88.6897 5.20446C88.8276 5.75961 88.9656 6.38414 88.9656 7.07807C88.9656 7.772 89.0345 8.46593 89.1035 9.22925C89.1035 9.99257 89.1035 10.7559 89.1035 11.5192V27.1326C89.1035 28.3817 89.1035 29.5614 89.1035 30.7411C89.1035 31.9207 89.1035 33.031 89.1035 34.0025C89.1035 34.974 89.1035 35.8067 89.1035 36.3619C89.1035 36.917 89.1035 37.6803 89.1035 38.3743C89.1035 39.0682 89.0345 39.7621 88.9656 40.3867C88.9656 41.0112 88.8276 41.5663 88.6897 42.0521C88.5518 42.5378 88.4138 42.8848 88.2069 43.1624C87.6552 43.8563 86.9656 44.3421 86 44.6196C85.0345 44.9666 84.069 45.1748 83.0345 45.383V46.0075H104.966V45.383C103.31 45.3136 102 44.9666 101.035 44.4808C100.069 43.9257 99.4483 43.4399 99.1035 42.8848C98.6897 42.2603 98.4828 41.497 98.4138 40.5255C98.4138 39.554 98.3449 38.4437 98.2759 37.1252C98.2759 36.4313 98.2759 35.8067 98.2759 35.1822C98.2759 34.5577 98.2759 33.9331 98.2759 33.2392V23.663H101.035C101.448 23.663 101.862 23.663 102.345 23.663C102.828 23.663 103.31 23.663 103.931 23.7324C105.103 23.8018 106.138 24.0099 107.035 24.3569C107.931 24.7039 108.759 25.259 109.517 25.9529C110.345 26.7163 111.104 27.8265 111.724 29.3532C112.345 30.8104 112.828 32.1983 113.104 33.5168H113.862V13.601H113.104C112.966 14.6419 112.759 15.6134 112.552 16.4461C112.345 17.3482 112 18.1809 111.517 18.8749C111.035 19.6382 110.345 20.2627 109.517 20.8179C108.69 21.373 107.517 21.7894 106 22.1363C105.448 22.2751 104.69 22.3445 103.862 22.4139C103.035 22.4139 102.138 22.5527 101.379 22.5527C100.552 22.5527 99.8621 22.5527 99.1725 22.5527H98.2759C98.2759 21.373 98.2759 14.5031 98.2759 12.4213C98.2759 10.3395 98.2759 8.60472 98.3449 7.14747C98.3449 6.17596 98.4828 5.13507 98.4828 4.99628C98.5518 4.09418 98.7587 3.26146 98.8276 2.98389C98.8276 2.77571 98.9656 2.49814 98.9656 2.28996C99.0345 2.28996 99.1725 2.28996 99.1725 2.28996C99.3794 2.28996 99.5863 2.28996 99.9311 2.28996C100.345 2.28996 100.828 2.28996 101.31 2.28996C101.793 2.28996 102.345 2.28996 102.828 2.28996C103.379 2.28996 103.862 2.28996 104.207 2.28996C106.621 2.28996 108.759 2.42875 110.552 2.63693C112.345 2.84511 113.655 3.12268 114.345 3.46964C115.793 4.16357 117.241 5.27386 118.759 6.73111C120.138 8.04957 121.517 9.64561 123.035 11.4498C122.276 12.6295 121.724 13.8092 121.241 14.9889C120.759 16.1685 120.414 17.2788 120.138 18.3891C119.862 19.43 119.655 20.4709 119.586 21.4424C119.517 22.4139 119.448 23.2466 119.448 24.0099C119.448 27.3408 120 30.3941 121.172 33.1698C122.345 35.9455 124 38.3743 126.138 40.3173C128.276 42.3297 130.897 43.8563 134 44.9666C137.104 46.0769 140.483 46.632 144.345 46.632C148.207 46.632 144.828 46.632 145.035 46.632V45.6605C135.931 45.5911 128.552 35.8067 128.552 23.8712C128.552 11.9356 135.862 2.22057 144.966 2.08178C146 2.08178 147.035 2.22057 148.069 2.42875C153.862 3.74721 158.69 9.09047 160.69 16.1685H162.414V2.28996H161.724H161.793Z" fill="#C09949"/>
</g>
<defs>
<filter id="filter0_d_2561_13836" x="169.918" y="2.1778" width="44.5907" height="43.734" filterUnits="userSpaceOnUse" color-interpolation-filters="sRGB">
<feFlood flood-opacity="0" result="BackgroundImageFix"/>
<feColorMatrix in="SourceAlpha" type="matrix" values="0 0 0 0 0 0 0 0 0 0 0 0 0 0 0 0 0 0 127 0" result="hardAlpha"/>
<feOffset dx="0.3" dy="0.3"/>
<feGaussianBlur stdDeviation="0.9"/>
<feColorMatrix type="matrix" values="0 0 0 0 0 0 0 0 0 0 0 0 0 0 0 0 0 0 0.2 0"/>
<feBlend mode="normal" in2="BackgroundImageFix" result="effect1_dropShadow_2561_13836"/>
<feBlend mode="normal" in="SourceGraphic" in2="effect1_dropShadow_2561_13836" result="shape"/>
</filter>
<filter id="filter1_d_2561_13836" x="198.224" y="40.2744" width="31.8069" height="17.7561" filterUnits="userSpaceOnUse" color-interpolation-filters="sRGB">
<feFlood flood-opacity="0" result="BackgroundImageFix"/>
<feColorMatrix in="SourceAlpha" type="matrix" values="0 0 0 0 0 0 0 0 0 0 0 0 0 0 0 0 0 0 127 0" result="hardAlpha"/>
<feOffset dx="0.3" dy="0.3"/>
<feGaussianBlur stdDeviation="0.9"/>
<feColorMatrix type="matrix" values="0 0 0 0 0 0 0 0 0 0 0 0 0 0 0 0 0 0 0.4 0"/>
<feBlend mode="normal" in2="BackgroundImageFix" result="effect1_dropShadow_2561_13836"/>
<feBlend mode="normal" in="SourceGraphic" in2="effect1_dropShadow_2561_13836" result="shape"/>
</filter>
<clipPath id="clip0_2561_13836">
<rect width="228" height="56" fill="white"/>
</clipPath>
</defs>
</svg>
