<svg width="23" height="22" viewBox="0 0 23 22" fill="none" xmlns="http://www.w3.org/2000/svg">
<path d="M6.56258 5.87064L9.71696 1.73102C9.92637 1.45083 10.1751 1.2451 10.463 1.11385C10.751 0.98241 11.055 0.916687 11.3751 0.916687C11.6951 0.916687 11.9992 0.98241 12.2871 1.11385C12.5751 1.2451 12.8238 1.45083 13.0332 1.73102L16.1876 5.87064L21.0112 7.49931C21.472 7.64748 21.8313 7.90871 22.0892 8.28302C22.3472 8.65752 22.4762 9.0711 22.4762 9.52377C22.4762 9.7328 22.4457 9.94115 22.3846 10.1488C22.3236 10.3565 22.2232 10.5555 22.0836 10.7459L18.9427 15.1051L19.0593 19.7315C19.0788 20.3458 18.8763 20.8635 18.4518 21.2846C18.0275 21.706 17.533 21.9167 16.9684 21.9167C16.9518 21.9167 16.7566 21.8912 16.3827 21.8403L11.3751 20.4044L6.36746 21.8403C6.27023 21.8792 6.1699 21.9016 6.06646 21.9076C5.96301 21.9137 5.86812 21.9167 5.78179 21.9167C5.21187 21.9167 4.71604 21.706 4.29429 21.2846C3.87254 20.8635 3.67139 20.3458 3.69083 19.7315L3.8075 15.0759L0.684331 10.7459C0.54472 10.5547 0.444387 10.3549 0.383331 10.1465C0.322276 9.93784 0.291748 9.7293 0.291748 9.52085C0.291748 9.08083 0.419887 8.67162 0.676165 8.29323C0.932442 7.91484 1.29041 7.64651 1.75008 7.48823L6.56258 5.87064ZM7.64408 7.37827L2.31096 9.1551C2.19876 9.19244 2.12215 9.26914 2.08112 9.38523C2.0399 9.50112 2.05672 9.60767 2.13158 9.7049L5.56858 14.5556L5.44083 19.7674C5.43325 19.8946 5.47807 19.9955 5.57529 20.0701C5.67251 20.145 5.78101 20.1638 5.90079 20.1264L11.3751 18.5894L16.8494 20.1556C16.9692 20.1929 17.0777 20.1742 17.1749 20.0993C17.2721 20.0246 17.3169 19.9237 17.3093 19.7966L17.1816 14.5556L20.6186 9.76323C20.6934 9.66601 20.7103 9.55945 20.669 9.44356C20.628 9.32748 20.5514 9.25077 20.4392 9.21344L15.1061 7.37827L11.6557 2.8239C11.5882 2.72648 11.4947 2.67777 11.3751 2.67777C11.2555 2.67777 11.162 2.72648 11.0945 2.8239L7.64408 7.37827Z" fill="#1C1B1F"/>
</svg>
