<svg width="28" height="28" viewBox="0 0 28 28" fill="none" xmlns="http://www.w3.org/2000/svg">
<mask id="mask0_3416_3076" style="mask-type:alpha" maskUnits="userSpaceOnUse" x="0" y="0" width="28" height="28">
<rect width="28" height="28" fill="#D9D9D9"/>
</mask>
<g mask="url(#mask0_3416_3076)">
<path d="M9.33325 21L13.9999 17.4416L18.6666 21L16.9166 15.225L21.5833 11.9H15.8666L13.9999 5.83331L12.1333 11.9H6.41659L11.0833 15.225L9.33325 21ZM13.9999 25.6666C12.386 25.6666 10.8694 25.3604 9.44992 24.7479C8.03047 24.1354 6.79575 23.3041 5.74575 22.2541C4.69575 21.2041 3.8645 19.9694 3.252 18.55C2.6395 17.1305 2.33325 15.6139 2.33325 14C2.33325 12.3861 2.6395 10.8694 3.252 9.44998C3.8645 8.03054 4.69575 6.79581 5.74575 5.74581C6.79575 4.69581 8.03047 3.86456 9.44992 3.25206C10.8694 2.63956 12.386 2.33331 13.9999 2.33331C15.6138 2.33331 17.1305 2.63956 18.5499 3.25206C19.9694 3.86456 21.2041 4.69581 22.2541 5.74581C23.3041 6.79581 24.1353 8.03054 24.7478 9.44998C25.3603 10.8694 25.6666 12.3861 25.6666 14C25.6666 15.6139 25.3603 17.1305 24.7478 18.55C24.1353 19.9694 23.3041 21.2041 22.2541 22.2541C21.2041 23.3041 19.9694 24.1354 18.5499 24.7479C17.1305 25.3604 15.6138 25.6666 13.9999 25.6666Z" fill="#883BA9"/>
</g>
</svg>
