<svg width="28" height="28" viewBox="0 0 28 28" fill="none" xmlns="http://www.w3.org/2000/svg">
<mask id="mask0_3479_991" style="mask-type:alpha" maskUnits="userSpaceOnUse" x="0" y="0" width="28" height="28">
<rect width="28" height="28" fill="#D9D9D9"/>
</mask>
<g mask="url(#mask0_3479_991)">
<path d="M5.8625 24.5C5.22083 24.5 4.67153 24.2715 4.21458 23.8146C3.75764 23.3576 3.52917 22.8083 3.52917 22.1667V12.8917C3.08195 12.4833 2.73681 11.9583 2.49375 11.3167C2.2507 10.675 2.24583 9.975 2.47917 9.21667L3.70417 5.25C3.85972 4.74444 4.13681 4.32639 4.53542 3.99583C4.93403 3.66528 5.39583 3.5 5.92083 3.5H22.1375C22.6625 3.5 23.1194 3.66042 23.5083 3.98125C23.8972 4.30208 24.1792 4.725 24.3542 5.25L25.5792 9.21667C25.8125 9.975 25.8076 10.6653 25.5646 11.2875C25.3215 11.9097 24.9764 12.4444 24.5292 12.8917V22.1667C24.5292 22.8083 24.3007 23.3576 23.8438 23.8146C23.3868 24.2715 22.8375 24.5 22.1958 24.5H5.8625ZM16.5958 11.6667C17.1208 11.6667 17.5194 11.4868 17.7917 11.1271C18.0639 10.7674 18.1708 10.3639 18.1125 9.91667L17.4708 5.83333H15.1958V10.15C15.1958 10.5583 15.3319 10.9132 15.6042 11.2146C15.8764 11.516 16.2069 11.6667 16.5958 11.6667ZM11.3458 11.6667C11.7931 11.6667 12.1576 11.516 12.4396 11.2146C12.7215 10.9132 12.8625 10.5583 12.8625 10.15V5.83333H10.5875L9.94584 9.91667C9.86806 10.3833 9.97014 10.7917 10.2521 11.1417C10.534 11.4917 10.8986 11.6667 11.3458 11.6667ZM6.15417 11.6667C6.50417 11.6667 6.81042 11.5403 7.07292 11.2875C7.33542 11.0347 7.49583 10.7139 7.55417 10.325L8.19583 5.83333H5.92083L4.75417 9.74167C4.6375 10.1306 4.7007 10.5486 4.94375 10.9958C5.18681 11.4431 5.59028 11.6667 6.15417 11.6667ZM21.9042 11.6667C22.4681 11.6667 22.8764 11.4431 23.1292 10.9958C23.3819 10.5486 23.4403 10.1306 23.3042 9.74167L22.0792 5.83333H19.8625L20.5042 10.325C20.5625 10.7139 20.7229 11.0347 20.9854 11.2875C21.2479 11.5403 21.5542 11.6667 21.9042 11.6667Z" fill="#FBA704"/>
</g>
</svg>
