<svg width="28" height="28" viewBox="0 0 28 28" fill="none" xmlns="http://www.w3.org/2000/svg">
<mask id="mask0_3541_19642" style="mask-type:alpha" maskUnits="userSpaceOnUse" x="0" y="0" width="28" height="28">
<rect width="28" height="28" fill="#D9D9D9"/>
</mask>
<g mask="url(#mask0_3541_19642)">
<path d="M4.66439 25.6668C4.02272 25.6668 3.47342 25.4384 3.01647 24.9814C2.55953 24.5245 2.33105 23.9752 2.33105 23.3335V11.6668C2.33105 11.0252 2.55953 10.4759 3.01647 10.0189C3.47342 9.56197 4.02272 9.3335 4.66439 9.3335H23.3311C23.9727 9.3335 24.522 9.56197 24.979 10.0189C25.4359 10.4759 25.6644 11.0252 25.6644 11.6668V23.3335C25.6644 23.9752 25.4359 24.5245 24.979 24.9814C24.522 25.4384 23.9727 25.6668 23.3311 25.6668H4.66439ZM11.6644 22.1668L18.6644 17.5002L11.6644 12.8335V22.1668ZM4.66439 8.16683V5.8335H23.3311V8.16683H4.66439ZM8.16439 4.66683V2.3335H19.8311V4.66683H8.16439Z" fill="#177DB7"/>
</g>
</svg>
