<svg width="24" height="24" viewBox="0 0 24 24" fill="none" xmlns="http://www.w3.org/2000/svg">
<mask id="mask0_2913_7603" style="mask-type:alpha" maskUnits="userSpaceOnUse" x="0" y="0" width="24" height="24">
<rect width="24" height="24" fill="white"/>
</mask>
<g mask="url(#mask0_2913_7603)">
<path d="M11 5.00006V1.00006H13V5.00006H11ZM17.65 7.75006L16.275 6.37506L19.075 3.50006L20.475 4.92506L17.65 7.75006ZM19 13.0001V11.0001H23V13.0001H19ZM11 23.0001V19.0001H13V23.0001H11ZM6.35 7.70006L3.5 4.92506L4.925 3.52506L7.75 6.35006L6.35 7.70006ZM19.05 20.5001L16.275 17.6251L17.625 16.2751L20.475 19.0251L19.05 20.5001ZM1 13.0001V11.0001H5V13.0001H1ZM4.925 20.5001L3.525 19.0751L6.325 16.2751L7.05 16.9501L7.775 17.6501L4.925 20.5001ZM12 18.0001C10.3333 18.0001 8.91667 17.4167 7.75 16.2501C6.58333 15.0834 6 13.6667 6 12.0001C6 10.3334 6.58333 8.91673 7.75 7.75006C8.91667 6.58339 10.3333 6.00006 12 6.00006C13.6667 6.00006 15.0833 6.58339 16.25 7.75006C17.4167 8.91673 18 10.3334 18 12.0001C18 13.6667 17.4167 15.0834 16.25 16.2501C15.0833 17.4167 13.6667 18.0001 12 18.0001Z" fill="white"/>
</g>
</svg>
