<svg width="23" height="24" viewBox="0 0 23 24" fill="none" xmlns="http://www.w3.org/2000/svg">
<path d="M11.3771 23.0833C9.84412 23.0833 8.40319 22.7924 7.05433 22.2106C5.70547 21.6288 4.53219 20.8393 3.5345 19.842C2.5368 18.8447 1.74687 17.6719 1.16471 16.3236C0.582734 14.9753 0.291748 13.5348 0.291748 12.002C0.291748 10.469 0.582637 9.02807 1.16441 7.67921C1.74619 6.33035 2.53573 5.15707 3.53304 4.15938C4.53035 3.16168 5.70314 2.37175 7.05141 1.78958C8.39969 1.20761 9.84023 0.916626 11.373 0.916626C12.906 0.916626 14.347 1.20751 15.6958 1.78929C17.0447 2.37107 18.218 3.16061 19.2157 4.15792C20.2134 5.15522 21.0033 6.32801 21.5855 7.67629C22.1674 9.02457 22.4584 10.4651 22.4584 11.9979C22.4584 13.5309 22.1675 14.9718 21.5857 16.3207C21.004 17.6696 20.2144 18.8428 19.2171 19.8405C18.2198 20.8382 17.047 21.6282 15.6987 22.2103C14.3505 22.7923 12.9099 23.0833 11.3771 23.0833ZM7.99175 20.6916L9.70587 16.7877C8.97768 16.5306 8.34914 16.1321 7.82025 15.5921C7.29136 15.052 6.88789 14.4185 6.60983 13.6916L2.66096 15.325C3.11576 16.5694 3.80983 17.6583 4.74316 18.5916C5.6765 19.525 6.75936 20.225 7.99175 20.6916ZM6.60983 10.3083C6.87311 9.58146 7.27133 8.95292 7.8045 8.42267C8.33766 7.89242 8.96397 7.49643 9.68341 7.23471L8.05008 3.28583C6.79825 3.76008 5.70566 4.46388 4.77233 5.39721C3.839 6.33054 3.13521 7.42313 2.66096 8.67496L6.60983 10.3083ZM11.3725 15.3206C12.2941 15.3206 13.0784 14.998 13.7253 14.3528C14.3722 13.7077 14.6957 12.9243 14.6957 12.0026C14.6957 11.0809 14.3731 10.2966 13.728 9.64971C13.0828 9.00279 12.2994 8.67934 11.3777 8.67934C10.456 8.67934 9.67175 9.00192 9.02483 9.64709C8.37791 10.2923 8.05446 11.0757 8.05446 11.9973C8.05446 12.919 8.37704 13.7033 9.02221 14.3502C9.66737 14.9971 10.4508 15.3206 11.3725 15.3206ZM14.7584 20.6916C15.9834 20.225 17.0577 19.5298 17.9813 18.6062C18.9049 17.6826 19.6001 16.6083 20.0667 15.3833L16.1628 13.6692C15.916 14.3886 15.5249 15.0131 14.9894 15.5425C14.4539 16.072 13.8325 16.4796 13.1251 16.7652L14.7584 20.6916ZM16.1403 10.25L20.0667 8.61663C19.6001 7.39163 18.9049 6.31732 17.9813 5.39371C17.0577 4.4701 15.9834 3.77496 14.7584 3.30829L13.1251 7.27058C13.8175 7.53969 14.4217 7.9316 14.9378 8.44629C15.4538 8.96079 15.8547 9.56201 16.1403 10.25Z" fill="#1C1B1F"/>
</svg>
