<svg width="19" height="24" viewBox="0 0 19 24" fill="none" xmlns="http://www.w3.org/2000/svg">
<path d="M8.15 18.3382L14.3377 12.1502L13.0725 10.885L8.13192 15.8252L5.65975 13.3531L4.41229 14.6002L8.15 18.3382ZM2.73404 23.0834C2.14468 23.0834 1.64583 22.8792 1.2375 22.4709C0.829167 22.0625 0.625 21.5637 0.625 20.9743V3.02573C0.625 2.43637 0.829167 1.93752 1.2375 1.52919C1.64583 1.12085 2.14468 0.916687 2.73404 0.916687H12L18.125 7.04169V20.9743C18.125 21.5637 17.9208 22.0625 17.5125 22.4709C17.1042 22.8792 16.6053 23.0834 16.016 23.0834H2.73404ZM11.125 7.91669V2.66669H2.73404C2.64421 2.66669 2.56196 2.70412 2.48729 2.77898C2.41243 2.85364 2.375 2.9359 2.375 3.02573V20.9743C2.375 21.0641 2.41243 21.1464 2.48729 21.2211C2.56196 21.2959 2.64421 21.3334 2.73404 21.3334H16.016C16.1058 21.3334 16.188 21.2959 16.2627 21.2211C16.3376 21.1464 16.375 21.0641 16.375 20.9743V7.91669H11.125Z" fill="#1C1B1F"/>
</svg>
