<svg width="36" height="36" viewBox="0 0 36 36" fill="none" xmlns="http://www.w3.org/2000/svg">
<path d="M24.0013 14.625H31.8468C32.588 14.625 33.1889 15.1992 33.1889 15.9075V22.7364C33.1889 25.3396 30.9805 27.4499 28.2564 27.4499H28.2331C25.509 27.4503 23.3003 25.3403 23.2999 22.7371V15.2953C23.2999 14.9251 23.614 14.625 24.0013 14.625Z" fill="#5059C9"/>
<path d="M29.3026 13.2747C31.0581 13.2747 32.4812 11.9147 32.4812 10.2372C32.4812 8.55963 31.0581 7.19971 29.3026 7.19971C27.5471 7.19971 26.124 8.55963 26.124 10.2372C26.124 11.9147 27.5471 13.2747 29.3026 13.2747Z" fill="#5059C9"/>
<path d="M19.4097 13.2749C21.9454 13.2749 24.0009 11.3106 24.0009 8.88747C24.0009 6.46434 21.9454 4.5 19.4097 4.5C16.874 4.5 14.8184 6.46434 14.8184 8.88747C14.8184 11.3106 16.874 13.2749 19.4097 13.2749Z" fill="#7B83EB"/>
<path d="M25.5324 14.625H12.5821C11.8497 14.6423 11.2704 15.2231 11.2874 15.923V23.7118C11.1851 27.9118 14.6623 31.3971 19.0572 31.4999C23.4522 31.3971 26.9294 27.9118 26.8271 23.7118V15.923C26.8441 15.2231 26.2647 14.6423 25.5324 14.625Z" fill="#7B83EB"/>
<path opacity="0.1" d="M19.7647 14.625V25.5397C19.7612 26.0402 19.4438 26.4898 18.9594 26.6804C18.8052 26.7427 18.6395 26.7749 18.4721 26.7749H11.91C11.8182 26.5522 11.7335 26.3294 11.6628 26.0999C11.4156 25.3254 11.2894 24.5202 11.2885 23.7104V15.921C11.2715 15.2222 11.8499 14.6423 12.5811 14.625H19.7647Z" fill="black"/>
<path opacity="0.2" d="M19.0583 14.625V26.2147C19.0583 26.3747 19.0247 26.533 18.9594 26.6804C18.76 27.1432 18.2895 27.4466 17.7657 27.4499H12.242C12.122 27.2272 12.0089 27.0044 11.91 26.7749C11.8112 26.5454 11.7335 26.3294 11.6628 26.0999C11.4156 25.3254 11.2894 24.5202 11.2885 23.7104V15.921C11.2715 15.2222 11.8499 14.6423 12.5811 14.625H19.0583Z" fill="black"/>
<path opacity="0.2" d="M19.0583 14.625V24.8647C19.0529 25.5447 18.4774 26.0948 17.7657 26.0999H11.6628C11.4156 25.3254 11.2894 24.5202 11.2885 23.7104V15.921C11.2715 15.2222 11.8499 14.6423 12.5811 14.625H19.0583Z" fill="black"/>
<path opacity="0.2" d="M18.352 14.625V24.8647C18.3466 25.5447 17.771 26.0948 17.0593 26.0999H11.6628C11.4156 25.3254 11.2894 24.5202 11.2885 23.7104V15.921C11.2715 15.2222 11.8499 14.6423 12.5811 14.625H18.352Z" fill="black"/>
<path opacity="0.1" d="M19.7587 11.1355V13.2617C19.6387 13.2685 19.5256 13.2752 19.4056 13.2752C19.2855 13.2752 19.1725 13.2685 19.0524 13.2617C18.8139 13.2466 18.5775 13.2105 18.346 13.1537C16.9157 12.83 15.7339 11.8714 15.1674 10.5753C15.07 10.3576 14.9943 10.1316 14.9414 9.90027H18.4661C19.1789 9.90285 19.756 10.4544 19.7587 11.1355Z" fill="black"/>
<path opacity="0.2" d="M19.0605 11.8103V13.2615C18.822 13.2464 18.5856 13.2103 18.3541 13.1536C16.9238 12.8299 15.742 11.8712 15.1755 10.5751H17.7678C18.4806 10.5777 19.0578 11.1292 19.0605 11.8103Z" fill="black"/>
<path opacity="0.2" d="M19.0605 11.8103V13.2615C18.822 13.2464 18.5856 13.2103 18.3541 13.1536C16.9238 12.8299 15.742 11.8712 15.1755 10.5751H17.7678C18.4806 10.5777 19.0578 11.1292 19.0605 11.8103Z" fill="black"/>
<path opacity="0.2" d="M18.3541 11.8103V13.1535C16.9238 12.8299 15.742 11.8712 15.1755 10.5751H17.0615C17.7743 10.5777 18.3514 11.1292 18.3541 11.8103Z" fill="black"/>
<path d="M4.10724 10.5751H17.0575C17.7726 10.5751 18.3522 11.129 18.3522 11.8123V24.1877C18.3522 24.871 17.7725 25.4249 17.0575 25.4249H4.10724C3.39217 25.4249 2.8125 24.871 2.8125 24.1877V11.8123C2.8125 11.129 3.39218 10.5751 4.10724 10.5751Z" fill="url(#paint0_linear_3067_2402)"/>
<path d="M13.9838 15.2851H11.395V22.0215H9.74572V15.2851H7.16895V13.9783H13.9838V15.2851Z" fill="white"/>
<defs>
<linearGradient id="paint0_linear_3067_2402" x1="5.51207" y1="9.60829" x2="14.9778" y2="26.7641" gradientUnits="userSpaceOnUse">
<stop stop-color="#5A62C3"/>
<stop offset="0.5" stop-color="#4D55BD"/>
<stop offset="1" stop-color="#3940AB"/>
</linearGradient>
</defs>
</svg>
