<svg width="20" height="6" viewBox="0 0 20 6" fill="none" xmlns="http://www.w3.org/2000/svg">
<path d="M19.3332 3.00004C19.3332 3.64171 19.1047 4.19101 18.6478 4.64796C18.1908 5.1049 17.6415 5.33337 16.9998 5.33337C16.3582 5.33337 15.8089 5.1049 15.3519 4.64796C14.895 4.19101 14.6665 3.64171 14.6665 3.00004C14.6665 2.35837 14.895 1.80907 15.3519 1.35212C15.8089 0.89518 16.3582 0.666708 16.9998 0.666708C17.6415 0.666708 18.1908 0.89518 18.6478 1.35212C19.1047 1.80907 19.3332 2.35837 19.3332 3.00004ZM12.3332 3.00004C12.3332 3.64171 12.1047 4.19101 11.6478 4.64796C11.1908 5.1049 10.6415 5.33337 9.99984 5.33337C9.35817 5.33337 8.80886 5.1049 8.35192 4.64796C7.89498 4.19101 7.6665 3.64171 7.6665 3.00004C7.6665 2.35837 7.89498 1.80907 8.35192 1.35212C8.80886 0.89518 9.35817 0.666708 9.99984 0.666708C10.6415 0.666708 11.1908 0.89518 11.6478 1.35212C12.1047 1.80907 12.3332 2.35837 12.3332 3.00004ZM5.33317 3.00004C5.33317 3.64171 5.1047 4.19101 4.64775 4.64796C4.19081 5.1049 3.6415 5.33337 2.99984 5.33337C2.35817 5.33337 1.80887 5.1049 1.35192 4.64796C0.894976 4.19101 0.666504 3.64171 0.666504 3.00004C0.666504 2.35837 0.894976 1.80907 1.35192 1.35212C1.80887 0.89518 2.35817 0.666708 2.99984 0.666708C3.6415 0.666708 4.19081 0.89518 4.64775 1.35212C5.1047 1.80907 5.33317 2.35837 5.33317 3.00004Z" fill="#7F7F7F"/>
</svg>
