<svg width="15" height="14" viewBox="0 0 15 14" fill="none" xmlns="http://www.w3.org/2000/svg">
<path d="M11.5926 0.269287H13.8416L8.92823 5.88495L14.7084 13.5266H10.1826L6.63777 8.89198L2.58171 13.5266H0.331369L5.5867 7.52002L0.041748 0.269287H4.68249L7.88668 4.50551L11.5926 0.269287ZM10.8033 12.1805H12.0495L4.00534 1.54471H2.66806L10.8033 12.1805Z" fill="#1A1A1A"/>
<path d="M11.5926 0.269287H13.8416L8.92823 5.88495L14.7084 13.5266H10.1826L6.63777 8.89198L2.58171 13.5266H0.331369L5.5867 7.52002L0.041748 0.269287H4.68249L7.88668 4.50551L11.5926 0.269287ZM10.8033 12.1805H12.0495L4.00534 1.54471H2.66806L10.8033 12.1805Z" fill="black" fill-opacity="0.2"/>
<path d="M11.5926 0.269287H13.8416L8.92823 5.88495L14.7084 13.5266H10.1826L6.63777 8.89198L2.58171 13.5266H0.331369L5.5867 7.52002L0.041748 0.269287H4.68249L7.88668 4.50551L11.5926 0.269287ZM10.8033 12.1805H12.0495L4.00534 1.54471H2.66806L10.8033 12.1805Z" fill="black" fill-opacity="0.2"/>
<path d="M11.5926 0.269287H13.8416L8.92823 5.88495L14.7084 13.5266H10.1826L6.63777 8.89198L2.58171 13.5266H0.331369L5.5867 7.52002L0.041748 0.269287H4.68249L7.88668 4.50551L11.5926 0.269287ZM10.8033 12.1805H12.0495L4.00534 1.54471H2.66806L10.8033 12.1805Z" fill="black" fill-opacity="0.2"/>
<path d="M11.5926 0.269287H13.8416L8.92823 5.88495L14.7084 13.5266H10.1826L6.63777 8.89198L2.58171 13.5266H0.331369L5.5867 7.52002L0.041748 0.269287H4.68249L7.88668 4.50551L11.5926 0.269287ZM10.8033 12.1805H12.0495L4.00534 1.54471H2.66806L10.8033 12.1805Z" fill="black" fill-opacity="0.2"/>
<path d="M11.5926 0.269287H13.8416L8.92823 5.88495L14.7084 13.5266H10.1826L6.63777 8.89198L2.58171 13.5266H0.331369L5.5867 7.52002L0.041748 0.269287H4.68249L7.88668 4.50551L11.5926 0.269287ZM10.8033 12.1805H12.0495L4.00534 1.54471H2.66806L10.8033 12.1805Z" fill="black" fill-opacity="0.2"/>
<path d="M11.5926 0.269287H13.8416L8.92823 5.88495L14.7084 13.5266H10.1826L6.63777 8.89198L2.58171 13.5266H0.331369L5.5867 7.52002L0.041748 0.269287H4.68249L7.88668 4.50551L11.5926 0.269287ZM10.8033 12.1805H12.0495L4.00534 1.54471H2.66806L10.8033 12.1805Z" fill="black" fill-opacity="0.2"/>
<path d="M11.5926 0.269287H13.8416L8.92823 5.88495L14.7084 13.5266H10.1826L6.63777 8.89198L2.58171 13.5266H0.331369L5.5867 7.52002L0.041748 0.269287H4.68249L7.88668 4.50551L11.5926 0.269287ZM10.8033 12.1805H12.0495L4.00534 1.54471H2.66806L10.8033 12.1805Z" fill="black" fill-opacity="0.2"/>
</svg>
