<svg width="25" height="24" viewBox="0 0 25 24" fill="none" xmlns="http://www.w3.org/2000/svg">
<path d="M18.9458 10.3958C19.218 10.2208 19.3541 9.97776 19.3541 9.66665C19.3541 9.35554 19.218 9.11248 18.9458 8.93748L13.2583 5.29165C12.9666 5.0972 12.6701 5.08262 12.3687 5.2479C12.0673 5.41317 11.9166 5.67081 11.9166 6.02081V13.3125C11.9166 13.6625 12.0673 13.9201 12.3687 14.0854C12.6701 14.2507 12.9666 14.2361 13.2583 14.0416L18.9458 10.3958ZM7.83325 19C7.19159 19 6.64228 18.7715 6.18534 18.3146C5.72839 17.8576 5.49992 17.3083 5.49992 16.6666V2.66665C5.49992 2.02498 5.72839 1.47567 6.18534 1.01873C6.64228 0.561785 7.19159 0.333313 7.83325 0.333313H21.8333C22.4749 0.333313 23.0242 0.561785 23.4812 1.01873C23.9381 1.47567 24.1666 2.02498 24.1666 2.66665V16.6666C24.1666 17.3083 23.9381 17.8576 23.4812 18.3146C23.0242 18.7715 22.4749 19 21.8333 19H7.83325ZM3.16659 23.6666C2.52492 23.6666 1.97561 23.4382 1.51867 22.9812C1.06172 22.5243 0.833252 21.975 0.833252 21.3333V6.16665C0.833252 5.83609 0.945058 5.55901 1.16867 5.3354C1.39228 5.11179 1.66936 4.99998 1.99992 4.99998C2.33047 4.99998 2.60756 5.11179 2.83117 5.3354C3.05478 5.55901 3.16659 5.83609 3.16659 6.16665V21.3333H18.3333C18.6638 21.3333 18.9409 21.4451 19.1645 21.6687C19.3881 21.8923 19.4999 22.1694 19.4999 22.5C19.4999 22.8305 19.3881 23.1076 19.1645 23.3312C18.9409 23.5548 18.6638 23.6666 18.3333 23.6666H3.16659Z" fill="#F83E3E" fill-opacity="0.97"/>
</svg>
