<svg width="14" height="22" viewBox="0 0 14 22" fill="none" xmlns="http://www.w3.org/2000/svg">
<path d="M2.99983 21.9995C2.7165 21.9995 2.479 21.9037 2.28733 21.712C2.09566 21.5203 1.99983 21.2828 1.99983 20.9995C1.99983 20.7162 2.09566 20.4787 2.28733 20.287C2.479 20.0953 2.7165 19.9995 2.99983 19.9995C3.28316 19.9995 3.52066 20.0953 3.71233 20.287C3.904 20.4787 3.99983 20.7162 3.99983 20.9995C3.99983 21.2828 3.904 21.5203 3.71233 21.712C3.52066 21.9037 3.28316 21.9995 2.99983 21.9995ZM6.99983 21.9995C6.7165 21.9995 6.479 21.9037 6.28733 21.712C6.09566 21.5203 5.99983 21.2828 5.99983 20.9995C5.99983 20.7162 6.09566 20.4787 6.28733 20.287C6.479 20.0953 6.7165 19.9995 6.99983 19.9995C7.28316 19.9995 7.52066 20.0953 7.71233 20.287C7.904 20.4787 7.99983 20.7162 7.99983 20.9995C7.99983 21.2828 7.904 21.5203 7.71233 21.712C7.52066 21.9037 7.28316 21.9995 6.99983 21.9995ZM10.9998 21.9995C10.7165 21.9995 10.479 21.9037 10.2873 21.712C10.0957 21.5203 9.99983 21.2828 9.99983 20.9995C9.99983 20.7162 10.0957 20.4787 10.2873 20.287C10.479 20.0953 10.7165 19.9995 10.9998 19.9995C11.2832 19.9995 11.5207 20.0953 11.7123 20.287C11.904 20.4787 11.9998 20.7162 11.9998 20.9995C11.9998 21.2828 11.904 21.5203 11.7123 21.712C11.5207 21.9037 11.2832 21.9995 10.9998 21.9995ZM6.99983 11.9995C6.1665 11.9995 5.45816 11.7078 4.87483 11.1245C4.2915 10.5412 3.99983 9.83285 3.99983 8.99951V2.99951C3.99983 2.16618 4.2915 1.45785 4.87483 0.874512C5.45816 0.291178 6.1665 -0.000488281 6.99983 -0.000488281C7.83316 -0.000488281 8.5415 0.291178 9.12483 0.874512C9.70816 1.45785 9.99983 2.16618 9.99983 2.99951V8.99951C9.99983 9.83285 9.70816 10.5412 9.12483 11.1245C8.5415 11.7078 7.83316 11.9995 6.99983 11.9995ZM5.99983 17.9995V15.8995C4.4665 15.6995 3.154 15.0578 2.06233 13.9745C0.970664 12.8912 0.308164 11.5745 0.074831 10.0245C0.0414976 9.74118 0.116498 9.49951 0.299831 9.29951C0.483164 9.09951 0.716498 8.99951 0.999831 8.99951C1.28316 8.99951 1.52066 9.09535 1.71233 9.28701C1.904 9.47868 2.03316 9.71618 2.09983 9.99951C2.33316 11.1662 2.91233 12.1245 3.83733 12.8745C4.76233 13.6245 5.8165 13.9995 6.99983 13.9995C8.19983 13.9995 9.25816 13.6203 10.1748 12.862C11.0915 12.1037 11.6665 11.1495 11.8998 9.99951C11.9665 9.71618 12.0957 9.47868 12.2873 9.28701C12.479 9.09535 12.7165 8.99951 12.9998 8.99951C13.2832 8.99951 13.5165 9.09951 13.6998 9.29951C13.8832 9.49951 13.9582 9.74118 13.9248 10.0245C13.6915 11.5412 13.0332 12.8495 11.9498 13.9495C10.8665 15.0495 9.54983 15.6995 7.99983 15.8995V17.9995C7.99983 18.2828 7.904 18.5203 7.71233 18.712C7.52066 18.9037 7.28316 18.9995 6.99983 18.9995C6.7165 18.9995 6.479 18.9037 6.28733 18.712C6.09566 18.5203 5.99983 18.2828 5.99983 17.9995ZM6.99983 9.99951C7.28316 9.99951 7.52066 9.90368 7.71233 9.71201C7.904 9.52035 7.99983 9.28285 7.99983 8.99951V2.99951C7.99983 2.71618 7.904 2.47868 7.71233 2.28701C7.52066 2.09535 7.28316 1.99951 6.99983 1.99951C6.7165 1.99951 6.479 2.09535 6.28733 2.28701C6.09566 2.47868 5.99983 2.71618 5.99983 2.99951V8.99951C5.99983 9.28285 6.09566 9.52035 6.28733 9.71201C6.479 9.90368 6.7165 9.99951 6.99983 9.99951Z" fill="#7F7F7F"/>
</svg>
