<svg width="22" height="24" viewBox="0 0 22 24" fill="none" xmlns="http://www.w3.org/2000/svg">
<path d="M2.83333 23.6663C2.19167 23.6663 1.64236 23.4379 1.18542 22.9809C0.728472 22.524 0.5 21.9747 0.5 21.333V4.99967C0.5 4.35801 0.728472 3.8087 1.18542 3.35176C1.64236 2.89481 2.19167 2.66634 2.83333 2.66634H4V0.333008H6.33333V2.66634H15.6667V0.333008H18V2.66634H19.1667C19.8083 2.66634 20.3576 2.89481 20.8146 3.35176C21.2715 3.8087 21.5 4.35801 21.5 4.99967V21.333C21.5 21.9747 21.2715 22.524 20.8146 22.9809C20.3576 23.4379 19.8083 23.6663 19.1667 23.6663H2.83333ZM2.83333 21.333H19.1667V9.66634H2.83333V21.333ZM2.83333 7.33301H19.1667V4.99967H2.83333V7.33301ZM11 14.333C10.6694 14.333 10.3924 14.2212 10.1687 13.9976C9.94514 13.774 9.83333 13.4969 9.83333 13.1663C9.83333 12.8358 9.94514 12.5587 10.1687 12.3351C10.3924 12.1115 10.6694 11.9997 11 11.9997C11.3306 11.9997 11.6076 12.1115 11.8313 12.3351C12.0549 12.5587 12.1667 12.8358 12.1667 13.1663C12.1667 13.4969 12.0549 13.774 11.8313 13.9976C11.6076 14.2212 11.3306 14.333 11 14.333ZM6.33333 14.333C6.00278 14.333 5.72569 14.2212 5.50208 13.9976C5.27847 13.774 5.16667 13.4969 5.16667 13.1663C5.16667 12.8358 5.27847 12.5587 5.50208 12.3351C5.72569 12.1115 6.00278 11.9997 6.33333 11.9997C6.66389 11.9997 6.94097 12.1115 7.16458 12.3351C7.38819 12.5587 7.5 12.8358 7.5 13.1663C7.5 13.4969 7.38819 13.774 7.16458 13.9976C6.94097 14.2212 6.66389 14.333 6.33333 14.333ZM15.6667 14.333C15.3361 14.333 15.059 14.2212 14.8354 13.9976C14.6118 13.774 14.5 13.4969 14.5 13.1663C14.5 12.8358 14.6118 12.5587 14.8354 12.3351C15.059 12.1115 15.3361 11.9997 15.6667 11.9997C15.9972 11.9997 16.2743 12.1115 16.4979 12.3351C16.7215 12.5587 16.8333 12.8358 16.8333 13.1663C16.8333 13.4969 16.7215 13.774 16.4979 13.9976C16.2743 14.2212 15.9972 14.333 15.6667 14.333ZM11 18.9997C10.6694 18.9997 10.3924 18.8879 10.1687 18.6643C9.94514 18.4406 9.83333 18.1636 9.83333 17.833C9.83333 17.5025 9.94514 17.2254 10.1687 17.0018C10.3924 16.7781 10.6694 16.6663 11 16.6663C11.3306 16.6663 11.6076 16.7781 11.8313 17.0018C12.0549 17.2254 12.1667 17.5025 12.1667 17.833C12.1667 18.1636 12.0549 18.4406 11.8313 18.6643C11.6076 18.8879 11.3306 18.9997 11 18.9997ZM6.33333 18.9997C6.00278 18.9997 5.72569 18.8879 5.50208 18.6643C5.27847 18.4406 5.16667 18.1636 5.16667 17.833C5.16667 17.5025 5.27847 17.2254 5.50208 17.0018C5.72569 16.7781 6.00278 16.6663 6.33333 16.6663C6.66389 16.6663 6.94097 16.7781 7.16458 17.0018C7.38819 17.2254 7.5 17.5025 7.5 17.833C7.5 18.1636 7.38819 18.4406 7.16458 18.6643C6.94097 18.8879 6.66389 18.9997 6.33333 18.9997ZM15.6667 18.9997C15.3361 18.9997 15.059 18.8879 14.8354 18.6643C14.6118 18.4406 14.5 18.1636 14.5 17.833C14.5 17.5025 14.6118 17.2254 14.8354 17.0018C15.059 16.7781 15.3361 16.6663 15.6667 16.6663C15.9972 16.6663 16.2743 16.7781 16.4979 17.0018C16.7215 17.2254 16.8333 17.5025 16.8333 17.833C16.8333 18.1636 16.7215 18.4406 16.4979 18.6643C16.2743 18.8879 15.9972 18.9997 15.6667 18.9997Z" fill="white"/>
</svg>
