<svg width="21" height="14" viewBox="0 0 21 14" fill="none" xmlns="http://www.w3.org/2000/svg">
<path d="M0 14V11.6667H7V14H0ZM0 8.16667V5.83333H14V8.16667H0ZM0 2.33333V0H21V2.33333H0Z" fill="#FFFFFF"/>
<path d="M0 14V11.6667H7V14H0ZM0 8.16667V5.83333H14V8.16667H0ZM0 2.33333V0H21V2.33333H0Z" fill="#FFFFFF" fill-opacity="0.2"/>
<path d="M0 14V11.6667H7V14H0ZM0 8.16667V5.83333H14V8.16667H0ZM0 2.33333V0H21V2.33333H0Z" fill="#FFFFFF" fill-opacity="0.2"/>
<path d="M0 14V11.6667H7V14H0ZM0 8.16667V5.83333H14V8.16667H0ZM0 2.33333V0H21V2.33333H0Z" fill="#FFFFFF" fill-opacity="0.2"/>
<path d="M0 14V11.6667H7V14H0ZM0 8.16667V5.83333H14V8.16667H0ZM0 2.33333V0H21V2.33333H0Z" fill="#FFFFFF" fill-opacity="0.2"/>
<path d="M0 14V11.6667H7V14H0ZM0 8.16667V5.83333H14V8.16667H0ZM0 2.33333V0H21V2.33333H0Z" fill="#FFFFFF" fill-opacity="0.2"/>
<path d="M0 14V11.6667H7V14H0ZM0 8.16667V5.83333H14V8.16667H0ZM0 2.33333V0H21V2.33333H0Z" fill="#FFFFFF" fill-opacity="0.2"/>
<path d="M0 14V11.6667H7V14H0ZM0 8.16667V5.83333H14V8.16667H0ZM0 2.33333V0H21V2.33333H0Z" fill="#FFFFFF" fill-opacity="0.2"/>
</svg>
