<svg width="23" height="23" viewBox="0 0 23 23" fill="none" xmlns="http://www.w3.org/2000/svg">
<path d="M15.6083 12.3493L10.65 7.39102C10.5333 7.27435 10.4507 7.14796 10.4021 7.01185C10.3535 6.87574 10.3292 6.7299 10.3292 6.57435C10.3292 6.41879 10.3535 6.27296 10.4021 6.13685C10.4507 6.00074 10.5333 5.87435 10.65 5.75768L15.6083 0.799349C15.725 0.682682 15.8514 0.600043 15.9875 0.551432C16.1236 0.502821 16.2694 0.478516 16.425 0.478516C16.5806 0.478516 16.7264 0.502821 16.8625 0.551432C16.9986 0.600043 17.125 0.682682 17.2417 0.799349L22.2 5.75768C22.3167 5.87435 22.3993 6.00074 22.4479 6.13685C22.4965 6.27296 22.5208 6.41879 22.5208 6.57435C22.5208 6.7299 22.4965 6.87574 22.4479 7.01185C22.3993 7.14796 22.3167 7.27435 22.2 7.39102L17.2417 12.3493C17.125 12.466 16.9986 12.5487 16.8625 12.5973C16.7264 12.6459 16.5806 12.6702 16.425 12.6702C16.2694 12.6702 16.1236 12.6459 15.9875 12.5973C15.8514 12.5487 15.725 12.466 15.6083 12.3493ZM0.5 9.66602V2.66602C0.5 2.33546 0.611806 2.05838 0.835417 1.83477C1.05903 1.61115 1.33611 1.49935 1.66667 1.49935H8.66667C8.99722 1.49935 9.27431 1.61115 9.49792 1.83477C9.72153 2.05838 9.83333 2.33546 9.83333 2.66602V9.66602C9.83333 9.99657 9.72153 10.2737 9.49792 10.4973C9.27431 10.7209 8.99722 10.8327 8.66667 10.8327H1.66667C1.33611 10.8327 1.05903 10.7209 0.835417 10.4973C0.611806 10.2737 0.5 9.99657 0.5 9.66602ZM12.1667 21.3327V14.3327C12.1667 14.0021 12.2785 13.725 12.5021 13.5014C12.7257 13.2778 13.0028 13.166 13.3333 13.166H20.3333C20.6639 13.166 20.941 13.2778 21.1646 13.5014C21.3882 13.725 21.5 14.0021 21.5 14.3327V21.3327C21.5 21.6632 21.3882 21.9403 21.1646 22.1639C20.941 22.3875 20.6639 22.4993 20.3333 22.4993H13.3333C13.0028 22.4993 12.7257 22.3875 12.5021 22.1639C12.2785 21.9403 12.1667 21.6632 12.1667 21.3327ZM0.5 21.3327V14.3327C0.5 14.0021 0.611806 13.725 0.835417 13.5014C1.05903 13.2778 1.33611 13.166 1.66667 13.166H8.66667C8.99722 13.166 9.27431 13.2778 9.49792 13.5014C9.72153 13.725 9.83333 14.0021 9.83333 14.3327V21.3327C9.83333 21.6632 9.72153 21.9403 9.49792 22.1639C9.27431 22.3875 8.99722 22.4993 8.66667 22.4993H1.66667C1.33611 22.4993 1.05903 22.3875 0.835417 22.1639C0.611806 21.9403 0.5 21.6632 0.5 21.3327ZM2.83333 8.49935H7.5V3.83268H2.83333V8.49935ZM16.4542 9.89935L19.75 6.60352L16.4542 3.30768L13.1583 6.60352L16.4542 9.89935ZM14.5 20.166H19.1667V15.4993H14.5V20.166ZM2.83333 20.166H7.5V15.4993H2.83333V20.166Z" fill="#0078D4"/>
</svg>
