<svg width="24" height="23" viewBox="0 0 24 23" fill="none" xmlns="http://www.w3.org/2000/svg">
<path d="M2.66659 22.5C2.02492 22.5 1.47561 22.2715 1.01867 21.8146C0.561724 21.3576 0.333252 20.8083 0.333252 20.1666V7.33331C0.333252 6.69165 0.561724 6.14234 1.01867 5.6854C1.47561 5.22845 2.02492 4.99998 2.66659 4.99998H7.33325V2.66665C7.33325 2.02498 7.56172 1.47567 8.01867 1.01873C8.47561 0.561785 9.02492 0.333313 9.66659 0.333313H14.3333C14.9749 0.333313 15.5242 0.561785 15.9812 1.01873C16.4381 1.47567 16.6666 2.02498 16.6666 2.66665V4.99998H21.3333C21.9749 4.99998 22.5242 5.22845 22.9812 5.6854C23.4381 6.14234 23.6666 6.69165 23.6666 7.33331V20.1666C23.6666 20.8083 23.4381 21.3576 22.9812 21.8146C22.5242 22.2715 21.9749 22.5 21.3333 22.5H2.66659ZM9.66659 4.99998H14.3333V2.66665H9.66659V4.99998Z" fill="#883BA9"/>
</svg>
